G04 #@! TF.GenerationSoftware,KiCad,Pcbnew,8.0.5*
G04 #@! TF.CreationDate,2024-11-30T21:41:35+05:30*
G04 #@! TF.ProjectId,SNSRTG401V30,534e5352-5447-4343-9031-5633302e6b69,3.0*
G04 #@! TF.SameCoordinates,Original*
G04 #@! TF.FileFunction,Legend,Top*
G04 #@! TF.FilePolarity,Positive*
%FSLAX46Y46*%
G04 Gerber Fmt 4.6, Leading zero omitted, Abs format (unit mm)*
G04 Created by KiCad (PCBNEW 8.0.5) date 2024-11-30 21:41:35*
%MOMM*%
%LPD*%
G01*
G04 APERTURE LIST*
G04 Aperture macros list*
%AMRoundRect*
0 Rectangle with rounded corners*
0 $1 Rounding radius*
0 $2 $3 $4 $5 $6 $7 $8 $9 X,Y pos of 4 corners*
0 Add a 4 corners polygon primitive as box body*
4,1,4,$2,$3,$4,$5,$6,$7,$8,$9,$2,$3,0*
0 Add four circle primitives for the rounded corners*
1,1,$1+$1,$2,$3*
1,1,$1+$1,$4,$5*
1,1,$1+$1,$6,$7*
1,1,$1+$1,$8,$9*
0 Add four rect primitives between the rounded corners*
20,1,$1+$1,$2,$3,$4,$5,0*
20,1,$1+$1,$4,$5,$6,$7,0*
20,1,$1+$1,$6,$7,$8,$9,0*
20,1,$1+$1,$8,$9,$2,$3,0*%
%AMRotRect*
0 Rectangle, with rotation*
0 The origin of the aperture is its center*
0 $1 length*
0 $2 width*
0 $3 Rotation angle, in degrees counterclockwise*
0 Add horizontal line*
21,1,$1,$2,0,0,$3*%
%AMFreePoly0*
4,1,59,0.202894,0.210017,0.397992,0.150835,0.577793,0.054728,0.735390,-0.074609,0.864728,-0.232207,0.960835,-0.412008,1.020017,-0.607106,1.040001,-0.810000,1.020017,-1.012894,0.960835,-1.207992,0.864728,-1.387793,0.735391,-1.545390,0.577793,-1.674728,0.397992,-1.770835,0.202894,-1.830017,0.000000,-1.850001,-0.202894,-1.830017,-0.397992,-1.770835,-0.577793,-1.674728,-0.735391,-1.545390,
-0.864728,-1.387793,-0.960835,-1.207992,-1.020017,-1.012894,-1.040001,-0.810000,-0.585005,-0.809999,-0.565071,-0.961410,-0.506629,-1.102503,-0.413661,-1.223660,-0.292503,-1.316629,-0.151410,-1.375071,0.000000,-1.395004,0.151410,-1.375071,0.292503,-1.316629,0.413661,-1.223660,0.506629,-1.102503,0.565071,-0.961410,0.585005,-0.809999,0.565071,-0.658590,0.506629,-0.517498,0.413661,-0.396338,
0.292503,-0.303371,0.151410,-0.244929,0.000000,-0.224994,-0.151410,-0.244929,-0.292502,-0.303371,-0.413661,-0.396338,-0.506629,-0.517498,-0.565071,-0.658590,-0.585005,-0.809999,-1.040001,-0.810000,-1.020017,-0.607106,-0.960835,-0.412008,-0.864728,-0.232207,-0.735390,-0.074609,-0.577793,0.054728,-0.397992,0.150835,-0.202894,0.210017,0.000000,0.230001,0.202894,0.210017,0.202894,0.210017,
$1*%
G04 Aperture macros list end*
%ADD10C,0.100000*%
%ADD11C,0.080000*%
%ADD12C,0.090000*%
%ADD13C,0.120000*%
%ADD14RoundRect,0.237500X0.250000X0.237500X-0.250000X0.237500X-0.250000X-0.237500X0.250000X-0.237500X0*%
%ADD15R,0.850000X0.850000*%
%ADD16O,0.850000X0.850000*%
%ADD17C,3.200000*%
%ADD18RoundRect,0.237500X0.300000X0.237500X-0.300000X0.237500X-0.300000X-0.237500X0.300000X-0.237500X0*%
%ADD19RoundRect,0.237500X0.237500X-0.300000X0.237500X0.300000X-0.237500X0.300000X-0.237500X-0.300000X0*%
%ADD20RoundRect,0.237500X0.237500X-0.250000X0.237500X0.250000X-0.237500X0.250000X-0.237500X-0.250000X0*%
%ADD21RoundRect,0.237500X-0.287500X-0.237500X0.287500X-0.237500X0.287500X0.237500X-0.287500X0.237500X0*%
%ADD22RoundRect,0.237500X-0.237500X0.250000X-0.237500X-0.250000X0.237500X-0.250000X0.237500X0.250000X0*%
%ADD23R,1.000000X1.000000*%
%ADD24O,1.000000X1.000000*%
%ADD25RoundRect,0.250000X-0.450000X-0.425000X0.450000X-0.425000X0.450000X0.425000X-0.450000X0.425000X0*%
%ADD26RoundRect,0.237500X-0.300000X-0.237500X0.300000X-0.237500X0.300000X0.237500X-0.300000X0.237500X0*%
%ADD27RoundRect,0.250000X0.425000X-0.450000X0.425000X0.450000X-0.425000X0.450000X-0.425000X-0.450000X0*%
%ADD28R,0.650000X0.850000*%
%ADD29R,1.145000X0.550000*%
%ADD30R,0.550000X1.145000*%
%ADD31RoundRect,0.150000X-0.512500X-0.150000X0.512500X-0.150000X0.512500X0.150000X-0.512500X0.150000X0*%
%ADD32RoundRect,0.237500X-0.237500X0.300000X-0.237500X-0.300000X0.237500X-0.300000X0.237500X0.300000X0*%
%ADD33RoundRect,0.100000X-0.712500X-0.100000X0.712500X-0.100000X0.712500X0.100000X-0.712500X0.100000X0*%
%ADD34RoundRect,0.125000X-0.200000X-0.125000X0.200000X-0.125000X0.200000X0.125000X-0.200000X0.125000X0*%
%ADD35R,3.400000X4.300000*%
%ADD36RoundRect,0.062500X-0.375000X-0.062500X0.375000X-0.062500X0.375000X0.062500X-0.375000X0.062500X0*%
%ADD37RoundRect,0.062500X-0.062500X-0.375000X0.062500X-0.375000X0.062500X0.375000X-0.062500X0.375000X0*%
%ADD38R,5.600000X5.600000*%
%ADD39RoundRect,0.250000X0.450000X0.425000X-0.450000X0.425000X-0.450000X-0.425000X0.450000X-0.425000X0*%
%ADD40RoundRect,0.237500X0.237500X-0.287500X0.237500X0.287500X-0.237500X0.287500X-0.237500X-0.287500X0*%
%ADD41R,0.550000X0.950000*%
%ADD42C,0.800000*%
%ADD43RotRect,0.450000X0.700000X225.000000*%
%ADD44FreePoly0,225.000000*%
%ADD45RoundRect,0.137500X-0.137500X0.587500X-0.137500X-0.587500X0.137500X-0.587500X0.137500X0.587500X0*%
%ADD46RoundRect,0.237500X-0.237500X0.287500X-0.237500X-0.287500X0.237500X-0.287500X0.237500X0.287500X0*%
%ADD47RoundRect,0.250000X-0.475000X0.337500X-0.475000X-0.337500X0.475000X-0.337500X0.475000X0.337500X0*%
%ADD48RoundRect,0.250000X-0.412500X-0.650000X0.412500X-0.650000X0.412500X0.650000X-0.412500X0.650000X0*%
%ADD49R,0.350000X0.500000*%
%ADD50RoundRect,0.050000X-0.225000X-0.050000X0.225000X-0.050000X0.225000X0.050000X-0.225000X0.050000X0*%
%ADD51RoundRect,0.050000X0.050000X-0.225000X0.050000X0.225000X-0.050000X0.225000X-0.050000X-0.225000X0*%
%ADD52R,1.700000X1.540000*%
%ADD53RoundRect,0.237500X-0.250000X-0.237500X0.250000X-0.237500X0.250000X0.237500X-0.250000X0.237500X0*%
%ADD54C,0.650000*%
%ADD55RoundRect,0.150000X0.425000X-0.150000X0.425000X0.150000X-0.425000X0.150000X-0.425000X-0.150000X0*%
%ADD56RoundRect,0.075000X0.500000X-0.075000X0.500000X0.075000X-0.500000X0.075000X-0.500000X-0.075000X0*%
%ADD57O,2.100000X1.000000*%
%ADD58O,1.800000X1.000000*%
%ADD59C,0.400000*%
G04 APERTURE END LIST*
D10*
X98044000Y-26500000D02*
X98044000Y-26035000D01*
X92278200Y-55372000D02*
X95173800Y-58420000D01*
X87500000Y-62500000D02*
X87500000Y-69500000D01*
X87500000Y-26500000D02*
X98044000Y-26500000D01*
X116500000Y-69500000D02*
X116500000Y-62500000D01*
X123698000Y-66497200D02*
G75*
G02*
X117298000Y-66497200I-3200000J0D01*
G01*
X117298000Y-66497200D02*
G75*
G02*
X123698000Y-66497200I3200000J0D01*
G01*
X88265000Y-26898600D02*
X89365000Y-26898600D01*
X89765000Y-26898600D02*
X89785000Y-26898600D01*
X90185000Y-26898600D02*
X91285000Y-26898600D01*
X91685000Y-26898600D02*
X91705000Y-26898600D01*
X92105000Y-26898600D02*
X93205000Y-26898600D01*
X93605000Y-26898600D02*
X93625000Y-26898600D01*
X94025000Y-26898600D02*
X95125000Y-26898600D01*
X95525000Y-26898600D02*
X95545000Y-26898600D01*
X95885000Y-26898600D02*
X95885000Y-27998600D01*
X95885000Y-28398600D02*
X95885000Y-28418600D01*
X95885000Y-28818600D02*
X95885000Y-29918600D01*
X95885000Y-30318600D02*
X95885000Y-30338600D01*
X95885000Y-30738600D02*
X95885000Y-31838600D01*
X95885000Y-32238600D02*
X95885000Y-32258600D01*
X95885000Y-32658600D02*
X95885000Y-33758600D01*
X95885000Y-34158600D02*
X95885000Y-34178600D01*
X95885000Y-34578600D02*
X95885000Y-35678600D01*
X95885000Y-35991800D02*
X94785000Y-35991800D01*
X94385000Y-35991800D02*
X94365000Y-35991800D01*
X93965000Y-35991800D02*
X92865000Y-35991800D01*
X92465000Y-35991800D02*
X92445000Y-35991800D01*
X92045000Y-35991800D02*
X90945000Y-35991800D01*
X90545000Y-35991800D02*
X90525000Y-35991800D01*
X90125000Y-35991800D02*
X89025000Y-35991800D01*
X88625000Y-35991800D02*
X88605000Y-35991800D01*
X88265000Y-35991800D02*
X88265000Y-34891800D01*
X88265000Y-34491800D02*
X88265000Y-34471800D01*
X88265000Y-34071800D02*
X88265000Y-32971800D01*
X88265000Y-32571800D02*
X88265000Y-32551800D01*
X88265000Y-32151800D02*
X88265000Y-31051800D01*
X88265000Y-30651800D02*
X88265000Y-30631800D01*
X88265000Y-30231800D02*
X88265000Y-29131800D01*
X88265000Y-28731800D02*
X88265000Y-28711800D01*
X88265000Y-28311800D02*
X88265000Y-27211800D01*
X94234000Y-64389000D02*
X94234000Y-69500000D01*
X80500000Y-56000000D02*
X80500000Y-62500000D01*
X123500000Y-33500000D02*
X116500000Y-33500000D01*
X87500000Y-26500000D02*
X87500000Y-33500000D01*
X86690200Y-29489400D02*
G75*
G02*
X80290200Y-29489400I-3200000J0D01*
G01*
X80290200Y-29489400D02*
G75*
G02*
X86690200Y-29489400I3200000J0D01*
G01*
X87500000Y-33500000D02*
X80500000Y-33500000D01*
X94234000Y-59436000D02*
X94234000Y-64389000D01*
X91313000Y-56261000D02*
X92278200Y-55372000D01*
X116500000Y-33500000D02*
X116500000Y-26500000D01*
X95173800Y-58420000D02*
X94234000Y-59436000D01*
X106603802Y-56032400D02*
X107703802Y-56032400D01*
X108103802Y-56032400D02*
X108123802Y-56032400D01*
X108523802Y-56032400D02*
X109623802Y-56032400D01*
X110023802Y-56032400D02*
X110043802Y-56032400D01*
X110443802Y-56032400D02*
X111543802Y-56032400D01*
X111943802Y-56032400D02*
X111963802Y-56032400D01*
X112363802Y-56032400D02*
X113463802Y-56032400D01*
X113863802Y-56032400D02*
X113883802Y-56032400D01*
X114283802Y-56032400D02*
X115383802Y-56032400D01*
X115783802Y-56032400D02*
X115803802Y-56032400D01*
X115874800Y-56032400D02*
X115874800Y-57132400D01*
X115874800Y-57532400D02*
X115874800Y-57552400D01*
X115874800Y-57952400D02*
X115874800Y-59052400D01*
X115874800Y-59452400D02*
X115874800Y-59472400D01*
X115874800Y-59872400D02*
X115874800Y-60972400D01*
X115874800Y-61372400D02*
X115874800Y-61392400D01*
X115874800Y-61792400D02*
X115874800Y-62892400D01*
X115874800Y-63144400D02*
X114774800Y-63144400D01*
X114374800Y-63144400D02*
X114354800Y-63144400D01*
X113954800Y-63144400D02*
X112854800Y-63144400D01*
X112454800Y-63144400D02*
X112434800Y-63144400D01*
X112034800Y-63144400D02*
X110934800Y-63144400D01*
X110534800Y-63144400D02*
X110514800Y-63144400D01*
X110114800Y-63144400D02*
X109014800Y-63144400D01*
X108614800Y-63144400D02*
X108594800Y-63144400D01*
X108194800Y-63144400D02*
X107094800Y-63144400D01*
X106694800Y-63144400D02*
X106674800Y-63144400D01*
X106603800Y-63144400D02*
X106603800Y-62044400D01*
X106603800Y-61644400D02*
X106603800Y-61624400D01*
X106603801Y-61224400D02*
X106603801Y-60124400D01*
X106603801Y-59724400D02*
X106603801Y-59704400D01*
X106603801Y-59304400D02*
X106603801Y-58204400D01*
X106603802Y-57804400D02*
X106603802Y-57784400D01*
X106603802Y-57384400D02*
X106603802Y-56284400D01*
X116500000Y-62500000D02*
X123500000Y-62500000D01*
X114681000Y-26035000D02*
X114681000Y-26500000D01*
X80500000Y-56261000D02*
X91313000Y-56261000D01*
X86715200Y-66523000D02*
G75*
G02*
X80315200Y-66523000I-3200000J0D01*
G01*
X80315200Y-66523000D02*
G75*
G02*
X86715200Y-66523000I3200000J0D01*
G01*
X116500000Y-26500000D02*
X114681000Y-26500000D01*
X123697600Y-29489000D02*
G75*
G02*
X117297600Y-29489000I-3200000J0D01*
G01*
X117297600Y-29489000D02*
G75*
G02*
X123697600Y-29489000I3200000J0D01*
G01*
X80500000Y-62500000D02*
X87500000Y-62500000D01*
X80500000Y-33500000D02*
X80500000Y-56000000D01*
X87500000Y-69500000D02*
X116500000Y-69500000D01*
X123500000Y-62500000D02*
X123500000Y-33500000D01*
D11*
X123244387Y-56141654D02*
X123275340Y-56170226D01*
X123275340Y-56170226D02*
X123306292Y-56255940D01*
X123306292Y-56255940D02*
X123306292Y-56313083D01*
X123306292Y-56313083D02*
X123275340Y-56398797D01*
X123275340Y-56398797D02*
X123213435Y-56455940D01*
X123213435Y-56455940D02*
X123151530Y-56484511D01*
X123151530Y-56484511D02*
X123027720Y-56513083D01*
X123027720Y-56513083D02*
X122934863Y-56513083D01*
X122934863Y-56513083D02*
X122811054Y-56484511D01*
X122811054Y-56484511D02*
X122749149Y-56455940D01*
X122749149Y-56455940D02*
X122687244Y-56398797D01*
X122687244Y-56398797D02*
X122656292Y-56313083D01*
X122656292Y-56313083D02*
X122656292Y-56255940D01*
X122656292Y-56255940D02*
X122687244Y-56170226D01*
X122687244Y-56170226D02*
X122718197Y-56141654D01*
X123306292Y-55884511D02*
X122656292Y-55884511D01*
X122965816Y-55884511D02*
X122965816Y-55541654D01*
X123306292Y-55541654D02*
X122656292Y-55541654D01*
X122687244Y-54941655D02*
X122656292Y-54998798D01*
X122656292Y-54998798D02*
X122656292Y-55084512D01*
X122656292Y-55084512D02*
X122687244Y-55170226D01*
X122687244Y-55170226D02*
X122749149Y-55227369D01*
X122749149Y-55227369D02*
X122811054Y-55255940D01*
X122811054Y-55255940D02*
X122934863Y-55284512D01*
X122934863Y-55284512D02*
X123027720Y-55284512D01*
X123027720Y-55284512D02*
X123151530Y-55255940D01*
X123151530Y-55255940D02*
X123213435Y-55227369D01*
X123213435Y-55227369D02*
X123275340Y-55170226D01*
X123275340Y-55170226D02*
X123306292Y-55084512D01*
X123306292Y-55084512D02*
X123306292Y-55027369D01*
X123306292Y-55027369D02*
X123275340Y-54941655D01*
X123275340Y-54941655D02*
X123244387Y-54913083D01*
X123244387Y-54913083D02*
X123027720Y-54913083D01*
X123027720Y-54913083D02*
X123027720Y-55027369D01*
X97610802Y-31945692D02*
X97325088Y-31945692D01*
X97325088Y-31945692D02*
X97325088Y-31295692D01*
X97810802Y-31605216D02*
X98010802Y-31605216D01*
X98096516Y-31945692D02*
X97810802Y-31945692D01*
X97810802Y-31945692D02*
X97810802Y-31295692D01*
X97810802Y-31295692D02*
X98096516Y-31295692D01*
X98353659Y-31945692D02*
X98353659Y-31295692D01*
X98353659Y-31295692D02*
X98496516Y-31295692D01*
X98496516Y-31295692D02*
X98582230Y-31326644D01*
X98582230Y-31326644D02*
X98639373Y-31388549D01*
X98639373Y-31388549D02*
X98667944Y-31450454D01*
X98667944Y-31450454D02*
X98696516Y-31574263D01*
X98696516Y-31574263D02*
X98696516Y-31667120D01*
X98696516Y-31667120D02*
X98667944Y-31790930D01*
X98667944Y-31790930D02*
X98639373Y-31852835D01*
X98639373Y-31852835D02*
X98582230Y-31914740D01*
X98582230Y-31914740D02*
X98496516Y-31945692D01*
X98496516Y-31945692D02*
X98353659Y-31945692D01*
X99267944Y-31945692D02*
X98925087Y-31945692D01*
X99096516Y-31945692D02*
X99096516Y-31295692D01*
X99096516Y-31295692D02*
X99039373Y-31388549D01*
X99039373Y-31388549D02*
X98982230Y-31450454D01*
X98982230Y-31450454D02*
X98925087Y-31481406D01*
X99947602Y-31920292D02*
X99661888Y-31920292D01*
X99661888Y-31920292D02*
X99661888Y-31270292D01*
X100147602Y-31579816D02*
X100347602Y-31579816D01*
X100433316Y-31920292D02*
X100147602Y-31920292D01*
X100147602Y-31920292D02*
X100147602Y-31270292D01*
X100147602Y-31270292D02*
X100433316Y-31270292D01*
X100690459Y-31920292D02*
X100690459Y-31270292D01*
X100690459Y-31270292D02*
X100833316Y-31270292D01*
X100833316Y-31270292D02*
X100919030Y-31301244D01*
X100919030Y-31301244D02*
X100976173Y-31363149D01*
X100976173Y-31363149D02*
X101004744Y-31425054D01*
X101004744Y-31425054D02*
X101033316Y-31548863D01*
X101033316Y-31548863D02*
X101033316Y-31641720D01*
X101033316Y-31641720D02*
X101004744Y-31765530D01*
X101004744Y-31765530D02*
X100976173Y-31827435D01*
X100976173Y-31827435D02*
X100919030Y-31889340D01*
X100919030Y-31889340D02*
X100833316Y-31920292D01*
X100833316Y-31920292D02*
X100690459Y-31920292D01*
X101261887Y-31332197D02*
X101290459Y-31301244D01*
X101290459Y-31301244D02*
X101347602Y-31270292D01*
X101347602Y-31270292D02*
X101490459Y-31270292D01*
X101490459Y-31270292D02*
X101547602Y-31301244D01*
X101547602Y-31301244D02*
X101576173Y-31332197D01*
X101576173Y-31332197D02*
X101604744Y-31394101D01*
X101604744Y-31394101D02*
X101604744Y-31456006D01*
X101604744Y-31456006D02*
X101576173Y-31548863D01*
X101576173Y-31548863D02*
X101233316Y-31920292D01*
X101233316Y-31920292D02*
X101604744Y-31920292D01*
D12*
X98138257Y-27512177D02*
X98100162Y-27474081D01*
X98100162Y-27474081D02*
X98023971Y-27359796D01*
X98023971Y-27359796D02*
X97985876Y-27283605D01*
X97985876Y-27283605D02*
X97947781Y-27169320D01*
X97947781Y-27169320D02*
X97909686Y-26978843D01*
X97909686Y-26978843D02*
X97909686Y-26826462D01*
X97909686Y-26826462D02*
X97947781Y-26635986D01*
X97947781Y-26635986D02*
X97985876Y-26521700D01*
X97985876Y-26521700D02*
X98023971Y-26445510D01*
X98023971Y-26445510D02*
X98100162Y-26331224D01*
X98100162Y-26331224D02*
X98138257Y-26293129D01*
X98404923Y-27169320D02*
X98519209Y-27207415D01*
X98519209Y-27207415D02*
X98709685Y-27207415D01*
X98709685Y-27207415D02*
X98785876Y-27169320D01*
X98785876Y-27169320D02*
X98823971Y-27131224D01*
X98823971Y-27131224D02*
X98862066Y-27055034D01*
X98862066Y-27055034D02*
X98862066Y-26978843D01*
X98862066Y-26978843D02*
X98823971Y-26902653D01*
X98823971Y-26902653D02*
X98785876Y-26864558D01*
X98785876Y-26864558D02*
X98709685Y-26826462D01*
X98709685Y-26826462D02*
X98557304Y-26788367D01*
X98557304Y-26788367D02*
X98481114Y-26750272D01*
X98481114Y-26750272D02*
X98443019Y-26712177D01*
X98443019Y-26712177D02*
X98404923Y-26635986D01*
X98404923Y-26635986D02*
X98404923Y-26559796D01*
X98404923Y-26559796D02*
X98443019Y-26483605D01*
X98443019Y-26483605D02*
X98481114Y-26445510D01*
X98481114Y-26445510D02*
X98557304Y-26407415D01*
X98557304Y-26407415D02*
X98747781Y-26407415D01*
X98747781Y-26407415D02*
X98862066Y-26445510D01*
X99204924Y-27207415D02*
X99204924Y-26407415D01*
X99204924Y-26407415D02*
X99662067Y-27207415D01*
X99662067Y-27207415D02*
X99662067Y-26407415D01*
X100004923Y-27169320D02*
X100119209Y-27207415D01*
X100119209Y-27207415D02*
X100309685Y-27207415D01*
X100309685Y-27207415D02*
X100385876Y-27169320D01*
X100385876Y-27169320D02*
X100423971Y-27131224D01*
X100423971Y-27131224D02*
X100462066Y-27055034D01*
X100462066Y-27055034D02*
X100462066Y-26978843D01*
X100462066Y-26978843D02*
X100423971Y-26902653D01*
X100423971Y-26902653D02*
X100385876Y-26864558D01*
X100385876Y-26864558D02*
X100309685Y-26826462D01*
X100309685Y-26826462D02*
X100157304Y-26788367D01*
X100157304Y-26788367D02*
X100081114Y-26750272D01*
X100081114Y-26750272D02*
X100043019Y-26712177D01*
X100043019Y-26712177D02*
X100004923Y-26635986D01*
X100004923Y-26635986D02*
X100004923Y-26559796D01*
X100004923Y-26559796D02*
X100043019Y-26483605D01*
X100043019Y-26483605D02*
X100081114Y-26445510D01*
X100081114Y-26445510D02*
X100157304Y-26407415D01*
X100157304Y-26407415D02*
X100347781Y-26407415D01*
X100347781Y-26407415D02*
X100462066Y-26445510D01*
X101262067Y-27207415D02*
X100995400Y-26826462D01*
X100804924Y-27207415D02*
X100804924Y-26407415D01*
X100804924Y-26407415D02*
X101109686Y-26407415D01*
X101109686Y-26407415D02*
X101185876Y-26445510D01*
X101185876Y-26445510D02*
X101223971Y-26483605D01*
X101223971Y-26483605D02*
X101262067Y-26559796D01*
X101262067Y-26559796D02*
X101262067Y-26674081D01*
X101262067Y-26674081D02*
X101223971Y-26750272D01*
X101223971Y-26750272D02*
X101185876Y-26788367D01*
X101185876Y-26788367D02*
X101109686Y-26826462D01*
X101109686Y-26826462D02*
X100804924Y-26826462D01*
X101490638Y-26407415D02*
X101947781Y-26407415D01*
X101719209Y-27207415D02*
X101719209Y-26407415D01*
X102633495Y-26445510D02*
X102557305Y-26407415D01*
X102557305Y-26407415D02*
X102443019Y-26407415D01*
X102443019Y-26407415D02*
X102328733Y-26445510D01*
X102328733Y-26445510D02*
X102252543Y-26521700D01*
X102252543Y-26521700D02*
X102214448Y-26597891D01*
X102214448Y-26597891D02*
X102176352Y-26750272D01*
X102176352Y-26750272D02*
X102176352Y-26864558D01*
X102176352Y-26864558D02*
X102214448Y-27016939D01*
X102214448Y-27016939D02*
X102252543Y-27093129D01*
X102252543Y-27093129D02*
X102328733Y-27169320D01*
X102328733Y-27169320D02*
X102443019Y-27207415D01*
X102443019Y-27207415D02*
X102519210Y-27207415D01*
X102519210Y-27207415D02*
X102633495Y-27169320D01*
X102633495Y-27169320D02*
X102671591Y-27131224D01*
X102671591Y-27131224D02*
X102671591Y-26864558D01*
X102671591Y-26864558D02*
X102519210Y-26864558D01*
X103357305Y-26674081D02*
X103357305Y-27207415D01*
X103166829Y-26369320D02*
X102976352Y-26940748D01*
X102976352Y-26940748D02*
X103471591Y-26940748D01*
X103928734Y-26407415D02*
X104004924Y-26407415D01*
X104004924Y-26407415D02*
X104081115Y-26445510D01*
X104081115Y-26445510D02*
X104119210Y-26483605D01*
X104119210Y-26483605D02*
X104157305Y-26559796D01*
X104157305Y-26559796D02*
X104195400Y-26712177D01*
X104195400Y-26712177D02*
X104195400Y-26902653D01*
X104195400Y-26902653D02*
X104157305Y-27055034D01*
X104157305Y-27055034D02*
X104119210Y-27131224D01*
X104119210Y-27131224D02*
X104081115Y-27169320D01*
X104081115Y-27169320D02*
X104004924Y-27207415D01*
X104004924Y-27207415D02*
X103928734Y-27207415D01*
X103928734Y-27207415D02*
X103852543Y-27169320D01*
X103852543Y-27169320D02*
X103814448Y-27131224D01*
X103814448Y-27131224D02*
X103776353Y-27055034D01*
X103776353Y-27055034D02*
X103738257Y-26902653D01*
X103738257Y-26902653D02*
X103738257Y-26712177D01*
X103738257Y-26712177D02*
X103776353Y-26559796D01*
X103776353Y-26559796D02*
X103814448Y-26483605D01*
X103814448Y-26483605D02*
X103852543Y-26445510D01*
X103852543Y-26445510D02*
X103928734Y-26407415D01*
X104957305Y-27207415D02*
X104500162Y-27207415D01*
X104728734Y-27207415D02*
X104728734Y-26407415D01*
X104728734Y-26407415D02*
X104652543Y-26521700D01*
X104652543Y-26521700D02*
X104576353Y-26597891D01*
X104576353Y-26597891D02*
X104500162Y-26635986D01*
X105185877Y-26407415D02*
X105452544Y-27207415D01*
X105452544Y-27207415D02*
X105719210Y-26407415D01*
X105909686Y-26407415D02*
X106404924Y-26407415D01*
X106404924Y-26407415D02*
X106138258Y-26712177D01*
X106138258Y-26712177D02*
X106252543Y-26712177D01*
X106252543Y-26712177D02*
X106328734Y-26750272D01*
X106328734Y-26750272D02*
X106366829Y-26788367D01*
X106366829Y-26788367D02*
X106404924Y-26864558D01*
X106404924Y-26864558D02*
X106404924Y-27055034D01*
X106404924Y-27055034D02*
X106366829Y-27131224D01*
X106366829Y-27131224D02*
X106328734Y-27169320D01*
X106328734Y-27169320D02*
X106252543Y-27207415D01*
X106252543Y-27207415D02*
X106023972Y-27207415D01*
X106023972Y-27207415D02*
X105947781Y-27169320D01*
X105947781Y-27169320D02*
X105909686Y-27131224D01*
X106900163Y-26407415D02*
X106976353Y-26407415D01*
X106976353Y-26407415D02*
X107052544Y-26445510D01*
X107052544Y-26445510D02*
X107090639Y-26483605D01*
X107090639Y-26483605D02*
X107128734Y-26559796D01*
X107128734Y-26559796D02*
X107166829Y-26712177D01*
X107166829Y-26712177D02*
X107166829Y-26902653D01*
X107166829Y-26902653D02*
X107128734Y-27055034D01*
X107128734Y-27055034D02*
X107090639Y-27131224D01*
X107090639Y-27131224D02*
X107052544Y-27169320D01*
X107052544Y-27169320D02*
X106976353Y-27207415D01*
X106976353Y-27207415D02*
X106900163Y-27207415D01*
X106900163Y-27207415D02*
X106823972Y-27169320D01*
X106823972Y-27169320D02*
X106785877Y-27131224D01*
X106785877Y-27131224D02*
X106747782Y-27055034D01*
X106747782Y-27055034D02*
X106709686Y-26902653D01*
X106709686Y-26902653D02*
X106709686Y-26712177D01*
X106709686Y-26712177D02*
X106747782Y-26559796D01*
X106747782Y-26559796D02*
X106785877Y-26483605D01*
X106785877Y-26483605D02*
X106823972Y-26445510D01*
X106823972Y-26445510D02*
X106900163Y-26407415D01*
X107547782Y-27169320D02*
X107547782Y-27207415D01*
X107547782Y-27207415D02*
X107509687Y-27283605D01*
X107509687Y-27283605D02*
X107471591Y-27321700D01*
X107890639Y-27207415D02*
X107890639Y-26407415D01*
X107890639Y-26407415D02*
X108157305Y-26978843D01*
X108157305Y-26978843D02*
X108423972Y-26407415D01*
X108423972Y-26407415D02*
X108423972Y-27207415D01*
X108804925Y-27207415D02*
X108804925Y-26407415D01*
X109262068Y-27207415D02*
X108919210Y-26750272D01*
X109262068Y-26407415D02*
X108804925Y-26864558D01*
X109604925Y-27207415D02*
X109604925Y-26407415D01*
X109604925Y-26407415D02*
X109871591Y-26978843D01*
X109871591Y-26978843D02*
X110138258Y-26407415D01*
X110138258Y-26407415D02*
X110138258Y-27207415D01*
X110557306Y-27169320D02*
X110557306Y-27207415D01*
X110557306Y-27207415D02*
X110519211Y-27283605D01*
X110519211Y-27283605D02*
X110481115Y-27321700D01*
X110900163Y-27207415D02*
X110900163Y-26407415D01*
X110900163Y-26407415D02*
X111090639Y-26407415D01*
X111090639Y-26407415D02*
X111204925Y-26445510D01*
X111204925Y-26445510D02*
X111281115Y-26521700D01*
X111281115Y-26521700D02*
X111319210Y-26597891D01*
X111319210Y-26597891D02*
X111357306Y-26750272D01*
X111357306Y-26750272D02*
X111357306Y-26864558D01*
X111357306Y-26864558D02*
X111319210Y-27016939D01*
X111319210Y-27016939D02*
X111281115Y-27093129D01*
X111281115Y-27093129D02*
X111204925Y-27169320D01*
X111204925Y-27169320D02*
X111090639Y-27207415D01*
X111090639Y-27207415D02*
X110900163Y-27207415D01*
X111700163Y-26788367D02*
X111966829Y-26788367D01*
X112081115Y-27207415D02*
X111700163Y-27207415D01*
X111700163Y-27207415D02*
X111700163Y-26407415D01*
X111700163Y-26407415D02*
X112081115Y-26407415D01*
X112881116Y-27131224D02*
X112843020Y-27169320D01*
X112843020Y-27169320D02*
X112728735Y-27207415D01*
X112728735Y-27207415D02*
X112652544Y-27207415D01*
X112652544Y-27207415D02*
X112538258Y-27169320D01*
X112538258Y-27169320D02*
X112462068Y-27093129D01*
X112462068Y-27093129D02*
X112423973Y-27016939D01*
X112423973Y-27016939D02*
X112385877Y-26864558D01*
X112385877Y-26864558D02*
X112385877Y-26750272D01*
X112385877Y-26750272D02*
X112423973Y-26597891D01*
X112423973Y-26597891D02*
X112462068Y-26521700D01*
X112462068Y-26521700D02*
X112538258Y-26445510D01*
X112538258Y-26445510D02*
X112652544Y-26407415D01*
X112652544Y-26407415D02*
X112728735Y-26407415D01*
X112728735Y-26407415D02*
X112843020Y-26445510D01*
X112843020Y-26445510D02*
X112881116Y-26483605D01*
X113185877Y-26483605D02*
X113223973Y-26445510D01*
X113223973Y-26445510D02*
X113300163Y-26407415D01*
X113300163Y-26407415D02*
X113490639Y-26407415D01*
X113490639Y-26407415D02*
X113566830Y-26445510D01*
X113566830Y-26445510D02*
X113604925Y-26483605D01*
X113604925Y-26483605D02*
X113643020Y-26559796D01*
X113643020Y-26559796D02*
X113643020Y-26635986D01*
X113643020Y-26635986D02*
X113604925Y-26750272D01*
X113604925Y-26750272D02*
X113147782Y-27207415D01*
X113147782Y-27207415D02*
X113643020Y-27207415D01*
X114328735Y-26674081D02*
X114328735Y-27207415D01*
X114138259Y-26369320D02*
X113947782Y-26940748D01*
X113947782Y-26940748D02*
X114443021Y-26940748D01*
X114671592Y-27512177D02*
X114709687Y-27474081D01*
X114709687Y-27474081D02*
X114785878Y-27359796D01*
X114785878Y-27359796D02*
X114823973Y-27283605D01*
X114823973Y-27283605D02*
X114862068Y-27169320D01*
X114862068Y-27169320D02*
X114900164Y-26978843D01*
X114900164Y-26978843D02*
X114900164Y-26826462D01*
X114900164Y-26826462D02*
X114862068Y-26635986D01*
X114862068Y-26635986D02*
X114823973Y-26521700D01*
X114823973Y-26521700D02*
X114785878Y-26445510D01*
X114785878Y-26445510D02*
X114709687Y-26331224D01*
X114709687Y-26331224D02*
X114671592Y-26293129D01*
D11*
X123306292Y-58554511D02*
X122656292Y-58554511D01*
X122656292Y-58554511D02*
X122656292Y-58325940D01*
X122656292Y-58325940D02*
X122687244Y-58268797D01*
X122687244Y-58268797D02*
X122718197Y-58240226D01*
X122718197Y-58240226D02*
X122780101Y-58211654D01*
X122780101Y-58211654D02*
X122872959Y-58211654D01*
X122872959Y-58211654D02*
X122934863Y-58240226D01*
X122934863Y-58240226D02*
X122965816Y-58268797D01*
X122965816Y-58268797D02*
X122996768Y-58325940D01*
X122996768Y-58325940D02*
X122996768Y-58554511D01*
X122656292Y-58011654D02*
X123306292Y-57868797D01*
X123306292Y-57868797D02*
X122842006Y-57754511D01*
X122842006Y-57754511D02*
X123306292Y-57640226D01*
X123306292Y-57640226D02*
X122656292Y-57497369D01*
X123306292Y-56925940D02*
X122996768Y-57125940D01*
X123306292Y-57268797D02*
X122656292Y-57268797D01*
X122656292Y-57268797D02*
X122656292Y-57040226D01*
X122656292Y-57040226D02*
X122687244Y-56983083D01*
X122687244Y-56983083D02*
X122718197Y-56954512D01*
X122718197Y-56954512D02*
X122780101Y-56925940D01*
X122780101Y-56925940D02*
X122872959Y-56925940D01*
X122872959Y-56925940D02*
X122934863Y-56954512D01*
X122934863Y-56954512D02*
X122965816Y-56983083D01*
X122965816Y-56983083D02*
X122996768Y-57040226D01*
X122996768Y-57040226D02*
X122996768Y-57268797D01*
X110416542Y-55065714D02*
X110107018Y-55265714D01*
X110416542Y-55408571D02*
X109766542Y-55408571D01*
X109766542Y-55408571D02*
X109766542Y-55180000D01*
X109766542Y-55180000D02*
X109797494Y-55122857D01*
X109797494Y-55122857D02*
X109828447Y-55094286D01*
X109828447Y-55094286D02*
X109890351Y-55065714D01*
X109890351Y-55065714D02*
X109983209Y-55065714D01*
X109983209Y-55065714D02*
X110045113Y-55094286D01*
X110045113Y-55094286D02*
X110076066Y-55122857D01*
X110076066Y-55122857D02*
X110107018Y-55180000D01*
X110107018Y-55180000D02*
X110107018Y-55408571D01*
X110416542Y-54494286D02*
X110416542Y-54837143D01*
X110416542Y-54665714D02*
X109766542Y-54665714D01*
X109766542Y-54665714D02*
X109859399Y-54722857D01*
X109859399Y-54722857D02*
X109921304Y-54780000D01*
X109921304Y-54780000D02*
X109952256Y-54837143D01*
X109983209Y-53980000D02*
X110416542Y-53980000D01*
X109735590Y-54122857D02*
X110199875Y-54265714D01*
X110199875Y-54265714D02*
X110199875Y-53894285D01*
X86824285Y-58776542D02*
X86624285Y-58467018D01*
X86481428Y-58776542D02*
X86481428Y-58126542D01*
X86481428Y-58126542D02*
X86709999Y-58126542D01*
X86709999Y-58126542D02*
X86767142Y-58157494D01*
X86767142Y-58157494D02*
X86795713Y-58188447D01*
X86795713Y-58188447D02*
X86824285Y-58250351D01*
X86824285Y-58250351D02*
X86824285Y-58343209D01*
X86824285Y-58343209D02*
X86795713Y-58405113D01*
X86795713Y-58405113D02*
X86767142Y-58436066D01*
X86767142Y-58436066D02*
X86709999Y-58467018D01*
X86709999Y-58467018D02*
X86481428Y-58467018D01*
X87395713Y-58776542D02*
X87052856Y-58776542D01*
X87224285Y-58776542D02*
X87224285Y-58126542D01*
X87224285Y-58126542D02*
X87167142Y-58219399D01*
X87167142Y-58219399D02*
X87109999Y-58281304D01*
X87109999Y-58281304D02*
X87052856Y-58312256D01*
X87624285Y-58188447D02*
X87652857Y-58157494D01*
X87652857Y-58157494D02*
X87710000Y-58126542D01*
X87710000Y-58126542D02*
X87852857Y-58126542D01*
X87852857Y-58126542D02*
X87910000Y-58157494D01*
X87910000Y-58157494D02*
X87938571Y-58188447D01*
X87938571Y-58188447D02*
X87967142Y-58250351D01*
X87967142Y-58250351D02*
X87967142Y-58312256D01*
X87967142Y-58312256D02*
X87938571Y-58405113D01*
X87938571Y-58405113D02*
X87595714Y-58776542D01*
X87595714Y-58776542D02*
X87967142Y-58776542D01*
X112748199Y-68047142D02*
X112748199Y-68511428D01*
X112748199Y-68511428D02*
X112719628Y-68604285D01*
X112719628Y-68604285D02*
X112662485Y-68666190D01*
X112662485Y-68666190D02*
X112576771Y-68697142D01*
X112576771Y-68697142D02*
X112519628Y-68697142D01*
X112976771Y-68047142D02*
X113376771Y-68047142D01*
X113376771Y-68047142D02*
X113119628Y-68697142D01*
X80299657Y-63824742D02*
X80299657Y-63174742D01*
X80299657Y-63484266D02*
X80642514Y-63484266D01*
X80642514Y-63824742D02*
X80642514Y-63174742D01*
X81185371Y-63391409D02*
X81185371Y-63824742D01*
X81042513Y-63143790D02*
X80899656Y-63608075D01*
X80899656Y-63608075D02*
X81271085Y-63608075D01*
X92314285Y-54844637D02*
X92285713Y-54875590D01*
X92285713Y-54875590D02*
X92199999Y-54906542D01*
X92199999Y-54906542D02*
X92142856Y-54906542D01*
X92142856Y-54906542D02*
X92057142Y-54875590D01*
X92057142Y-54875590D02*
X91999999Y-54813685D01*
X91999999Y-54813685D02*
X91971428Y-54751780D01*
X91971428Y-54751780D02*
X91942856Y-54627970D01*
X91942856Y-54627970D02*
X91942856Y-54535113D01*
X91942856Y-54535113D02*
X91971428Y-54411304D01*
X91971428Y-54411304D02*
X91999999Y-54349399D01*
X91999999Y-54349399D02*
X92057142Y-54287494D01*
X92057142Y-54287494D02*
X92142856Y-54256542D01*
X92142856Y-54256542D02*
X92199999Y-54256542D01*
X92199999Y-54256542D02*
X92285713Y-54287494D01*
X92285713Y-54287494D02*
X92314285Y-54318447D01*
X92885713Y-54906542D02*
X92542856Y-54906542D01*
X92714285Y-54906542D02*
X92714285Y-54256542D01*
X92714285Y-54256542D02*
X92657142Y-54349399D01*
X92657142Y-54349399D02*
X92599999Y-54411304D01*
X92599999Y-54411304D02*
X92542856Y-54442256D01*
X93085714Y-54256542D02*
X93457142Y-54256542D01*
X93457142Y-54256542D02*
X93257142Y-54504161D01*
X93257142Y-54504161D02*
X93342857Y-54504161D01*
X93342857Y-54504161D02*
X93400000Y-54535113D01*
X93400000Y-54535113D02*
X93428571Y-54566066D01*
X93428571Y-54566066D02*
X93457142Y-54627970D01*
X93457142Y-54627970D02*
X93457142Y-54782732D01*
X93457142Y-54782732D02*
X93428571Y-54844637D01*
X93428571Y-54844637D02*
X93400000Y-54875590D01*
X93400000Y-54875590D02*
X93342857Y-54906542D01*
X93342857Y-54906542D02*
X93171428Y-54906542D01*
X93171428Y-54906542D02*
X93114285Y-54875590D01*
X93114285Y-54875590D02*
X93085714Y-54844637D01*
X100579285Y-36689637D02*
X100550713Y-36720590D01*
X100550713Y-36720590D02*
X100464999Y-36751542D01*
X100464999Y-36751542D02*
X100407856Y-36751542D01*
X100407856Y-36751542D02*
X100322142Y-36720590D01*
X100322142Y-36720590D02*
X100264999Y-36658685D01*
X100264999Y-36658685D02*
X100236428Y-36596780D01*
X100236428Y-36596780D02*
X100207856Y-36472970D01*
X100207856Y-36472970D02*
X100207856Y-36380113D01*
X100207856Y-36380113D02*
X100236428Y-36256304D01*
X100236428Y-36256304D02*
X100264999Y-36194399D01*
X100264999Y-36194399D02*
X100322142Y-36132494D01*
X100322142Y-36132494D02*
X100407856Y-36101542D01*
X100407856Y-36101542D02*
X100464999Y-36101542D01*
X100464999Y-36101542D02*
X100550713Y-36132494D01*
X100550713Y-36132494D02*
X100579285Y-36163447D01*
X101150713Y-36751542D02*
X100807856Y-36751542D01*
X100979285Y-36751542D02*
X100979285Y-36101542D01*
X100979285Y-36101542D02*
X100922142Y-36194399D01*
X100922142Y-36194399D02*
X100864999Y-36256304D01*
X100864999Y-36256304D02*
X100807856Y-36287256D01*
X101436428Y-36751542D02*
X101550714Y-36751542D01*
X101550714Y-36751542D02*
X101607857Y-36720590D01*
X101607857Y-36720590D02*
X101636428Y-36689637D01*
X101636428Y-36689637D02*
X101693571Y-36596780D01*
X101693571Y-36596780D02*
X101722142Y-36472970D01*
X101722142Y-36472970D02*
X101722142Y-36225351D01*
X101722142Y-36225351D02*
X101693571Y-36163447D01*
X101693571Y-36163447D02*
X101665000Y-36132494D01*
X101665000Y-36132494D02*
X101607857Y-36101542D01*
X101607857Y-36101542D02*
X101493571Y-36101542D01*
X101493571Y-36101542D02*
X101436428Y-36132494D01*
X101436428Y-36132494D02*
X101407857Y-36163447D01*
X101407857Y-36163447D02*
X101379285Y-36225351D01*
X101379285Y-36225351D02*
X101379285Y-36380113D01*
X101379285Y-36380113D02*
X101407857Y-36442018D01*
X101407857Y-36442018D02*
X101436428Y-36472970D01*
X101436428Y-36472970D02*
X101493571Y-36503923D01*
X101493571Y-36503923D02*
X101607857Y-36503923D01*
X101607857Y-36503923D02*
X101665000Y-36472970D01*
X101665000Y-36472970D02*
X101693571Y-36442018D01*
X101693571Y-36442018D02*
X101722142Y-36380113D01*
X117096457Y-26977142D02*
X117096457Y-26327142D01*
X117096457Y-26636666D02*
X117439314Y-26636666D01*
X117439314Y-26977142D02*
X117439314Y-26327142D01*
X117696456Y-26389047D02*
X117725028Y-26358094D01*
X117725028Y-26358094D02*
X117782171Y-26327142D01*
X117782171Y-26327142D02*
X117925028Y-26327142D01*
X117925028Y-26327142D02*
X117982171Y-26358094D01*
X117982171Y-26358094D02*
X118010742Y-26389047D01*
X118010742Y-26389047D02*
X118039313Y-26450951D01*
X118039313Y-26450951D02*
X118039313Y-26512856D01*
X118039313Y-26512856D02*
X118010742Y-26605713D01*
X118010742Y-26605713D02*
X117667885Y-26977142D01*
X117667885Y-26977142D02*
X118039313Y-26977142D01*
X97150285Y-36752342D02*
X96950285Y-36442818D01*
X96807428Y-36752342D02*
X96807428Y-36102342D01*
X96807428Y-36102342D02*
X97035999Y-36102342D01*
X97035999Y-36102342D02*
X97093142Y-36133294D01*
X97093142Y-36133294D02*
X97121713Y-36164247D01*
X97121713Y-36164247D02*
X97150285Y-36226151D01*
X97150285Y-36226151D02*
X97150285Y-36319009D01*
X97150285Y-36319009D02*
X97121713Y-36380913D01*
X97121713Y-36380913D02*
X97093142Y-36411866D01*
X97093142Y-36411866D02*
X97035999Y-36442818D01*
X97035999Y-36442818D02*
X96807428Y-36442818D01*
X97721713Y-36752342D02*
X97378856Y-36752342D01*
X97550285Y-36752342D02*
X97550285Y-36102342D01*
X97550285Y-36102342D02*
X97493142Y-36195199D01*
X97493142Y-36195199D02*
X97435999Y-36257104D01*
X97435999Y-36257104D02*
X97378856Y-36288056D01*
X98293142Y-36752342D02*
X97950285Y-36752342D01*
X98121714Y-36752342D02*
X98121714Y-36102342D01*
X98121714Y-36102342D02*
X98064571Y-36195199D01*
X98064571Y-36195199D02*
X98007428Y-36257104D01*
X98007428Y-36257104D02*
X97950285Y-36288056D01*
X118196543Y-56197342D02*
X118196543Y-55547342D01*
X118196543Y-55547342D02*
X118339400Y-55547342D01*
X118339400Y-55547342D02*
X118425114Y-55578294D01*
X118425114Y-55578294D02*
X118482257Y-55640199D01*
X118482257Y-55640199D02*
X118510828Y-55702104D01*
X118510828Y-55702104D02*
X118539400Y-55825913D01*
X118539400Y-55825913D02*
X118539400Y-55918770D01*
X118539400Y-55918770D02*
X118510828Y-56042580D01*
X118510828Y-56042580D02*
X118482257Y-56104485D01*
X118482257Y-56104485D02*
X118425114Y-56166390D01*
X118425114Y-56166390D02*
X118339400Y-56197342D01*
X118339400Y-56197342D02*
X118196543Y-56197342D01*
X119053686Y-55764009D02*
X119053686Y-56197342D01*
X118910828Y-55516390D02*
X118767971Y-55980675D01*
X118767971Y-55980675D02*
X119139400Y-55980675D01*
X107132485Y-61603437D02*
X107103913Y-61634390D01*
X107103913Y-61634390D02*
X107018199Y-61665342D01*
X107018199Y-61665342D02*
X106961056Y-61665342D01*
X106961056Y-61665342D02*
X106875342Y-61634390D01*
X106875342Y-61634390D02*
X106818199Y-61572485D01*
X106818199Y-61572485D02*
X106789628Y-61510580D01*
X106789628Y-61510580D02*
X106761056Y-61386770D01*
X106761056Y-61386770D02*
X106761056Y-61293913D01*
X106761056Y-61293913D02*
X106789628Y-61170104D01*
X106789628Y-61170104D02*
X106818199Y-61108199D01*
X106818199Y-61108199D02*
X106875342Y-61046294D01*
X106875342Y-61046294D02*
X106961056Y-61015342D01*
X106961056Y-61015342D02*
X107018199Y-61015342D01*
X107018199Y-61015342D02*
X107103913Y-61046294D01*
X107103913Y-61046294D02*
X107132485Y-61077247D01*
X107361056Y-61077247D02*
X107389628Y-61046294D01*
X107389628Y-61046294D02*
X107446771Y-61015342D01*
X107446771Y-61015342D02*
X107589628Y-61015342D01*
X107589628Y-61015342D02*
X107646771Y-61046294D01*
X107646771Y-61046294D02*
X107675342Y-61077247D01*
X107675342Y-61077247D02*
X107703913Y-61139151D01*
X107703913Y-61139151D02*
X107703913Y-61201056D01*
X107703913Y-61201056D02*
X107675342Y-61293913D01*
X107675342Y-61293913D02*
X107332485Y-61665342D01*
X107332485Y-61665342D02*
X107703913Y-61665342D01*
X108046771Y-61293913D02*
X107989628Y-61262961D01*
X107989628Y-61262961D02*
X107961057Y-61232009D01*
X107961057Y-61232009D02*
X107932485Y-61170104D01*
X107932485Y-61170104D02*
X107932485Y-61139151D01*
X107932485Y-61139151D02*
X107961057Y-61077247D01*
X107961057Y-61077247D02*
X107989628Y-61046294D01*
X107989628Y-61046294D02*
X108046771Y-61015342D01*
X108046771Y-61015342D02*
X108161057Y-61015342D01*
X108161057Y-61015342D02*
X108218200Y-61046294D01*
X108218200Y-61046294D02*
X108246771Y-61077247D01*
X108246771Y-61077247D02*
X108275342Y-61139151D01*
X108275342Y-61139151D02*
X108275342Y-61170104D01*
X108275342Y-61170104D02*
X108246771Y-61232009D01*
X108246771Y-61232009D02*
X108218200Y-61262961D01*
X108218200Y-61262961D02*
X108161057Y-61293913D01*
X108161057Y-61293913D02*
X108046771Y-61293913D01*
X108046771Y-61293913D02*
X107989628Y-61324866D01*
X107989628Y-61324866D02*
X107961057Y-61355818D01*
X107961057Y-61355818D02*
X107932485Y-61417723D01*
X107932485Y-61417723D02*
X107932485Y-61541532D01*
X107932485Y-61541532D02*
X107961057Y-61603437D01*
X107961057Y-61603437D02*
X107989628Y-61634390D01*
X107989628Y-61634390D02*
X108046771Y-61665342D01*
X108046771Y-61665342D02*
X108161057Y-61665342D01*
X108161057Y-61665342D02*
X108218200Y-61634390D01*
X108218200Y-61634390D02*
X108246771Y-61603437D01*
X108246771Y-61603437D02*
X108275342Y-61541532D01*
X108275342Y-61541532D02*
X108275342Y-61417723D01*
X108275342Y-61417723D02*
X108246771Y-61355818D01*
X108246771Y-61355818D02*
X108218200Y-61324866D01*
X108218200Y-61324866D02*
X108161057Y-61293913D01*
X98884185Y-36752342D02*
X98684185Y-36442818D01*
X98541328Y-36752342D02*
X98541328Y-36102342D01*
X98541328Y-36102342D02*
X98769899Y-36102342D01*
X98769899Y-36102342D02*
X98827042Y-36133294D01*
X98827042Y-36133294D02*
X98855613Y-36164247D01*
X98855613Y-36164247D02*
X98884185Y-36226151D01*
X98884185Y-36226151D02*
X98884185Y-36319009D01*
X98884185Y-36319009D02*
X98855613Y-36380913D01*
X98855613Y-36380913D02*
X98827042Y-36411866D01*
X98827042Y-36411866D02*
X98769899Y-36442818D01*
X98769899Y-36442818D02*
X98541328Y-36442818D01*
X99455613Y-36752342D02*
X99112756Y-36752342D01*
X99284185Y-36752342D02*
X99284185Y-36102342D01*
X99284185Y-36102342D02*
X99227042Y-36195199D01*
X99227042Y-36195199D02*
X99169899Y-36257104D01*
X99169899Y-36257104D02*
X99112756Y-36288056D01*
X99827042Y-36102342D02*
X99884185Y-36102342D01*
X99884185Y-36102342D02*
X99941328Y-36133294D01*
X99941328Y-36133294D02*
X99969900Y-36164247D01*
X99969900Y-36164247D02*
X99998471Y-36226151D01*
X99998471Y-36226151D02*
X100027042Y-36349961D01*
X100027042Y-36349961D02*
X100027042Y-36504723D01*
X100027042Y-36504723D02*
X99998471Y-36628532D01*
X99998471Y-36628532D02*
X99969900Y-36690437D01*
X99969900Y-36690437D02*
X99941328Y-36721390D01*
X99941328Y-36721390D02*
X99884185Y-36752342D01*
X99884185Y-36752342D02*
X99827042Y-36752342D01*
X99827042Y-36752342D02*
X99769900Y-36721390D01*
X99769900Y-36721390D02*
X99741328Y-36690437D01*
X99741328Y-36690437D02*
X99712757Y-36628532D01*
X99712757Y-36628532D02*
X99684185Y-36504723D01*
X99684185Y-36504723D02*
X99684185Y-36349961D01*
X99684185Y-36349961D02*
X99712757Y-36226151D01*
X99712757Y-36226151D02*
X99741328Y-36164247D01*
X99741328Y-36164247D02*
X99769900Y-36133294D01*
X99769900Y-36133294D02*
X99827042Y-36102342D01*
X90029999Y-53296542D02*
X90029999Y-53760828D01*
X90029999Y-53760828D02*
X90001428Y-53853685D01*
X90001428Y-53853685D02*
X89944285Y-53915590D01*
X89944285Y-53915590D02*
X89858571Y-53946542D01*
X89858571Y-53946542D02*
X89801428Y-53946542D01*
X90629999Y-53946542D02*
X90287142Y-53946542D01*
X90458571Y-53946542D02*
X90458571Y-53296542D01*
X90458571Y-53296542D02*
X90401428Y-53389399D01*
X90401428Y-53389399D02*
X90344285Y-53451304D01*
X90344285Y-53451304D02*
X90287142Y-53482256D01*
X90832637Y-34929714D02*
X90863590Y-34958286D01*
X90863590Y-34958286D02*
X90894542Y-35044000D01*
X90894542Y-35044000D02*
X90894542Y-35101143D01*
X90894542Y-35101143D02*
X90863590Y-35186857D01*
X90863590Y-35186857D02*
X90801685Y-35244000D01*
X90801685Y-35244000D02*
X90739780Y-35272571D01*
X90739780Y-35272571D02*
X90615970Y-35301143D01*
X90615970Y-35301143D02*
X90523113Y-35301143D01*
X90523113Y-35301143D02*
X90399304Y-35272571D01*
X90399304Y-35272571D02*
X90337399Y-35244000D01*
X90337399Y-35244000D02*
X90275494Y-35186857D01*
X90275494Y-35186857D02*
X90244542Y-35101143D01*
X90244542Y-35101143D02*
X90244542Y-35044000D01*
X90244542Y-35044000D02*
X90275494Y-34958286D01*
X90275494Y-34958286D02*
X90306447Y-34929714D01*
X90306447Y-34701143D02*
X90275494Y-34672571D01*
X90275494Y-34672571D02*
X90244542Y-34615429D01*
X90244542Y-34615429D02*
X90244542Y-34472571D01*
X90244542Y-34472571D02*
X90275494Y-34415429D01*
X90275494Y-34415429D02*
X90306447Y-34386857D01*
X90306447Y-34386857D02*
X90368351Y-34358286D01*
X90368351Y-34358286D02*
X90430256Y-34358286D01*
X90430256Y-34358286D02*
X90523113Y-34386857D01*
X90523113Y-34386857D02*
X90894542Y-34729714D01*
X90894542Y-34729714D02*
X90894542Y-34358286D01*
X90306447Y-34129714D02*
X90275494Y-34101142D01*
X90275494Y-34101142D02*
X90244542Y-34044000D01*
X90244542Y-34044000D02*
X90244542Y-33901142D01*
X90244542Y-33901142D02*
X90275494Y-33844000D01*
X90275494Y-33844000D02*
X90306447Y-33815428D01*
X90306447Y-33815428D02*
X90368351Y-33786857D01*
X90368351Y-33786857D02*
X90430256Y-33786857D01*
X90430256Y-33786857D02*
X90523113Y-33815428D01*
X90523113Y-33815428D02*
X90894542Y-34158285D01*
X90894542Y-34158285D02*
X90894542Y-33786857D01*
X106538885Y-46746242D02*
X106338885Y-46436718D01*
X106196028Y-46746242D02*
X106196028Y-46096242D01*
X106196028Y-46096242D02*
X106424599Y-46096242D01*
X106424599Y-46096242D02*
X106481742Y-46127194D01*
X106481742Y-46127194D02*
X106510313Y-46158147D01*
X106510313Y-46158147D02*
X106538885Y-46220051D01*
X106538885Y-46220051D02*
X106538885Y-46312909D01*
X106538885Y-46312909D02*
X106510313Y-46374813D01*
X106510313Y-46374813D02*
X106481742Y-46405766D01*
X106481742Y-46405766D02*
X106424599Y-46436718D01*
X106424599Y-46436718D02*
X106196028Y-46436718D01*
X107110313Y-46746242D02*
X106767456Y-46746242D01*
X106938885Y-46746242D02*
X106938885Y-46096242D01*
X106938885Y-46096242D02*
X106881742Y-46189099D01*
X106881742Y-46189099D02*
X106824599Y-46251004D01*
X106824599Y-46251004D02*
X106767456Y-46281956D01*
X107310314Y-46096242D02*
X107681742Y-46096242D01*
X107681742Y-46096242D02*
X107481742Y-46343861D01*
X107481742Y-46343861D02*
X107567457Y-46343861D01*
X107567457Y-46343861D02*
X107624600Y-46374813D01*
X107624600Y-46374813D02*
X107653171Y-46405766D01*
X107653171Y-46405766D02*
X107681742Y-46467670D01*
X107681742Y-46467670D02*
X107681742Y-46622432D01*
X107681742Y-46622432D02*
X107653171Y-46684337D01*
X107653171Y-46684337D02*
X107624600Y-46715290D01*
X107624600Y-46715290D02*
X107567457Y-46746242D01*
X107567457Y-46746242D02*
X107396028Y-46746242D01*
X107396028Y-46746242D02*
X107338885Y-46715290D01*
X107338885Y-46715290D02*
X107310314Y-46684337D01*
X95801199Y-61901942D02*
X95801199Y-62366228D01*
X95801199Y-62366228D02*
X95772628Y-62459085D01*
X95772628Y-62459085D02*
X95715485Y-62520990D01*
X95715485Y-62520990D02*
X95629771Y-62551942D01*
X95629771Y-62551942D02*
X95572628Y-62551942D01*
X96372628Y-61901942D02*
X96086914Y-61901942D01*
X96086914Y-61901942D02*
X96058342Y-62211466D01*
X96058342Y-62211466D02*
X96086914Y-62180513D01*
X96086914Y-62180513D02*
X96144057Y-62149561D01*
X96144057Y-62149561D02*
X96286914Y-62149561D01*
X96286914Y-62149561D02*
X96344057Y-62180513D01*
X96344057Y-62180513D02*
X96372628Y-62211466D01*
X96372628Y-62211466D02*
X96401199Y-62273370D01*
X96401199Y-62273370D02*
X96401199Y-62428132D01*
X96401199Y-62428132D02*
X96372628Y-62490037D01*
X96372628Y-62490037D02*
X96344057Y-62520990D01*
X96344057Y-62520990D02*
X96286914Y-62551942D01*
X96286914Y-62551942D02*
X96144057Y-62551942D01*
X96144057Y-62551942D02*
X96086914Y-62520990D01*
X96086914Y-62520990D02*
X96058342Y-62490037D01*
X114346085Y-61298637D02*
X114317513Y-61329590D01*
X114317513Y-61329590D02*
X114231799Y-61360542D01*
X114231799Y-61360542D02*
X114174656Y-61360542D01*
X114174656Y-61360542D02*
X114088942Y-61329590D01*
X114088942Y-61329590D02*
X114031799Y-61267685D01*
X114031799Y-61267685D02*
X114003228Y-61205780D01*
X114003228Y-61205780D02*
X113974656Y-61081970D01*
X113974656Y-61081970D02*
X113974656Y-60989113D01*
X113974656Y-60989113D02*
X114003228Y-60865304D01*
X114003228Y-60865304D02*
X114031799Y-60803399D01*
X114031799Y-60803399D02*
X114088942Y-60741494D01*
X114088942Y-60741494D02*
X114174656Y-60710542D01*
X114174656Y-60710542D02*
X114231799Y-60710542D01*
X114231799Y-60710542D02*
X114317513Y-60741494D01*
X114317513Y-60741494D02*
X114346085Y-60772447D01*
X114574656Y-60772447D02*
X114603228Y-60741494D01*
X114603228Y-60741494D02*
X114660371Y-60710542D01*
X114660371Y-60710542D02*
X114803228Y-60710542D01*
X114803228Y-60710542D02*
X114860371Y-60741494D01*
X114860371Y-60741494D02*
X114888942Y-60772447D01*
X114888942Y-60772447D02*
X114917513Y-60834351D01*
X114917513Y-60834351D02*
X114917513Y-60896256D01*
X114917513Y-60896256D02*
X114888942Y-60989113D01*
X114888942Y-60989113D02*
X114546085Y-61360542D01*
X114546085Y-61360542D02*
X114917513Y-61360542D01*
X115431800Y-60710542D02*
X115317514Y-60710542D01*
X115317514Y-60710542D02*
X115260371Y-60741494D01*
X115260371Y-60741494D02*
X115231800Y-60772447D01*
X115231800Y-60772447D02*
X115174657Y-60865304D01*
X115174657Y-60865304D02*
X115146085Y-60989113D01*
X115146085Y-60989113D02*
X115146085Y-61236732D01*
X115146085Y-61236732D02*
X115174657Y-61298637D01*
X115174657Y-61298637D02*
X115203228Y-61329590D01*
X115203228Y-61329590D02*
X115260371Y-61360542D01*
X115260371Y-61360542D02*
X115374657Y-61360542D01*
X115374657Y-61360542D02*
X115431800Y-61329590D01*
X115431800Y-61329590D02*
X115460371Y-61298637D01*
X115460371Y-61298637D02*
X115488942Y-61236732D01*
X115488942Y-61236732D02*
X115488942Y-61081970D01*
X115488942Y-61081970D02*
X115460371Y-61020066D01*
X115460371Y-61020066D02*
X115431800Y-60989113D01*
X115431800Y-60989113D02*
X115374657Y-60958161D01*
X115374657Y-60958161D02*
X115260371Y-60958161D01*
X115260371Y-60958161D02*
X115203228Y-60989113D01*
X115203228Y-60989113D02*
X115174657Y-61020066D01*
X115174657Y-61020066D02*
X115146085Y-61081970D01*
X88159999Y-42196542D02*
X88159999Y-42660828D01*
X88159999Y-42660828D02*
X88131428Y-42753685D01*
X88131428Y-42753685D02*
X88074285Y-42815590D01*
X88074285Y-42815590D02*
X87988571Y-42846542D01*
X87988571Y-42846542D02*
X87931428Y-42846542D01*
X88531428Y-42475113D02*
X88474285Y-42444161D01*
X88474285Y-42444161D02*
X88445714Y-42413209D01*
X88445714Y-42413209D02*
X88417142Y-42351304D01*
X88417142Y-42351304D02*
X88417142Y-42320351D01*
X88417142Y-42320351D02*
X88445714Y-42258447D01*
X88445714Y-42258447D02*
X88474285Y-42227494D01*
X88474285Y-42227494D02*
X88531428Y-42196542D01*
X88531428Y-42196542D02*
X88645714Y-42196542D01*
X88645714Y-42196542D02*
X88702857Y-42227494D01*
X88702857Y-42227494D02*
X88731428Y-42258447D01*
X88731428Y-42258447D02*
X88759999Y-42320351D01*
X88759999Y-42320351D02*
X88759999Y-42351304D01*
X88759999Y-42351304D02*
X88731428Y-42413209D01*
X88731428Y-42413209D02*
X88702857Y-42444161D01*
X88702857Y-42444161D02*
X88645714Y-42475113D01*
X88645714Y-42475113D02*
X88531428Y-42475113D01*
X88531428Y-42475113D02*
X88474285Y-42506066D01*
X88474285Y-42506066D02*
X88445714Y-42537018D01*
X88445714Y-42537018D02*
X88417142Y-42598923D01*
X88417142Y-42598923D02*
X88417142Y-42722732D01*
X88417142Y-42722732D02*
X88445714Y-42784637D01*
X88445714Y-42784637D02*
X88474285Y-42815590D01*
X88474285Y-42815590D02*
X88531428Y-42846542D01*
X88531428Y-42846542D02*
X88645714Y-42846542D01*
X88645714Y-42846542D02*
X88702857Y-42815590D01*
X88702857Y-42815590D02*
X88731428Y-42784637D01*
X88731428Y-42784637D02*
X88759999Y-42722732D01*
X88759999Y-42722732D02*
X88759999Y-42598923D01*
X88759999Y-42598923D02*
X88731428Y-42537018D01*
X88731428Y-42537018D02*
X88702857Y-42506066D01*
X88702857Y-42506066D02*
X88645714Y-42475113D01*
X90289900Y-41941437D02*
X90261328Y-41972390D01*
X90261328Y-41972390D02*
X90175614Y-42003342D01*
X90175614Y-42003342D02*
X90118471Y-42003342D01*
X90118471Y-42003342D02*
X90032757Y-41972390D01*
X90032757Y-41972390D02*
X89975614Y-41910485D01*
X89975614Y-41910485D02*
X89947043Y-41848580D01*
X89947043Y-41848580D02*
X89918471Y-41724770D01*
X89918471Y-41724770D02*
X89918471Y-41631913D01*
X89918471Y-41631913D02*
X89947043Y-41508104D01*
X89947043Y-41508104D02*
X89975614Y-41446199D01*
X89975614Y-41446199D02*
X90032757Y-41384294D01*
X90032757Y-41384294D02*
X90118471Y-41353342D01*
X90118471Y-41353342D02*
X90175614Y-41353342D01*
X90175614Y-41353342D02*
X90261328Y-41384294D01*
X90261328Y-41384294D02*
X90289900Y-41415247D01*
X90575614Y-42003342D02*
X90689900Y-42003342D01*
X90689900Y-42003342D02*
X90747043Y-41972390D01*
X90747043Y-41972390D02*
X90775614Y-41941437D01*
X90775614Y-41941437D02*
X90832757Y-41848580D01*
X90832757Y-41848580D02*
X90861328Y-41724770D01*
X90861328Y-41724770D02*
X90861328Y-41477151D01*
X90861328Y-41477151D02*
X90832757Y-41415247D01*
X90832757Y-41415247D02*
X90804186Y-41384294D01*
X90804186Y-41384294D02*
X90747043Y-41353342D01*
X90747043Y-41353342D02*
X90632757Y-41353342D01*
X90632757Y-41353342D02*
X90575614Y-41384294D01*
X90575614Y-41384294D02*
X90547043Y-41415247D01*
X90547043Y-41415247D02*
X90518471Y-41477151D01*
X90518471Y-41477151D02*
X90518471Y-41631913D01*
X90518471Y-41631913D02*
X90547043Y-41693818D01*
X90547043Y-41693818D02*
X90575614Y-41724770D01*
X90575614Y-41724770D02*
X90632757Y-41755723D01*
X90632757Y-41755723D02*
X90747043Y-41755723D01*
X90747043Y-41755723D02*
X90804186Y-41724770D01*
X90804186Y-41724770D02*
X90832757Y-41693818D01*
X90832757Y-41693818D02*
X90861328Y-41631913D01*
X104068285Y-35428937D02*
X104039713Y-35459890D01*
X104039713Y-35459890D02*
X103953999Y-35490842D01*
X103953999Y-35490842D02*
X103896856Y-35490842D01*
X103896856Y-35490842D02*
X103811142Y-35459890D01*
X103811142Y-35459890D02*
X103753999Y-35397985D01*
X103753999Y-35397985D02*
X103725428Y-35336080D01*
X103725428Y-35336080D02*
X103696856Y-35212270D01*
X103696856Y-35212270D02*
X103696856Y-35119413D01*
X103696856Y-35119413D02*
X103725428Y-34995604D01*
X103725428Y-34995604D02*
X103753999Y-34933699D01*
X103753999Y-34933699D02*
X103811142Y-34871794D01*
X103811142Y-34871794D02*
X103896856Y-34840842D01*
X103896856Y-34840842D02*
X103953999Y-34840842D01*
X103953999Y-34840842D02*
X104039713Y-34871794D01*
X104039713Y-34871794D02*
X104068285Y-34902747D01*
X104639713Y-35490842D02*
X104296856Y-35490842D01*
X104468285Y-35490842D02*
X104468285Y-34840842D01*
X104468285Y-34840842D02*
X104411142Y-34933699D01*
X104411142Y-34933699D02*
X104353999Y-34995604D01*
X104353999Y-34995604D02*
X104296856Y-35026556D01*
X104982571Y-35119413D02*
X104925428Y-35088461D01*
X104925428Y-35088461D02*
X104896857Y-35057509D01*
X104896857Y-35057509D02*
X104868285Y-34995604D01*
X104868285Y-34995604D02*
X104868285Y-34964651D01*
X104868285Y-34964651D02*
X104896857Y-34902747D01*
X104896857Y-34902747D02*
X104925428Y-34871794D01*
X104925428Y-34871794D02*
X104982571Y-34840842D01*
X104982571Y-34840842D02*
X105096857Y-34840842D01*
X105096857Y-34840842D02*
X105154000Y-34871794D01*
X105154000Y-34871794D02*
X105182571Y-34902747D01*
X105182571Y-34902747D02*
X105211142Y-34964651D01*
X105211142Y-34964651D02*
X105211142Y-34995604D01*
X105211142Y-34995604D02*
X105182571Y-35057509D01*
X105182571Y-35057509D02*
X105154000Y-35088461D01*
X105154000Y-35088461D02*
X105096857Y-35119413D01*
X105096857Y-35119413D02*
X104982571Y-35119413D01*
X104982571Y-35119413D02*
X104925428Y-35150366D01*
X104925428Y-35150366D02*
X104896857Y-35181318D01*
X104896857Y-35181318D02*
X104868285Y-35243223D01*
X104868285Y-35243223D02*
X104868285Y-35367032D01*
X104868285Y-35367032D02*
X104896857Y-35428937D01*
X104896857Y-35428937D02*
X104925428Y-35459890D01*
X104925428Y-35459890D02*
X104982571Y-35490842D01*
X104982571Y-35490842D02*
X105096857Y-35490842D01*
X105096857Y-35490842D02*
X105154000Y-35459890D01*
X105154000Y-35459890D02*
X105182571Y-35428937D01*
X105182571Y-35428937D02*
X105211142Y-35367032D01*
X105211142Y-35367032D02*
X105211142Y-35243223D01*
X105211142Y-35243223D02*
X105182571Y-35181318D01*
X105182571Y-35181318D02*
X105154000Y-35150366D01*
X105154000Y-35150366D02*
X105096857Y-35119413D01*
X90164285Y-44936542D02*
X90564285Y-45586542D01*
X90564285Y-44936542D02*
X90164285Y-45586542D01*
X90764285Y-44998447D02*
X90792857Y-44967494D01*
X90792857Y-44967494D02*
X90850000Y-44936542D01*
X90850000Y-44936542D02*
X90992857Y-44936542D01*
X90992857Y-44936542D02*
X91050000Y-44967494D01*
X91050000Y-44967494D02*
X91078571Y-44998447D01*
X91078571Y-44998447D02*
X91107142Y-45060351D01*
X91107142Y-45060351D02*
X91107142Y-45122256D01*
X91107142Y-45122256D02*
X91078571Y-45215113D01*
X91078571Y-45215113D02*
X90735714Y-45586542D01*
X90735714Y-45586542D02*
X91107142Y-45586542D01*
X90197542Y-28936856D02*
X90723732Y-28936856D01*
X90723732Y-28936856D02*
X90785637Y-28908285D01*
X90785637Y-28908285D02*
X90816590Y-28879714D01*
X90816590Y-28879714D02*
X90847542Y-28822571D01*
X90847542Y-28822571D02*
X90847542Y-28708285D01*
X90847542Y-28708285D02*
X90816590Y-28651142D01*
X90816590Y-28651142D02*
X90785637Y-28622571D01*
X90785637Y-28622571D02*
X90723732Y-28593999D01*
X90723732Y-28593999D02*
X90197542Y-28593999D01*
X90847542Y-27994000D02*
X90847542Y-28336857D01*
X90847542Y-28165428D02*
X90197542Y-28165428D01*
X90197542Y-28165428D02*
X90290399Y-28222571D01*
X90290399Y-28222571D02*
X90352304Y-28279714D01*
X90352304Y-28279714D02*
X90383256Y-28336857D01*
X90259447Y-27765428D02*
X90228494Y-27736856D01*
X90228494Y-27736856D02*
X90197542Y-27679714D01*
X90197542Y-27679714D02*
X90197542Y-27536856D01*
X90197542Y-27536856D02*
X90228494Y-27479714D01*
X90228494Y-27479714D02*
X90259447Y-27451142D01*
X90259447Y-27451142D02*
X90321351Y-27422571D01*
X90321351Y-27422571D02*
X90383256Y-27422571D01*
X90383256Y-27422571D02*
X90476113Y-27451142D01*
X90476113Y-27451142D02*
X90847542Y-27793999D01*
X90847542Y-27793999D02*
X90847542Y-27422571D01*
X103667143Y-51616542D02*
X103667143Y-52142732D01*
X103667143Y-52142732D02*
X103695714Y-52204637D01*
X103695714Y-52204637D02*
X103724286Y-52235590D01*
X103724286Y-52235590D02*
X103781428Y-52266542D01*
X103781428Y-52266542D02*
X103895714Y-52266542D01*
X103895714Y-52266542D02*
X103952857Y-52235590D01*
X103952857Y-52235590D02*
X103981428Y-52204637D01*
X103981428Y-52204637D02*
X104010000Y-52142732D01*
X104010000Y-52142732D02*
X104010000Y-51616542D01*
X104609999Y-52266542D02*
X104267142Y-52266542D01*
X104438571Y-52266542D02*
X104438571Y-51616542D01*
X104438571Y-51616542D02*
X104381428Y-51709399D01*
X104381428Y-51709399D02*
X104324285Y-51771304D01*
X104324285Y-51771304D02*
X104267142Y-51802256D01*
X104981428Y-51616542D02*
X105038571Y-51616542D01*
X105038571Y-51616542D02*
X105095714Y-51647494D01*
X105095714Y-51647494D02*
X105124286Y-51678447D01*
X105124286Y-51678447D02*
X105152857Y-51740351D01*
X105152857Y-51740351D02*
X105181428Y-51864161D01*
X105181428Y-51864161D02*
X105181428Y-52018923D01*
X105181428Y-52018923D02*
X105152857Y-52142732D01*
X105152857Y-52142732D02*
X105124286Y-52204637D01*
X105124286Y-52204637D02*
X105095714Y-52235590D01*
X105095714Y-52235590D02*
X105038571Y-52266542D01*
X105038571Y-52266542D02*
X104981428Y-52266542D01*
X104981428Y-52266542D02*
X104924286Y-52235590D01*
X104924286Y-52235590D02*
X104895714Y-52204637D01*
X104895714Y-52204637D02*
X104867143Y-52142732D01*
X104867143Y-52142732D02*
X104838571Y-52018923D01*
X104838571Y-52018923D02*
X104838571Y-51864161D01*
X104838571Y-51864161D02*
X104867143Y-51740351D01*
X104867143Y-51740351D02*
X104895714Y-51678447D01*
X104895714Y-51678447D02*
X104924286Y-51647494D01*
X104924286Y-51647494D02*
X104981428Y-51616542D01*
X90070000Y-36872542D02*
X89870000Y-36563018D01*
X89727143Y-36872542D02*
X89727143Y-36222542D01*
X89727143Y-36222542D02*
X89955714Y-36222542D01*
X89955714Y-36222542D02*
X90012857Y-36253494D01*
X90012857Y-36253494D02*
X90041428Y-36284447D01*
X90041428Y-36284447D02*
X90070000Y-36346351D01*
X90070000Y-36346351D02*
X90070000Y-36439209D01*
X90070000Y-36439209D02*
X90041428Y-36501113D01*
X90041428Y-36501113D02*
X90012857Y-36532066D01*
X90012857Y-36532066D02*
X89955714Y-36563018D01*
X89955714Y-36563018D02*
X89727143Y-36563018D01*
X90298571Y-36284447D02*
X90327143Y-36253494D01*
X90327143Y-36253494D02*
X90384286Y-36222542D01*
X90384286Y-36222542D02*
X90527143Y-36222542D01*
X90527143Y-36222542D02*
X90584286Y-36253494D01*
X90584286Y-36253494D02*
X90612857Y-36284447D01*
X90612857Y-36284447D02*
X90641428Y-36346351D01*
X90641428Y-36346351D02*
X90641428Y-36408256D01*
X90641428Y-36408256D02*
X90612857Y-36501113D01*
X90612857Y-36501113D02*
X90270000Y-36872542D01*
X90270000Y-36872542D02*
X90641428Y-36872542D01*
X88895285Y-35693037D02*
X88866713Y-35723990D01*
X88866713Y-35723990D02*
X88780999Y-35754942D01*
X88780999Y-35754942D02*
X88723856Y-35754942D01*
X88723856Y-35754942D02*
X88638142Y-35723990D01*
X88638142Y-35723990D02*
X88580999Y-35662085D01*
X88580999Y-35662085D02*
X88552428Y-35600180D01*
X88552428Y-35600180D02*
X88523856Y-35476370D01*
X88523856Y-35476370D02*
X88523856Y-35383513D01*
X88523856Y-35383513D02*
X88552428Y-35259704D01*
X88552428Y-35259704D02*
X88580999Y-35197799D01*
X88580999Y-35197799D02*
X88638142Y-35135894D01*
X88638142Y-35135894D02*
X88723856Y-35104942D01*
X88723856Y-35104942D02*
X88780999Y-35104942D01*
X88780999Y-35104942D02*
X88866713Y-35135894D01*
X88866713Y-35135894D02*
X88895285Y-35166847D01*
X89123856Y-35166847D02*
X89152428Y-35135894D01*
X89152428Y-35135894D02*
X89209571Y-35104942D01*
X89209571Y-35104942D02*
X89352428Y-35104942D01*
X89352428Y-35104942D02*
X89409571Y-35135894D01*
X89409571Y-35135894D02*
X89438142Y-35166847D01*
X89438142Y-35166847D02*
X89466713Y-35228751D01*
X89466713Y-35228751D02*
X89466713Y-35290656D01*
X89466713Y-35290656D02*
X89438142Y-35383513D01*
X89438142Y-35383513D02*
X89095285Y-35754942D01*
X89095285Y-35754942D02*
X89466713Y-35754942D01*
X89981000Y-35321609D02*
X89981000Y-35754942D01*
X89838142Y-35073990D02*
X89695285Y-35538275D01*
X89695285Y-35538275D02*
X90066714Y-35538275D01*
X123334637Y-41841399D02*
X123365590Y-41869971D01*
X123365590Y-41869971D02*
X123396542Y-41955685D01*
X123396542Y-41955685D02*
X123396542Y-42012828D01*
X123396542Y-42012828D02*
X123365590Y-42098542D01*
X123365590Y-42098542D02*
X123303685Y-42155685D01*
X123303685Y-42155685D02*
X123241780Y-42184256D01*
X123241780Y-42184256D02*
X123117970Y-42212828D01*
X123117970Y-42212828D02*
X123025113Y-42212828D01*
X123025113Y-42212828D02*
X122901304Y-42184256D01*
X122901304Y-42184256D02*
X122839399Y-42155685D01*
X122839399Y-42155685D02*
X122777494Y-42098542D01*
X122777494Y-42098542D02*
X122746542Y-42012828D01*
X122746542Y-42012828D02*
X122746542Y-41955685D01*
X122746542Y-41955685D02*
X122777494Y-41869971D01*
X122777494Y-41869971D02*
X122808447Y-41841399D01*
X123025113Y-41498542D02*
X122994161Y-41555685D01*
X122994161Y-41555685D02*
X122963209Y-41584256D01*
X122963209Y-41584256D02*
X122901304Y-41612828D01*
X122901304Y-41612828D02*
X122870351Y-41612828D01*
X122870351Y-41612828D02*
X122808447Y-41584256D01*
X122808447Y-41584256D02*
X122777494Y-41555685D01*
X122777494Y-41555685D02*
X122746542Y-41498542D01*
X122746542Y-41498542D02*
X122746542Y-41384256D01*
X122746542Y-41384256D02*
X122777494Y-41327114D01*
X122777494Y-41327114D02*
X122808447Y-41298542D01*
X122808447Y-41298542D02*
X122870351Y-41269971D01*
X122870351Y-41269971D02*
X122901304Y-41269971D01*
X122901304Y-41269971D02*
X122963209Y-41298542D01*
X122963209Y-41298542D02*
X122994161Y-41327114D01*
X122994161Y-41327114D02*
X123025113Y-41384256D01*
X123025113Y-41384256D02*
X123025113Y-41498542D01*
X123025113Y-41498542D02*
X123056066Y-41555685D01*
X123056066Y-41555685D02*
X123087018Y-41584256D01*
X123087018Y-41584256D02*
X123148923Y-41612828D01*
X123148923Y-41612828D02*
X123272732Y-41612828D01*
X123272732Y-41612828D02*
X123334637Y-41584256D01*
X123334637Y-41584256D02*
X123365590Y-41555685D01*
X123365590Y-41555685D02*
X123396542Y-41498542D01*
X123396542Y-41498542D02*
X123396542Y-41384256D01*
X123396542Y-41384256D02*
X123365590Y-41327114D01*
X123365590Y-41327114D02*
X123334637Y-41298542D01*
X123334637Y-41298542D02*
X123272732Y-41269971D01*
X123272732Y-41269971D02*
X123148923Y-41269971D01*
X123148923Y-41269971D02*
X123087018Y-41298542D01*
X123087018Y-41298542D02*
X123056066Y-41327114D01*
X123056066Y-41327114D02*
X123025113Y-41384256D01*
X93256885Y-36764737D02*
X93228313Y-36795690D01*
X93228313Y-36795690D02*
X93142599Y-36826642D01*
X93142599Y-36826642D02*
X93085456Y-36826642D01*
X93085456Y-36826642D02*
X92999742Y-36795690D01*
X92999742Y-36795690D02*
X92942599Y-36733785D01*
X92942599Y-36733785D02*
X92914028Y-36671880D01*
X92914028Y-36671880D02*
X92885456Y-36548070D01*
X92885456Y-36548070D02*
X92885456Y-36455213D01*
X92885456Y-36455213D02*
X92914028Y-36331404D01*
X92914028Y-36331404D02*
X92942599Y-36269499D01*
X92942599Y-36269499D02*
X92999742Y-36207594D01*
X92999742Y-36207594D02*
X93085456Y-36176642D01*
X93085456Y-36176642D02*
X93142599Y-36176642D01*
X93142599Y-36176642D02*
X93228313Y-36207594D01*
X93228313Y-36207594D02*
X93256885Y-36238547D01*
X93828313Y-36826642D02*
X93485456Y-36826642D01*
X93656885Y-36826642D02*
X93656885Y-36176642D01*
X93656885Y-36176642D02*
X93599742Y-36269499D01*
X93599742Y-36269499D02*
X93542599Y-36331404D01*
X93542599Y-36331404D02*
X93485456Y-36362356D01*
X94399742Y-36826642D02*
X94056885Y-36826642D01*
X94228314Y-36826642D02*
X94228314Y-36176642D01*
X94228314Y-36176642D02*
X94171171Y-36269499D01*
X94171171Y-36269499D02*
X94114028Y-36331404D01*
X94114028Y-36331404D02*
X94056885Y-36362356D01*
X91450085Y-51818142D02*
X91850085Y-52468142D01*
X91850085Y-51818142D02*
X91450085Y-52468142D01*
X92392942Y-52468142D02*
X92050085Y-52468142D01*
X92221514Y-52468142D02*
X92221514Y-51818142D01*
X92221514Y-51818142D02*
X92164371Y-51910999D01*
X92164371Y-51910999D02*
X92107228Y-51972904D01*
X92107228Y-51972904D02*
X92050085Y-52003856D01*
X115070657Y-34192542D02*
X115070657Y-34718732D01*
X115070657Y-34718732D02*
X115099228Y-34780637D01*
X115099228Y-34780637D02*
X115127800Y-34811590D01*
X115127800Y-34811590D02*
X115184942Y-34842542D01*
X115184942Y-34842542D02*
X115299228Y-34842542D01*
X115299228Y-34842542D02*
X115356371Y-34811590D01*
X115356371Y-34811590D02*
X115384942Y-34780637D01*
X115384942Y-34780637D02*
X115413514Y-34718732D01*
X115413514Y-34718732D02*
X115413514Y-34192542D01*
X115670656Y-34254447D02*
X115699228Y-34223494D01*
X115699228Y-34223494D02*
X115756371Y-34192542D01*
X115756371Y-34192542D02*
X115899228Y-34192542D01*
X115899228Y-34192542D02*
X115956371Y-34223494D01*
X115956371Y-34223494D02*
X115984942Y-34254447D01*
X115984942Y-34254447D02*
X116013513Y-34316351D01*
X116013513Y-34316351D02*
X116013513Y-34378256D01*
X116013513Y-34378256D02*
X115984942Y-34471113D01*
X115984942Y-34471113D02*
X115642085Y-34842542D01*
X115642085Y-34842542D02*
X116013513Y-34842542D01*
X92994285Y-68704637D02*
X92965713Y-68735590D01*
X92965713Y-68735590D02*
X92879999Y-68766542D01*
X92879999Y-68766542D02*
X92822856Y-68766542D01*
X92822856Y-68766542D02*
X92737142Y-68735590D01*
X92737142Y-68735590D02*
X92679999Y-68673685D01*
X92679999Y-68673685D02*
X92651428Y-68611780D01*
X92651428Y-68611780D02*
X92622856Y-68487970D01*
X92622856Y-68487970D02*
X92622856Y-68395113D01*
X92622856Y-68395113D02*
X92651428Y-68271304D01*
X92651428Y-68271304D02*
X92679999Y-68209399D01*
X92679999Y-68209399D02*
X92737142Y-68147494D01*
X92737142Y-68147494D02*
X92822856Y-68116542D01*
X92822856Y-68116542D02*
X92879999Y-68116542D01*
X92879999Y-68116542D02*
X92965713Y-68147494D01*
X92965713Y-68147494D02*
X92994285Y-68178447D01*
X93565713Y-68766542D02*
X93222856Y-68766542D01*
X93394285Y-68766542D02*
X93394285Y-68116542D01*
X93394285Y-68116542D02*
X93337142Y-68209399D01*
X93337142Y-68209399D02*
X93279999Y-68271304D01*
X93279999Y-68271304D02*
X93222856Y-68302256D01*
X94080000Y-68333209D02*
X94080000Y-68766542D01*
X93937142Y-68085590D02*
X93794285Y-68549875D01*
X93794285Y-68549875D02*
X94165714Y-68549875D01*
X115267557Y-39578542D02*
X115267557Y-40104732D01*
X115267557Y-40104732D02*
X115296128Y-40166637D01*
X115296128Y-40166637D02*
X115324700Y-40197590D01*
X115324700Y-40197590D02*
X115381842Y-40228542D01*
X115381842Y-40228542D02*
X115496128Y-40228542D01*
X115496128Y-40228542D02*
X115553271Y-40197590D01*
X115553271Y-40197590D02*
X115581842Y-40166637D01*
X115581842Y-40166637D02*
X115610414Y-40104732D01*
X115610414Y-40104732D02*
X115610414Y-39578542D01*
X116210413Y-40228542D02*
X115867556Y-40228542D01*
X116038985Y-40228542D02*
X116038985Y-39578542D01*
X116038985Y-39578542D02*
X115981842Y-39671399D01*
X115981842Y-39671399D02*
X115924699Y-39733304D01*
X115924699Y-39733304D02*
X115867556Y-39764256D01*
X97517143Y-54637542D02*
X97517143Y-55163732D01*
X97517143Y-55163732D02*
X97545714Y-55225637D01*
X97545714Y-55225637D02*
X97574286Y-55256590D01*
X97574286Y-55256590D02*
X97631428Y-55287542D01*
X97631428Y-55287542D02*
X97745714Y-55287542D01*
X97745714Y-55287542D02*
X97802857Y-55256590D01*
X97802857Y-55256590D02*
X97831428Y-55225637D01*
X97831428Y-55225637D02*
X97860000Y-55163732D01*
X97860000Y-55163732D02*
X97860000Y-54637542D01*
X98459999Y-55287542D02*
X98117142Y-55287542D01*
X98288571Y-55287542D02*
X98288571Y-54637542D01*
X98288571Y-54637542D02*
X98231428Y-54730399D01*
X98231428Y-54730399D02*
X98174285Y-54792304D01*
X98174285Y-54792304D02*
X98117142Y-54823256D01*
X98660000Y-54637542D02*
X99031428Y-54637542D01*
X99031428Y-54637542D02*
X98831428Y-54885161D01*
X98831428Y-54885161D02*
X98917143Y-54885161D01*
X98917143Y-54885161D02*
X98974286Y-54916113D01*
X98974286Y-54916113D02*
X99002857Y-54947066D01*
X99002857Y-54947066D02*
X99031428Y-55008970D01*
X99031428Y-55008970D02*
X99031428Y-55163732D01*
X99031428Y-55163732D02*
X99002857Y-55225637D01*
X99002857Y-55225637D02*
X98974286Y-55256590D01*
X98974286Y-55256590D02*
X98917143Y-55287542D01*
X98917143Y-55287542D02*
X98745714Y-55287542D01*
X98745714Y-55287542D02*
X98688571Y-55256590D01*
X98688571Y-55256590D02*
X98660000Y-55225637D01*
X96902600Y-34230942D02*
X96702600Y-33921418D01*
X96559743Y-34230942D02*
X96559743Y-33580942D01*
X96559743Y-33580942D02*
X96788314Y-33580942D01*
X96788314Y-33580942D02*
X96845457Y-33611894D01*
X96845457Y-33611894D02*
X96874028Y-33642847D01*
X96874028Y-33642847D02*
X96902600Y-33704751D01*
X96902600Y-33704751D02*
X96902600Y-33797609D01*
X96902600Y-33797609D02*
X96874028Y-33859513D01*
X96874028Y-33859513D02*
X96845457Y-33890466D01*
X96845457Y-33890466D02*
X96788314Y-33921418D01*
X96788314Y-33921418D02*
X96559743Y-33921418D01*
X97416886Y-33797609D02*
X97416886Y-34230942D01*
X97274028Y-33549990D02*
X97131171Y-34014275D01*
X97131171Y-34014275D02*
X97502600Y-34014275D01*
X94699999Y-66866542D02*
X94699999Y-67330828D01*
X94699999Y-67330828D02*
X94671428Y-67423685D01*
X94671428Y-67423685D02*
X94614285Y-67485590D01*
X94614285Y-67485590D02*
X94528571Y-67516542D01*
X94528571Y-67516542D02*
X94471428Y-67516542D01*
X94928571Y-66866542D02*
X95299999Y-66866542D01*
X95299999Y-66866542D02*
X95099999Y-67114161D01*
X95099999Y-67114161D02*
X95185714Y-67114161D01*
X95185714Y-67114161D02*
X95242857Y-67145113D01*
X95242857Y-67145113D02*
X95271428Y-67176066D01*
X95271428Y-67176066D02*
X95299999Y-67237970D01*
X95299999Y-67237970D02*
X95299999Y-67392732D01*
X95299999Y-67392732D02*
X95271428Y-67454637D01*
X95271428Y-67454637D02*
X95242857Y-67485590D01*
X95242857Y-67485590D02*
X95185714Y-67516542D01*
X95185714Y-67516542D02*
X95014285Y-67516542D01*
X95014285Y-67516542D02*
X94957142Y-67485590D01*
X94957142Y-67485590D02*
X94928571Y-67454637D01*
X95998357Y-41267342D02*
X95998357Y-41793532D01*
X95998357Y-41793532D02*
X96026928Y-41855437D01*
X96026928Y-41855437D02*
X96055500Y-41886390D01*
X96055500Y-41886390D02*
X96112642Y-41917342D01*
X96112642Y-41917342D02*
X96226928Y-41917342D01*
X96226928Y-41917342D02*
X96284071Y-41886390D01*
X96284071Y-41886390D02*
X96312642Y-41855437D01*
X96312642Y-41855437D02*
X96341214Y-41793532D01*
X96341214Y-41793532D02*
X96341214Y-41267342D01*
X96712642Y-41545913D02*
X96655499Y-41514961D01*
X96655499Y-41514961D02*
X96626928Y-41484009D01*
X96626928Y-41484009D02*
X96598356Y-41422104D01*
X96598356Y-41422104D02*
X96598356Y-41391151D01*
X96598356Y-41391151D02*
X96626928Y-41329247D01*
X96626928Y-41329247D02*
X96655499Y-41298294D01*
X96655499Y-41298294D02*
X96712642Y-41267342D01*
X96712642Y-41267342D02*
X96826928Y-41267342D01*
X96826928Y-41267342D02*
X96884071Y-41298294D01*
X96884071Y-41298294D02*
X96912642Y-41329247D01*
X96912642Y-41329247D02*
X96941213Y-41391151D01*
X96941213Y-41391151D02*
X96941213Y-41422104D01*
X96941213Y-41422104D02*
X96912642Y-41484009D01*
X96912642Y-41484009D02*
X96884071Y-41514961D01*
X96884071Y-41514961D02*
X96826928Y-41545913D01*
X96826928Y-41545913D02*
X96712642Y-41545913D01*
X96712642Y-41545913D02*
X96655499Y-41576866D01*
X96655499Y-41576866D02*
X96626928Y-41607818D01*
X96626928Y-41607818D02*
X96598356Y-41669723D01*
X96598356Y-41669723D02*
X96598356Y-41793532D01*
X96598356Y-41793532D02*
X96626928Y-41855437D01*
X96626928Y-41855437D02*
X96655499Y-41886390D01*
X96655499Y-41886390D02*
X96712642Y-41917342D01*
X96712642Y-41917342D02*
X96826928Y-41917342D01*
X96826928Y-41917342D02*
X96884071Y-41886390D01*
X96884071Y-41886390D02*
X96912642Y-41855437D01*
X96912642Y-41855437D02*
X96941213Y-41793532D01*
X96941213Y-41793532D02*
X96941213Y-41669723D01*
X96941213Y-41669723D02*
X96912642Y-41607818D01*
X96912642Y-41607818D02*
X96884071Y-41576866D01*
X96884071Y-41576866D02*
X96826928Y-41545913D01*
X115234200Y-37704637D02*
X115205628Y-37735590D01*
X115205628Y-37735590D02*
X115119914Y-37766542D01*
X115119914Y-37766542D02*
X115062771Y-37766542D01*
X115062771Y-37766542D02*
X114977057Y-37735590D01*
X114977057Y-37735590D02*
X114919914Y-37673685D01*
X114919914Y-37673685D02*
X114891343Y-37611780D01*
X114891343Y-37611780D02*
X114862771Y-37487970D01*
X114862771Y-37487970D02*
X114862771Y-37395113D01*
X114862771Y-37395113D02*
X114891343Y-37271304D01*
X114891343Y-37271304D02*
X114919914Y-37209399D01*
X114919914Y-37209399D02*
X114977057Y-37147494D01*
X114977057Y-37147494D02*
X115062771Y-37116542D01*
X115062771Y-37116542D02*
X115119914Y-37116542D01*
X115119914Y-37116542D02*
X115205628Y-37147494D01*
X115205628Y-37147494D02*
X115234200Y-37178447D01*
X115748486Y-37333209D02*
X115748486Y-37766542D01*
X115605628Y-37085590D02*
X115462771Y-37549875D01*
X115462771Y-37549875D02*
X115834200Y-37549875D01*
X115574637Y-48739314D02*
X115605590Y-48767886D01*
X115605590Y-48767886D02*
X115636542Y-48853600D01*
X115636542Y-48853600D02*
X115636542Y-48910743D01*
X115636542Y-48910743D02*
X115605590Y-48996457D01*
X115605590Y-48996457D02*
X115543685Y-49053600D01*
X115543685Y-49053600D02*
X115481780Y-49082171D01*
X115481780Y-49082171D02*
X115357970Y-49110743D01*
X115357970Y-49110743D02*
X115265113Y-49110743D01*
X115265113Y-49110743D02*
X115141304Y-49082171D01*
X115141304Y-49082171D02*
X115079399Y-49053600D01*
X115079399Y-49053600D02*
X115017494Y-48996457D01*
X115017494Y-48996457D02*
X114986542Y-48910743D01*
X114986542Y-48910743D02*
X114986542Y-48853600D01*
X114986542Y-48853600D02*
X115017494Y-48767886D01*
X115017494Y-48767886D02*
X115048447Y-48739314D01*
X114986542Y-48539314D02*
X114986542Y-48167886D01*
X114986542Y-48167886D02*
X115234161Y-48367886D01*
X115234161Y-48367886D02*
X115234161Y-48282171D01*
X115234161Y-48282171D02*
X115265113Y-48225029D01*
X115265113Y-48225029D02*
X115296066Y-48196457D01*
X115296066Y-48196457D02*
X115357970Y-48167886D01*
X115357970Y-48167886D02*
X115512732Y-48167886D01*
X115512732Y-48167886D02*
X115574637Y-48196457D01*
X115574637Y-48196457D02*
X115605590Y-48225029D01*
X115605590Y-48225029D02*
X115636542Y-48282171D01*
X115636542Y-48282171D02*
X115636542Y-48453600D01*
X115636542Y-48453600D02*
X115605590Y-48510743D01*
X115605590Y-48510743D02*
X115574637Y-48539314D01*
X114986542Y-47967885D02*
X114986542Y-47596457D01*
X114986542Y-47596457D02*
X115234161Y-47796457D01*
X115234161Y-47796457D02*
X115234161Y-47710742D01*
X115234161Y-47710742D02*
X115265113Y-47653600D01*
X115265113Y-47653600D02*
X115296066Y-47625028D01*
X115296066Y-47625028D02*
X115357970Y-47596457D01*
X115357970Y-47596457D02*
X115512732Y-47596457D01*
X115512732Y-47596457D02*
X115574637Y-47625028D01*
X115574637Y-47625028D02*
X115605590Y-47653600D01*
X115605590Y-47653600D02*
X115636542Y-47710742D01*
X115636542Y-47710742D02*
X115636542Y-47882171D01*
X115636542Y-47882171D02*
X115605590Y-47939314D01*
X115605590Y-47939314D02*
X115574637Y-47967885D01*
X95907200Y-54281142D02*
X95621486Y-54281142D01*
X95621486Y-54281142D02*
X95621486Y-53631142D01*
X96421485Y-54281142D02*
X96078628Y-54281142D01*
X96250057Y-54281142D02*
X96250057Y-53631142D01*
X96250057Y-53631142D02*
X96192914Y-53723999D01*
X96192914Y-53723999D02*
X96135771Y-53785904D01*
X96135771Y-53785904D02*
X96078628Y-53816856D01*
X108268285Y-46709737D02*
X108239713Y-46740690D01*
X108239713Y-46740690D02*
X108153999Y-46771642D01*
X108153999Y-46771642D02*
X108096856Y-46771642D01*
X108096856Y-46771642D02*
X108011142Y-46740690D01*
X108011142Y-46740690D02*
X107953999Y-46678785D01*
X107953999Y-46678785D02*
X107925428Y-46616880D01*
X107925428Y-46616880D02*
X107896856Y-46493070D01*
X107896856Y-46493070D02*
X107896856Y-46400213D01*
X107896856Y-46400213D02*
X107925428Y-46276404D01*
X107925428Y-46276404D02*
X107953999Y-46214499D01*
X107953999Y-46214499D02*
X108011142Y-46152594D01*
X108011142Y-46152594D02*
X108096856Y-46121642D01*
X108096856Y-46121642D02*
X108153999Y-46121642D01*
X108153999Y-46121642D02*
X108239713Y-46152594D01*
X108239713Y-46152594D02*
X108268285Y-46183547D01*
X108496856Y-46183547D02*
X108525428Y-46152594D01*
X108525428Y-46152594D02*
X108582571Y-46121642D01*
X108582571Y-46121642D02*
X108725428Y-46121642D01*
X108725428Y-46121642D02*
X108782571Y-46152594D01*
X108782571Y-46152594D02*
X108811142Y-46183547D01*
X108811142Y-46183547D02*
X108839713Y-46245451D01*
X108839713Y-46245451D02*
X108839713Y-46307356D01*
X108839713Y-46307356D02*
X108811142Y-46400213D01*
X108811142Y-46400213D02*
X108468285Y-46771642D01*
X108468285Y-46771642D02*
X108839713Y-46771642D01*
X109039714Y-46121642D02*
X109411142Y-46121642D01*
X109411142Y-46121642D02*
X109211142Y-46369261D01*
X109211142Y-46369261D02*
X109296857Y-46369261D01*
X109296857Y-46369261D02*
X109354000Y-46400213D01*
X109354000Y-46400213D02*
X109382571Y-46431166D01*
X109382571Y-46431166D02*
X109411142Y-46493070D01*
X109411142Y-46493070D02*
X109411142Y-46647832D01*
X109411142Y-46647832D02*
X109382571Y-46709737D01*
X109382571Y-46709737D02*
X109354000Y-46740690D01*
X109354000Y-46740690D02*
X109296857Y-46771642D01*
X109296857Y-46771642D02*
X109125428Y-46771642D01*
X109125428Y-46771642D02*
X109068285Y-46740690D01*
X109068285Y-46740690D02*
X109039714Y-46709737D01*
X105109999Y-66816542D02*
X105109999Y-67280828D01*
X105109999Y-67280828D02*
X105081428Y-67373685D01*
X105081428Y-67373685D02*
X105024285Y-67435590D01*
X105024285Y-67435590D02*
X104938571Y-67466542D01*
X104938571Y-67466542D02*
X104881428Y-67466542D01*
X105652857Y-66816542D02*
X105538571Y-66816542D01*
X105538571Y-66816542D02*
X105481428Y-66847494D01*
X105481428Y-66847494D02*
X105452857Y-66878447D01*
X105452857Y-66878447D02*
X105395714Y-66971304D01*
X105395714Y-66971304D02*
X105367142Y-67095113D01*
X105367142Y-67095113D02*
X105367142Y-67342732D01*
X105367142Y-67342732D02*
X105395714Y-67404637D01*
X105395714Y-67404637D02*
X105424285Y-67435590D01*
X105424285Y-67435590D02*
X105481428Y-67466542D01*
X105481428Y-67466542D02*
X105595714Y-67466542D01*
X105595714Y-67466542D02*
X105652857Y-67435590D01*
X105652857Y-67435590D02*
X105681428Y-67404637D01*
X105681428Y-67404637D02*
X105709999Y-67342732D01*
X105709999Y-67342732D02*
X105709999Y-67187970D01*
X105709999Y-67187970D02*
X105681428Y-67126066D01*
X105681428Y-67126066D02*
X105652857Y-67095113D01*
X105652857Y-67095113D02*
X105595714Y-67064161D01*
X105595714Y-67064161D02*
X105481428Y-67064161D01*
X105481428Y-67064161D02*
X105424285Y-67095113D01*
X105424285Y-67095113D02*
X105395714Y-67126066D01*
X105395714Y-67126066D02*
X105367142Y-67187970D01*
X123250437Y-38749999D02*
X123281390Y-38778571D01*
X123281390Y-38778571D02*
X123312342Y-38864285D01*
X123312342Y-38864285D02*
X123312342Y-38921428D01*
X123312342Y-38921428D02*
X123281390Y-39007142D01*
X123281390Y-39007142D02*
X123219485Y-39064285D01*
X123219485Y-39064285D02*
X123157580Y-39092856D01*
X123157580Y-39092856D02*
X123033770Y-39121428D01*
X123033770Y-39121428D02*
X122940913Y-39121428D01*
X122940913Y-39121428D02*
X122817104Y-39092856D01*
X122817104Y-39092856D02*
X122755199Y-39064285D01*
X122755199Y-39064285D02*
X122693294Y-39007142D01*
X122693294Y-39007142D02*
X122662342Y-38921428D01*
X122662342Y-38921428D02*
X122662342Y-38864285D01*
X122662342Y-38864285D02*
X122693294Y-38778571D01*
X122693294Y-38778571D02*
X122724247Y-38749999D01*
X122662342Y-38549999D02*
X122662342Y-38178571D01*
X122662342Y-38178571D02*
X122909961Y-38378571D01*
X122909961Y-38378571D02*
X122909961Y-38292856D01*
X122909961Y-38292856D02*
X122940913Y-38235714D01*
X122940913Y-38235714D02*
X122971866Y-38207142D01*
X122971866Y-38207142D02*
X123033770Y-38178571D01*
X123033770Y-38178571D02*
X123188532Y-38178571D01*
X123188532Y-38178571D02*
X123250437Y-38207142D01*
X123250437Y-38207142D02*
X123281390Y-38235714D01*
X123281390Y-38235714D02*
X123312342Y-38292856D01*
X123312342Y-38292856D02*
X123312342Y-38464285D01*
X123312342Y-38464285D02*
X123281390Y-38521428D01*
X123281390Y-38521428D02*
X123250437Y-38549999D01*
X88022857Y-67536542D02*
X88022857Y-68062732D01*
X88022857Y-68062732D02*
X88051428Y-68124637D01*
X88051428Y-68124637D02*
X88080000Y-68155590D01*
X88080000Y-68155590D02*
X88137142Y-68186542D01*
X88137142Y-68186542D02*
X88251428Y-68186542D01*
X88251428Y-68186542D02*
X88308571Y-68155590D01*
X88308571Y-68155590D02*
X88337142Y-68124637D01*
X88337142Y-68124637D02*
X88365714Y-68062732D01*
X88365714Y-68062732D02*
X88365714Y-67536542D01*
X88908571Y-67536542D02*
X88794285Y-67536542D01*
X88794285Y-67536542D02*
X88737142Y-67567494D01*
X88737142Y-67567494D02*
X88708571Y-67598447D01*
X88708571Y-67598447D02*
X88651428Y-67691304D01*
X88651428Y-67691304D02*
X88622856Y-67815113D01*
X88622856Y-67815113D02*
X88622856Y-68062732D01*
X88622856Y-68062732D02*
X88651428Y-68124637D01*
X88651428Y-68124637D02*
X88679999Y-68155590D01*
X88679999Y-68155590D02*
X88737142Y-68186542D01*
X88737142Y-68186542D02*
X88851428Y-68186542D01*
X88851428Y-68186542D02*
X88908571Y-68155590D01*
X88908571Y-68155590D02*
X88937142Y-68124637D01*
X88937142Y-68124637D02*
X88965713Y-68062732D01*
X88965713Y-68062732D02*
X88965713Y-67907970D01*
X88965713Y-67907970D02*
X88937142Y-67846066D01*
X88937142Y-67846066D02*
X88908571Y-67815113D01*
X88908571Y-67815113D02*
X88851428Y-67784161D01*
X88851428Y-67784161D02*
X88737142Y-67784161D01*
X88737142Y-67784161D02*
X88679999Y-67815113D01*
X88679999Y-67815113D02*
X88651428Y-67846066D01*
X88651428Y-67846066D02*
X88622856Y-67907970D01*
X106878000Y-35428937D02*
X106849428Y-35459890D01*
X106849428Y-35459890D02*
X106763714Y-35490842D01*
X106763714Y-35490842D02*
X106706571Y-35490842D01*
X106706571Y-35490842D02*
X106620857Y-35459890D01*
X106620857Y-35459890D02*
X106563714Y-35397985D01*
X106563714Y-35397985D02*
X106535143Y-35336080D01*
X106535143Y-35336080D02*
X106506571Y-35212270D01*
X106506571Y-35212270D02*
X106506571Y-35119413D01*
X106506571Y-35119413D02*
X106535143Y-34995604D01*
X106535143Y-34995604D02*
X106563714Y-34933699D01*
X106563714Y-34933699D02*
X106620857Y-34871794D01*
X106620857Y-34871794D02*
X106706571Y-34840842D01*
X106706571Y-34840842D02*
X106763714Y-34840842D01*
X106763714Y-34840842D02*
X106849428Y-34871794D01*
X106849428Y-34871794D02*
X106878000Y-34902747D01*
X107392286Y-34840842D02*
X107278000Y-34840842D01*
X107278000Y-34840842D02*
X107220857Y-34871794D01*
X107220857Y-34871794D02*
X107192286Y-34902747D01*
X107192286Y-34902747D02*
X107135143Y-34995604D01*
X107135143Y-34995604D02*
X107106571Y-35119413D01*
X107106571Y-35119413D02*
X107106571Y-35367032D01*
X107106571Y-35367032D02*
X107135143Y-35428937D01*
X107135143Y-35428937D02*
X107163714Y-35459890D01*
X107163714Y-35459890D02*
X107220857Y-35490842D01*
X107220857Y-35490842D02*
X107335143Y-35490842D01*
X107335143Y-35490842D02*
X107392286Y-35459890D01*
X107392286Y-35459890D02*
X107420857Y-35428937D01*
X107420857Y-35428937D02*
X107449428Y-35367032D01*
X107449428Y-35367032D02*
X107449428Y-35212270D01*
X107449428Y-35212270D02*
X107420857Y-35150366D01*
X107420857Y-35150366D02*
X107392286Y-35119413D01*
X107392286Y-35119413D02*
X107335143Y-35088461D01*
X107335143Y-35088461D02*
X107220857Y-35088461D01*
X107220857Y-35088461D02*
X107163714Y-35119413D01*
X107163714Y-35119413D02*
X107135143Y-35150366D01*
X107135143Y-35150366D02*
X107106571Y-35212270D01*
X122735257Y-63824742D02*
X122735257Y-63174742D01*
X122735257Y-63484266D02*
X123078114Y-63484266D01*
X123078114Y-63824742D02*
X123078114Y-63174742D01*
X123306685Y-63174742D02*
X123678113Y-63174742D01*
X123678113Y-63174742D02*
X123478113Y-63422361D01*
X123478113Y-63422361D02*
X123563828Y-63422361D01*
X123563828Y-63422361D02*
X123620971Y-63453313D01*
X123620971Y-63453313D02*
X123649542Y-63484266D01*
X123649542Y-63484266D02*
X123678113Y-63546170D01*
X123678113Y-63546170D02*
X123678113Y-63700932D01*
X123678113Y-63700932D02*
X123649542Y-63762837D01*
X123649542Y-63762837D02*
X123620971Y-63793790D01*
X123620971Y-63793790D02*
X123563828Y-63824742D01*
X123563828Y-63824742D02*
X123392399Y-63824742D01*
X123392399Y-63824742D02*
X123335256Y-63793790D01*
X123335256Y-63793790D02*
X123306685Y-63762837D01*
X89074730Y-60214103D02*
X89534349Y-59754484D01*
X89534349Y-59754484D02*
X89347471Y-60224205D01*
X89347471Y-60224205D02*
X89817192Y-60037326D01*
X89817192Y-60037326D02*
X89357572Y-60496946D01*
X89559603Y-60698976D02*
X90019222Y-60239357D01*
X89802039Y-60941413D02*
X89882852Y-60496946D01*
X90261659Y-60481793D02*
X89756583Y-60501996D01*
X90206100Y-61345474D02*
X89963664Y-61103037D01*
X90084882Y-61224255D02*
X90544502Y-60764636D01*
X90544502Y-60764636D02*
X90438436Y-60789890D01*
X90438436Y-60789890D02*
X90354256Y-60793257D01*
X90354256Y-60793257D02*
X90291963Y-60774737D01*
X91536885Y-36764737D02*
X91508313Y-36795690D01*
X91508313Y-36795690D02*
X91422599Y-36826642D01*
X91422599Y-36826642D02*
X91365456Y-36826642D01*
X91365456Y-36826642D02*
X91279742Y-36795690D01*
X91279742Y-36795690D02*
X91222599Y-36733785D01*
X91222599Y-36733785D02*
X91194028Y-36671880D01*
X91194028Y-36671880D02*
X91165456Y-36548070D01*
X91165456Y-36548070D02*
X91165456Y-36455213D01*
X91165456Y-36455213D02*
X91194028Y-36331404D01*
X91194028Y-36331404D02*
X91222599Y-36269499D01*
X91222599Y-36269499D02*
X91279742Y-36207594D01*
X91279742Y-36207594D02*
X91365456Y-36176642D01*
X91365456Y-36176642D02*
X91422599Y-36176642D01*
X91422599Y-36176642D02*
X91508313Y-36207594D01*
X91508313Y-36207594D02*
X91536885Y-36238547D01*
X91765456Y-36238547D02*
X91794028Y-36207594D01*
X91794028Y-36207594D02*
X91851171Y-36176642D01*
X91851171Y-36176642D02*
X91994028Y-36176642D01*
X91994028Y-36176642D02*
X92051171Y-36207594D01*
X92051171Y-36207594D02*
X92079742Y-36238547D01*
X92079742Y-36238547D02*
X92108313Y-36300451D01*
X92108313Y-36300451D02*
X92108313Y-36362356D01*
X92108313Y-36362356D02*
X92079742Y-36455213D01*
X92079742Y-36455213D02*
X91736885Y-36826642D01*
X91736885Y-36826642D02*
X92108313Y-36826642D01*
X92679742Y-36826642D02*
X92336885Y-36826642D01*
X92508314Y-36826642D02*
X92508314Y-36176642D01*
X92508314Y-36176642D02*
X92451171Y-36269499D01*
X92451171Y-36269499D02*
X92394028Y-36331404D01*
X92394028Y-36331404D02*
X92336885Y-36362356D01*
X85997485Y-60130037D02*
X85968913Y-60160990D01*
X85968913Y-60160990D02*
X85883199Y-60191942D01*
X85883199Y-60191942D02*
X85826056Y-60191942D01*
X85826056Y-60191942D02*
X85740342Y-60160990D01*
X85740342Y-60160990D02*
X85683199Y-60099085D01*
X85683199Y-60099085D02*
X85654628Y-60037180D01*
X85654628Y-60037180D02*
X85626056Y-59913370D01*
X85626056Y-59913370D02*
X85626056Y-59820513D01*
X85626056Y-59820513D02*
X85654628Y-59696704D01*
X85654628Y-59696704D02*
X85683199Y-59634799D01*
X85683199Y-59634799D02*
X85740342Y-59572894D01*
X85740342Y-59572894D02*
X85826056Y-59541942D01*
X85826056Y-59541942D02*
X85883199Y-59541942D01*
X85883199Y-59541942D02*
X85968913Y-59572894D01*
X85968913Y-59572894D02*
X85997485Y-59603847D01*
X86568913Y-60191942D02*
X86226056Y-60191942D01*
X86397485Y-60191942D02*
X86397485Y-59541942D01*
X86397485Y-59541942D02*
X86340342Y-59634799D01*
X86340342Y-59634799D02*
X86283199Y-59696704D01*
X86283199Y-59696704D02*
X86226056Y-59727656D01*
X87083200Y-59541942D02*
X86968914Y-59541942D01*
X86968914Y-59541942D02*
X86911771Y-59572894D01*
X86911771Y-59572894D02*
X86883200Y-59603847D01*
X86883200Y-59603847D02*
X86826057Y-59696704D01*
X86826057Y-59696704D02*
X86797485Y-59820513D01*
X86797485Y-59820513D02*
X86797485Y-60068132D01*
X86797485Y-60068132D02*
X86826057Y-60130037D01*
X86826057Y-60130037D02*
X86854628Y-60160990D01*
X86854628Y-60160990D02*
X86911771Y-60191942D01*
X86911771Y-60191942D02*
X87026057Y-60191942D01*
X87026057Y-60191942D02*
X87083200Y-60160990D01*
X87083200Y-60160990D02*
X87111771Y-60130037D01*
X87111771Y-60130037D02*
X87140342Y-60068132D01*
X87140342Y-60068132D02*
X87140342Y-59913370D01*
X87140342Y-59913370D02*
X87111771Y-59851466D01*
X87111771Y-59851466D02*
X87083200Y-59820513D01*
X87083200Y-59820513D02*
X87026057Y-59789561D01*
X87026057Y-59789561D02*
X86911771Y-59789561D01*
X86911771Y-59789561D02*
X86854628Y-59820513D01*
X86854628Y-59820513D02*
X86826057Y-59851466D01*
X86826057Y-59851466D02*
X86797485Y-59913370D01*
X87777685Y-51923637D02*
X87749113Y-51954590D01*
X87749113Y-51954590D02*
X87663399Y-51985542D01*
X87663399Y-51985542D02*
X87606256Y-51985542D01*
X87606256Y-51985542D02*
X87520542Y-51954590D01*
X87520542Y-51954590D02*
X87463399Y-51892685D01*
X87463399Y-51892685D02*
X87434828Y-51830780D01*
X87434828Y-51830780D02*
X87406256Y-51706970D01*
X87406256Y-51706970D02*
X87406256Y-51614113D01*
X87406256Y-51614113D02*
X87434828Y-51490304D01*
X87434828Y-51490304D02*
X87463399Y-51428399D01*
X87463399Y-51428399D02*
X87520542Y-51366494D01*
X87520542Y-51366494D02*
X87606256Y-51335542D01*
X87606256Y-51335542D02*
X87663399Y-51335542D01*
X87663399Y-51335542D02*
X87749113Y-51366494D01*
X87749113Y-51366494D02*
X87777685Y-51397447D01*
X88349113Y-51985542D02*
X88006256Y-51985542D01*
X88177685Y-51985542D02*
X88177685Y-51335542D01*
X88177685Y-51335542D02*
X88120542Y-51428399D01*
X88120542Y-51428399D02*
X88063399Y-51490304D01*
X88063399Y-51490304D02*
X88006256Y-51521256D01*
X88720542Y-51335542D02*
X88777685Y-51335542D01*
X88777685Y-51335542D02*
X88834828Y-51366494D01*
X88834828Y-51366494D02*
X88863400Y-51397447D01*
X88863400Y-51397447D02*
X88891971Y-51459351D01*
X88891971Y-51459351D02*
X88920542Y-51583161D01*
X88920542Y-51583161D02*
X88920542Y-51737923D01*
X88920542Y-51737923D02*
X88891971Y-51861732D01*
X88891971Y-51861732D02*
X88863400Y-51923637D01*
X88863400Y-51923637D02*
X88834828Y-51954590D01*
X88834828Y-51954590D02*
X88777685Y-51985542D01*
X88777685Y-51985542D02*
X88720542Y-51985542D01*
X88720542Y-51985542D02*
X88663400Y-51954590D01*
X88663400Y-51954590D02*
X88634828Y-51923637D01*
X88634828Y-51923637D02*
X88606257Y-51861732D01*
X88606257Y-51861732D02*
X88577685Y-51737923D01*
X88577685Y-51737923D02*
X88577685Y-51583161D01*
X88577685Y-51583161D02*
X88606257Y-51459351D01*
X88606257Y-51459351D02*
X88634828Y-51397447D01*
X88634828Y-51397447D02*
X88663400Y-51366494D01*
X88663400Y-51366494D02*
X88720542Y-51335542D01*
X109882599Y-44094942D02*
X109882599Y-44559228D01*
X109882599Y-44559228D02*
X109854028Y-44652085D01*
X109854028Y-44652085D02*
X109796885Y-44713990D01*
X109796885Y-44713990D02*
X109711171Y-44744942D01*
X109711171Y-44744942D02*
X109654028Y-44744942D01*
X110425457Y-44311609D02*
X110425457Y-44744942D01*
X110282599Y-44063990D02*
X110139742Y-44528275D01*
X110139742Y-44528275D02*
X110511171Y-44528275D01*
X81662600Y-34561142D02*
X81462600Y-34251618D01*
X81319743Y-34561142D02*
X81319743Y-33911142D01*
X81319743Y-33911142D02*
X81548314Y-33911142D01*
X81548314Y-33911142D02*
X81605457Y-33942094D01*
X81605457Y-33942094D02*
X81634028Y-33973047D01*
X81634028Y-33973047D02*
X81662600Y-34034951D01*
X81662600Y-34034951D02*
X81662600Y-34127809D01*
X81662600Y-34127809D02*
X81634028Y-34189713D01*
X81634028Y-34189713D02*
X81605457Y-34220666D01*
X81605457Y-34220666D02*
X81548314Y-34251618D01*
X81548314Y-34251618D02*
X81319743Y-34251618D01*
X81862600Y-33911142D02*
X82262600Y-33911142D01*
X82262600Y-33911142D02*
X82005457Y-34561142D01*
X109501000Y-35435237D02*
X109472428Y-35466190D01*
X109472428Y-35466190D02*
X109386714Y-35497142D01*
X109386714Y-35497142D02*
X109329571Y-35497142D01*
X109329571Y-35497142D02*
X109243857Y-35466190D01*
X109243857Y-35466190D02*
X109186714Y-35404285D01*
X109186714Y-35404285D02*
X109158143Y-35342380D01*
X109158143Y-35342380D02*
X109129571Y-35218570D01*
X109129571Y-35218570D02*
X109129571Y-35125713D01*
X109129571Y-35125713D02*
X109158143Y-35001904D01*
X109158143Y-35001904D02*
X109186714Y-34939999D01*
X109186714Y-34939999D02*
X109243857Y-34878094D01*
X109243857Y-34878094D02*
X109329571Y-34847142D01*
X109329571Y-34847142D02*
X109386714Y-34847142D01*
X109386714Y-34847142D02*
X109472428Y-34878094D01*
X109472428Y-34878094D02*
X109501000Y-34909047D01*
X109701000Y-34847142D02*
X110101000Y-34847142D01*
X110101000Y-34847142D02*
X109843857Y-35497142D01*
X117100000Y-59346542D02*
X116900000Y-59037018D01*
X116757143Y-59346542D02*
X116757143Y-58696542D01*
X116757143Y-58696542D02*
X116985714Y-58696542D01*
X116985714Y-58696542D02*
X117042857Y-58727494D01*
X117042857Y-58727494D02*
X117071428Y-58758447D01*
X117071428Y-58758447D02*
X117100000Y-58820351D01*
X117100000Y-58820351D02*
X117100000Y-58913209D01*
X117100000Y-58913209D02*
X117071428Y-58975113D01*
X117071428Y-58975113D02*
X117042857Y-59006066D01*
X117042857Y-59006066D02*
X116985714Y-59037018D01*
X116985714Y-59037018D02*
X116757143Y-59037018D01*
X117300000Y-58696542D02*
X117671428Y-58696542D01*
X117671428Y-58696542D02*
X117471428Y-58944161D01*
X117471428Y-58944161D02*
X117557143Y-58944161D01*
X117557143Y-58944161D02*
X117614286Y-58975113D01*
X117614286Y-58975113D02*
X117642857Y-59006066D01*
X117642857Y-59006066D02*
X117671428Y-59067970D01*
X117671428Y-59067970D02*
X117671428Y-59222732D01*
X117671428Y-59222732D02*
X117642857Y-59284637D01*
X117642857Y-59284637D02*
X117614286Y-59315590D01*
X117614286Y-59315590D02*
X117557143Y-59346542D01*
X117557143Y-59346542D02*
X117385714Y-59346542D01*
X117385714Y-59346542D02*
X117328571Y-59315590D01*
X117328571Y-59315590D02*
X117300000Y-59284637D01*
X88061857Y-36469742D02*
X88061857Y-36995932D01*
X88061857Y-36995932D02*
X88090428Y-37057837D01*
X88090428Y-37057837D02*
X88119000Y-37088790D01*
X88119000Y-37088790D02*
X88176142Y-37119742D01*
X88176142Y-37119742D02*
X88290428Y-37119742D01*
X88290428Y-37119742D02*
X88347571Y-37088790D01*
X88347571Y-37088790D02*
X88376142Y-37057837D01*
X88376142Y-37057837D02*
X88404714Y-36995932D01*
X88404714Y-36995932D02*
X88404714Y-36469742D01*
X88947571Y-36686409D02*
X88947571Y-37119742D01*
X88804713Y-36438790D02*
X88661856Y-36903075D01*
X88661856Y-36903075D02*
X89033285Y-36903075D01*
X101447943Y-29622142D02*
X101447943Y-28972142D01*
X101447943Y-28972142D02*
X101590800Y-28972142D01*
X101590800Y-28972142D02*
X101676514Y-29003094D01*
X101676514Y-29003094D02*
X101733657Y-29064999D01*
X101733657Y-29064999D02*
X101762228Y-29126904D01*
X101762228Y-29126904D02*
X101790800Y-29250713D01*
X101790800Y-29250713D02*
X101790800Y-29343570D01*
X101790800Y-29343570D02*
X101762228Y-29467380D01*
X101762228Y-29467380D02*
X101733657Y-29529285D01*
X101733657Y-29529285D02*
X101676514Y-29591190D01*
X101676514Y-29591190D02*
X101590800Y-29622142D01*
X101590800Y-29622142D02*
X101447943Y-29622142D01*
X101990800Y-28972142D02*
X102362228Y-28972142D01*
X102362228Y-28972142D02*
X102162228Y-29219761D01*
X102162228Y-29219761D02*
X102247943Y-29219761D01*
X102247943Y-29219761D02*
X102305086Y-29250713D01*
X102305086Y-29250713D02*
X102333657Y-29281666D01*
X102333657Y-29281666D02*
X102362228Y-29343570D01*
X102362228Y-29343570D02*
X102362228Y-29498332D01*
X102362228Y-29498332D02*
X102333657Y-29560237D01*
X102333657Y-29560237D02*
X102305086Y-29591190D01*
X102305086Y-29591190D02*
X102247943Y-29622142D01*
X102247943Y-29622142D02*
X102076514Y-29622142D01*
X102076514Y-29622142D02*
X102019371Y-29591190D01*
X102019371Y-29591190D02*
X101990800Y-29560237D01*
X92211785Y-48647037D02*
X92183213Y-48677990D01*
X92183213Y-48677990D02*
X92097499Y-48708942D01*
X92097499Y-48708942D02*
X92040356Y-48708942D01*
X92040356Y-48708942D02*
X91954642Y-48677990D01*
X91954642Y-48677990D02*
X91897499Y-48616085D01*
X91897499Y-48616085D02*
X91868928Y-48554180D01*
X91868928Y-48554180D02*
X91840356Y-48430370D01*
X91840356Y-48430370D02*
X91840356Y-48337513D01*
X91840356Y-48337513D02*
X91868928Y-48213704D01*
X91868928Y-48213704D02*
X91897499Y-48151799D01*
X91897499Y-48151799D02*
X91954642Y-48089894D01*
X91954642Y-48089894D02*
X92040356Y-48058942D01*
X92040356Y-48058942D02*
X92097499Y-48058942D01*
X92097499Y-48058942D02*
X92183213Y-48089894D01*
X92183213Y-48089894D02*
X92211785Y-48120847D01*
X92783213Y-48708942D02*
X92440356Y-48708942D01*
X92611785Y-48708942D02*
X92611785Y-48058942D01*
X92611785Y-48058942D02*
X92554642Y-48151799D01*
X92554642Y-48151799D02*
X92497499Y-48213704D01*
X92497499Y-48213704D02*
X92440356Y-48244656D01*
X93011785Y-48120847D02*
X93040357Y-48089894D01*
X93040357Y-48089894D02*
X93097500Y-48058942D01*
X93097500Y-48058942D02*
X93240357Y-48058942D01*
X93240357Y-48058942D02*
X93297500Y-48089894D01*
X93297500Y-48089894D02*
X93326071Y-48120847D01*
X93326071Y-48120847D02*
X93354642Y-48182751D01*
X93354642Y-48182751D02*
X93354642Y-48244656D01*
X93354642Y-48244656D02*
X93326071Y-48337513D01*
X93326071Y-48337513D02*
X92983214Y-48708942D01*
X92983214Y-48708942D02*
X93354642Y-48708942D01*
X113666600Y-35968537D02*
X113638028Y-35999490D01*
X113638028Y-35999490D02*
X113552314Y-36030442D01*
X113552314Y-36030442D02*
X113495171Y-36030442D01*
X113495171Y-36030442D02*
X113409457Y-35999490D01*
X113409457Y-35999490D02*
X113352314Y-35937585D01*
X113352314Y-35937585D02*
X113323743Y-35875680D01*
X113323743Y-35875680D02*
X113295171Y-35751870D01*
X113295171Y-35751870D02*
X113295171Y-35659013D01*
X113295171Y-35659013D02*
X113323743Y-35535204D01*
X113323743Y-35535204D02*
X113352314Y-35473299D01*
X113352314Y-35473299D02*
X113409457Y-35411394D01*
X113409457Y-35411394D02*
X113495171Y-35380442D01*
X113495171Y-35380442D02*
X113552314Y-35380442D01*
X113552314Y-35380442D02*
X113638028Y-35411394D01*
X113638028Y-35411394D02*
X113666600Y-35442347D01*
X114238028Y-36030442D02*
X113895171Y-36030442D01*
X114066600Y-36030442D02*
X114066600Y-35380442D01*
X114066600Y-35380442D02*
X114009457Y-35473299D01*
X114009457Y-35473299D02*
X113952314Y-35535204D01*
X113952314Y-35535204D02*
X113895171Y-35566156D01*
X101728600Y-34205542D02*
X101528600Y-33896018D01*
X101385743Y-34205542D02*
X101385743Y-33555542D01*
X101385743Y-33555542D02*
X101614314Y-33555542D01*
X101614314Y-33555542D02*
X101671457Y-33586494D01*
X101671457Y-33586494D02*
X101700028Y-33617447D01*
X101700028Y-33617447D02*
X101728600Y-33679351D01*
X101728600Y-33679351D02*
X101728600Y-33772209D01*
X101728600Y-33772209D02*
X101700028Y-33834113D01*
X101700028Y-33834113D02*
X101671457Y-33865066D01*
X101671457Y-33865066D02*
X101614314Y-33896018D01*
X101614314Y-33896018D02*
X101385743Y-33896018D01*
X102271457Y-33555542D02*
X101985743Y-33555542D01*
X101985743Y-33555542D02*
X101957171Y-33865066D01*
X101957171Y-33865066D02*
X101985743Y-33834113D01*
X101985743Y-33834113D02*
X102042886Y-33803161D01*
X102042886Y-33803161D02*
X102185743Y-33803161D01*
X102185743Y-33803161D02*
X102242886Y-33834113D01*
X102242886Y-33834113D02*
X102271457Y-33865066D01*
X102271457Y-33865066D02*
X102300028Y-33926970D01*
X102300028Y-33926970D02*
X102300028Y-34081732D01*
X102300028Y-34081732D02*
X102271457Y-34143637D01*
X102271457Y-34143637D02*
X102242886Y-34174590D01*
X102242886Y-34174590D02*
X102185743Y-34205542D01*
X102185743Y-34205542D02*
X102042886Y-34205542D01*
X102042886Y-34205542D02*
X101985743Y-34174590D01*
X101985743Y-34174590D02*
X101957171Y-34143637D01*
X109262857Y-50406542D02*
X109262857Y-50932732D01*
X109262857Y-50932732D02*
X109291428Y-50994637D01*
X109291428Y-50994637D02*
X109320000Y-51025590D01*
X109320000Y-51025590D02*
X109377142Y-51056542D01*
X109377142Y-51056542D02*
X109491428Y-51056542D01*
X109491428Y-51056542D02*
X109548571Y-51025590D01*
X109548571Y-51025590D02*
X109577142Y-50994637D01*
X109577142Y-50994637D02*
X109605714Y-50932732D01*
X109605714Y-50932732D02*
X109605714Y-50406542D01*
X110177142Y-50406542D02*
X109891428Y-50406542D01*
X109891428Y-50406542D02*
X109862856Y-50716066D01*
X109862856Y-50716066D02*
X109891428Y-50685113D01*
X109891428Y-50685113D02*
X109948571Y-50654161D01*
X109948571Y-50654161D02*
X110091428Y-50654161D01*
X110091428Y-50654161D02*
X110148571Y-50685113D01*
X110148571Y-50685113D02*
X110177142Y-50716066D01*
X110177142Y-50716066D02*
X110205713Y-50777970D01*
X110205713Y-50777970D02*
X110205713Y-50932732D01*
X110205713Y-50932732D02*
X110177142Y-50994637D01*
X110177142Y-50994637D02*
X110148571Y-51025590D01*
X110148571Y-51025590D02*
X110091428Y-51056542D01*
X110091428Y-51056542D02*
X109948571Y-51056542D01*
X109948571Y-51056542D02*
X109891428Y-51025590D01*
X109891428Y-51025590D02*
X109862856Y-50994637D01*
X115063600Y-29597037D02*
X115035028Y-29627990D01*
X115035028Y-29627990D02*
X114949314Y-29658942D01*
X114949314Y-29658942D02*
X114892171Y-29658942D01*
X114892171Y-29658942D02*
X114806457Y-29627990D01*
X114806457Y-29627990D02*
X114749314Y-29566085D01*
X114749314Y-29566085D02*
X114720743Y-29504180D01*
X114720743Y-29504180D02*
X114692171Y-29380370D01*
X114692171Y-29380370D02*
X114692171Y-29287513D01*
X114692171Y-29287513D02*
X114720743Y-29163704D01*
X114720743Y-29163704D02*
X114749314Y-29101799D01*
X114749314Y-29101799D02*
X114806457Y-29039894D01*
X114806457Y-29039894D02*
X114892171Y-29008942D01*
X114892171Y-29008942D02*
X114949314Y-29008942D01*
X114949314Y-29008942D02*
X115035028Y-29039894D01*
X115035028Y-29039894D02*
X115063600Y-29070847D01*
X115606457Y-29008942D02*
X115320743Y-29008942D01*
X115320743Y-29008942D02*
X115292171Y-29318466D01*
X115292171Y-29318466D02*
X115320743Y-29287513D01*
X115320743Y-29287513D02*
X115377886Y-29256561D01*
X115377886Y-29256561D02*
X115520743Y-29256561D01*
X115520743Y-29256561D02*
X115577886Y-29287513D01*
X115577886Y-29287513D02*
X115606457Y-29318466D01*
X115606457Y-29318466D02*
X115635028Y-29380370D01*
X115635028Y-29380370D02*
X115635028Y-29535132D01*
X115635028Y-29535132D02*
X115606457Y-29597037D01*
X115606457Y-29597037D02*
X115577886Y-29627990D01*
X115577886Y-29627990D02*
X115520743Y-29658942D01*
X115520743Y-29658942D02*
X115377886Y-29658942D01*
X115377886Y-29658942D02*
X115320743Y-29627990D01*
X115320743Y-29627990D02*
X115292171Y-29597037D01*
X101414285Y-52484637D02*
X101385713Y-52515590D01*
X101385713Y-52515590D02*
X101299999Y-52546542D01*
X101299999Y-52546542D02*
X101242856Y-52546542D01*
X101242856Y-52546542D02*
X101157142Y-52515590D01*
X101157142Y-52515590D02*
X101099999Y-52453685D01*
X101099999Y-52453685D02*
X101071428Y-52391780D01*
X101071428Y-52391780D02*
X101042856Y-52267970D01*
X101042856Y-52267970D02*
X101042856Y-52175113D01*
X101042856Y-52175113D02*
X101071428Y-52051304D01*
X101071428Y-52051304D02*
X101099999Y-51989399D01*
X101099999Y-51989399D02*
X101157142Y-51927494D01*
X101157142Y-51927494D02*
X101242856Y-51896542D01*
X101242856Y-51896542D02*
X101299999Y-51896542D01*
X101299999Y-51896542D02*
X101385713Y-51927494D01*
X101385713Y-51927494D02*
X101414285Y-51958447D01*
X101985713Y-52546542D02*
X101642856Y-52546542D01*
X101814285Y-52546542D02*
X101814285Y-51896542D01*
X101814285Y-51896542D02*
X101757142Y-51989399D01*
X101757142Y-51989399D02*
X101699999Y-52051304D01*
X101699999Y-52051304D02*
X101642856Y-52082256D01*
X102528571Y-51896542D02*
X102242857Y-51896542D01*
X102242857Y-51896542D02*
X102214285Y-52206066D01*
X102214285Y-52206066D02*
X102242857Y-52175113D01*
X102242857Y-52175113D02*
X102300000Y-52144161D01*
X102300000Y-52144161D02*
X102442857Y-52144161D01*
X102442857Y-52144161D02*
X102500000Y-52175113D01*
X102500000Y-52175113D02*
X102528571Y-52206066D01*
X102528571Y-52206066D02*
X102557142Y-52267970D01*
X102557142Y-52267970D02*
X102557142Y-52422732D01*
X102557142Y-52422732D02*
X102528571Y-52484637D01*
X102528571Y-52484637D02*
X102500000Y-52515590D01*
X102500000Y-52515590D02*
X102442857Y-52546542D01*
X102442857Y-52546542D02*
X102300000Y-52546542D01*
X102300000Y-52546542D02*
X102242857Y-52515590D01*
X102242857Y-52515590D02*
X102214285Y-52484637D01*
X118207943Y-57976142D02*
X118207943Y-57326142D01*
X118207943Y-57326142D02*
X118350800Y-57326142D01*
X118350800Y-57326142D02*
X118436514Y-57357094D01*
X118436514Y-57357094D02*
X118493657Y-57418999D01*
X118493657Y-57418999D02*
X118522228Y-57480904D01*
X118522228Y-57480904D02*
X118550800Y-57604713D01*
X118550800Y-57604713D02*
X118550800Y-57697570D01*
X118550800Y-57697570D02*
X118522228Y-57821380D01*
X118522228Y-57821380D02*
X118493657Y-57883285D01*
X118493657Y-57883285D02*
X118436514Y-57945190D01*
X118436514Y-57945190D02*
X118350800Y-57976142D01*
X118350800Y-57976142D02*
X118207943Y-57976142D01*
X119122228Y-57976142D02*
X118779371Y-57976142D01*
X118950800Y-57976142D02*
X118950800Y-57326142D01*
X118950800Y-57326142D02*
X118893657Y-57418999D01*
X118893657Y-57418999D02*
X118836514Y-57480904D01*
X118836514Y-57480904D02*
X118779371Y-57511856D01*
X115574637Y-46355714D02*
X115605590Y-46384286D01*
X115605590Y-46384286D02*
X115636542Y-46470000D01*
X115636542Y-46470000D02*
X115636542Y-46527143D01*
X115636542Y-46527143D02*
X115605590Y-46612857D01*
X115605590Y-46612857D02*
X115543685Y-46670000D01*
X115543685Y-46670000D02*
X115481780Y-46698571D01*
X115481780Y-46698571D02*
X115357970Y-46727143D01*
X115357970Y-46727143D02*
X115265113Y-46727143D01*
X115265113Y-46727143D02*
X115141304Y-46698571D01*
X115141304Y-46698571D02*
X115079399Y-46670000D01*
X115079399Y-46670000D02*
X115017494Y-46612857D01*
X115017494Y-46612857D02*
X114986542Y-46527143D01*
X114986542Y-46527143D02*
X114986542Y-46470000D01*
X114986542Y-46470000D02*
X115017494Y-46384286D01*
X115017494Y-46384286D02*
X115048447Y-46355714D01*
X114986542Y-46155714D02*
X114986542Y-45784286D01*
X114986542Y-45784286D02*
X115234161Y-45984286D01*
X115234161Y-45984286D02*
X115234161Y-45898571D01*
X115234161Y-45898571D02*
X115265113Y-45841429D01*
X115265113Y-45841429D02*
X115296066Y-45812857D01*
X115296066Y-45812857D02*
X115357970Y-45784286D01*
X115357970Y-45784286D02*
X115512732Y-45784286D01*
X115512732Y-45784286D02*
X115574637Y-45812857D01*
X115574637Y-45812857D02*
X115605590Y-45841429D01*
X115605590Y-45841429D02*
X115636542Y-45898571D01*
X115636542Y-45898571D02*
X115636542Y-46070000D01*
X115636542Y-46070000D02*
X115605590Y-46127143D01*
X115605590Y-46127143D02*
X115574637Y-46155714D01*
X115048447Y-45555714D02*
X115017494Y-45527142D01*
X115017494Y-45527142D02*
X114986542Y-45470000D01*
X114986542Y-45470000D02*
X114986542Y-45327142D01*
X114986542Y-45327142D02*
X115017494Y-45270000D01*
X115017494Y-45270000D02*
X115048447Y-45241428D01*
X115048447Y-45241428D02*
X115110351Y-45212857D01*
X115110351Y-45212857D02*
X115172256Y-45212857D01*
X115172256Y-45212857D02*
X115265113Y-45241428D01*
X115265113Y-45241428D02*
X115636542Y-45584285D01*
X115636542Y-45584285D02*
X115636542Y-45212857D01*
X80617657Y-58100142D02*
X80617657Y-58626332D01*
X80617657Y-58626332D02*
X80646228Y-58688237D01*
X80646228Y-58688237D02*
X80674800Y-58719190D01*
X80674800Y-58719190D02*
X80731942Y-58750142D01*
X80731942Y-58750142D02*
X80846228Y-58750142D01*
X80846228Y-58750142D02*
X80903371Y-58719190D01*
X80903371Y-58719190D02*
X80931942Y-58688237D01*
X80931942Y-58688237D02*
X80960514Y-58626332D01*
X80960514Y-58626332D02*
X80960514Y-58100142D01*
X81274799Y-58750142D02*
X81389085Y-58750142D01*
X81389085Y-58750142D02*
X81446228Y-58719190D01*
X81446228Y-58719190D02*
X81474799Y-58688237D01*
X81474799Y-58688237D02*
X81531942Y-58595380D01*
X81531942Y-58595380D02*
X81560513Y-58471570D01*
X81560513Y-58471570D02*
X81560513Y-58223951D01*
X81560513Y-58223951D02*
X81531942Y-58162047D01*
X81531942Y-58162047D02*
X81503371Y-58131094D01*
X81503371Y-58131094D02*
X81446228Y-58100142D01*
X81446228Y-58100142D02*
X81331942Y-58100142D01*
X81331942Y-58100142D02*
X81274799Y-58131094D01*
X81274799Y-58131094D02*
X81246228Y-58162047D01*
X81246228Y-58162047D02*
X81217656Y-58223951D01*
X81217656Y-58223951D02*
X81217656Y-58378713D01*
X81217656Y-58378713D02*
X81246228Y-58440618D01*
X81246228Y-58440618D02*
X81274799Y-58471570D01*
X81274799Y-58471570D02*
X81331942Y-58502523D01*
X81331942Y-58502523D02*
X81446228Y-58502523D01*
X81446228Y-58502523D02*
X81503371Y-58471570D01*
X81503371Y-58471570D02*
X81531942Y-58440618D01*
X81531942Y-58440618D02*
X81560513Y-58378713D01*
X111150000Y-64646542D02*
X110950000Y-64337018D01*
X110807143Y-64646542D02*
X110807143Y-63996542D01*
X110807143Y-63996542D02*
X111035714Y-63996542D01*
X111035714Y-63996542D02*
X111092857Y-64027494D01*
X111092857Y-64027494D02*
X111121428Y-64058447D01*
X111121428Y-64058447D02*
X111150000Y-64120351D01*
X111150000Y-64120351D02*
X111150000Y-64213209D01*
X111150000Y-64213209D02*
X111121428Y-64275113D01*
X111121428Y-64275113D02*
X111092857Y-64306066D01*
X111092857Y-64306066D02*
X111035714Y-64337018D01*
X111035714Y-64337018D02*
X110807143Y-64337018D01*
X111492857Y-64275113D02*
X111435714Y-64244161D01*
X111435714Y-64244161D02*
X111407143Y-64213209D01*
X111407143Y-64213209D02*
X111378571Y-64151304D01*
X111378571Y-64151304D02*
X111378571Y-64120351D01*
X111378571Y-64120351D02*
X111407143Y-64058447D01*
X111407143Y-64058447D02*
X111435714Y-64027494D01*
X111435714Y-64027494D02*
X111492857Y-63996542D01*
X111492857Y-63996542D02*
X111607143Y-63996542D01*
X111607143Y-63996542D02*
X111664286Y-64027494D01*
X111664286Y-64027494D02*
X111692857Y-64058447D01*
X111692857Y-64058447D02*
X111721428Y-64120351D01*
X111721428Y-64120351D02*
X111721428Y-64151304D01*
X111721428Y-64151304D02*
X111692857Y-64213209D01*
X111692857Y-64213209D02*
X111664286Y-64244161D01*
X111664286Y-64244161D02*
X111607143Y-64275113D01*
X111607143Y-64275113D02*
X111492857Y-64275113D01*
X111492857Y-64275113D02*
X111435714Y-64306066D01*
X111435714Y-64306066D02*
X111407143Y-64337018D01*
X111407143Y-64337018D02*
X111378571Y-64398923D01*
X111378571Y-64398923D02*
X111378571Y-64522732D01*
X111378571Y-64522732D02*
X111407143Y-64584637D01*
X111407143Y-64584637D02*
X111435714Y-64615590D01*
X111435714Y-64615590D02*
X111492857Y-64646542D01*
X111492857Y-64646542D02*
X111607143Y-64646542D01*
X111607143Y-64646542D02*
X111664286Y-64615590D01*
X111664286Y-64615590D02*
X111692857Y-64584637D01*
X111692857Y-64584637D02*
X111721428Y-64522732D01*
X111721428Y-64522732D02*
X111721428Y-64398923D01*
X111721428Y-64398923D02*
X111692857Y-64337018D01*
X111692857Y-64337018D02*
X111664286Y-64306066D01*
X111664286Y-64306066D02*
X111607143Y-64275113D01*
X85938457Y-26875542D02*
X85938457Y-26225542D01*
X85938457Y-26535066D02*
X86281314Y-26535066D01*
X86281314Y-26875542D02*
X86281314Y-26225542D01*
X86881313Y-26875542D02*
X86538456Y-26875542D01*
X86709885Y-26875542D02*
X86709885Y-26225542D01*
X86709885Y-26225542D02*
X86652742Y-26318399D01*
X86652742Y-26318399D02*
X86595599Y-26380304D01*
X86595599Y-26380304D02*
X86538456Y-26411256D01*
X81637200Y-42663742D02*
X81437200Y-42354218D01*
X81294343Y-42663742D02*
X81294343Y-42013742D01*
X81294343Y-42013742D02*
X81522914Y-42013742D01*
X81522914Y-42013742D02*
X81580057Y-42044694D01*
X81580057Y-42044694D02*
X81608628Y-42075647D01*
X81608628Y-42075647D02*
X81637200Y-42137551D01*
X81637200Y-42137551D02*
X81637200Y-42230409D01*
X81637200Y-42230409D02*
X81608628Y-42292313D01*
X81608628Y-42292313D02*
X81580057Y-42323266D01*
X81580057Y-42323266D02*
X81522914Y-42354218D01*
X81522914Y-42354218D02*
X81294343Y-42354218D01*
X82208628Y-42663742D02*
X81865771Y-42663742D01*
X82037200Y-42663742D02*
X82037200Y-42013742D01*
X82037200Y-42013742D02*
X81980057Y-42106599D01*
X81980057Y-42106599D02*
X81922914Y-42168504D01*
X81922914Y-42168504D02*
X81865771Y-42199456D01*
X96513543Y-29633542D02*
X96513543Y-28983542D01*
X96513543Y-28983542D02*
X96656400Y-28983542D01*
X96656400Y-28983542D02*
X96742114Y-29014494D01*
X96742114Y-29014494D02*
X96799257Y-29076399D01*
X96799257Y-29076399D02*
X96827828Y-29138304D01*
X96827828Y-29138304D02*
X96856400Y-29262113D01*
X96856400Y-29262113D02*
X96856400Y-29354970D01*
X96856400Y-29354970D02*
X96827828Y-29478780D01*
X96827828Y-29478780D02*
X96799257Y-29540685D01*
X96799257Y-29540685D02*
X96742114Y-29602590D01*
X96742114Y-29602590D02*
X96656400Y-29633542D01*
X96656400Y-29633542D02*
X96513543Y-29633542D01*
X97084971Y-29045447D02*
X97113543Y-29014494D01*
X97113543Y-29014494D02*
X97170686Y-28983542D01*
X97170686Y-28983542D02*
X97313543Y-28983542D01*
X97313543Y-28983542D02*
X97370686Y-29014494D01*
X97370686Y-29014494D02*
X97399257Y-29045447D01*
X97399257Y-29045447D02*
X97427828Y-29107351D01*
X97427828Y-29107351D02*
X97427828Y-29169256D01*
X97427828Y-29169256D02*
X97399257Y-29262113D01*
X97399257Y-29262113D02*
X97056400Y-29633542D01*
X97056400Y-29633542D02*
X97427828Y-29633542D01*
X81611800Y-56100342D02*
X81411800Y-55790818D01*
X81268943Y-56100342D02*
X81268943Y-55450342D01*
X81268943Y-55450342D02*
X81497514Y-55450342D01*
X81497514Y-55450342D02*
X81554657Y-55481294D01*
X81554657Y-55481294D02*
X81583228Y-55512247D01*
X81583228Y-55512247D02*
X81611800Y-55574151D01*
X81611800Y-55574151D02*
X81611800Y-55667009D01*
X81611800Y-55667009D02*
X81583228Y-55728913D01*
X81583228Y-55728913D02*
X81554657Y-55759866D01*
X81554657Y-55759866D02*
X81497514Y-55790818D01*
X81497514Y-55790818D02*
X81268943Y-55790818D01*
X82126086Y-55450342D02*
X82011800Y-55450342D01*
X82011800Y-55450342D02*
X81954657Y-55481294D01*
X81954657Y-55481294D02*
X81926086Y-55512247D01*
X81926086Y-55512247D02*
X81868943Y-55605104D01*
X81868943Y-55605104D02*
X81840371Y-55728913D01*
X81840371Y-55728913D02*
X81840371Y-55976532D01*
X81840371Y-55976532D02*
X81868943Y-56038437D01*
X81868943Y-56038437D02*
X81897514Y-56069390D01*
X81897514Y-56069390D02*
X81954657Y-56100342D01*
X81954657Y-56100342D02*
X82068943Y-56100342D01*
X82068943Y-56100342D02*
X82126086Y-56069390D01*
X82126086Y-56069390D02*
X82154657Y-56038437D01*
X82154657Y-56038437D02*
X82183228Y-55976532D01*
X82183228Y-55976532D02*
X82183228Y-55821770D01*
X82183228Y-55821770D02*
X82154657Y-55759866D01*
X82154657Y-55759866D02*
X82126086Y-55728913D01*
X82126086Y-55728913D02*
X82068943Y-55697961D01*
X82068943Y-55697961D02*
X81954657Y-55697961D01*
X81954657Y-55697961D02*
X81897514Y-55728913D01*
X81897514Y-55728913D02*
X81868943Y-55759866D01*
X81868943Y-55759866D02*
X81840371Y-55821770D01*
X107283343Y-56544942D02*
X107283343Y-57071132D01*
X107283343Y-57071132D02*
X107311914Y-57133037D01*
X107311914Y-57133037D02*
X107340486Y-57163990D01*
X107340486Y-57163990D02*
X107397628Y-57194942D01*
X107397628Y-57194942D02*
X107511914Y-57194942D01*
X107511914Y-57194942D02*
X107569057Y-57163990D01*
X107569057Y-57163990D02*
X107597628Y-57133037D01*
X107597628Y-57133037D02*
X107626200Y-57071132D01*
X107626200Y-57071132D02*
X107626200Y-56544942D01*
X108226199Y-57194942D02*
X107883342Y-57194942D01*
X108054771Y-57194942D02*
X108054771Y-56544942D01*
X108054771Y-56544942D02*
X107997628Y-56637799D01*
X107997628Y-56637799D02*
X107940485Y-56699704D01*
X107940485Y-56699704D02*
X107883342Y-56730656D01*
X108797628Y-57194942D02*
X108454771Y-57194942D01*
X108626200Y-57194942D02*
X108626200Y-56544942D01*
X108626200Y-56544942D02*
X108569057Y-56637799D01*
X108569057Y-56637799D02*
X108511914Y-56699704D01*
X108511914Y-56699704D02*
X108454771Y-56730656D01*
X107132485Y-62467037D02*
X107103913Y-62497990D01*
X107103913Y-62497990D02*
X107018199Y-62528942D01*
X107018199Y-62528942D02*
X106961056Y-62528942D01*
X106961056Y-62528942D02*
X106875342Y-62497990D01*
X106875342Y-62497990D02*
X106818199Y-62436085D01*
X106818199Y-62436085D02*
X106789628Y-62374180D01*
X106789628Y-62374180D02*
X106761056Y-62250370D01*
X106761056Y-62250370D02*
X106761056Y-62157513D01*
X106761056Y-62157513D02*
X106789628Y-62033704D01*
X106789628Y-62033704D02*
X106818199Y-61971799D01*
X106818199Y-61971799D02*
X106875342Y-61909894D01*
X106875342Y-61909894D02*
X106961056Y-61878942D01*
X106961056Y-61878942D02*
X107018199Y-61878942D01*
X107018199Y-61878942D02*
X107103913Y-61909894D01*
X107103913Y-61909894D02*
X107132485Y-61940847D01*
X107361056Y-61940847D02*
X107389628Y-61909894D01*
X107389628Y-61909894D02*
X107446771Y-61878942D01*
X107446771Y-61878942D02*
X107589628Y-61878942D01*
X107589628Y-61878942D02*
X107646771Y-61909894D01*
X107646771Y-61909894D02*
X107675342Y-61940847D01*
X107675342Y-61940847D02*
X107703913Y-62002751D01*
X107703913Y-62002751D02*
X107703913Y-62064656D01*
X107703913Y-62064656D02*
X107675342Y-62157513D01*
X107675342Y-62157513D02*
X107332485Y-62528942D01*
X107332485Y-62528942D02*
X107703913Y-62528942D01*
X107903914Y-61878942D02*
X108303914Y-61878942D01*
X108303914Y-61878942D02*
X108046771Y-62528942D01*
X106958885Y-45041137D02*
X106930313Y-45072090D01*
X106930313Y-45072090D02*
X106844599Y-45103042D01*
X106844599Y-45103042D02*
X106787456Y-45103042D01*
X106787456Y-45103042D02*
X106701742Y-45072090D01*
X106701742Y-45072090D02*
X106644599Y-45010185D01*
X106644599Y-45010185D02*
X106616028Y-44948280D01*
X106616028Y-44948280D02*
X106587456Y-44824470D01*
X106587456Y-44824470D02*
X106587456Y-44731613D01*
X106587456Y-44731613D02*
X106616028Y-44607804D01*
X106616028Y-44607804D02*
X106644599Y-44545899D01*
X106644599Y-44545899D02*
X106701742Y-44483994D01*
X106701742Y-44483994D02*
X106787456Y-44453042D01*
X106787456Y-44453042D02*
X106844599Y-44453042D01*
X106844599Y-44453042D02*
X106930313Y-44483994D01*
X106930313Y-44483994D02*
X106958885Y-44514947D01*
X107187456Y-44514947D02*
X107216028Y-44483994D01*
X107216028Y-44483994D02*
X107273171Y-44453042D01*
X107273171Y-44453042D02*
X107416028Y-44453042D01*
X107416028Y-44453042D02*
X107473171Y-44483994D01*
X107473171Y-44483994D02*
X107501742Y-44514947D01*
X107501742Y-44514947D02*
X107530313Y-44576851D01*
X107530313Y-44576851D02*
X107530313Y-44638756D01*
X107530313Y-44638756D02*
X107501742Y-44731613D01*
X107501742Y-44731613D02*
X107158885Y-45103042D01*
X107158885Y-45103042D02*
X107530313Y-45103042D01*
X107901742Y-44453042D02*
X107958885Y-44453042D01*
X107958885Y-44453042D02*
X108016028Y-44483994D01*
X108016028Y-44483994D02*
X108044600Y-44514947D01*
X108044600Y-44514947D02*
X108073171Y-44576851D01*
X108073171Y-44576851D02*
X108101742Y-44700661D01*
X108101742Y-44700661D02*
X108101742Y-44855423D01*
X108101742Y-44855423D02*
X108073171Y-44979232D01*
X108073171Y-44979232D02*
X108044600Y-45041137D01*
X108044600Y-45041137D02*
X108016028Y-45072090D01*
X108016028Y-45072090D02*
X107958885Y-45103042D01*
X107958885Y-45103042D02*
X107901742Y-45103042D01*
X107901742Y-45103042D02*
X107844600Y-45072090D01*
X107844600Y-45072090D02*
X107816028Y-45041137D01*
X107816028Y-45041137D02*
X107787457Y-44979232D01*
X107787457Y-44979232D02*
X107758885Y-44855423D01*
X107758885Y-44855423D02*
X107758885Y-44700661D01*
X107758885Y-44700661D02*
X107787457Y-44576851D01*
X107787457Y-44576851D02*
X107816028Y-44514947D01*
X107816028Y-44514947D02*
X107844600Y-44483994D01*
X107844600Y-44483994D02*
X107901742Y-44453042D01*
X82570685Y-58654637D02*
X82542113Y-58685590D01*
X82542113Y-58685590D02*
X82456399Y-58716542D01*
X82456399Y-58716542D02*
X82399256Y-58716542D01*
X82399256Y-58716542D02*
X82313542Y-58685590D01*
X82313542Y-58685590D02*
X82256399Y-58623685D01*
X82256399Y-58623685D02*
X82227828Y-58561780D01*
X82227828Y-58561780D02*
X82199256Y-58437970D01*
X82199256Y-58437970D02*
X82199256Y-58345113D01*
X82199256Y-58345113D02*
X82227828Y-58221304D01*
X82227828Y-58221304D02*
X82256399Y-58159399D01*
X82256399Y-58159399D02*
X82313542Y-58097494D01*
X82313542Y-58097494D02*
X82399256Y-58066542D01*
X82399256Y-58066542D02*
X82456399Y-58066542D01*
X82456399Y-58066542D02*
X82542113Y-58097494D01*
X82542113Y-58097494D02*
X82570685Y-58128447D01*
X83142113Y-58716542D02*
X82799256Y-58716542D01*
X82970685Y-58716542D02*
X82970685Y-58066542D01*
X82970685Y-58066542D02*
X82913542Y-58159399D01*
X82913542Y-58159399D02*
X82856399Y-58221304D01*
X82856399Y-58221304D02*
X82799256Y-58252256D01*
X83342114Y-58066542D02*
X83742114Y-58066542D01*
X83742114Y-58066542D02*
X83484971Y-58716542D01*
X104446400Y-62704342D02*
X104246400Y-62394818D01*
X104103543Y-62704342D02*
X104103543Y-62054342D01*
X104103543Y-62054342D02*
X104332114Y-62054342D01*
X104332114Y-62054342D02*
X104389257Y-62085294D01*
X104389257Y-62085294D02*
X104417828Y-62116247D01*
X104417828Y-62116247D02*
X104446400Y-62178151D01*
X104446400Y-62178151D02*
X104446400Y-62271009D01*
X104446400Y-62271009D02*
X104417828Y-62332913D01*
X104417828Y-62332913D02*
X104389257Y-62363866D01*
X104389257Y-62363866D02*
X104332114Y-62394818D01*
X104332114Y-62394818D02*
X104103543Y-62394818D01*
X104732114Y-62704342D02*
X104846400Y-62704342D01*
X104846400Y-62704342D02*
X104903543Y-62673390D01*
X104903543Y-62673390D02*
X104932114Y-62642437D01*
X104932114Y-62642437D02*
X104989257Y-62549580D01*
X104989257Y-62549580D02*
X105017828Y-62425770D01*
X105017828Y-62425770D02*
X105017828Y-62178151D01*
X105017828Y-62178151D02*
X104989257Y-62116247D01*
X104989257Y-62116247D02*
X104960686Y-62085294D01*
X104960686Y-62085294D02*
X104903543Y-62054342D01*
X104903543Y-62054342D02*
X104789257Y-62054342D01*
X104789257Y-62054342D02*
X104732114Y-62085294D01*
X104732114Y-62085294D02*
X104703543Y-62116247D01*
X104703543Y-62116247D02*
X104674971Y-62178151D01*
X104674971Y-62178151D02*
X104674971Y-62332913D01*
X104674971Y-62332913D02*
X104703543Y-62394818D01*
X104703543Y-62394818D02*
X104732114Y-62425770D01*
X104732114Y-62425770D02*
X104789257Y-62456723D01*
X104789257Y-62456723D02*
X104903543Y-62456723D01*
X104903543Y-62456723D02*
X104960686Y-62425770D01*
X104960686Y-62425770D02*
X104989257Y-62394818D01*
X104989257Y-62394818D02*
X105017828Y-62332913D01*
X104153600Y-29796542D02*
X104553600Y-30446542D01*
X104553600Y-29796542D02*
X104153600Y-30446542D01*
X104153600Y-32296542D02*
X104553600Y-32296542D01*
X104553600Y-32296542D02*
X104153600Y-32946542D01*
X104153600Y-32946542D02*
X104553600Y-32946542D01*
X107103599Y-32387018D02*
X107103599Y-32696542D01*
X106903599Y-32046542D02*
X107103599Y-32387018D01*
X107103599Y-32387018D02*
X107303599Y-32046542D01*
X88761685Y-27869837D02*
X88733113Y-27900790D01*
X88733113Y-27900790D02*
X88647399Y-27931742D01*
X88647399Y-27931742D02*
X88590256Y-27931742D01*
X88590256Y-27931742D02*
X88504542Y-27900790D01*
X88504542Y-27900790D02*
X88447399Y-27838885D01*
X88447399Y-27838885D02*
X88418828Y-27776980D01*
X88418828Y-27776980D02*
X88390256Y-27653170D01*
X88390256Y-27653170D02*
X88390256Y-27560313D01*
X88390256Y-27560313D02*
X88418828Y-27436504D01*
X88418828Y-27436504D02*
X88447399Y-27374599D01*
X88447399Y-27374599D02*
X88504542Y-27312694D01*
X88504542Y-27312694D02*
X88590256Y-27281742D01*
X88590256Y-27281742D02*
X88647399Y-27281742D01*
X88647399Y-27281742D02*
X88733113Y-27312694D01*
X88733113Y-27312694D02*
X88761685Y-27343647D01*
X88990256Y-27343647D02*
X89018828Y-27312694D01*
X89018828Y-27312694D02*
X89075971Y-27281742D01*
X89075971Y-27281742D02*
X89218828Y-27281742D01*
X89218828Y-27281742D02*
X89275971Y-27312694D01*
X89275971Y-27312694D02*
X89304542Y-27343647D01*
X89304542Y-27343647D02*
X89333113Y-27405551D01*
X89333113Y-27405551D02*
X89333113Y-27467456D01*
X89333113Y-27467456D02*
X89304542Y-27560313D01*
X89304542Y-27560313D02*
X88961685Y-27931742D01*
X88961685Y-27931742D02*
X89333113Y-27931742D01*
X89875971Y-27281742D02*
X89590257Y-27281742D01*
X89590257Y-27281742D02*
X89561685Y-27591266D01*
X89561685Y-27591266D02*
X89590257Y-27560313D01*
X89590257Y-27560313D02*
X89647400Y-27529361D01*
X89647400Y-27529361D02*
X89790257Y-27529361D01*
X89790257Y-27529361D02*
X89847400Y-27560313D01*
X89847400Y-27560313D02*
X89875971Y-27591266D01*
X89875971Y-27591266D02*
X89904542Y-27653170D01*
X89904542Y-27653170D02*
X89904542Y-27807932D01*
X89904542Y-27807932D02*
X89875971Y-27869837D01*
X89875971Y-27869837D02*
X89847400Y-27900790D01*
X89847400Y-27900790D02*
X89790257Y-27931742D01*
X89790257Y-27931742D02*
X89647400Y-27931742D01*
X89647400Y-27931742D02*
X89590257Y-27900790D01*
X89590257Y-27900790D02*
X89561685Y-27869837D01*
X115669999Y-53636542D02*
X115669999Y-54100828D01*
X115669999Y-54100828D02*
X115641428Y-54193685D01*
X115641428Y-54193685D02*
X115584285Y-54255590D01*
X115584285Y-54255590D02*
X115498571Y-54286542D01*
X115498571Y-54286542D02*
X115441428Y-54286542D01*
X115927142Y-53698447D02*
X115955714Y-53667494D01*
X115955714Y-53667494D02*
X116012857Y-53636542D01*
X116012857Y-53636542D02*
X116155714Y-53636542D01*
X116155714Y-53636542D02*
X116212857Y-53667494D01*
X116212857Y-53667494D02*
X116241428Y-53698447D01*
X116241428Y-53698447D02*
X116269999Y-53760351D01*
X116269999Y-53760351D02*
X116269999Y-53822256D01*
X116269999Y-53822256D02*
X116241428Y-53915113D01*
X116241428Y-53915113D02*
X115898571Y-54286542D01*
X115898571Y-54286542D02*
X116269999Y-54286542D01*
X95674285Y-58344637D02*
X95645713Y-58375590D01*
X95645713Y-58375590D02*
X95559999Y-58406542D01*
X95559999Y-58406542D02*
X95502856Y-58406542D01*
X95502856Y-58406542D02*
X95417142Y-58375590D01*
X95417142Y-58375590D02*
X95359999Y-58313685D01*
X95359999Y-58313685D02*
X95331428Y-58251780D01*
X95331428Y-58251780D02*
X95302856Y-58127970D01*
X95302856Y-58127970D02*
X95302856Y-58035113D01*
X95302856Y-58035113D02*
X95331428Y-57911304D01*
X95331428Y-57911304D02*
X95359999Y-57849399D01*
X95359999Y-57849399D02*
X95417142Y-57787494D01*
X95417142Y-57787494D02*
X95502856Y-57756542D01*
X95502856Y-57756542D02*
X95559999Y-57756542D01*
X95559999Y-57756542D02*
X95645713Y-57787494D01*
X95645713Y-57787494D02*
X95674285Y-57818447D01*
X95874285Y-57756542D02*
X96245713Y-57756542D01*
X96245713Y-57756542D02*
X96045713Y-58004161D01*
X96045713Y-58004161D02*
X96131428Y-58004161D01*
X96131428Y-58004161D02*
X96188571Y-58035113D01*
X96188571Y-58035113D02*
X96217142Y-58066066D01*
X96217142Y-58066066D02*
X96245713Y-58127970D01*
X96245713Y-58127970D02*
X96245713Y-58282732D01*
X96245713Y-58282732D02*
X96217142Y-58344637D01*
X96217142Y-58344637D02*
X96188571Y-58375590D01*
X96188571Y-58375590D02*
X96131428Y-58406542D01*
X96131428Y-58406542D02*
X95959999Y-58406542D01*
X95959999Y-58406542D02*
X95902856Y-58375590D01*
X95902856Y-58375590D02*
X95874285Y-58344637D01*
X96817142Y-58406542D02*
X96474285Y-58406542D01*
X96645714Y-58406542D02*
X96645714Y-57756542D01*
X96645714Y-57756542D02*
X96588571Y-57849399D01*
X96588571Y-57849399D02*
X96531428Y-57911304D01*
X96531428Y-57911304D02*
X96474285Y-57942256D01*
X122346542Y-61035714D02*
X122810828Y-61035714D01*
X122810828Y-61035714D02*
X122903685Y-61064285D01*
X122903685Y-61064285D02*
X122965590Y-61121428D01*
X122965590Y-61121428D02*
X122996542Y-61207142D01*
X122996542Y-61207142D02*
X122996542Y-61264285D01*
X122996542Y-60435714D02*
X122996542Y-60778571D01*
X122996542Y-60607142D02*
X122346542Y-60607142D01*
X122346542Y-60607142D02*
X122439399Y-60664285D01*
X122439399Y-60664285D02*
X122501304Y-60721428D01*
X122501304Y-60721428D02*
X122532256Y-60778571D01*
X122346542Y-60064285D02*
X122346542Y-60007142D01*
X122346542Y-60007142D02*
X122377494Y-59949999D01*
X122377494Y-59949999D02*
X122408447Y-59921428D01*
X122408447Y-59921428D02*
X122470351Y-59892856D01*
X122470351Y-59892856D02*
X122594161Y-59864285D01*
X122594161Y-59864285D02*
X122748923Y-59864285D01*
X122748923Y-59864285D02*
X122872732Y-59892856D01*
X122872732Y-59892856D02*
X122934637Y-59921428D01*
X122934637Y-59921428D02*
X122965590Y-59949999D01*
X122965590Y-59949999D02*
X122996542Y-60007142D01*
X122996542Y-60007142D02*
X122996542Y-60064285D01*
X122996542Y-60064285D02*
X122965590Y-60121428D01*
X122965590Y-60121428D02*
X122934637Y-60149999D01*
X122934637Y-60149999D02*
X122872732Y-60178570D01*
X122872732Y-60178570D02*
X122748923Y-60207142D01*
X122748923Y-60207142D02*
X122594161Y-60207142D01*
X122594161Y-60207142D02*
X122470351Y-60178570D01*
X122470351Y-60178570D02*
X122408447Y-60149999D01*
X122408447Y-60149999D02*
X122377494Y-60121428D01*
X122377494Y-60121428D02*
X122346542Y-60064285D01*
X115292200Y-33682537D02*
X115263628Y-33713490D01*
X115263628Y-33713490D02*
X115177914Y-33744442D01*
X115177914Y-33744442D02*
X115120771Y-33744442D01*
X115120771Y-33744442D02*
X115035057Y-33713490D01*
X115035057Y-33713490D02*
X114977914Y-33651585D01*
X114977914Y-33651585D02*
X114949343Y-33589680D01*
X114949343Y-33589680D02*
X114920771Y-33465870D01*
X114920771Y-33465870D02*
X114920771Y-33373013D01*
X114920771Y-33373013D02*
X114949343Y-33249204D01*
X114949343Y-33249204D02*
X114977914Y-33187299D01*
X114977914Y-33187299D02*
X115035057Y-33125394D01*
X115035057Y-33125394D02*
X115120771Y-33094442D01*
X115120771Y-33094442D02*
X115177914Y-33094442D01*
X115177914Y-33094442D02*
X115263628Y-33125394D01*
X115263628Y-33125394D02*
X115292200Y-33156347D01*
X115520771Y-33156347D02*
X115549343Y-33125394D01*
X115549343Y-33125394D02*
X115606486Y-33094442D01*
X115606486Y-33094442D02*
X115749343Y-33094442D01*
X115749343Y-33094442D02*
X115806486Y-33125394D01*
X115806486Y-33125394D02*
X115835057Y-33156347D01*
X115835057Y-33156347D02*
X115863628Y-33218251D01*
X115863628Y-33218251D02*
X115863628Y-33280156D01*
X115863628Y-33280156D02*
X115835057Y-33373013D01*
X115835057Y-33373013D02*
X115492200Y-33744442D01*
X115492200Y-33744442D02*
X115863628Y-33744442D01*
X84226457Y-42318542D02*
X84226457Y-42844732D01*
X84226457Y-42844732D02*
X84255028Y-42906637D01*
X84255028Y-42906637D02*
X84283600Y-42937590D01*
X84283600Y-42937590D02*
X84340742Y-42968542D01*
X84340742Y-42968542D02*
X84455028Y-42968542D01*
X84455028Y-42968542D02*
X84512171Y-42937590D01*
X84512171Y-42937590D02*
X84540742Y-42906637D01*
X84540742Y-42906637D02*
X84569314Y-42844732D01*
X84569314Y-42844732D02*
X84569314Y-42318542D01*
X84797885Y-42318542D02*
X85169313Y-42318542D01*
X85169313Y-42318542D02*
X84969313Y-42566161D01*
X84969313Y-42566161D02*
X85055028Y-42566161D01*
X85055028Y-42566161D02*
X85112171Y-42597113D01*
X85112171Y-42597113D02*
X85140742Y-42628066D01*
X85140742Y-42628066D02*
X85169313Y-42689970D01*
X85169313Y-42689970D02*
X85169313Y-42844732D01*
X85169313Y-42844732D02*
X85140742Y-42906637D01*
X85140742Y-42906637D02*
X85112171Y-42937590D01*
X85112171Y-42937590D02*
X85055028Y-42968542D01*
X85055028Y-42968542D02*
X84883599Y-42968542D01*
X84883599Y-42968542D02*
X84826456Y-42937590D01*
X84826456Y-42937590D02*
X84797885Y-42906637D01*
X89044286Y-62724637D02*
X89015714Y-62755590D01*
X89015714Y-62755590D02*
X88930000Y-62786542D01*
X88930000Y-62786542D02*
X88872857Y-62786542D01*
X88872857Y-62786542D02*
X88787143Y-62755590D01*
X88787143Y-62755590D02*
X88730000Y-62693685D01*
X88730000Y-62693685D02*
X88701429Y-62631780D01*
X88701429Y-62631780D02*
X88672857Y-62507970D01*
X88672857Y-62507970D02*
X88672857Y-62415113D01*
X88672857Y-62415113D02*
X88701429Y-62291304D01*
X88701429Y-62291304D02*
X88730000Y-62229399D01*
X88730000Y-62229399D02*
X88787143Y-62167494D01*
X88787143Y-62167494D02*
X88872857Y-62136542D01*
X88872857Y-62136542D02*
X88930000Y-62136542D01*
X88930000Y-62136542D02*
X89015714Y-62167494D01*
X89015714Y-62167494D02*
X89044286Y-62198447D01*
X89244286Y-62136542D02*
X89615714Y-62136542D01*
X89615714Y-62136542D02*
X89415714Y-62384161D01*
X89415714Y-62384161D02*
X89501429Y-62384161D01*
X89501429Y-62384161D02*
X89558572Y-62415113D01*
X89558572Y-62415113D02*
X89587143Y-62446066D01*
X89587143Y-62446066D02*
X89615714Y-62507970D01*
X89615714Y-62507970D02*
X89615714Y-62662732D01*
X89615714Y-62662732D02*
X89587143Y-62724637D01*
X89587143Y-62724637D02*
X89558572Y-62755590D01*
X89558572Y-62755590D02*
X89501429Y-62786542D01*
X89501429Y-62786542D02*
X89330000Y-62786542D01*
X89330000Y-62786542D02*
X89272857Y-62755590D01*
X89272857Y-62755590D02*
X89244286Y-62724637D01*
X89987143Y-62136542D02*
X90044286Y-62136542D01*
X90044286Y-62136542D02*
X90101429Y-62167494D01*
X90101429Y-62167494D02*
X90130001Y-62198447D01*
X90130001Y-62198447D02*
X90158572Y-62260351D01*
X90158572Y-62260351D02*
X90187143Y-62384161D01*
X90187143Y-62384161D02*
X90187143Y-62538923D01*
X90187143Y-62538923D02*
X90158572Y-62662732D01*
X90158572Y-62662732D02*
X90130001Y-62724637D01*
X90130001Y-62724637D02*
X90101429Y-62755590D01*
X90101429Y-62755590D02*
X90044286Y-62786542D01*
X90044286Y-62786542D02*
X89987143Y-62786542D01*
X89987143Y-62786542D02*
X89930001Y-62755590D01*
X89930001Y-62755590D02*
X89901429Y-62724637D01*
X89901429Y-62724637D02*
X89872858Y-62662732D01*
X89872858Y-62662732D02*
X89844286Y-62538923D01*
X89844286Y-62538923D02*
X89844286Y-62384161D01*
X89844286Y-62384161D02*
X89872858Y-62260351D01*
X89872858Y-62260351D02*
X89901429Y-62198447D01*
X89901429Y-62198447D02*
X89930001Y-62167494D01*
X89930001Y-62167494D02*
X89987143Y-62136542D01*
X114295285Y-56828237D02*
X114266713Y-56859190D01*
X114266713Y-56859190D02*
X114180999Y-56890142D01*
X114180999Y-56890142D02*
X114123856Y-56890142D01*
X114123856Y-56890142D02*
X114038142Y-56859190D01*
X114038142Y-56859190D02*
X113980999Y-56797285D01*
X113980999Y-56797285D02*
X113952428Y-56735380D01*
X113952428Y-56735380D02*
X113923856Y-56611570D01*
X113923856Y-56611570D02*
X113923856Y-56518713D01*
X113923856Y-56518713D02*
X113952428Y-56394904D01*
X113952428Y-56394904D02*
X113980999Y-56332999D01*
X113980999Y-56332999D02*
X114038142Y-56271094D01*
X114038142Y-56271094D02*
X114123856Y-56240142D01*
X114123856Y-56240142D02*
X114180999Y-56240142D01*
X114180999Y-56240142D02*
X114266713Y-56271094D01*
X114266713Y-56271094D02*
X114295285Y-56302047D01*
X114523856Y-56302047D02*
X114552428Y-56271094D01*
X114552428Y-56271094D02*
X114609571Y-56240142D01*
X114609571Y-56240142D02*
X114752428Y-56240142D01*
X114752428Y-56240142D02*
X114809571Y-56271094D01*
X114809571Y-56271094D02*
X114838142Y-56302047D01*
X114838142Y-56302047D02*
X114866713Y-56363951D01*
X114866713Y-56363951D02*
X114866713Y-56425856D01*
X114866713Y-56425856D02*
X114838142Y-56518713D01*
X114838142Y-56518713D02*
X114495285Y-56890142D01*
X114495285Y-56890142D02*
X114866713Y-56890142D01*
X115152428Y-56890142D02*
X115266714Y-56890142D01*
X115266714Y-56890142D02*
X115323857Y-56859190D01*
X115323857Y-56859190D02*
X115352428Y-56828237D01*
X115352428Y-56828237D02*
X115409571Y-56735380D01*
X115409571Y-56735380D02*
X115438142Y-56611570D01*
X115438142Y-56611570D02*
X115438142Y-56363951D01*
X115438142Y-56363951D02*
X115409571Y-56302047D01*
X115409571Y-56302047D02*
X115381000Y-56271094D01*
X115381000Y-56271094D02*
X115323857Y-56240142D01*
X115323857Y-56240142D02*
X115209571Y-56240142D01*
X115209571Y-56240142D02*
X115152428Y-56271094D01*
X115152428Y-56271094D02*
X115123857Y-56302047D01*
X115123857Y-56302047D02*
X115095285Y-56363951D01*
X115095285Y-56363951D02*
X115095285Y-56518713D01*
X115095285Y-56518713D02*
X115123857Y-56580618D01*
X115123857Y-56580618D02*
X115152428Y-56611570D01*
X115152428Y-56611570D02*
X115209571Y-56642523D01*
X115209571Y-56642523D02*
X115323857Y-56642523D01*
X115323857Y-56642523D02*
X115381000Y-56611570D01*
X115381000Y-56611570D02*
X115409571Y-56580618D01*
X115409571Y-56580618D02*
X115438142Y-56518713D01*
D10*
X112601924Y-54217500D02*
X112092476Y-54217500D01*
X112601924Y-55262500D02*
X112092476Y-55262500D01*
X87480224Y-56754500D02*
X86970776Y-56754500D01*
X87480224Y-57799500D02*
X86970776Y-57799500D01*
X113955000Y-67275000D02*
X113955000Y-64400000D01*
X114041724Y-67275000D02*
X113955000Y-67275000D01*
X114255507Y-64400000D02*
X113955000Y-64400000D01*
X115345000Y-64400000D02*
X115044493Y-64400000D01*
X115345000Y-67275000D02*
X115258276Y-67275000D01*
X115345000Y-67275000D02*
X115345000Y-64400000D01*
X115345000Y-67960000D02*
X115345000Y-68645000D01*
X115345000Y-68645000D02*
X114650000Y-68645000D01*
X92846267Y-52870000D02*
X92553733Y-52870000D01*
X92846267Y-53890000D02*
X92553733Y-53890000D01*
X100455000Y-38653767D02*
X100455000Y-38361233D01*
X101475000Y-38653767D02*
X101475000Y-38361233D01*
X97013500Y-38763024D02*
X97013500Y-38253576D01*
X98058500Y-38763024D02*
X98058500Y-38253576D01*
X119240000Y-55115000D02*
X119240000Y-56585000D01*
X119240000Y-56585000D02*
X121700000Y-56585000D01*
X121700000Y-55115000D02*
X119240000Y-55115000D01*
X107383800Y-59178267D02*
X107383800Y-58885733D01*
X108403800Y-59178267D02*
X108403800Y-58885733D01*
X98747400Y-38253576D02*
X98747400Y-38763024D01*
X99792400Y-38253576D02*
X99792400Y-38763024D01*
X84115600Y-52611000D02*
X84115600Y-53413470D01*
X84115600Y-54028530D02*
X84115600Y-54831000D01*
X87860600Y-52611000D02*
X84115600Y-52611000D01*
X87860600Y-52611000D02*
X87860600Y-53157529D01*
X87860600Y-54284471D02*
X87860600Y-54831000D01*
X87860600Y-54831000D02*
X84115600Y-54831000D01*
X88620600Y-52611000D02*
X89380600Y-52611000D01*
X89380600Y-52611000D02*
X89380600Y-53721000D01*
X91082000Y-33634400D02*
X91082000Y-35504400D01*
X91082000Y-35504400D02*
X94992000Y-35504400D01*
X94992000Y-33634400D02*
X91082000Y-33634400D01*
X106427500Y-48787224D02*
X106427500Y-48277776D01*
X107472500Y-48787224D02*
X107472500Y-48277776D01*
X95417800Y-64474400D02*
X95417800Y-63779400D01*
X96102800Y-64474400D02*
X95417800Y-64474400D01*
X96787800Y-63084400D02*
X101662800Y-63084400D01*
X96787800Y-63171124D02*
X96787800Y-63084400D01*
X96787800Y-64474400D02*
X96787800Y-64387676D01*
X96787800Y-64474400D02*
X101662800Y-64474400D01*
X101662800Y-63384907D02*
X101662800Y-63084400D01*
X101662800Y-64474400D02*
X101662800Y-64173893D01*
X113685533Y-61618400D02*
X113978067Y-61618400D01*
X113685533Y-62638400D02*
X113978067Y-62638400D01*
X87282000Y-43309000D02*
X88392000Y-43309000D01*
X87282000Y-44069000D02*
X87282000Y-43309000D01*
X87282000Y-44829000D02*
X87282000Y-48574000D01*
X87282000Y-44829000D02*
X87828529Y-44829000D01*
X87282000Y-48574000D02*
X88084470Y-48574000D01*
X88699530Y-48574000D02*
X89502000Y-48574000D01*
X88955471Y-44829000D02*
X89502000Y-44829000D01*
X89502000Y-44829000D02*
X89502000Y-48574000D01*
X92477733Y-41196800D02*
X92770267Y-41196800D01*
X92477733Y-42216800D02*
X92770267Y-42216800D01*
X103586000Y-36296800D02*
X103586000Y-40206800D01*
X103586000Y-40206800D02*
X105456000Y-40206800D01*
X105456000Y-40206800D02*
X105456000Y-36296800D01*
X91424000Y-44297600D02*
X91424000Y-45437600D01*
X91334000Y-27518000D02*
X91334000Y-27718000D01*
X91334000Y-32518000D02*
X91334000Y-32718000D01*
X91334000Y-32718000D02*
X91734000Y-32718000D01*
X91734000Y-27518000D02*
X91334000Y-27518000D01*
X94134000Y-27518000D02*
X94534000Y-27518000D01*
X94534000Y-27518000D02*
X94534000Y-27718000D01*
X94534000Y-32518000D02*
X94534000Y-32718000D01*
X94534000Y-32718000D02*
X94134000Y-32718000D01*
X91324000Y-27388000D02*
G75*
G02*
X91124000Y-27388000I-100000J0D01*
G01*
X91124000Y-27388000D02*
G75*
G02*
X91324000Y-27388000I100000J0D01*
G01*
X107372500Y-51620000D02*
X105572500Y-51620000D01*
X107372500Y-51620000D02*
X108172500Y-51620000D01*
X107372500Y-54740000D02*
X106572500Y-54740000D01*
X107372500Y-54740000D02*
X108172500Y-54740000D01*
X89698300Y-38837324D02*
X89698300Y-38327876D01*
X90743300Y-38837324D02*
X90743300Y-38327876D01*
X88771000Y-33153133D02*
X88771000Y-33445667D01*
X89791000Y-33153133D02*
X89791000Y-33445667D01*
X121390000Y-41591233D02*
X121390000Y-41883767D01*
X122410000Y-41591233D02*
X122410000Y-41883767D01*
X93165200Y-38728867D02*
X93165200Y-38436333D01*
X94185200Y-38728867D02*
X94185200Y-38436333D01*
X91424000Y-50266600D02*
X91424000Y-51406600D01*
X119587500Y-34165000D02*
X116662500Y-34165000D01*
X119587500Y-34165000D02*
X121087500Y-34165000D01*
X119587500Y-37385000D02*
X118087500Y-37385000D01*
X119587500Y-37385000D02*
X121087500Y-37385000D01*
X91023767Y-67960000D02*
X90731233Y-67960000D01*
X91023767Y-68980000D02*
X90731233Y-68980000D01*
X118442500Y-40150000D02*
X116642500Y-40150000D01*
X118442500Y-40150000D02*
X119242500Y-40150000D01*
X118442500Y-43270000D02*
X117642500Y-43270000D01*
X118442500Y-43270000D02*
X119242500Y-43270000D01*
X97854000Y-61784000D02*
X105854000Y-61784000D01*
X101854000Y-55564000D02*
X105854000Y-55564000D01*
X97775500Y-34140224D02*
X97775500Y-33630776D01*
X98820500Y-34140224D02*
X98820500Y-33630776D01*
X95988600Y-68310000D02*
X95988600Y-67200000D01*
X96748600Y-68310000D02*
X95988600Y-68310000D01*
X97508600Y-66090000D02*
X103793600Y-66090000D01*
X97508600Y-66636529D02*
X97508600Y-66090000D01*
X97508600Y-68310000D02*
X97508600Y-67763471D01*
X97508600Y-68310000D02*
X103793600Y-68310000D01*
X103793600Y-66892470D02*
X103793600Y-66090000D01*
X103793600Y-68310000D02*
X103793600Y-67507530D01*
X96520000Y-49780000D02*
X96520000Y-49305000D01*
X96995000Y-42560000D02*
X96520000Y-42560000D01*
X96995000Y-49780000D02*
X96520000Y-49780000D01*
X103265000Y-42560000D02*
X103740000Y-42560000D01*
X103265000Y-49780000D02*
X103740000Y-49780000D01*
X103740000Y-42560000D02*
X103740000Y-43035000D01*
X103740000Y-49780000D02*
X103740000Y-49305000D01*
X116861233Y-38180000D02*
X117153767Y-38180000D01*
X116861233Y-39200000D02*
X117153767Y-39200000D01*
X110870000Y-49177800D02*
X114780000Y-49177800D01*
X114780000Y-47307800D02*
X110870000Y-47307800D01*
X114780000Y-49177800D02*
X114780000Y-47307800D01*
X95550000Y-56176267D02*
X95550000Y-55833733D01*
X96570000Y-56176267D02*
X96570000Y-55833733D01*
X108196200Y-48386233D02*
X108196200Y-48678767D01*
X109216200Y-48386233D02*
X109216200Y-48678767D01*
X106301000Y-68310000D02*
X106301000Y-67200000D01*
X107061000Y-68310000D02*
X106301000Y-68310000D01*
X107821000Y-66090000D02*
X111566000Y-66090000D01*
X107821000Y-66636529D02*
X107821000Y-66090000D01*
X107821000Y-68310000D02*
X107821000Y-67763471D01*
X107821000Y-68310000D02*
X111566000Y-68310000D01*
X111566000Y-66892470D02*
X111566000Y-66090000D01*
X111566000Y-68310000D02*
X111566000Y-67507530D01*
X120816233Y-38190000D02*
X121108767Y-38190000D01*
X120816233Y-39210000D02*
X121108767Y-39210000D01*
X88610000Y-63890000D02*
X89110000Y-63890000D01*
X88610000Y-64390000D02*
X88610000Y-63890000D01*
X88610000Y-67090000D02*
X88610000Y-66140000D01*
X93310000Y-63890000D02*
X93810000Y-63890000D01*
X93810000Y-63890000D02*
X93810000Y-64390000D01*
X93810000Y-66690000D02*
X93810000Y-67190000D01*
X93810000Y-67190000D02*
X93310000Y-67190000D01*
X106126000Y-36296800D02*
X106126000Y-40206800D01*
X106126000Y-40206800D02*
X107996000Y-40206800D01*
X107996000Y-40206800D02*
X107996000Y-36296800D01*
X89197863Y-58963153D02*
X92181853Y-55979163D01*
X91474747Y-61240037D02*
X89197863Y-58963153D01*
X92181853Y-55979163D02*
X94458737Y-58256047D01*
X94458737Y-58256047D02*
X91474747Y-61240037D01*
X91438000Y-38728867D02*
X91438000Y-38436333D01*
X92458000Y-38728867D02*
X92458000Y-38436333D01*
X86261233Y-60630000D02*
X86553767Y-60630000D01*
X86261233Y-61650000D02*
X86553767Y-61650000D01*
X88309667Y-49985200D02*
X88017133Y-49985200D01*
X88309667Y-51005200D02*
X88017133Y-51005200D01*
X109480000Y-43528000D02*
X109480000Y-42418000D01*
X110240000Y-43528000D02*
X109480000Y-43528000D01*
X111000000Y-41308000D02*
X114745000Y-41308000D01*
X111000000Y-41854529D02*
X111000000Y-41308000D01*
X111000000Y-43528000D02*
X111000000Y-42981471D01*
X111000000Y-43528000D02*
X114745000Y-43528000D01*
X114745000Y-42110470D02*
X114745000Y-41308000D01*
X114745000Y-43528000D02*
X114745000Y-42725530D01*
X81189300Y-36551324D02*
X81189300Y-36041876D01*
X82234300Y-36551324D02*
X82234300Y-36041876D01*
X108666000Y-36296800D02*
X108666000Y-40206800D01*
X108666000Y-40206800D02*
X110536000Y-40206800D01*
X110536000Y-40206800D02*
X110536000Y-36296800D01*
X116727500Y-57092224D02*
X116727500Y-56582776D01*
X117772500Y-57092224D02*
X117772500Y-56582776D01*
X83438000Y-36134000D02*
X83793000Y-36134000D01*
X83438000Y-38144000D02*
X83438000Y-36134000D01*
X83438000Y-38144000D02*
X83438000Y-40154000D01*
X83438000Y-40154000D02*
X83793000Y-40154000D01*
X87403000Y-36134000D02*
X87403000Y-34669000D01*
X87758000Y-36134000D02*
X87403000Y-36134000D01*
X87758000Y-38144000D02*
X87758000Y-36134000D01*
X87758000Y-38144000D02*
X87758000Y-40154000D01*
X87758000Y-40154000D02*
X87403000Y-40154000D01*
X99772800Y-27665600D02*
X99772800Y-30125600D01*
X101242800Y-27665600D02*
X99772800Y-27665600D01*
X101242800Y-30125600D02*
X101242800Y-27665600D01*
X92770267Y-46683200D02*
X92477733Y-46683200D01*
X92770267Y-47703200D02*
X92477733Y-47703200D01*
X112879200Y-37787948D02*
X112879200Y-38310452D01*
X114349200Y-37787948D02*
X114349200Y-38310452D01*
X100010700Y-34140224D02*
X100010700Y-33630776D01*
X101055700Y-34140224D02*
X101055700Y-33630776D01*
X112412500Y-50230000D02*
X110612500Y-50230000D01*
X112412500Y-50230000D02*
X113212500Y-50230000D01*
X112412500Y-53350000D02*
X111612500Y-53350000D01*
X112412500Y-53350000D02*
X113212500Y-53350000D01*
X112926400Y-29508667D02*
X112926400Y-29216133D01*
X113946400Y-29508667D02*
X113946400Y-29216133D01*
X101086248Y-52850000D02*
X102508752Y-52850000D01*
X101086248Y-54670000D02*
X102508752Y-54670000D01*
X119240000Y-56970000D02*
X119240000Y-58440000D01*
X119240000Y-58440000D02*
X121700000Y-58440000D01*
X121700000Y-56970000D02*
X119240000Y-56970000D01*
X110870000Y-46855000D02*
X114780000Y-46855000D01*
X114780000Y-44985000D02*
X110870000Y-44985000D01*
X114780000Y-46855000D02*
X114780000Y-44985000D01*
X81325000Y-59175000D02*
X81325000Y-58925000D01*
X81325000Y-61725000D02*
X81325000Y-61575000D01*
X81325000Y-61735000D02*
X81475000Y-61735000D01*
X83875000Y-59025000D02*
X84025000Y-59025000D01*
X84025000Y-59025000D02*
X84025000Y-59175000D01*
X84025000Y-61725000D02*
X83875000Y-61725000D01*
X84025000Y-61725000D02*
X84025000Y-61575000D01*
X109246124Y-63942700D02*
X108736676Y-63942700D01*
X109246124Y-64987700D02*
X108736676Y-64987700D01*
X81189300Y-40386724D02*
X81189300Y-39877276D01*
X82234300Y-40386724D02*
X82234300Y-39877276D01*
X97537600Y-27665600D02*
X97537600Y-30125600D01*
X99007600Y-27665600D02*
X97537600Y-27665600D01*
X99007600Y-30125600D02*
X99007600Y-27665600D01*
X81189300Y-53823324D02*
X81189300Y-53313876D01*
X82234300Y-53823324D02*
X82234300Y-53313876D01*
X109697400Y-57076400D02*
X109997400Y-57076400D01*
X109697400Y-60276400D02*
X109697400Y-59976400D01*
X109697400Y-60276400D02*
X109997400Y-60276400D01*
X112897400Y-57076400D02*
X112597400Y-57076400D01*
X112897400Y-57076400D02*
X112897400Y-57376400D01*
X112897400Y-60276400D02*
X112597400Y-60276400D01*
X112897400Y-60276400D02*
X112897400Y-59976400D01*
X109933033Y-61618400D02*
X110225567Y-61618400D01*
X109933033Y-62638400D02*
X110225567Y-62638400D01*
X106860000Y-42501233D02*
X106860000Y-42793767D01*
X107880000Y-42501233D02*
X107880000Y-42793767D01*
X110430732Y-30676507D02*
X110431291Y-30725713D01*
X110478134Y-30935591D01*
X110591042Y-31168817D01*
X110600067Y-31182734D01*
X110715956Y-31413142D01*
X110768565Y-31627077D01*
X110768842Y-31638407D01*
X110729684Y-31823524D01*
X110632419Y-32048085D01*
X110508576Y-32255443D01*
X110389684Y-32388951D01*
X110339161Y-32410400D01*
X110267787Y-32364158D01*
X110324011Y-32221022D01*
X110430734Y-32071734D01*
X110577696Y-31763946D01*
X110564578Y-31443689D01*
X110463936Y-31237725D01*
X110327806Y-31043371D01*
X110130047Y-31229156D01*
X109999998Y-31367795D01*
X109986640Y-31478015D01*
X110075678Y-31637504D01*
X110219067Y-31860067D01*
X109986234Y-31709948D01*
X109814581Y-31613641D01*
X109688032Y-31615167D01*
X109520567Y-31709948D01*
X109287734Y-31860067D01*
X109431123Y-31637504D01*
X109520018Y-31477672D01*
X109506301Y-31368298D01*
X109377984Y-31230325D01*
X109367956Y-31220892D01*
X109216048Y-31089371D01*
X109126531Y-31084067D01*
X109038261Y-31215383D01*
X109002869Y-31283001D01*
X108911933Y-31614011D01*
X108988857Y-31926959D01*
X109118400Y-32106066D01*
X109256759Y-32264651D01*
X109327631Y-32364056D01*
X109330067Y-32372429D01*
X109270448Y-32407806D01*
X109140937Y-32363113D01*
X109113493Y-32345604D01*
X108933699Y-32153141D01*
X108792472Y-31889421D01*
X108737958Y-31650728D01*
X108785109Y-31432424D01*
X108898652Y-31195181D01*
X108906734Y-31182734D01*
X109022662Y-30951849D01*
X109075238Y-30736967D01*
X109075509Y-30725713D01*
X109083126Y-30607493D01*
X109122492Y-30606825D01*
X109219812Y-30734229D01*
X109266567Y-30802435D01*
X109494189Y-31084228D01*
X109692775Y-31210309D01*
X109876161Y-31188785D01*
X109901567Y-31174356D01*
X110045554Y-31045088D01*
X110210646Y-30844525D01*
X110240234Y-30802435D01*
X110361191Y-30632585D01*
X110415956Y-30594116D01*
X110430732Y-30676507D01*
G36*
X110430732Y-30676507D02*
G01*
X110431291Y-30725713D01*
X110478134Y-30935591D01*
X110591042Y-31168817D01*
X110600067Y-31182734D01*
X110715956Y-31413142D01*
X110768565Y-31627077D01*
X110768842Y-31638407D01*
X110729684Y-31823524D01*
X110632419Y-32048085D01*
X110508576Y-32255443D01*
X110389684Y-32388951D01*
X110339161Y-32410400D01*
X110267787Y-32364158D01*
X110324011Y-32221022D01*
X110430734Y-32071734D01*
X110577696Y-31763946D01*
X110564578Y-31443689D01*
X110463936Y-31237725D01*
X110327806Y-31043371D01*
X110130047Y-31229156D01*
X109999998Y-31367795D01*
X109986640Y-31478015D01*
X110075678Y-31637504D01*
X110219067Y-31860067D01*
X109986234Y-31709948D01*
X109814581Y-31613641D01*
X109688032Y-31615167D01*
X109520567Y-31709948D01*
X109287734Y-31860067D01*
X109431123Y-31637504D01*
X109520018Y-31477672D01*
X109506301Y-31368298D01*
X109377984Y-31230325D01*
X109367956Y-31220892D01*
X109216048Y-31089371D01*
X109126531Y-31084067D01*
X109038261Y-31215383D01*
X109002869Y-31283001D01*
X108911933Y-31614011D01*
X108988857Y-31926959D01*
X109118400Y-32106066D01*
X109256759Y-32264651D01*
X109327631Y-32364056D01*
X109330067Y-32372429D01*
X109270448Y-32407806D01*
X109140937Y-32363113D01*
X109113493Y-32345604D01*
X108933699Y-32153141D01*
X108792472Y-31889421D01*
X108737958Y-31650728D01*
X108785109Y-31432424D01*
X108898652Y-31195181D01*
X108906734Y-31182734D01*
X109022662Y-30951849D01*
X109075238Y-30736967D01*
X109075509Y-30725713D01*
X109083126Y-30607493D01*
X109122492Y-30606825D01*
X109219812Y-30734229D01*
X109266567Y-30802435D01*
X109494189Y-31084228D01*
X109692775Y-31210309D01*
X109876161Y-31188785D01*
X109901567Y-31174356D01*
X110045554Y-31045088D01*
X110210646Y-30844525D01*
X110240234Y-30802435D01*
X110361191Y-30632585D01*
X110415956Y-30594116D01*
X110430732Y-30676507D01*
G37*
X110265259Y-30126044D02*
X110656669Y-30146368D01*
X110925526Y-30208460D01*
X111094815Y-30335407D01*
X111187520Y-30550296D01*
X111226626Y-30876216D01*
X111235119Y-31336254D01*
X111235067Y-31637896D01*
X111234434Y-32171841D01*
X111218173Y-32560176D01*
X111164738Y-32826519D01*
X111052585Y-32994488D01*
X110860168Y-33087704D01*
X110565943Y-33129784D01*
X110148365Y-33144349D01*
X109856451Y-33149221D01*
X109430403Y-33150591D01*
X109052677Y-33140376D01*
X108762723Y-33120412D01*
X108599991Y-33092534D01*
X108594768Y-33090497D01*
X108454095Y-33007742D01*
X108353886Y-32879204D01*
X108287754Y-32678539D01*
X108249307Y-32379403D01*
X108232158Y-31955451D01*
X108229973Y-31661126D01*
X108483400Y-31661126D01*
X108486091Y-32114623D01*
X108496612Y-32427759D01*
X108518641Y-32629455D01*
X108555852Y-32748633D01*
X108611921Y-32814216D01*
X108631567Y-32826952D01*
X108772152Y-32861430D01*
X109041926Y-32889831D01*
X109400772Y-32909020D01*
X109768519Y-32915826D01*
X110219018Y-32912338D01*
X110530119Y-32896811D01*
X110731539Y-32865789D01*
X110852994Y-32815814D01*
X110890353Y-32785353D01*
X110955671Y-32633487D01*
X111001685Y-32356709D01*
X111028396Y-31998336D01*
X111035802Y-31601686D01*
X111023904Y-31210074D01*
X110992702Y-30866820D01*
X110942196Y-30615239D01*
X110890353Y-30511448D01*
X110797911Y-30452724D01*
X110640341Y-30413414D01*
X110388687Y-30390220D01*
X110013991Y-30379844D01*
X109721953Y-30378400D01*
X109186716Y-30387390D01*
X108818733Y-30414428D01*
X108616878Y-30459614D01*
X108585000Y-30480000D01*
X108534744Y-30617999D01*
X108501612Y-30916365D01*
X108485321Y-31378387D01*
X108483400Y-31661126D01*
X108229973Y-31661126D01*
X108229400Y-31584058D01*
X108232290Y-31061841D01*
X108256444Y-30681892D01*
X108325092Y-30421590D01*
X108461462Y-30258317D01*
X108688782Y-30169452D01*
X109030280Y-30132374D01*
X109509186Y-30124464D01*
X109728311Y-30124400D01*
X110265259Y-30126044D01*
G36*
X110265259Y-30126044D02*
G01*
X110656669Y-30146368D01*
X110925526Y-30208460D01*
X111094815Y-30335407D01*
X111187520Y-30550296D01*
X111226626Y-30876216D01*
X111235119Y-31336254D01*
X111235067Y-31637896D01*
X111234434Y-32171841D01*
X111218173Y-32560176D01*
X111164738Y-32826519D01*
X111052585Y-32994488D01*
X110860168Y-33087704D01*
X110565943Y-33129784D01*
X110148365Y-33144349D01*
X109856451Y-33149221D01*
X109430403Y-33150591D01*
X109052677Y-33140376D01*
X108762723Y-33120412D01*
X108599991Y-33092534D01*
X108594768Y-33090497D01*
X108454095Y-33007742D01*
X108353886Y-32879204D01*
X108287754Y-32678539D01*
X108249307Y-32379403D01*
X108232158Y-31955451D01*
X108229973Y-31661126D01*
X108483400Y-31661126D01*
X108486091Y-32114623D01*
X108496612Y-32427759D01*
X108518641Y-32629455D01*
X108555852Y-32748633D01*
X108611921Y-32814216D01*
X108631567Y-32826952D01*
X108772152Y-32861430D01*
X109041926Y-32889831D01*
X109400772Y-32909020D01*
X109768519Y-32915826D01*
X110219018Y-32912338D01*
X110530119Y-32896811D01*
X110731539Y-32865789D01*
X110852994Y-32815814D01*
X110890353Y-32785353D01*
X110955671Y-32633487D01*
X111001685Y-32356709D01*
X111028396Y-31998336D01*
X111035802Y-31601686D01*
X111023904Y-31210074D01*
X110992702Y-30866820D01*
X110942196Y-30615239D01*
X110890353Y-30511448D01*
X110797911Y-30452724D01*
X110640341Y-30413414D01*
X110388687Y-30390220D01*
X110013991Y-30379844D01*
X109721953Y-30378400D01*
X109186716Y-30387390D01*
X108818733Y-30414428D01*
X108616878Y-30459614D01*
X108585000Y-30480000D01*
X108534744Y-30617999D01*
X108501612Y-30916365D01*
X108485321Y-31378387D01*
X108483400Y-31661126D01*
X108229973Y-31661126D01*
X108229400Y-31584058D01*
X108232290Y-31061841D01*
X108256444Y-30681892D01*
X108325092Y-30421590D01*
X108461462Y-30258317D01*
X108688782Y-30169452D01*
X109030280Y-30132374D01*
X109509186Y-30124464D01*
X109728311Y-30124400D01*
X110265259Y-30126044D01*
G37*
X82811233Y-56767000D02*
X83103767Y-56767000D01*
X82811233Y-57787000D02*
X83103767Y-57787000D01*
X104289776Y-63002900D02*
X104799224Y-63002900D01*
X104289776Y-64047900D02*
X104799224Y-64047900D01*
X102603600Y-29150000D02*
X107603600Y-29150000D01*
X102603600Y-34150000D02*
X102603600Y-29150000D01*
X102853600Y-30150000D02*
X103353600Y-29400000D01*
X103353600Y-29400000D02*
X103853600Y-30150000D01*
X103353600Y-33400000D02*
X103353600Y-29400000D01*
X106603600Y-32900000D02*
X107353600Y-33400000D01*
X107353600Y-33400000D02*
X103353600Y-33400000D01*
X107353600Y-33400000D02*
X106603600Y-33900000D01*
X107603600Y-29150000D02*
X107603600Y-34150000D01*
X107603600Y-34150000D02*
X102603600Y-34150000D01*
X103424311Y-33400000D02*
G75*
G02*
X103282889Y-33400000I-70711J0D01*
G01*
X103282889Y-33400000D02*
G75*
G02*
X103424311Y-33400000I70711J0D01*
G01*
X88771000Y-29867467D02*
X88771000Y-29574933D01*
X89791000Y-29867467D02*
X89791000Y-29574933D01*
D13*
X121125000Y-44650000D02*
X119425000Y-44650000D01*
X121125000Y-53990000D02*
X119425000Y-53990000D01*
D10*
X95550000Y-60318867D02*
X95550000Y-60026333D01*
X96570000Y-60318867D02*
X96570000Y-60026333D01*
D13*
X118696200Y-61660000D02*
X118696200Y-60550000D01*
X119456200Y-61660000D02*
X118696200Y-61660000D01*
X120216200Y-59440000D02*
X121421200Y-59440000D01*
X120216200Y-59986529D02*
X120216200Y-59440000D01*
X120216200Y-61660000D02*
X120216200Y-61113471D01*
X120216200Y-61660000D02*
X121421200Y-61660000D01*
X121421200Y-60242470D02*
X121421200Y-59440000D01*
X121421200Y-61660000D02*
X121421200Y-60857530D01*
D10*
X112879200Y-33139748D02*
X112879200Y-33662252D01*
X114349200Y-33139748D02*
X114349200Y-33662252D01*
X81152000Y-44853000D02*
X81507000Y-44853000D01*
X81152000Y-46863000D02*
X81152000Y-44853000D01*
X81152000Y-46863000D02*
X81152000Y-48873000D01*
X81152000Y-48873000D02*
X81507000Y-48873000D01*
X85117000Y-44853000D02*
X85117000Y-43388000D01*
X85472000Y-44853000D02*
X85117000Y-44853000D01*
X85472000Y-46863000D02*
X85472000Y-44853000D01*
X85472000Y-46863000D02*
X85472000Y-48873000D01*
X85472000Y-48873000D02*
X85117000Y-48873000D01*
X92203767Y-61960000D02*
X91911233Y-61960000D01*
X92203767Y-62980000D02*
X91911233Y-62980000D01*
X114241800Y-58528833D02*
X114241800Y-58821367D01*
X115261800Y-58528833D02*
X115261800Y-58821367D01*
%LPC*%
D14*
X113259700Y-54740000D03*
X111434700Y-54740000D03*
X88138000Y-57277000D03*
X86313000Y-57277000D03*
D15*
X114650000Y-67960000D03*
D16*
X114650000Y-66960000D03*
X114650000Y-65960000D03*
X114650000Y-64960000D03*
D17*
X83500000Y-66500000D03*
D18*
X93562500Y-53380000D03*
X91837500Y-53380000D03*
D19*
X100965000Y-39370000D03*
X100965000Y-37645000D03*
D17*
X120500000Y-29500000D03*
D20*
X97536000Y-39420800D03*
X97536000Y-37595800D03*
D21*
X120025000Y-55850000D03*
X121775000Y-55850000D03*
D19*
X107893800Y-59894500D03*
X107893800Y-58169500D03*
D22*
X99269900Y-37595800D03*
X99269900Y-39420800D03*
D23*
X88620600Y-53721000D03*
D24*
X87350600Y-53721000D03*
X86080600Y-53721000D03*
X84810600Y-53721000D03*
D25*
X92042000Y-34569400D03*
X94742000Y-34569400D03*
D20*
X106950000Y-49445000D03*
X106950000Y-47620000D03*
D15*
X96102800Y-63779400D03*
D16*
X97102800Y-63779400D03*
X98102800Y-63779400D03*
X99102800Y-63779400D03*
X100102800Y-63779400D03*
X101102800Y-63779400D03*
D26*
X112969300Y-62128400D03*
X114694300Y-62128400D03*
D23*
X88392000Y-44069000D03*
D24*
X88392000Y-45339000D03*
X88392000Y-46609000D03*
X88392000Y-47879000D03*
D26*
X91761500Y-41706800D03*
X93486500Y-41706800D03*
D27*
X104521000Y-39246800D03*
X104521000Y-36546800D03*
D28*
X91949000Y-45072600D03*
X93599000Y-45072600D03*
X93599000Y-43522600D03*
X91949000Y-43522600D03*
D29*
X91634000Y-28118000D03*
X91634000Y-28918000D03*
X91634000Y-29718000D03*
X91634000Y-30518000D03*
X91634000Y-31318000D03*
X91634000Y-32118000D03*
D30*
X92934000Y-32418000D03*
D29*
X94234000Y-32118000D03*
X94234000Y-31318000D03*
X94234000Y-30518000D03*
X94234000Y-29718000D03*
X94234000Y-28918000D03*
X94234000Y-28118000D03*
D30*
X92934000Y-27818000D03*
D31*
X106235000Y-52230000D03*
X106235000Y-53180000D03*
X106235000Y-54130000D03*
X108510000Y-54130000D03*
X108510000Y-53180000D03*
X108510000Y-52230000D03*
D20*
X90220800Y-39495100D03*
X90220800Y-37670100D03*
D32*
X89281000Y-32436900D03*
X89281000Y-34161900D03*
X121900000Y-40875000D03*
X121900000Y-42600000D03*
D19*
X93675200Y-39445100D03*
X93675200Y-37720100D03*
D28*
X91949000Y-51041600D03*
X93599000Y-51041600D03*
X93599000Y-49491600D03*
X91949000Y-49491600D03*
D33*
X117475000Y-34800000D03*
X117475000Y-35450000D03*
X117475000Y-36100000D03*
X117475000Y-36750000D03*
X121700000Y-36750000D03*
X121700000Y-36100000D03*
X121700000Y-35450000D03*
X121700000Y-34800000D03*
D18*
X91740000Y-68470000D03*
X90015000Y-68470000D03*
D31*
X117305000Y-40760000D03*
X117305000Y-41710000D03*
X117305000Y-42660000D03*
X119580000Y-42660000D03*
X119580000Y-40760000D03*
D34*
X98104000Y-56769000D03*
X98104000Y-58039000D03*
X98104000Y-59309000D03*
X98104000Y-60579000D03*
X105604000Y-60579000D03*
X105604000Y-59309000D03*
X105604000Y-58039000D03*
X105604000Y-56769000D03*
D35*
X101854000Y-58674000D03*
D20*
X98298000Y-34798000D03*
X98298000Y-32973000D03*
D23*
X96748600Y-67200000D03*
D24*
X98018600Y-67200000D03*
X99288600Y-67200000D03*
X100558600Y-67200000D03*
X101828600Y-67200000D03*
X103098600Y-67200000D03*
D36*
X96692500Y-43420000D03*
X96692500Y-43920000D03*
X96692500Y-44420000D03*
X96692500Y-44920000D03*
X96692500Y-45420000D03*
X96692500Y-45920000D03*
X96692500Y-46420000D03*
X96692500Y-46920000D03*
X96692500Y-47420000D03*
X96692500Y-47920000D03*
X96692500Y-48420000D03*
X96692500Y-48920000D03*
D37*
X97380000Y-49607500D03*
X97880000Y-49607500D03*
X98380000Y-49607500D03*
X98880000Y-49607500D03*
X99380000Y-49607500D03*
X99880000Y-49607500D03*
X100380000Y-49607500D03*
X100880000Y-49607500D03*
X101380000Y-49607500D03*
X101880000Y-49607500D03*
X102380000Y-49607500D03*
X102880000Y-49607500D03*
D36*
X103567500Y-48920000D03*
X103567500Y-48420000D03*
X103567500Y-47920000D03*
X103567500Y-47420000D03*
X103567500Y-46920000D03*
X103567500Y-46420000D03*
X103567500Y-45920000D03*
X103567500Y-45420000D03*
X103567500Y-44920000D03*
X103567500Y-44420000D03*
X103567500Y-43920000D03*
X103567500Y-43420000D03*
D37*
X102880000Y-42732500D03*
X102380000Y-42732500D03*
X101880000Y-42732500D03*
X101380000Y-42732500D03*
X100880000Y-42732500D03*
X100380000Y-42732500D03*
X99880000Y-42732500D03*
X99380000Y-42732500D03*
X98880000Y-42732500D03*
X98380000Y-42732500D03*
X97880000Y-42732500D03*
X97380000Y-42732500D03*
D38*
X100130000Y-46170000D03*
D26*
X116145000Y-38690000D03*
X117870000Y-38690000D03*
D39*
X113820000Y-48242800D03*
X111120000Y-48242800D03*
D40*
X96060000Y-56880000D03*
X96060000Y-55130000D03*
D32*
X108706200Y-47670000D03*
X108706200Y-49395000D03*
D23*
X107061000Y-67200000D03*
D24*
X108331000Y-67200000D03*
X109601000Y-67200000D03*
X110871000Y-67200000D03*
D26*
X120100000Y-38700000D03*
X121825000Y-38700000D03*
D41*
X89335000Y-66615000D03*
X90585000Y-66615000D03*
X91835000Y-66615000D03*
X93085000Y-66615000D03*
X93085000Y-64465000D03*
X91835000Y-64465000D03*
X90585000Y-64465000D03*
X89335000Y-64465000D03*
D27*
X107061000Y-39246800D03*
X107061000Y-36546800D03*
D17*
X120500000Y-66500000D03*
D42*
X91347467Y-59090433D03*
D43*
X93490001Y-58149981D03*
X92995026Y-58644955D03*
X92287919Y-56947899D03*
X91792945Y-57442874D03*
D44*
X91920224Y-59663189D03*
D19*
X91948000Y-39445100D03*
X91948000Y-37720100D03*
D26*
X85545000Y-61140000D03*
X87270000Y-61140000D03*
D18*
X89025900Y-50495200D03*
X87300900Y-50495200D03*
D23*
X110240000Y-42418000D03*
D24*
X111510000Y-42418000D03*
X112780000Y-42418000D03*
X114050000Y-42418000D03*
D20*
X81711800Y-37209100D03*
X81711800Y-35384100D03*
D27*
X109601000Y-39246800D03*
X109601000Y-36546800D03*
D20*
X117250000Y-57750000D03*
X117250000Y-55925000D03*
D45*
X86868000Y-35394000D03*
X84328000Y-35394000D03*
X84328000Y-40894000D03*
X86868000Y-40894000D03*
D46*
X100507800Y-28450600D03*
X100507800Y-30200600D03*
D18*
X93486500Y-47193200D03*
X91761500Y-47193200D03*
D47*
X113614200Y-37011700D03*
X113614200Y-39086700D03*
D20*
X100533200Y-34798000D03*
X100533200Y-32973000D03*
D31*
X111275000Y-50840000D03*
X111275000Y-51790000D03*
X111275000Y-52740000D03*
X113550000Y-52740000D03*
X113550000Y-50840000D03*
D19*
X113436400Y-30224900D03*
X113436400Y-28499900D03*
D48*
X100235000Y-53760000D03*
X103360000Y-53760000D03*
D21*
X120025000Y-57705000D03*
X121775000Y-57705000D03*
D39*
X113820000Y-45920000D03*
X111120000Y-45920000D03*
D49*
X81700000Y-59350000D03*
X82350000Y-59350000D03*
X83000000Y-59350000D03*
X83650000Y-59350000D03*
X83650000Y-61400000D03*
X83000000Y-61400000D03*
X82350000Y-61400000D03*
X81700000Y-61400000D03*
D14*
X109903900Y-64465200D03*
X108078900Y-64465200D03*
D17*
X83500000Y-29500000D03*
D20*
X81711800Y-41044500D03*
X81711800Y-39219500D03*
D46*
X98272600Y-28450600D03*
X98272600Y-30200600D03*
D20*
X81711800Y-54481100D03*
X81711800Y-52656100D03*
D50*
X109797400Y-57676400D03*
X109797400Y-58076400D03*
X109797400Y-58476400D03*
X109797400Y-58876400D03*
X109797400Y-59276400D03*
X109797400Y-59676400D03*
D51*
X110297400Y-60176400D03*
X110697400Y-60176400D03*
X111097400Y-60176400D03*
X111497400Y-60176400D03*
X111897400Y-60176400D03*
X112297400Y-60176400D03*
D50*
X112797400Y-59676400D03*
X112797400Y-59276400D03*
X112797400Y-58876400D03*
X112797400Y-58476400D03*
X112797400Y-58076400D03*
X112797400Y-57676400D03*
D51*
X112297400Y-57176400D03*
X111897400Y-57176400D03*
X111497400Y-57176400D03*
X111097400Y-57176400D03*
X110697400Y-57176400D03*
X110297400Y-57176400D03*
D52*
X111297400Y-58676400D03*
D26*
X109216800Y-62128400D03*
X110941800Y-62128400D03*
D32*
X107370000Y-41785000D03*
X107370000Y-43510000D03*
D26*
X82095000Y-57277000D03*
X83820000Y-57277000D03*
D53*
X103632000Y-63525400D03*
X105457000Y-63525400D03*
D19*
X89281000Y-30583700D03*
X89281000Y-28858700D03*
D54*
X118620000Y-52210000D03*
X118620000Y-46430000D03*
D55*
X117545000Y-52520000D03*
X117545000Y-51720000D03*
D56*
X117545000Y-50570000D03*
X117545000Y-49570000D03*
X117545000Y-49070000D03*
X117545000Y-48070000D03*
D55*
X117545000Y-46920000D03*
X117545000Y-46120000D03*
X117545000Y-46120000D03*
X117545000Y-46920000D03*
D56*
X117545000Y-47570000D03*
X117545000Y-48570000D03*
X117545000Y-50070000D03*
X117545000Y-51070000D03*
D55*
X117545000Y-51720000D03*
X117545000Y-52520000D03*
D57*
X118120000Y-53640000D03*
D58*
X122300000Y-53640000D03*
D57*
X118120000Y-45000000D03*
D58*
X122300000Y-45000000D03*
D19*
X96060000Y-61035100D03*
X96060000Y-59310100D03*
D23*
X119456200Y-60550000D03*
D24*
X120726200Y-60550000D03*
D47*
X113614200Y-32363500D03*
X113614200Y-34438500D03*
D45*
X84582000Y-44113000D03*
X82042000Y-44113000D03*
X82042000Y-49613000D03*
X84582000Y-49613000D03*
D18*
X92920001Y-62470000D03*
X91194999Y-62470000D03*
D32*
X114751800Y-57812600D03*
X114751800Y-59537600D03*
D59*
X95894700Y-46308500D03*
X115761300Y-50570000D03*
X101610000Y-28260000D03*
X115899600Y-49976800D03*
X115846900Y-48070500D03*
X109598100Y-49615400D03*
X109867500Y-52241000D03*
X106636000Y-42631600D03*
X90149600Y-49451200D03*
X116559600Y-48173500D03*
X109016300Y-55121100D03*
X99497500Y-51500900D03*
X90670300Y-45273100D03*
X115173300Y-50648900D03*
X110242500Y-50496700D03*
X100477900Y-50444100D03*
X103636600Y-50396600D03*
X85239500Y-59350000D03*
X89178800Y-63601700D03*
X103900200Y-42179200D03*
X107283200Y-54321600D03*
X109615700Y-57220000D03*
X107464300Y-52171000D03*
X104457700Y-42031600D03*
X95327300Y-49345200D03*
X94919800Y-50172500D03*
X102563600Y-41941000D03*
X97481400Y-41618900D03*
X98267400Y-50407900D03*
X96922600Y-36763900D03*
X98854200Y-55372600D03*
X96500500Y-37174600D03*
X96631000Y-50154600D03*
X92936600Y-29047200D03*
X106431000Y-48506600D03*
X112970400Y-60133800D03*
X104373100Y-46920000D03*
X99714500Y-56297800D03*
X104376600Y-45609500D03*
X102233200Y-55871100D03*
X104624500Y-47768000D03*
X101422400Y-50421200D03*
X93383200Y-57376500D03*
X103373500Y-49469500D03*
X94848500Y-56949800D03*
X109596800Y-44420000D03*
X114973500Y-49508600D03*
X116269000Y-49070000D03*
X104909700Y-42971200D03*
X95898600Y-48221500D03*
X97988600Y-36205900D03*
X101390000Y-41600000D03*
X95864800Y-47669700D03*
X97352100Y-36317100D03*
X98398500Y-41928300D03*
X105636400Y-34546700D03*
X82373700Y-41906000D03*
X114877300Y-45920000D03*
X112066800Y-53635900D03*
X106915800Y-40699800D03*
%LPD*%
M02*
