M48
; DRILL file {KiCad 8.0.7} date 2024-12-05T22:51:16+0530
; FORMAT={-:-/ absolute / metric / decimal}
; #@! TF.CreationDate,2024-12-05T22:51:16+05:30
; #@! TF.GenerationSoftware,Kicad,Pcbnew,8.0.7
; #@! TF.FileFunction,Plated,1,2,PTH
FMAT,2
METRIC
; #@! TA.AperFunction,Plated,PTH,ViaDrill
T1C0.300
; #@! TA.AperFunction,Plated,PTH,ComponentDrill
T2C0.500
; #@! TA.AperFunction,Plated,PTH,ComponentDrill
T3C0.600
; #@! TA.AperFunction,Plated,PTH,ComponentDrill
T4C0.650
%
G90
G05
T1
X84.055Y-52.93
X84.325Y-42.073
X89.096Y-57.3
X89.242Y-59.336
X90.064Y-62.909
X90.592Y-28.918
X92.448Y-55.951
X93.154Y-28.861
X93.16Y-31.392
X94.994Y-50.817
X95.107Y-48.863
X95.221Y-55.794
X95.537Y-49.991
X95.718Y-30.062
X95.774Y-46.439
X95.785Y-48.465
X95.802Y-45.047
X96.377Y-37.833
X96.626Y-36.785
X96.949Y-35.92
X97.501Y-27.679
X97.521Y-41.512
X97.523Y-50.643
X98.348Y-53.299
X98.351Y-40.219
X98.841Y-51.353
X100.577Y-41.842
X100.996Y-50.68
X101.03Y-55.77
X101.9Y-40.776
X102.807Y-61.709
X102.809Y-40.177
X103.253Y-41.378
X103.531Y-49.497
X104.519Y-45.335
X104.523Y-48.279
X105.025Y-42.732
X105.411Y-47.586
X105.478Y-54.94
X105.487Y-46.389
X106.146Y-40.223
X107.393Y-51.968
X108.331Y-56.631
X109.444Y-56.85
X109.48Y-44.42
X109.632Y-48.807
X110.491Y-47.064
X110.84Y-40.486
X112.003Y-53.496
X113.263Y-60.205
X114.617Y-28.5
X115.036Y-49.921
X115.111Y-51.07
X115.254Y-46.355
X115.356Y-48.684
X115.98Y-49.862
X116.506Y-48.871
X118.584Y-48.658
X118.615Y-47.813
X119.667Y-36.235
X119.933Y-39.948
X120.342Y-45.801
T2
X96.103Y-63.779
X97.103Y-63.779
X98.103Y-63.779
X99.103Y-63.779
X100.103Y-63.779
X101.103Y-63.779
X114.65Y-64.96
X114.65Y-65.96
X114.65Y-66.96
X114.65Y-67.96
T4
X84.811Y-53.721
X86.081Y-53.721
X87.351Y-53.721
X88.392Y-44.069
X88.392Y-45.339
X88.392Y-46.609
X88.392Y-47.879
X88.621Y-53.721
X96.749Y-67.2
X98.019Y-67.2
X99.289Y-67.2
X100.559Y-67.2
X101.829Y-67.2
X103.099Y-67.2
X107.061Y-67.2
X108.331Y-67.2
X109.601Y-67.2
X110.24Y-42.418
X110.871Y-67.2
X111.51Y-42.418
X112.78Y-42.418
X114.05Y-42.418
X119.456Y-60.55
X120.726Y-60.55
T3
X117.57Y-45.0G85X118.67Y-45.0
G05
X117.57Y-53.64G85X118.67Y-53.64
G05
X121.9Y-45.0G85X122.7Y-45.0
G05
X121.9Y-53.64G85X122.7Y-53.64
G05
M30
