%TF.GenerationSoftware,KiCad,Pcbnew,8.0.7*%
%TF.CreationDate,2024-12-05T22:51:19+05:30*%
%TF.ProjectId,SNSRTG401V30,534e5352-5447-4343-9031-5633302e6b69,3.0*%
%TF.SameCoordinates,Original*%
%TF.FileFunction,Drillmap*%
%TF.FilePolarity,Positive*%
%FSLAX45Y45*%
G04 Gerber Fmt 4.5, Leading zero omitted, Abs format (unit mm)*
G04 Created by KiCad (PCBNEW 8.0.7) date 2024-12-05 22:51:19*
%MOMM*%
%LPD*%
G01*
G04 APERTURE LIST*
%ADD10C,0.050000*%
%ADD11C,0.200000*%
%ADD12C,0.100000*%
G04 APERTURE END LIST*
D10*
X8000000Y-2600000D02*
X12400000Y-2600000D01*
X12400000Y-7000000D01*
X8000000Y-7000000D01*
X8000000Y-2600000D01*
D11*
D12*
X8390530Y-5278020D02*
X8420530Y-5308020D01*
X8420530Y-5278020D02*
X8390530Y-5308020D01*
X8417540Y-4192340D02*
X8447540Y-4222340D01*
X8447540Y-4192340D02*
X8417540Y-4222340D01*
X8894580Y-5714980D02*
X8924580Y-5744980D01*
X8924580Y-5714980D02*
X8894580Y-5744980D01*
X8909220Y-5918590D02*
X8939220Y-5948590D01*
X8939220Y-5918590D02*
X8909220Y-5948590D01*
X8991400Y-6275910D02*
X9021400Y-6305910D01*
X9021400Y-6275910D02*
X8991400Y-6305910D01*
X9044190Y-2876800D02*
X9074190Y-2906800D01*
X9074190Y-2876800D02*
X9044190Y-2906800D01*
X9229850Y-5580150D02*
X9259850Y-5610150D01*
X9259850Y-5580150D02*
X9229850Y-5610150D01*
X9300380Y-2871090D02*
X9330380Y-2901090D01*
X9330380Y-2871090D02*
X9300380Y-2901090D01*
X9301040Y-3124240D02*
X9331040Y-3154240D01*
X9331040Y-3124240D02*
X9301040Y-3154240D01*
X9484400Y-5066690D02*
X9514400Y-5096690D01*
X9514400Y-5066690D02*
X9484400Y-5096690D01*
X9495730Y-4871290D02*
X9525730Y-4901290D01*
X9525730Y-4871290D02*
X9495730Y-4901290D01*
X9507110Y-5564380D02*
X9537110Y-5594380D01*
X9537110Y-5564380D02*
X9507110Y-5594380D01*
X9538720Y-4984070D02*
X9568720Y-5014070D01*
X9568720Y-4984070D02*
X9538720Y-5014070D01*
X9556780Y-2991250D02*
X9586780Y-3021250D01*
X9586780Y-2991250D02*
X9556780Y-3021250D01*
X9562380Y-4628860D02*
X9592380Y-4658860D01*
X9592380Y-4628860D02*
X9562380Y-4658860D01*
X9563520Y-4831480D02*
X9593520Y-4861480D01*
X9593520Y-4831480D02*
X9563520Y-4861480D01*
X9565240Y-4489740D02*
X9595240Y-4519740D01*
X9595240Y-4489740D02*
X9565240Y-4519740D01*
X9622690Y-3768320D02*
X9652690Y-3798320D01*
X9652690Y-3768320D02*
X9622690Y-3798320D01*
X9647600Y-3663450D02*
X9677600Y-3693450D01*
X9677600Y-3663450D02*
X9647600Y-3693450D01*
X9679930Y-3576990D02*
X9709930Y-3606990D01*
X9709930Y-3576990D02*
X9679930Y-3606990D01*
X9735070Y-2752870D02*
X9765070Y-2782870D01*
X9765070Y-2752870D02*
X9735070Y-2782870D01*
X9737130Y-4136240D02*
X9767130Y-4166240D01*
X9767130Y-4136240D02*
X9737130Y-4166240D01*
X9737310Y-5049350D02*
X9767310Y-5079350D01*
X9767310Y-5049350D02*
X9737310Y-5079350D01*
X9819760Y-5314870D02*
X9849760Y-5344870D01*
X9849760Y-5314870D02*
X9819760Y-5344870D01*
X9820060Y-4006870D02*
X9850060Y-4036870D01*
X9850060Y-4006870D02*
X9820060Y-4036870D01*
X9869070Y-5120260D02*
X9899070Y-5150260D01*
X9899070Y-5120260D02*
X9869070Y-5150260D01*
X10042700Y-4169180D02*
X10072700Y-4199180D01*
X10072700Y-4169180D02*
X10042700Y-4199180D01*
X10084590Y-5052970D02*
X10114590Y-5082970D01*
X10114590Y-5052970D02*
X10084590Y-5082970D01*
X10088000Y-5562000D02*
X10118000Y-5592000D01*
X10118000Y-5562000D02*
X10088000Y-5592000D01*
X10175000Y-4062580D02*
X10205000Y-4092580D01*
X10205000Y-4062580D02*
X10175000Y-4092580D01*
X10265660Y-6155910D02*
X10295660Y-6185910D01*
X10295660Y-6155910D02*
X10265660Y-6185910D01*
X10265880Y-4002710D02*
X10295880Y-4032710D01*
X10295880Y-4002710D02*
X10265880Y-4032710D01*
X10310290Y-4122850D02*
X10340290Y-4152850D01*
X10340290Y-4122850D02*
X10310290Y-4152850D01*
X10338120Y-4934690D02*
X10368120Y-4964690D01*
X10368120Y-4934690D02*
X10338120Y-4964690D01*
X10436870Y-4518490D02*
X10466870Y-4548490D01*
X10466870Y-4518490D02*
X10436870Y-4548490D01*
X10437300Y-4812890D02*
X10467300Y-4842890D01*
X10467300Y-4812890D02*
X10437300Y-4842890D01*
X10487490Y-4258250D02*
X10517490Y-4288250D01*
X10517490Y-4258250D02*
X10487490Y-4288250D01*
X10526070Y-4743640D02*
X10556070Y-4773640D01*
X10556070Y-4743640D02*
X10526070Y-4773640D01*
X10532760Y-5479000D02*
X10562760Y-5509000D01*
X10562760Y-5479000D02*
X10532760Y-5509000D01*
X10533730Y-4623860D02*
X10563730Y-4653860D01*
X10563730Y-4623860D02*
X10533730Y-4653860D01*
X10599650Y-4007290D02*
X10629650Y-4037290D01*
X10629650Y-4007290D02*
X10599650Y-4037290D01*
X10724280Y-5181800D02*
X10754280Y-5211800D01*
X10754280Y-5181800D02*
X10724280Y-5211800D01*
X10818100Y-5648100D02*
X10848100Y-5678100D01*
X10848100Y-5648100D02*
X10818100Y-5678100D01*
X10929370Y-5670050D02*
X10959370Y-5700050D01*
X10959370Y-5670050D02*
X10929370Y-5700050D01*
X10933050Y-4427000D02*
X10963050Y-4457000D01*
X10963050Y-4427000D02*
X10933050Y-4457000D01*
X10948210Y-4865740D02*
X10978210Y-4895740D01*
X10978210Y-4865740D02*
X10948210Y-4895740D01*
X11034080Y-4691440D02*
X11064080Y-4721440D01*
X11064080Y-4691440D02*
X11034080Y-4721440D01*
X11069040Y-4033620D02*
X11099040Y-4063620D01*
X11099040Y-4033620D02*
X11069040Y-4063620D01*
X11185300Y-5334630D02*
X11215300Y-5364630D01*
X11215300Y-5334630D02*
X11185300Y-5364630D01*
X11311350Y-6005540D02*
X11341350Y-6035540D01*
X11341350Y-6005540D02*
X11311350Y-6035540D01*
X11446750Y-2834990D02*
X11476750Y-2864990D01*
X11476750Y-2834990D02*
X11446750Y-2864990D01*
X11488610Y-4977110D02*
X11518610Y-5007110D01*
X11518610Y-4977110D02*
X11488610Y-5007110D01*
X11496080Y-5092000D02*
X11526080Y-5122000D01*
X11526080Y-5092000D02*
X11496080Y-5122000D01*
X11510380Y-4620480D02*
X11540380Y-4650480D01*
X11540380Y-4620480D02*
X11510380Y-4650480D01*
X11520640Y-4853390D02*
X11550640Y-4883390D01*
X11550640Y-4853390D02*
X11520640Y-4883390D01*
X11582950Y-4971160D02*
X11612950Y-5001160D01*
X11612950Y-4971160D02*
X11582950Y-5001160D01*
X11635630Y-4872080D02*
X11665630Y-4902080D01*
X11665630Y-4872080D02*
X11635630Y-4902080D01*
X11843390Y-4850790D02*
X11873390Y-4880790D01*
X11873390Y-4850790D02*
X11843390Y-4880790D01*
X11846500Y-4766290D02*
X11876500Y-4796290D01*
X11876500Y-4766290D02*
X11846500Y-4796290D01*
X11951690Y-3608460D02*
X11981690Y-3638460D01*
X11981690Y-3608460D02*
X11951690Y-3638460D01*
X11978320Y-3979760D02*
X12008320Y-4009760D01*
X12008320Y-3979760D02*
X11978320Y-4009760D01*
X12019170Y-4565070D02*
X12049170Y-4595070D01*
X12049170Y-4565070D02*
X12019170Y-4595070D01*
X9635280Y-6377940D02*
G75*
G02*
X9585280Y-6377940I-25000J0D01*
G01*
X9585280Y-6377940D02*
G75*
G02*
X9635280Y-6377940I25000J0D01*
G01*
X9735280Y-6377940D02*
G75*
G02*
X9685280Y-6377940I-25000J0D01*
G01*
X9685280Y-6377940D02*
G75*
G02*
X9735280Y-6377940I25000J0D01*
G01*
X9835280Y-6377940D02*
G75*
G02*
X9785280Y-6377940I-25000J0D01*
G01*
X9785280Y-6377940D02*
G75*
G02*
X9835280Y-6377940I25000J0D01*
G01*
X9935280Y-6377940D02*
G75*
G02*
X9885280Y-6377940I-25000J0D01*
G01*
X9885280Y-6377940D02*
G75*
G02*
X9935280Y-6377940I25000J0D01*
G01*
X10035280Y-6377940D02*
G75*
G02*
X9985280Y-6377940I-25000J0D01*
G01*
X9985280Y-6377940D02*
G75*
G02*
X10035280Y-6377940I25000J0D01*
G01*
X10135280Y-6377940D02*
G75*
G02*
X10085280Y-6377940I-25000J0D01*
G01*
X10085280Y-6377940D02*
G75*
G02*
X10135280Y-6377940I25000J0D01*
G01*
X11490000Y-6496000D02*
G75*
G02*
X11440000Y-6496000I-25000J0D01*
G01*
X11440000Y-6496000D02*
G75*
G02*
X11490000Y-6496000I25000J0D01*
G01*
X11490000Y-6596000D02*
G75*
G02*
X11440000Y-6596000I-25000J0D01*
G01*
X11440000Y-6596000D02*
G75*
G02*
X11490000Y-6596000I25000J0D01*
G01*
X11490000Y-6696000D02*
G75*
G02*
X11440000Y-6696000I-25000J0D01*
G01*
X11440000Y-6696000D02*
G75*
G02*
X11490000Y-6696000I25000J0D01*
G01*
X11490000Y-6796000D02*
G75*
G02*
X11440000Y-6796000I-25000J0D01*
G01*
X11440000Y-6796000D02*
G75*
G02*
X11490000Y-6796000I25000J0D01*
G01*
X11812000Y-4470000D02*
X11812000Y-4530000D01*
X11782000Y-4500000D02*
X11842000Y-4500000D01*
X11757000Y-4530000D02*
X11867000Y-4530000D01*
X11867000Y-4470000D02*
G75*
G02*
X11867000Y-4530000I0J-30000D01*
G01*
X11867000Y-4470000D02*
X11757000Y-4470000D01*
X11757000Y-4470000D02*
G75*
G03*
X11757000Y-4530000I0J-30000D01*
G01*
X11812000Y-5334000D02*
X11812000Y-5394000D01*
X11782000Y-5364000D02*
X11842000Y-5364000D01*
X11757000Y-5394000D02*
X11867000Y-5394000D01*
X11867000Y-5334000D02*
G75*
G02*
X11867000Y-5394000I0J-30000D01*
G01*
X11867000Y-5334000D02*
X11757000Y-5334000D01*
X11757000Y-5334000D02*
G75*
G03*
X11757000Y-5394000I0J-30000D01*
G01*
X12230000Y-4470000D02*
X12230000Y-4530000D01*
X12200000Y-4500000D02*
X12260000Y-4500000D01*
X12190000Y-4530000D02*
X12270000Y-4530000D01*
X12270000Y-4470000D02*
G75*
G02*
X12270000Y-4530000I0J-30000D01*
G01*
X12270000Y-4470000D02*
X12190000Y-4470000D01*
X12190000Y-4470000D02*
G75*
G03*
X12190000Y-4530000I0J-30000D01*
G01*
X12230000Y-5334000D02*
X12230000Y-5394000D01*
X12200000Y-5364000D02*
X12260000Y-5364000D01*
X12190000Y-5394000D02*
X12270000Y-5394000D01*
X12270000Y-5334000D02*
G75*
G02*
X12270000Y-5394000I0J-30000D01*
G01*
X12270000Y-5334000D02*
X12190000Y-5334000D01*
X12190000Y-5334000D02*
G75*
G03*
X12190000Y-5394000I0J-30000D01*
G01*
X8504041Y-5395081D02*
X8504041Y-5349119D01*
X8458079Y-5349119D01*
X8458079Y-5395081D01*
X8504041Y-5395081D01*
X8631041Y-5395081D02*
X8631041Y-5349119D01*
X8585079Y-5349119D01*
X8585079Y-5395081D01*
X8631041Y-5395081D01*
X8758041Y-5395081D02*
X8758041Y-5349119D01*
X8712079Y-5349119D01*
X8712079Y-5395081D01*
X8758041Y-5395081D01*
X8862181Y-4429881D02*
X8862181Y-4383919D01*
X8816219Y-4383919D01*
X8816219Y-4429881D01*
X8862181Y-4429881D01*
X8862181Y-4556881D02*
X8862181Y-4510919D01*
X8816219Y-4510919D01*
X8816219Y-4556881D01*
X8862181Y-4556881D01*
X8862181Y-4683881D02*
X8862181Y-4637919D01*
X8816219Y-4637919D01*
X8816219Y-4683881D01*
X8862181Y-4683881D01*
X8862181Y-4810881D02*
X8862181Y-4764919D01*
X8816219Y-4764919D01*
X8816219Y-4810881D01*
X8862181Y-4810881D01*
X8885041Y-5395081D02*
X8885041Y-5349119D01*
X8839079Y-5349119D01*
X8839079Y-5395081D01*
X8885041Y-5395081D01*
X9697841Y-6742981D02*
X9697841Y-6697019D01*
X9651879Y-6697019D01*
X9651879Y-6742981D01*
X9697841Y-6742981D01*
X9824841Y-6742981D02*
X9824841Y-6697019D01*
X9778879Y-6697019D01*
X9778879Y-6742981D01*
X9824841Y-6742981D01*
X9951841Y-6742981D02*
X9951841Y-6697019D01*
X9905879Y-6697019D01*
X9905879Y-6742981D01*
X9951841Y-6742981D01*
X10078841Y-6742981D02*
X10078841Y-6697019D01*
X10032879Y-6697019D01*
X10032879Y-6742981D01*
X10078841Y-6742981D01*
X10205841Y-6742981D02*
X10205841Y-6697019D01*
X10159879Y-6697019D01*
X10159879Y-6742981D01*
X10205841Y-6742981D01*
X10332841Y-6742981D02*
X10332841Y-6697019D01*
X10286879Y-6697019D01*
X10286879Y-6742981D01*
X10332841Y-6742981D01*
X10729081Y-6742981D02*
X10729081Y-6697019D01*
X10683119Y-6697019D01*
X10683119Y-6742981D01*
X10729081Y-6742981D01*
X10856081Y-6742981D02*
X10856081Y-6697019D01*
X10810119Y-6697019D01*
X10810119Y-6742981D01*
X10856081Y-6742981D01*
X10983081Y-6742981D02*
X10983081Y-6697019D01*
X10937119Y-6697019D01*
X10937119Y-6742981D01*
X10983081Y-6742981D01*
X11046981Y-4264781D02*
X11046981Y-4218819D01*
X11001019Y-4218819D01*
X11001019Y-4264781D01*
X11046981Y-4264781D01*
X11110081Y-6742981D02*
X11110081Y-6697019D01*
X11064119Y-6697019D01*
X11064119Y-6742981D01*
X11110081Y-6742981D01*
X11173981Y-4264781D02*
X11173981Y-4218819D01*
X11128019Y-4218819D01*
X11128019Y-4264781D01*
X11173981Y-4264781D01*
X11300981Y-4264781D02*
X11300981Y-4218819D01*
X11255019Y-4218819D01*
X11255019Y-4264781D01*
X11300981Y-4264781D01*
X11427981Y-4264781D02*
X11427981Y-4218819D01*
X11382019Y-4218819D01*
X11382019Y-4264781D01*
X11427981Y-4264781D01*
X11968601Y-6077981D02*
X11968601Y-6032019D01*
X11922639Y-6032019D01*
X11922639Y-6077981D01*
X11968601Y-6077981D01*
X12095601Y-6077981D02*
X12095601Y-6032019D01*
X12049639Y-6032019D01*
X12049639Y-6077981D01*
X12095601Y-6077981D01*
D11*
X8258277Y-7313984D02*
X8258277Y-7113984D01*
X8258277Y-7113984D02*
X8305896Y-7113984D01*
X8305896Y-7113984D02*
X8334467Y-7123508D01*
X8334467Y-7123508D02*
X8353515Y-7142555D01*
X8353515Y-7142555D02*
X8363039Y-7161603D01*
X8363039Y-7161603D02*
X8372562Y-7199698D01*
X8372562Y-7199698D02*
X8372562Y-7228269D01*
X8372562Y-7228269D02*
X8363039Y-7266365D01*
X8363039Y-7266365D02*
X8353515Y-7285412D01*
X8353515Y-7285412D02*
X8334467Y-7304460D01*
X8334467Y-7304460D02*
X8305896Y-7313984D01*
X8305896Y-7313984D02*
X8258277Y-7313984D01*
X8458277Y-7313984D02*
X8458277Y-7180650D01*
X8458277Y-7218746D02*
X8467801Y-7199698D01*
X8467801Y-7199698D02*
X8477324Y-7190174D01*
X8477324Y-7190174D02*
X8496372Y-7180650D01*
X8496372Y-7180650D02*
X8515420Y-7180650D01*
X8582086Y-7313984D02*
X8582086Y-7180650D01*
X8582086Y-7113984D02*
X8572563Y-7123508D01*
X8572563Y-7123508D02*
X8582086Y-7133031D01*
X8582086Y-7133031D02*
X8591610Y-7123508D01*
X8591610Y-7123508D02*
X8582086Y-7113984D01*
X8582086Y-7113984D02*
X8582086Y-7133031D01*
X8705896Y-7313984D02*
X8686848Y-7304460D01*
X8686848Y-7304460D02*
X8677324Y-7285412D01*
X8677324Y-7285412D02*
X8677324Y-7113984D01*
X8810658Y-7313984D02*
X8791610Y-7304460D01*
X8791610Y-7304460D02*
X8782086Y-7285412D01*
X8782086Y-7285412D02*
X8782086Y-7113984D01*
X9039229Y-7313984D02*
X9039229Y-7113984D01*
X9039229Y-7113984D02*
X9105896Y-7256841D01*
X9105896Y-7256841D02*
X9172563Y-7113984D01*
X9172563Y-7113984D02*
X9172563Y-7313984D01*
X9353515Y-7313984D02*
X9353515Y-7209222D01*
X9353515Y-7209222D02*
X9343991Y-7190174D01*
X9343991Y-7190174D02*
X9324944Y-7180650D01*
X9324944Y-7180650D02*
X9286848Y-7180650D01*
X9286848Y-7180650D02*
X9267801Y-7190174D01*
X9353515Y-7304460D02*
X9334467Y-7313984D01*
X9334467Y-7313984D02*
X9286848Y-7313984D01*
X9286848Y-7313984D02*
X9267801Y-7304460D01*
X9267801Y-7304460D02*
X9258277Y-7285412D01*
X9258277Y-7285412D02*
X9258277Y-7266365D01*
X9258277Y-7266365D02*
X9267801Y-7247317D01*
X9267801Y-7247317D02*
X9286848Y-7237793D01*
X9286848Y-7237793D02*
X9334467Y-7237793D01*
X9334467Y-7237793D02*
X9353515Y-7228269D01*
X9448753Y-7180650D02*
X9448753Y-7380650D01*
X9448753Y-7190174D02*
X9467801Y-7180650D01*
X9467801Y-7180650D02*
X9505896Y-7180650D01*
X9505896Y-7180650D02*
X9524944Y-7190174D01*
X9524944Y-7190174D02*
X9534467Y-7199698D01*
X9534467Y-7199698D02*
X9543991Y-7218746D01*
X9543991Y-7218746D02*
X9543991Y-7275888D01*
X9543991Y-7275888D02*
X9534467Y-7294936D01*
X9534467Y-7294936D02*
X9524944Y-7304460D01*
X9524944Y-7304460D02*
X9505896Y-7313984D01*
X9505896Y-7313984D02*
X9467801Y-7313984D01*
X9467801Y-7313984D02*
X9448753Y-7304460D01*
X9629705Y-7294936D02*
X9639229Y-7304460D01*
X9639229Y-7304460D02*
X9629705Y-7313984D01*
X9629705Y-7313984D02*
X9620182Y-7304460D01*
X9620182Y-7304460D02*
X9629705Y-7294936D01*
X9629705Y-7294936D02*
X9629705Y-7313984D01*
X9629705Y-7190174D02*
X9639229Y-7199698D01*
X9639229Y-7199698D02*
X9629705Y-7209222D01*
X9629705Y-7209222D02*
X9620182Y-7199698D01*
X9620182Y-7199698D02*
X9629705Y-7190174D01*
X9629705Y-7190174D02*
X9629705Y-7209222D01*
D12*
X7967500Y-7627500D02*
X7997500Y-7657500D01*
X7997500Y-7627500D02*
X7967500Y-7657500D01*
D11*
X8296372Y-7533984D02*
X8315420Y-7533984D01*
X8315420Y-7533984D02*
X8334467Y-7543508D01*
X8334467Y-7543508D02*
X8343991Y-7553031D01*
X8343991Y-7553031D02*
X8353515Y-7572079D01*
X8353515Y-7572079D02*
X8363039Y-7610174D01*
X8363039Y-7610174D02*
X8363039Y-7657793D01*
X8363039Y-7657793D02*
X8353515Y-7695888D01*
X8353515Y-7695888D02*
X8343991Y-7714936D01*
X8343991Y-7714936D02*
X8334467Y-7724460D01*
X8334467Y-7724460D02*
X8315420Y-7733984D01*
X8315420Y-7733984D02*
X8296372Y-7733984D01*
X8296372Y-7733984D02*
X8277324Y-7724460D01*
X8277324Y-7724460D02*
X8267801Y-7714936D01*
X8267801Y-7714936D02*
X8258277Y-7695888D01*
X8258277Y-7695888D02*
X8248753Y-7657793D01*
X8248753Y-7657793D02*
X8248753Y-7610174D01*
X8248753Y-7610174D02*
X8258277Y-7572079D01*
X8258277Y-7572079D02*
X8267801Y-7553031D01*
X8267801Y-7553031D02*
X8277324Y-7543508D01*
X8277324Y-7543508D02*
X8296372Y-7533984D01*
X8448753Y-7714936D02*
X8458277Y-7724460D01*
X8458277Y-7724460D02*
X8448753Y-7733984D01*
X8448753Y-7733984D02*
X8439229Y-7724460D01*
X8439229Y-7724460D02*
X8448753Y-7714936D01*
X8448753Y-7714936D02*
X8448753Y-7733984D01*
X8524944Y-7533984D02*
X8648753Y-7533984D01*
X8648753Y-7533984D02*
X8582086Y-7610174D01*
X8582086Y-7610174D02*
X8610658Y-7610174D01*
X8610658Y-7610174D02*
X8629705Y-7619698D01*
X8629705Y-7619698D02*
X8639229Y-7629222D01*
X8639229Y-7629222D02*
X8648753Y-7648269D01*
X8648753Y-7648269D02*
X8648753Y-7695888D01*
X8648753Y-7695888D02*
X8639229Y-7714936D01*
X8639229Y-7714936D02*
X8629705Y-7724460D01*
X8629705Y-7724460D02*
X8610658Y-7733984D01*
X8610658Y-7733984D02*
X8553515Y-7733984D01*
X8553515Y-7733984D02*
X8534467Y-7724460D01*
X8534467Y-7724460D02*
X8524944Y-7714936D01*
X8772563Y-7533984D02*
X8791610Y-7533984D01*
X8791610Y-7533984D02*
X8810658Y-7543508D01*
X8810658Y-7543508D02*
X8820182Y-7553031D01*
X8820182Y-7553031D02*
X8829705Y-7572079D01*
X8829705Y-7572079D02*
X8839229Y-7610174D01*
X8839229Y-7610174D02*
X8839229Y-7657793D01*
X8839229Y-7657793D02*
X8829705Y-7695888D01*
X8829705Y-7695888D02*
X8820182Y-7714936D01*
X8820182Y-7714936D02*
X8810658Y-7724460D01*
X8810658Y-7724460D02*
X8791610Y-7733984D01*
X8791610Y-7733984D02*
X8772563Y-7733984D01*
X8772563Y-7733984D02*
X8753515Y-7724460D01*
X8753515Y-7724460D02*
X8743991Y-7714936D01*
X8743991Y-7714936D02*
X8734467Y-7695888D01*
X8734467Y-7695888D02*
X8724944Y-7657793D01*
X8724944Y-7657793D02*
X8724944Y-7610174D01*
X8724944Y-7610174D02*
X8734467Y-7572079D01*
X8734467Y-7572079D02*
X8743991Y-7553031D01*
X8743991Y-7553031D02*
X8753515Y-7543508D01*
X8753515Y-7543508D02*
X8772563Y-7533984D01*
X8963039Y-7533984D02*
X8982086Y-7533984D01*
X8982086Y-7533984D02*
X9001134Y-7543508D01*
X9001134Y-7543508D02*
X9010658Y-7553031D01*
X9010658Y-7553031D02*
X9020182Y-7572079D01*
X9020182Y-7572079D02*
X9029705Y-7610174D01*
X9029705Y-7610174D02*
X9029705Y-7657793D01*
X9029705Y-7657793D02*
X9020182Y-7695888D01*
X9020182Y-7695888D02*
X9010658Y-7714936D01*
X9010658Y-7714936D02*
X9001134Y-7724460D01*
X9001134Y-7724460D02*
X8982086Y-7733984D01*
X8982086Y-7733984D02*
X8963039Y-7733984D01*
X8963039Y-7733984D02*
X8943991Y-7724460D01*
X8943991Y-7724460D02*
X8934467Y-7714936D01*
X8934467Y-7714936D02*
X8924944Y-7695888D01*
X8924944Y-7695888D02*
X8915420Y-7657793D01*
X8915420Y-7657793D02*
X8915420Y-7610174D01*
X8915420Y-7610174D02*
X8924944Y-7572079D01*
X8924944Y-7572079D02*
X8934467Y-7553031D01*
X8934467Y-7553031D02*
X8943991Y-7543508D01*
X8943991Y-7543508D02*
X8963039Y-7533984D01*
X9115420Y-7733984D02*
X9115420Y-7600650D01*
X9115420Y-7619698D02*
X9124944Y-7610174D01*
X9124944Y-7610174D02*
X9143991Y-7600650D01*
X9143991Y-7600650D02*
X9172563Y-7600650D01*
X9172563Y-7600650D02*
X9191610Y-7610174D01*
X9191610Y-7610174D02*
X9201134Y-7629222D01*
X9201134Y-7629222D02*
X9201134Y-7733984D01*
X9201134Y-7629222D02*
X9210658Y-7610174D01*
X9210658Y-7610174D02*
X9229705Y-7600650D01*
X9229705Y-7600650D02*
X9258277Y-7600650D01*
X9258277Y-7600650D02*
X9277325Y-7610174D01*
X9277325Y-7610174D02*
X9286848Y-7629222D01*
X9286848Y-7629222D02*
X9286848Y-7733984D01*
X9382086Y-7733984D02*
X9382086Y-7600650D01*
X9382086Y-7619698D02*
X9391610Y-7610174D01*
X9391610Y-7610174D02*
X9410658Y-7600650D01*
X9410658Y-7600650D02*
X9439229Y-7600650D01*
X9439229Y-7600650D02*
X9458277Y-7610174D01*
X9458277Y-7610174D02*
X9467801Y-7629222D01*
X9467801Y-7629222D02*
X9467801Y-7733984D01*
X9467801Y-7629222D02*
X9477325Y-7610174D01*
X9477325Y-7610174D02*
X9496372Y-7600650D01*
X9496372Y-7600650D02*
X9524944Y-7600650D01*
X9524944Y-7600650D02*
X9543991Y-7610174D01*
X9543991Y-7610174D02*
X9553515Y-7629222D01*
X9553515Y-7629222D02*
X9553515Y-7733984D01*
X9943991Y-7524460D02*
X9772563Y-7781603D01*
X10201134Y-7533984D02*
X10220182Y-7533984D01*
X10220182Y-7533984D02*
X10239229Y-7543508D01*
X10239229Y-7543508D02*
X10248753Y-7553031D01*
X10248753Y-7553031D02*
X10258277Y-7572079D01*
X10258277Y-7572079D02*
X10267801Y-7610174D01*
X10267801Y-7610174D02*
X10267801Y-7657793D01*
X10267801Y-7657793D02*
X10258277Y-7695888D01*
X10258277Y-7695888D02*
X10248753Y-7714936D01*
X10248753Y-7714936D02*
X10239229Y-7724460D01*
X10239229Y-7724460D02*
X10220182Y-7733984D01*
X10220182Y-7733984D02*
X10201134Y-7733984D01*
X10201134Y-7733984D02*
X10182087Y-7724460D01*
X10182087Y-7724460D02*
X10172563Y-7714936D01*
X10172563Y-7714936D02*
X10163039Y-7695888D01*
X10163039Y-7695888D02*
X10153515Y-7657793D01*
X10153515Y-7657793D02*
X10153515Y-7610174D01*
X10153515Y-7610174D02*
X10163039Y-7572079D01*
X10163039Y-7572079D02*
X10172563Y-7553031D01*
X10172563Y-7553031D02*
X10182087Y-7543508D01*
X10182087Y-7543508D02*
X10201134Y-7533984D01*
X10353515Y-7714936D02*
X10363039Y-7724460D01*
X10363039Y-7724460D02*
X10353515Y-7733984D01*
X10353515Y-7733984D02*
X10343991Y-7724460D01*
X10343991Y-7724460D02*
X10353515Y-7714936D01*
X10353515Y-7714936D02*
X10353515Y-7733984D01*
X10486848Y-7533984D02*
X10505896Y-7533984D01*
X10505896Y-7533984D02*
X10524944Y-7543508D01*
X10524944Y-7543508D02*
X10534468Y-7553031D01*
X10534468Y-7553031D02*
X10543991Y-7572079D01*
X10543991Y-7572079D02*
X10553515Y-7610174D01*
X10553515Y-7610174D02*
X10553515Y-7657793D01*
X10553515Y-7657793D02*
X10543991Y-7695888D01*
X10543991Y-7695888D02*
X10534468Y-7714936D01*
X10534468Y-7714936D02*
X10524944Y-7724460D01*
X10524944Y-7724460D02*
X10505896Y-7733984D01*
X10505896Y-7733984D02*
X10486848Y-7733984D01*
X10486848Y-7733984D02*
X10467801Y-7724460D01*
X10467801Y-7724460D02*
X10458277Y-7714936D01*
X10458277Y-7714936D02*
X10448753Y-7695888D01*
X10448753Y-7695888D02*
X10439229Y-7657793D01*
X10439229Y-7657793D02*
X10439229Y-7610174D01*
X10439229Y-7610174D02*
X10448753Y-7572079D01*
X10448753Y-7572079D02*
X10458277Y-7553031D01*
X10458277Y-7553031D02*
X10467801Y-7543508D01*
X10467801Y-7543508D02*
X10486848Y-7533984D01*
X10743991Y-7733984D02*
X10629706Y-7733984D01*
X10686848Y-7733984D02*
X10686848Y-7533984D01*
X10686848Y-7533984D02*
X10667801Y-7562555D01*
X10667801Y-7562555D02*
X10648753Y-7581603D01*
X10648753Y-7581603D02*
X10629706Y-7591127D01*
X10934468Y-7733984D02*
X10820182Y-7733984D01*
X10877325Y-7733984D02*
X10877325Y-7533984D01*
X10877325Y-7533984D02*
X10858277Y-7562555D01*
X10858277Y-7562555D02*
X10839229Y-7581603D01*
X10839229Y-7581603D02*
X10820182Y-7591127D01*
X11048753Y-7619698D02*
X11029706Y-7610174D01*
X11029706Y-7610174D02*
X11020182Y-7600650D01*
X11020182Y-7600650D02*
X11010658Y-7581603D01*
X11010658Y-7581603D02*
X11010658Y-7572079D01*
X11010658Y-7572079D02*
X11020182Y-7553031D01*
X11020182Y-7553031D02*
X11029706Y-7543508D01*
X11029706Y-7543508D02*
X11048753Y-7533984D01*
X11048753Y-7533984D02*
X11086849Y-7533984D01*
X11086849Y-7533984D02*
X11105896Y-7543508D01*
X11105896Y-7543508D02*
X11115420Y-7553031D01*
X11115420Y-7553031D02*
X11124944Y-7572079D01*
X11124944Y-7572079D02*
X11124944Y-7581603D01*
X11124944Y-7581603D02*
X11115420Y-7600650D01*
X11115420Y-7600650D02*
X11105896Y-7610174D01*
X11105896Y-7610174D02*
X11086849Y-7619698D01*
X11086849Y-7619698D02*
X11048753Y-7619698D01*
X11048753Y-7619698D02*
X11029706Y-7629222D01*
X11029706Y-7629222D02*
X11020182Y-7638746D01*
X11020182Y-7638746D02*
X11010658Y-7657793D01*
X11010658Y-7657793D02*
X11010658Y-7695888D01*
X11010658Y-7695888D02*
X11020182Y-7714936D01*
X11020182Y-7714936D02*
X11029706Y-7724460D01*
X11029706Y-7724460D02*
X11048753Y-7733984D01*
X11048753Y-7733984D02*
X11086849Y-7733984D01*
X11086849Y-7733984D02*
X11105896Y-7724460D01*
X11105896Y-7724460D02*
X11115420Y-7714936D01*
X11115420Y-7714936D02*
X11124944Y-7695888D01*
X11124944Y-7695888D02*
X11124944Y-7657793D01*
X11124944Y-7657793D02*
X11115420Y-7638746D01*
X11115420Y-7638746D02*
X11105896Y-7629222D01*
X11105896Y-7629222D02*
X11086849Y-7619698D01*
X11201134Y-7533984D02*
X11201134Y-7572079D01*
X11277325Y-7533984D02*
X11277325Y-7572079D01*
X11572563Y-7810174D02*
X11563039Y-7800650D01*
X11563039Y-7800650D02*
X11543991Y-7772079D01*
X11543991Y-7772079D02*
X11534468Y-7753031D01*
X11534468Y-7753031D02*
X11524944Y-7724460D01*
X11524944Y-7724460D02*
X11515420Y-7676841D01*
X11515420Y-7676841D02*
X11515420Y-7638746D01*
X11515420Y-7638746D02*
X11524944Y-7591127D01*
X11524944Y-7591127D02*
X11534468Y-7562555D01*
X11534468Y-7562555D02*
X11543991Y-7543508D01*
X11543991Y-7543508D02*
X11563039Y-7514936D01*
X11563039Y-7514936D02*
X11572563Y-7505412D01*
X11734468Y-7533984D02*
X11696372Y-7533984D01*
X11696372Y-7533984D02*
X11677325Y-7543508D01*
X11677325Y-7543508D02*
X11667801Y-7553031D01*
X11667801Y-7553031D02*
X11648753Y-7581603D01*
X11648753Y-7581603D02*
X11639229Y-7619698D01*
X11639229Y-7619698D02*
X11639229Y-7695888D01*
X11639229Y-7695888D02*
X11648753Y-7714936D01*
X11648753Y-7714936D02*
X11658277Y-7724460D01*
X11658277Y-7724460D02*
X11677325Y-7733984D01*
X11677325Y-7733984D02*
X11715420Y-7733984D01*
X11715420Y-7733984D02*
X11734468Y-7724460D01*
X11734468Y-7724460D02*
X11743991Y-7714936D01*
X11743991Y-7714936D02*
X11753515Y-7695888D01*
X11753515Y-7695888D02*
X11753515Y-7648269D01*
X11753515Y-7648269D02*
X11743991Y-7629222D01*
X11743991Y-7629222D02*
X11734468Y-7619698D01*
X11734468Y-7619698D02*
X11715420Y-7610174D01*
X11715420Y-7610174D02*
X11677325Y-7610174D01*
X11677325Y-7610174D02*
X11658277Y-7619698D01*
X11658277Y-7619698D02*
X11648753Y-7629222D01*
X11648753Y-7629222D02*
X11639229Y-7648269D01*
X11829706Y-7553031D02*
X11839229Y-7543508D01*
X11839229Y-7543508D02*
X11858277Y-7533984D01*
X11858277Y-7533984D02*
X11905896Y-7533984D01*
X11905896Y-7533984D02*
X11924944Y-7543508D01*
X11924944Y-7543508D02*
X11934468Y-7553031D01*
X11934468Y-7553031D02*
X11943991Y-7572079D01*
X11943991Y-7572079D02*
X11943991Y-7591127D01*
X11943991Y-7591127D02*
X11934468Y-7619698D01*
X11934468Y-7619698D02*
X11820182Y-7733984D01*
X11820182Y-7733984D02*
X11943991Y-7733984D01*
X12182087Y-7733984D02*
X12182087Y-7533984D01*
X12267801Y-7733984D02*
X12267801Y-7629222D01*
X12267801Y-7629222D02*
X12258277Y-7610174D01*
X12258277Y-7610174D02*
X12239230Y-7600650D01*
X12239230Y-7600650D02*
X12210658Y-7600650D01*
X12210658Y-7600650D02*
X12191610Y-7610174D01*
X12191610Y-7610174D02*
X12182087Y-7619698D01*
X12391610Y-7733984D02*
X12372563Y-7724460D01*
X12372563Y-7724460D02*
X12363039Y-7714936D01*
X12363039Y-7714936D02*
X12353515Y-7695888D01*
X12353515Y-7695888D02*
X12353515Y-7638746D01*
X12353515Y-7638746D02*
X12363039Y-7619698D01*
X12363039Y-7619698D02*
X12372563Y-7610174D01*
X12372563Y-7610174D02*
X12391610Y-7600650D01*
X12391610Y-7600650D02*
X12420182Y-7600650D01*
X12420182Y-7600650D02*
X12439230Y-7610174D01*
X12439230Y-7610174D02*
X12448753Y-7619698D01*
X12448753Y-7619698D02*
X12458277Y-7638746D01*
X12458277Y-7638746D02*
X12458277Y-7695888D01*
X12458277Y-7695888D02*
X12448753Y-7714936D01*
X12448753Y-7714936D02*
X12439230Y-7724460D01*
X12439230Y-7724460D02*
X12420182Y-7733984D01*
X12420182Y-7733984D02*
X12391610Y-7733984D01*
X12572563Y-7733984D02*
X12553515Y-7724460D01*
X12553515Y-7724460D02*
X12543991Y-7705412D01*
X12543991Y-7705412D02*
X12543991Y-7533984D01*
X12724944Y-7724460D02*
X12705896Y-7733984D01*
X12705896Y-7733984D02*
X12667801Y-7733984D01*
X12667801Y-7733984D02*
X12648753Y-7724460D01*
X12648753Y-7724460D02*
X12639230Y-7705412D01*
X12639230Y-7705412D02*
X12639230Y-7629222D01*
X12639230Y-7629222D02*
X12648753Y-7610174D01*
X12648753Y-7610174D02*
X12667801Y-7600650D01*
X12667801Y-7600650D02*
X12705896Y-7600650D01*
X12705896Y-7600650D02*
X12724944Y-7610174D01*
X12724944Y-7610174D02*
X12734468Y-7629222D01*
X12734468Y-7629222D02*
X12734468Y-7648269D01*
X12734468Y-7648269D02*
X12639230Y-7667317D01*
X12810658Y-7724460D02*
X12829706Y-7733984D01*
X12829706Y-7733984D02*
X12867801Y-7733984D01*
X12867801Y-7733984D02*
X12886849Y-7724460D01*
X12886849Y-7724460D02*
X12896372Y-7705412D01*
X12896372Y-7705412D02*
X12896372Y-7695888D01*
X12896372Y-7695888D02*
X12886849Y-7676841D01*
X12886849Y-7676841D02*
X12867801Y-7667317D01*
X12867801Y-7667317D02*
X12839230Y-7667317D01*
X12839230Y-7667317D02*
X12820182Y-7657793D01*
X12820182Y-7657793D02*
X12810658Y-7638746D01*
X12810658Y-7638746D02*
X12810658Y-7629222D01*
X12810658Y-7629222D02*
X12820182Y-7610174D01*
X12820182Y-7610174D02*
X12839230Y-7600650D01*
X12839230Y-7600650D02*
X12867801Y-7600650D01*
X12867801Y-7600650D02*
X12886849Y-7610174D01*
X12963039Y-7810174D02*
X12972563Y-7800650D01*
X12972563Y-7800650D02*
X12991611Y-7772079D01*
X12991611Y-7772079D02*
X13001134Y-7753031D01*
X13001134Y-7753031D02*
X13010658Y-7724460D01*
X13010658Y-7724460D02*
X13020182Y-7676841D01*
X13020182Y-7676841D02*
X13020182Y-7638746D01*
X13020182Y-7638746D02*
X13010658Y-7591127D01*
X13010658Y-7591127D02*
X13001134Y-7562555D01*
X13001134Y-7562555D02*
X12991611Y-7543508D01*
X12991611Y-7543508D02*
X12972563Y-7514936D01*
X12972563Y-7514936D02*
X12963039Y-7505412D01*
D12*
X7997500Y-7906500D02*
G75*
G02*
X7947500Y-7906500I-25000J0D01*
G01*
X7947500Y-7906500D02*
G75*
G02*
X7997500Y-7906500I25000J0D01*
G01*
D11*
X8296372Y-7797984D02*
X8315420Y-7797984D01*
X8315420Y-7797984D02*
X8334467Y-7807508D01*
X8334467Y-7807508D02*
X8343991Y-7817031D01*
X8343991Y-7817031D02*
X8353515Y-7836079D01*
X8353515Y-7836079D02*
X8363039Y-7874174D01*
X8363039Y-7874174D02*
X8363039Y-7921793D01*
X8363039Y-7921793D02*
X8353515Y-7959888D01*
X8353515Y-7959888D02*
X8343991Y-7978936D01*
X8343991Y-7978936D02*
X8334467Y-7988460D01*
X8334467Y-7988460D02*
X8315420Y-7997984D01*
X8315420Y-7997984D02*
X8296372Y-7997984D01*
X8296372Y-7997984D02*
X8277324Y-7988460D01*
X8277324Y-7988460D02*
X8267801Y-7978936D01*
X8267801Y-7978936D02*
X8258277Y-7959888D01*
X8258277Y-7959888D02*
X8248753Y-7921793D01*
X8248753Y-7921793D02*
X8248753Y-7874174D01*
X8248753Y-7874174D02*
X8258277Y-7836079D01*
X8258277Y-7836079D02*
X8267801Y-7817031D01*
X8267801Y-7817031D02*
X8277324Y-7807508D01*
X8277324Y-7807508D02*
X8296372Y-7797984D01*
X8448753Y-7978936D02*
X8458277Y-7988460D01*
X8458277Y-7988460D02*
X8448753Y-7997984D01*
X8448753Y-7997984D02*
X8439229Y-7988460D01*
X8439229Y-7988460D02*
X8448753Y-7978936D01*
X8448753Y-7978936D02*
X8448753Y-7997984D01*
X8639229Y-7797984D02*
X8543991Y-7797984D01*
X8543991Y-7797984D02*
X8534467Y-7893222D01*
X8534467Y-7893222D02*
X8543991Y-7883698D01*
X8543991Y-7883698D02*
X8563039Y-7874174D01*
X8563039Y-7874174D02*
X8610658Y-7874174D01*
X8610658Y-7874174D02*
X8629705Y-7883698D01*
X8629705Y-7883698D02*
X8639229Y-7893222D01*
X8639229Y-7893222D02*
X8648753Y-7912269D01*
X8648753Y-7912269D02*
X8648753Y-7959888D01*
X8648753Y-7959888D02*
X8639229Y-7978936D01*
X8639229Y-7978936D02*
X8629705Y-7988460D01*
X8629705Y-7988460D02*
X8610658Y-7997984D01*
X8610658Y-7997984D02*
X8563039Y-7997984D01*
X8563039Y-7997984D02*
X8543991Y-7988460D01*
X8543991Y-7988460D02*
X8534467Y-7978936D01*
X8772563Y-7797984D02*
X8791610Y-7797984D01*
X8791610Y-7797984D02*
X8810658Y-7807508D01*
X8810658Y-7807508D02*
X8820182Y-7817031D01*
X8820182Y-7817031D02*
X8829705Y-7836079D01*
X8829705Y-7836079D02*
X8839229Y-7874174D01*
X8839229Y-7874174D02*
X8839229Y-7921793D01*
X8839229Y-7921793D02*
X8829705Y-7959888D01*
X8829705Y-7959888D02*
X8820182Y-7978936D01*
X8820182Y-7978936D02*
X8810658Y-7988460D01*
X8810658Y-7988460D02*
X8791610Y-7997984D01*
X8791610Y-7997984D02*
X8772563Y-7997984D01*
X8772563Y-7997984D02*
X8753515Y-7988460D01*
X8753515Y-7988460D02*
X8743991Y-7978936D01*
X8743991Y-7978936D02*
X8734467Y-7959888D01*
X8734467Y-7959888D02*
X8724944Y-7921793D01*
X8724944Y-7921793D02*
X8724944Y-7874174D01*
X8724944Y-7874174D02*
X8734467Y-7836079D01*
X8734467Y-7836079D02*
X8743991Y-7817031D01*
X8743991Y-7817031D02*
X8753515Y-7807508D01*
X8753515Y-7807508D02*
X8772563Y-7797984D01*
X8963039Y-7797984D02*
X8982086Y-7797984D01*
X8982086Y-7797984D02*
X9001134Y-7807508D01*
X9001134Y-7807508D02*
X9010658Y-7817031D01*
X9010658Y-7817031D02*
X9020182Y-7836079D01*
X9020182Y-7836079D02*
X9029705Y-7874174D01*
X9029705Y-7874174D02*
X9029705Y-7921793D01*
X9029705Y-7921793D02*
X9020182Y-7959888D01*
X9020182Y-7959888D02*
X9010658Y-7978936D01*
X9010658Y-7978936D02*
X9001134Y-7988460D01*
X9001134Y-7988460D02*
X8982086Y-7997984D01*
X8982086Y-7997984D02*
X8963039Y-7997984D01*
X8963039Y-7997984D02*
X8943991Y-7988460D01*
X8943991Y-7988460D02*
X8934467Y-7978936D01*
X8934467Y-7978936D02*
X8924944Y-7959888D01*
X8924944Y-7959888D02*
X8915420Y-7921793D01*
X8915420Y-7921793D02*
X8915420Y-7874174D01*
X8915420Y-7874174D02*
X8924944Y-7836079D01*
X8924944Y-7836079D02*
X8934467Y-7817031D01*
X8934467Y-7817031D02*
X8943991Y-7807508D01*
X8943991Y-7807508D02*
X8963039Y-7797984D01*
X9115420Y-7997984D02*
X9115420Y-7864650D01*
X9115420Y-7883698D02*
X9124944Y-7874174D01*
X9124944Y-7874174D02*
X9143991Y-7864650D01*
X9143991Y-7864650D02*
X9172563Y-7864650D01*
X9172563Y-7864650D02*
X9191610Y-7874174D01*
X9191610Y-7874174D02*
X9201134Y-7893222D01*
X9201134Y-7893222D02*
X9201134Y-7997984D01*
X9201134Y-7893222D02*
X9210658Y-7874174D01*
X9210658Y-7874174D02*
X9229705Y-7864650D01*
X9229705Y-7864650D02*
X9258277Y-7864650D01*
X9258277Y-7864650D02*
X9277325Y-7874174D01*
X9277325Y-7874174D02*
X9286848Y-7893222D01*
X9286848Y-7893222D02*
X9286848Y-7997984D01*
X9382086Y-7997984D02*
X9382086Y-7864650D01*
X9382086Y-7883698D02*
X9391610Y-7874174D01*
X9391610Y-7874174D02*
X9410658Y-7864650D01*
X9410658Y-7864650D02*
X9439229Y-7864650D01*
X9439229Y-7864650D02*
X9458277Y-7874174D01*
X9458277Y-7874174D02*
X9467801Y-7893222D01*
X9467801Y-7893222D02*
X9467801Y-7997984D01*
X9467801Y-7893222D02*
X9477325Y-7874174D01*
X9477325Y-7874174D02*
X9496372Y-7864650D01*
X9496372Y-7864650D02*
X9524944Y-7864650D01*
X9524944Y-7864650D02*
X9543991Y-7874174D01*
X9543991Y-7874174D02*
X9553515Y-7893222D01*
X9553515Y-7893222D02*
X9553515Y-7997984D01*
X9943991Y-7788460D02*
X9772563Y-8045603D01*
X10201134Y-7797984D02*
X10220182Y-7797984D01*
X10220182Y-7797984D02*
X10239229Y-7807508D01*
X10239229Y-7807508D02*
X10248753Y-7817031D01*
X10248753Y-7817031D02*
X10258277Y-7836079D01*
X10258277Y-7836079D02*
X10267801Y-7874174D01*
X10267801Y-7874174D02*
X10267801Y-7921793D01*
X10267801Y-7921793D02*
X10258277Y-7959888D01*
X10258277Y-7959888D02*
X10248753Y-7978936D01*
X10248753Y-7978936D02*
X10239229Y-7988460D01*
X10239229Y-7988460D02*
X10220182Y-7997984D01*
X10220182Y-7997984D02*
X10201134Y-7997984D01*
X10201134Y-7997984D02*
X10182087Y-7988460D01*
X10182087Y-7988460D02*
X10172563Y-7978936D01*
X10172563Y-7978936D02*
X10163039Y-7959888D01*
X10163039Y-7959888D02*
X10153515Y-7921793D01*
X10153515Y-7921793D02*
X10153515Y-7874174D01*
X10153515Y-7874174D02*
X10163039Y-7836079D01*
X10163039Y-7836079D02*
X10172563Y-7817031D01*
X10172563Y-7817031D02*
X10182087Y-7807508D01*
X10182087Y-7807508D02*
X10201134Y-7797984D01*
X10353515Y-7978936D02*
X10363039Y-7988460D01*
X10363039Y-7988460D02*
X10353515Y-7997984D01*
X10353515Y-7997984D02*
X10343991Y-7988460D01*
X10343991Y-7988460D02*
X10353515Y-7978936D01*
X10353515Y-7978936D02*
X10353515Y-7997984D01*
X10486848Y-7797984D02*
X10505896Y-7797984D01*
X10505896Y-7797984D02*
X10524944Y-7807508D01*
X10524944Y-7807508D02*
X10534468Y-7817031D01*
X10534468Y-7817031D02*
X10543991Y-7836079D01*
X10543991Y-7836079D02*
X10553515Y-7874174D01*
X10553515Y-7874174D02*
X10553515Y-7921793D01*
X10553515Y-7921793D02*
X10543991Y-7959888D01*
X10543991Y-7959888D02*
X10534468Y-7978936D01*
X10534468Y-7978936D02*
X10524944Y-7988460D01*
X10524944Y-7988460D02*
X10505896Y-7997984D01*
X10505896Y-7997984D02*
X10486848Y-7997984D01*
X10486848Y-7997984D02*
X10467801Y-7988460D01*
X10467801Y-7988460D02*
X10458277Y-7978936D01*
X10458277Y-7978936D02*
X10448753Y-7959888D01*
X10448753Y-7959888D02*
X10439229Y-7921793D01*
X10439229Y-7921793D02*
X10439229Y-7874174D01*
X10439229Y-7874174D02*
X10448753Y-7836079D01*
X10448753Y-7836079D02*
X10458277Y-7817031D01*
X10458277Y-7817031D02*
X10467801Y-7807508D01*
X10467801Y-7807508D02*
X10486848Y-7797984D01*
X10743991Y-7997984D02*
X10629706Y-7997984D01*
X10686848Y-7997984D02*
X10686848Y-7797984D01*
X10686848Y-7797984D02*
X10667801Y-7826555D01*
X10667801Y-7826555D02*
X10648753Y-7845603D01*
X10648753Y-7845603D02*
X10629706Y-7855127D01*
X10839229Y-7997984D02*
X10877325Y-7997984D01*
X10877325Y-7997984D02*
X10896372Y-7988460D01*
X10896372Y-7988460D02*
X10905896Y-7978936D01*
X10905896Y-7978936D02*
X10924944Y-7950365D01*
X10924944Y-7950365D02*
X10934468Y-7912269D01*
X10934468Y-7912269D02*
X10934468Y-7836079D01*
X10934468Y-7836079D02*
X10924944Y-7817031D01*
X10924944Y-7817031D02*
X10915420Y-7807508D01*
X10915420Y-7807508D02*
X10896372Y-7797984D01*
X10896372Y-7797984D02*
X10858277Y-7797984D01*
X10858277Y-7797984D02*
X10839229Y-7807508D01*
X10839229Y-7807508D02*
X10829706Y-7817031D01*
X10829706Y-7817031D02*
X10820182Y-7836079D01*
X10820182Y-7836079D02*
X10820182Y-7883698D01*
X10820182Y-7883698D02*
X10829706Y-7902746D01*
X10829706Y-7902746D02*
X10839229Y-7912269D01*
X10839229Y-7912269D02*
X10858277Y-7921793D01*
X10858277Y-7921793D02*
X10896372Y-7921793D01*
X10896372Y-7921793D02*
X10915420Y-7912269D01*
X10915420Y-7912269D02*
X10924944Y-7902746D01*
X10924944Y-7902746D02*
X10934468Y-7883698D01*
X11001134Y-7797984D02*
X11134468Y-7797984D01*
X11134468Y-7797984D02*
X11048753Y-7997984D01*
X11201134Y-7797984D02*
X11201134Y-7836079D01*
X11277325Y-7797984D02*
X11277325Y-7836079D01*
X11572563Y-8074174D02*
X11563039Y-8064650D01*
X11563039Y-8064650D02*
X11543991Y-8036079D01*
X11543991Y-8036079D02*
X11534468Y-8017031D01*
X11534468Y-8017031D02*
X11524944Y-7988460D01*
X11524944Y-7988460D02*
X11515420Y-7940841D01*
X11515420Y-7940841D02*
X11515420Y-7902746D01*
X11515420Y-7902746D02*
X11524944Y-7855127D01*
X11524944Y-7855127D02*
X11534468Y-7826555D01*
X11534468Y-7826555D02*
X11543991Y-7807508D01*
X11543991Y-7807508D02*
X11563039Y-7778936D01*
X11563039Y-7778936D02*
X11572563Y-7769412D01*
X11753515Y-7997984D02*
X11639229Y-7997984D01*
X11696372Y-7997984D02*
X11696372Y-7797984D01*
X11696372Y-7797984D02*
X11677325Y-7826555D01*
X11677325Y-7826555D02*
X11658277Y-7845603D01*
X11658277Y-7845603D02*
X11639229Y-7855127D01*
X11877325Y-7797984D02*
X11896372Y-7797984D01*
X11896372Y-7797984D02*
X11915420Y-7807508D01*
X11915420Y-7807508D02*
X11924944Y-7817031D01*
X11924944Y-7817031D02*
X11934468Y-7836079D01*
X11934468Y-7836079D02*
X11943991Y-7874174D01*
X11943991Y-7874174D02*
X11943991Y-7921793D01*
X11943991Y-7921793D02*
X11934468Y-7959888D01*
X11934468Y-7959888D02*
X11924944Y-7978936D01*
X11924944Y-7978936D02*
X11915420Y-7988460D01*
X11915420Y-7988460D02*
X11896372Y-7997984D01*
X11896372Y-7997984D02*
X11877325Y-7997984D01*
X11877325Y-7997984D02*
X11858277Y-7988460D01*
X11858277Y-7988460D02*
X11848753Y-7978936D01*
X11848753Y-7978936D02*
X11839229Y-7959888D01*
X11839229Y-7959888D02*
X11829706Y-7921793D01*
X11829706Y-7921793D02*
X11829706Y-7874174D01*
X11829706Y-7874174D02*
X11839229Y-7836079D01*
X11839229Y-7836079D02*
X11848753Y-7817031D01*
X11848753Y-7817031D02*
X11858277Y-7807508D01*
X11858277Y-7807508D02*
X11877325Y-7797984D01*
X12182087Y-7997984D02*
X12182087Y-7797984D01*
X12267801Y-7997984D02*
X12267801Y-7893222D01*
X12267801Y-7893222D02*
X12258277Y-7874174D01*
X12258277Y-7874174D02*
X12239230Y-7864650D01*
X12239230Y-7864650D02*
X12210658Y-7864650D01*
X12210658Y-7864650D02*
X12191610Y-7874174D01*
X12191610Y-7874174D02*
X12182087Y-7883698D01*
X12391610Y-7997984D02*
X12372563Y-7988460D01*
X12372563Y-7988460D02*
X12363039Y-7978936D01*
X12363039Y-7978936D02*
X12353515Y-7959888D01*
X12353515Y-7959888D02*
X12353515Y-7902746D01*
X12353515Y-7902746D02*
X12363039Y-7883698D01*
X12363039Y-7883698D02*
X12372563Y-7874174D01*
X12372563Y-7874174D02*
X12391610Y-7864650D01*
X12391610Y-7864650D02*
X12420182Y-7864650D01*
X12420182Y-7864650D02*
X12439230Y-7874174D01*
X12439230Y-7874174D02*
X12448753Y-7883698D01*
X12448753Y-7883698D02*
X12458277Y-7902746D01*
X12458277Y-7902746D02*
X12458277Y-7959888D01*
X12458277Y-7959888D02*
X12448753Y-7978936D01*
X12448753Y-7978936D02*
X12439230Y-7988460D01*
X12439230Y-7988460D02*
X12420182Y-7997984D01*
X12420182Y-7997984D02*
X12391610Y-7997984D01*
X12572563Y-7997984D02*
X12553515Y-7988460D01*
X12553515Y-7988460D02*
X12543991Y-7969412D01*
X12543991Y-7969412D02*
X12543991Y-7797984D01*
X12724944Y-7988460D02*
X12705896Y-7997984D01*
X12705896Y-7997984D02*
X12667801Y-7997984D01*
X12667801Y-7997984D02*
X12648753Y-7988460D01*
X12648753Y-7988460D02*
X12639230Y-7969412D01*
X12639230Y-7969412D02*
X12639230Y-7893222D01*
X12639230Y-7893222D02*
X12648753Y-7874174D01*
X12648753Y-7874174D02*
X12667801Y-7864650D01*
X12667801Y-7864650D02*
X12705896Y-7864650D01*
X12705896Y-7864650D02*
X12724944Y-7874174D01*
X12724944Y-7874174D02*
X12734468Y-7893222D01*
X12734468Y-7893222D02*
X12734468Y-7912269D01*
X12734468Y-7912269D02*
X12639230Y-7931317D01*
X12810658Y-7988460D02*
X12829706Y-7997984D01*
X12829706Y-7997984D02*
X12867801Y-7997984D01*
X12867801Y-7997984D02*
X12886849Y-7988460D01*
X12886849Y-7988460D02*
X12896372Y-7969412D01*
X12896372Y-7969412D02*
X12896372Y-7959888D01*
X12896372Y-7959888D02*
X12886849Y-7940841D01*
X12886849Y-7940841D02*
X12867801Y-7931317D01*
X12867801Y-7931317D02*
X12839230Y-7931317D01*
X12839230Y-7931317D02*
X12820182Y-7921793D01*
X12820182Y-7921793D02*
X12810658Y-7902746D01*
X12810658Y-7902746D02*
X12810658Y-7893222D01*
X12810658Y-7893222D02*
X12820182Y-7874174D01*
X12820182Y-7874174D02*
X12839230Y-7864650D01*
X12839230Y-7864650D02*
X12867801Y-7864650D01*
X12867801Y-7864650D02*
X12886849Y-7874174D01*
X12963039Y-8074174D02*
X12972563Y-8064650D01*
X12972563Y-8064650D02*
X12991611Y-8036079D01*
X12991611Y-8036079D02*
X13001134Y-8017031D01*
X13001134Y-8017031D02*
X13010658Y-7988460D01*
X13010658Y-7988460D02*
X13020182Y-7940841D01*
X13020182Y-7940841D02*
X13020182Y-7902746D01*
X13020182Y-7902746D02*
X13010658Y-7855127D01*
X13010658Y-7855127D02*
X13001134Y-7826555D01*
X13001134Y-7826555D02*
X12991611Y-7807508D01*
X12991611Y-7807508D02*
X12972563Y-7778936D01*
X12972563Y-7778936D02*
X12963039Y-7769412D01*
D12*
X7967500Y-8140500D02*
X7967500Y-8200500D01*
X7937500Y-8170500D02*
X7997500Y-8170500D01*
D11*
X8296372Y-8061984D02*
X8315420Y-8061984D01*
X8315420Y-8061984D02*
X8334467Y-8071508D01*
X8334467Y-8071508D02*
X8343991Y-8081031D01*
X8343991Y-8081031D02*
X8353515Y-8100079D01*
X8353515Y-8100079D02*
X8363039Y-8138174D01*
X8363039Y-8138174D02*
X8363039Y-8185793D01*
X8363039Y-8185793D02*
X8353515Y-8223888D01*
X8353515Y-8223888D02*
X8343991Y-8242936D01*
X8343991Y-8242936D02*
X8334467Y-8252460D01*
X8334467Y-8252460D02*
X8315420Y-8261984D01*
X8315420Y-8261984D02*
X8296372Y-8261984D01*
X8296372Y-8261984D02*
X8277324Y-8252460D01*
X8277324Y-8252460D02*
X8267801Y-8242936D01*
X8267801Y-8242936D02*
X8258277Y-8223888D01*
X8258277Y-8223888D02*
X8248753Y-8185793D01*
X8248753Y-8185793D02*
X8248753Y-8138174D01*
X8248753Y-8138174D02*
X8258277Y-8100079D01*
X8258277Y-8100079D02*
X8267801Y-8081031D01*
X8267801Y-8081031D02*
X8277324Y-8071508D01*
X8277324Y-8071508D02*
X8296372Y-8061984D01*
X8448753Y-8242936D02*
X8458277Y-8252460D01*
X8458277Y-8252460D02*
X8448753Y-8261984D01*
X8448753Y-8261984D02*
X8439229Y-8252460D01*
X8439229Y-8252460D02*
X8448753Y-8242936D01*
X8448753Y-8242936D02*
X8448753Y-8261984D01*
X8629705Y-8061984D02*
X8591610Y-8061984D01*
X8591610Y-8061984D02*
X8572563Y-8071508D01*
X8572563Y-8071508D02*
X8563039Y-8081031D01*
X8563039Y-8081031D02*
X8543991Y-8109603D01*
X8543991Y-8109603D02*
X8534467Y-8147698D01*
X8534467Y-8147698D02*
X8534467Y-8223888D01*
X8534467Y-8223888D02*
X8543991Y-8242936D01*
X8543991Y-8242936D02*
X8553515Y-8252460D01*
X8553515Y-8252460D02*
X8572563Y-8261984D01*
X8572563Y-8261984D02*
X8610658Y-8261984D01*
X8610658Y-8261984D02*
X8629705Y-8252460D01*
X8629705Y-8252460D02*
X8639229Y-8242936D01*
X8639229Y-8242936D02*
X8648753Y-8223888D01*
X8648753Y-8223888D02*
X8648753Y-8176269D01*
X8648753Y-8176269D02*
X8639229Y-8157222D01*
X8639229Y-8157222D02*
X8629705Y-8147698D01*
X8629705Y-8147698D02*
X8610658Y-8138174D01*
X8610658Y-8138174D02*
X8572563Y-8138174D01*
X8572563Y-8138174D02*
X8553515Y-8147698D01*
X8553515Y-8147698D02*
X8543991Y-8157222D01*
X8543991Y-8157222D02*
X8534467Y-8176269D01*
X8772563Y-8061984D02*
X8791610Y-8061984D01*
X8791610Y-8061984D02*
X8810658Y-8071508D01*
X8810658Y-8071508D02*
X8820182Y-8081031D01*
X8820182Y-8081031D02*
X8829705Y-8100079D01*
X8829705Y-8100079D02*
X8839229Y-8138174D01*
X8839229Y-8138174D02*
X8839229Y-8185793D01*
X8839229Y-8185793D02*
X8829705Y-8223888D01*
X8829705Y-8223888D02*
X8820182Y-8242936D01*
X8820182Y-8242936D02*
X8810658Y-8252460D01*
X8810658Y-8252460D02*
X8791610Y-8261984D01*
X8791610Y-8261984D02*
X8772563Y-8261984D01*
X8772563Y-8261984D02*
X8753515Y-8252460D01*
X8753515Y-8252460D02*
X8743991Y-8242936D01*
X8743991Y-8242936D02*
X8734467Y-8223888D01*
X8734467Y-8223888D02*
X8724944Y-8185793D01*
X8724944Y-8185793D02*
X8724944Y-8138174D01*
X8724944Y-8138174D02*
X8734467Y-8100079D01*
X8734467Y-8100079D02*
X8743991Y-8081031D01*
X8743991Y-8081031D02*
X8753515Y-8071508D01*
X8753515Y-8071508D02*
X8772563Y-8061984D01*
X8963039Y-8061984D02*
X8982086Y-8061984D01*
X8982086Y-8061984D02*
X9001134Y-8071508D01*
X9001134Y-8071508D02*
X9010658Y-8081031D01*
X9010658Y-8081031D02*
X9020182Y-8100079D01*
X9020182Y-8100079D02*
X9029705Y-8138174D01*
X9029705Y-8138174D02*
X9029705Y-8185793D01*
X9029705Y-8185793D02*
X9020182Y-8223888D01*
X9020182Y-8223888D02*
X9010658Y-8242936D01*
X9010658Y-8242936D02*
X9001134Y-8252460D01*
X9001134Y-8252460D02*
X8982086Y-8261984D01*
X8982086Y-8261984D02*
X8963039Y-8261984D01*
X8963039Y-8261984D02*
X8943991Y-8252460D01*
X8943991Y-8252460D02*
X8934467Y-8242936D01*
X8934467Y-8242936D02*
X8924944Y-8223888D01*
X8924944Y-8223888D02*
X8915420Y-8185793D01*
X8915420Y-8185793D02*
X8915420Y-8138174D01*
X8915420Y-8138174D02*
X8924944Y-8100079D01*
X8924944Y-8100079D02*
X8934467Y-8081031D01*
X8934467Y-8081031D02*
X8943991Y-8071508D01*
X8943991Y-8071508D02*
X8963039Y-8061984D01*
X9115420Y-8261984D02*
X9115420Y-8128650D01*
X9115420Y-8147698D02*
X9124944Y-8138174D01*
X9124944Y-8138174D02*
X9143991Y-8128650D01*
X9143991Y-8128650D02*
X9172563Y-8128650D01*
X9172563Y-8128650D02*
X9191610Y-8138174D01*
X9191610Y-8138174D02*
X9201134Y-8157222D01*
X9201134Y-8157222D02*
X9201134Y-8261984D01*
X9201134Y-8157222D02*
X9210658Y-8138174D01*
X9210658Y-8138174D02*
X9229705Y-8128650D01*
X9229705Y-8128650D02*
X9258277Y-8128650D01*
X9258277Y-8128650D02*
X9277325Y-8138174D01*
X9277325Y-8138174D02*
X9286848Y-8157222D01*
X9286848Y-8157222D02*
X9286848Y-8261984D01*
X9382086Y-8261984D02*
X9382086Y-8128650D01*
X9382086Y-8147698D02*
X9391610Y-8138174D01*
X9391610Y-8138174D02*
X9410658Y-8128650D01*
X9410658Y-8128650D02*
X9439229Y-8128650D01*
X9439229Y-8128650D02*
X9458277Y-8138174D01*
X9458277Y-8138174D02*
X9467801Y-8157222D01*
X9467801Y-8157222D02*
X9467801Y-8261984D01*
X9467801Y-8157222D02*
X9477325Y-8138174D01*
X9477325Y-8138174D02*
X9496372Y-8128650D01*
X9496372Y-8128650D02*
X9524944Y-8128650D01*
X9524944Y-8128650D02*
X9543991Y-8138174D01*
X9543991Y-8138174D02*
X9553515Y-8157222D01*
X9553515Y-8157222D02*
X9553515Y-8261984D01*
X9943991Y-8052460D02*
X9772563Y-8309603D01*
X10201134Y-8061984D02*
X10220182Y-8061984D01*
X10220182Y-8061984D02*
X10239229Y-8071508D01*
X10239229Y-8071508D02*
X10248753Y-8081031D01*
X10248753Y-8081031D02*
X10258277Y-8100079D01*
X10258277Y-8100079D02*
X10267801Y-8138174D01*
X10267801Y-8138174D02*
X10267801Y-8185793D01*
X10267801Y-8185793D02*
X10258277Y-8223888D01*
X10258277Y-8223888D02*
X10248753Y-8242936D01*
X10248753Y-8242936D02*
X10239229Y-8252460D01*
X10239229Y-8252460D02*
X10220182Y-8261984D01*
X10220182Y-8261984D02*
X10201134Y-8261984D01*
X10201134Y-8261984D02*
X10182087Y-8252460D01*
X10182087Y-8252460D02*
X10172563Y-8242936D01*
X10172563Y-8242936D02*
X10163039Y-8223888D01*
X10163039Y-8223888D02*
X10153515Y-8185793D01*
X10153515Y-8185793D02*
X10153515Y-8138174D01*
X10153515Y-8138174D02*
X10163039Y-8100079D01*
X10163039Y-8100079D02*
X10172563Y-8081031D01*
X10172563Y-8081031D02*
X10182087Y-8071508D01*
X10182087Y-8071508D02*
X10201134Y-8061984D01*
X10353515Y-8242936D02*
X10363039Y-8252460D01*
X10363039Y-8252460D02*
X10353515Y-8261984D01*
X10353515Y-8261984D02*
X10343991Y-8252460D01*
X10343991Y-8252460D02*
X10353515Y-8242936D01*
X10353515Y-8242936D02*
X10353515Y-8261984D01*
X10486848Y-8061984D02*
X10505896Y-8061984D01*
X10505896Y-8061984D02*
X10524944Y-8071508D01*
X10524944Y-8071508D02*
X10534468Y-8081031D01*
X10534468Y-8081031D02*
X10543991Y-8100079D01*
X10543991Y-8100079D02*
X10553515Y-8138174D01*
X10553515Y-8138174D02*
X10553515Y-8185793D01*
X10553515Y-8185793D02*
X10543991Y-8223888D01*
X10543991Y-8223888D02*
X10534468Y-8242936D01*
X10534468Y-8242936D02*
X10524944Y-8252460D01*
X10524944Y-8252460D02*
X10505896Y-8261984D01*
X10505896Y-8261984D02*
X10486848Y-8261984D01*
X10486848Y-8261984D02*
X10467801Y-8252460D01*
X10467801Y-8252460D02*
X10458277Y-8242936D01*
X10458277Y-8242936D02*
X10448753Y-8223888D01*
X10448753Y-8223888D02*
X10439229Y-8185793D01*
X10439229Y-8185793D02*
X10439229Y-8138174D01*
X10439229Y-8138174D02*
X10448753Y-8100079D01*
X10448753Y-8100079D02*
X10458277Y-8081031D01*
X10458277Y-8081031D02*
X10467801Y-8071508D01*
X10467801Y-8071508D02*
X10486848Y-8061984D01*
X10629706Y-8081031D02*
X10639229Y-8071508D01*
X10639229Y-8071508D02*
X10658277Y-8061984D01*
X10658277Y-8061984D02*
X10705896Y-8061984D01*
X10705896Y-8061984D02*
X10724944Y-8071508D01*
X10724944Y-8071508D02*
X10734468Y-8081031D01*
X10734468Y-8081031D02*
X10743991Y-8100079D01*
X10743991Y-8100079D02*
X10743991Y-8119127D01*
X10743991Y-8119127D02*
X10734468Y-8147698D01*
X10734468Y-8147698D02*
X10620182Y-8261984D01*
X10620182Y-8261984D02*
X10743991Y-8261984D01*
X10810658Y-8061984D02*
X10934468Y-8061984D01*
X10934468Y-8061984D02*
X10867801Y-8138174D01*
X10867801Y-8138174D02*
X10896372Y-8138174D01*
X10896372Y-8138174D02*
X10915420Y-8147698D01*
X10915420Y-8147698D02*
X10924944Y-8157222D01*
X10924944Y-8157222D02*
X10934468Y-8176269D01*
X10934468Y-8176269D02*
X10934468Y-8223888D01*
X10934468Y-8223888D02*
X10924944Y-8242936D01*
X10924944Y-8242936D02*
X10915420Y-8252460D01*
X10915420Y-8252460D02*
X10896372Y-8261984D01*
X10896372Y-8261984D02*
X10839229Y-8261984D01*
X10839229Y-8261984D02*
X10820182Y-8252460D01*
X10820182Y-8252460D02*
X10810658Y-8242936D01*
X11105896Y-8061984D02*
X11067801Y-8061984D01*
X11067801Y-8061984D02*
X11048753Y-8071508D01*
X11048753Y-8071508D02*
X11039229Y-8081031D01*
X11039229Y-8081031D02*
X11020182Y-8109603D01*
X11020182Y-8109603D02*
X11010658Y-8147698D01*
X11010658Y-8147698D02*
X11010658Y-8223888D01*
X11010658Y-8223888D02*
X11020182Y-8242936D01*
X11020182Y-8242936D02*
X11029706Y-8252460D01*
X11029706Y-8252460D02*
X11048753Y-8261984D01*
X11048753Y-8261984D02*
X11086849Y-8261984D01*
X11086849Y-8261984D02*
X11105896Y-8252460D01*
X11105896Y-8252460D02*
X11115420Y-8242936D01*
X11115420Y-8242936D02*
X11124944Y-8223888D01*
X11124944Y-8223888D02*
X11124944Y-8176269D01*
X11124944Y-8176269D02*
X11115420Y-8157222D01*
X11115420Y-8157222D02*
X11105896Y-8147698D01*
X11105896Y-8147698D02*
X11086849Y-8138174D01*
X11086849Y-8138174D02*
X11048753Y-8138174D01*
X11048753Y-8138174D02*
X11029706Y-8147698D01*
X11029706Y-8147698D02*
X11020182Y-8157222D01*
X11020182Y-8157222D02*
X11010658Y-8176269D01*
X11201134Y-8061984D02*
X11201134Y-8100079D01*
X11277325Y-8061984D02*
X11277325Y-8100079D01*
X11572563Y-8338174D02*
X11563039Y-8328650D01*
X11563039Y-8328650D02*
X11543991Y-8300079D01*
X11543991Y-8300079D02*
X11534468Y-8281031D01*
X11534468Y-8281031D02*
X11524944Y-8252460D01*
X11524944Y-8252460D02*
X11515420Y-8204841D01*
X11515420Y-8204841D02*
X11515420Y-8166746D01*
X11515420Y-8166746D02*
X11524944Y-8119127D01*
X11524944Y-8119127D02*
X11534468Y-8090555D01*
X11534468Y-8090555D02*
X11543991Y-8071508D01*
X11543991Y-8071508D02*
X11563039Y-8042936D01*
X11563039Y-8042936D02*
X11572563Y-8033412D01*
X11686848Y-8061984D02*
X11705896Y-8061984D01*
X11705896Y-8061984D02*
X11724944Y-8071508D01*
X11724944Y-8071508D02*
X11734468Y-8081031D01*
X11734468Y-8081031D02*
X11743991Y-8100079D01*
X11743991Y-8100079D02*
X11753515Y-8138174D01*
X11753515Y-8138174D02*
X11753515Y-8185793D01*
X11753515Y-8185793D02*
X11743991Y-8223888D01*
X11743991Y-8223888D02*
X11734468Y-8242936D01*
X11734468Y-8242936D02*
X11724944Y-8252460D01*
X11724944Y-8252460D02*
X11705896Y-8261984D01*
X11705896Y-8261984D02*
X11686848Y-8261984D01*
X11686848Y-8261984D02*
X11667801Y-8252460D01*
X11667801Y-8252460D02*
X11658277Y-8242936D01*
X11658277Y-8242936D02*
X11648753Y-8223888D01*
X11648753Y-8223888D02*
X11639229Y-8185793D01*
X11639229Y-8185793D02*
X11639229Y-8138174D01*
X11639229Y-8138174D02*
X11648753Y-8100079D01*
X11648753Y-8100079D02*
X11658277Y-8081031D01*
X11658277Y-8081031D02*
X11667801Y-8071508D01*
X11667801Y-8071508D02*
X11686848Y-8061984D01*
X11991610Y-8261984D02*
X11991610Y-8061984D01*
X12077325Y-8261984D02*
X12077325Y-8157222D01*
X12077325Y-8157222D02*
X12067801Y-8138174D01*
X12067801Y-8138174D02*
X12048753Y-8128650D01*
X12048753Y-8128650D02*
X12020182Y-8128650D01*
X12020182Y-8128650D02*
X12001134Y-8138174D01*
X12001134Y-8138174D02*
X11991610Y-8147698D01*
X12201134Y-8261984D02*
X12182087Y-8252460D01*
X12182087Y-8252460D02*
X12172563Y-8242936D01*
X12172563Y-8242936D02*
X12163039Y-8223888D01*
X12163039Y-8223888D02*
X12163039Y-8166746D01*
X12163039Y-8166746D02*
X12172563Y-8147698D01*
X12172563Y-8147698D02*
X12182087Y-8138174D01*
X12182087Y-8138174D02*
X12201134Y-8128650D01*
X12201134Y-8128650D02*
X12229706Y-8128650D01*
X12229706Y-8128650D02*
X12248753Y-8138174D01*
X12248753Y-8138174D02*
X12258277Y-8147698D01*
X12258277Y-8147698D02*
X12267801Y-8166746D01*
X12267801Y-8166746D02*
X12267801Y-8223888D01*
X12267801Y-8223888D02*
X12258277Y-8242936D01*
X12258277Y-8242936D02*
X12248753Y-8252460D01*
X12248753Y-8252460D02*
X12229706Y-8261984D01*
X12229706Y-8261984D02*
X12201134Y-8261984D01*
X12382087Y-8261984D02*
X12363039Y-8252460D01*
X12363039Y-8252460D02*
X12353515Y-8233412D01*
X12353515Y-8233412D02*
X12353515Y-8061984D01*
X12534468Y-8252460D02*
X12515420Y-8261984D01*
X12515420Y-8261984D02*
X12477325Y-8261984D01*
X12477325Y-8261984D02*
X12458277Y-8252460D01*
X12458277Y-8252460D02*
X12448753Y-8233412D01*
X12448753Y-8233412D02*
X12448753Y-8157222D01*
X12448753Y-8157222D02*
X12458277Y-8138174D01*
X12458277Y-8138174D02*
X12477325Y-8128650D01*
X12477325Y-8128650D02*
X12515420Y-8128650D01*
X12515420Y-8128650D02*
X12534468Y-8138174D01*
X12534468Y-8138174D02*
X12543991Y-8157222D01*
X12543991Y-8157222D02*
X12543991Y-8176269D01*
X12543991Y-8176269D02*
X12448753Y-8195317D01*
X12620182Y-8252460D02*
X12639230Y-8261984D01*
X12639230Y-8261984D02*
X12677325Y-8261984D01*
X12677325Y-8261984D02*
X12696372Y-8252460D01*
X12696372Y-8252460D02*
X12705896Y-8233412D01*
X12705896Y-8233412D02*
X12705896Y-8223888D01*
X12705896Y-8223888D02*
X12696372Y-8204841D01*
X12696372Y-8204841D02*
X12677325Y-8195317D01*
X12677325Y-8195317D02*
X12648753Y-8195317D01*
X12648753Y-8195317D02*
X12629706Y-8185793D01*
X12629706Y-8185793D02*
X12620182Y-8166746D01*
X12620182Y-8166746D02*
X12620182Y-8157222D01*
X12620182Y-8157222D02*
X12629706Y-8138174D01*
X12629706Y-8138174D02*
X12648753Y-8128650D01*
X12648753Y-8128650D02*
X12677325Y-8128650D01*
X12677325Y-8128650D02*
X12696372Y-8138174D01*
X12943992Y-8185793D02*
X13096373Y-8185793D01*
X13020182Y-8261984D02*
X13020182Y-8109603D01*
X13429706Y-8128650D02*
X13429706Y-8261984D01*
X13382087Y-8052460D02*
X13334468Y-8195317D01*
X13334468Y-8195317D02*
X13458277Y-8195317D01*
X13677325Y-8252460D02*
X13696373Y-8261984D01*
X13696373Y-8261984D02*
X13734468Y-8261984D01*
X13734468Y-8261984D02*
X13753515Y-8252460D01*
X13753515Y-8252460D02*
X13763039Y-8233412D01*
X13763039Y-8233412D02*
X13763039Y-8223888D01*
X13763039Y-8223888D02*
X13753515Y-8204841D01*
X13753515Y-8204841D02*
X13734468Y-8195317D01*
X13734468Y-8195317D02*
X13705896Y-8195317D01*
X13705896Y-8195317D02*
X13686849Y-8185793D01*
X13686849Y-8185793D02*
X13677325Y-8166746D01*
X13677325Y-8166746D02*
X13677325Y-8157222D01*
X13677325Y-8157222D02*
X13686849Y-8138174D01*
X13686849Y-8138174D02*
X13705896Y-8128650D01*
X13705896Y-8128650D02*
X13734468Y-8128650D01*
X13734468Y-8128650D02*
X13753515Y-8138174D01*
X13877325Y-8261984D02*
X13858277Y-8252460D01*
X13858277Y-8252460D02*
X13848754Y-8233412D01*
X13848754Y-8233412D02*
X13848754Y-8061984D01*
X13982087Y-8261984D02*
X13963039Y-8252460D01*
X13963039Y-8252460D02*
X13953515Y-8242936D01*
X13953515Y-8242936D02*
X13943992Y-8223888D01*
X13943992Y-8223888D02*
X13943992Y-8166746D01*
X13943992Y-8166746D02*
X13953515Y-8147698D01*
X13953515Y-8147698D02*
X13963039Y-8138174D01*
X13963039Y-8138174D02*
X13982087Y-8128650D01*
X13982087Y-8128650D02*
X14010658Y-8128650D01*
X14010658Y-8128650D02*
X14029706Y-8138174D01*
X14029706Y-8138174D02*
X14039230Y-8147698D01*
X14039230Y-8147698D02*
X14048754Y-8166746D01*
X14048754Y-8166746D02*
X14048754Y-8223888D01*
X14048754Y-8223888D02*
X14039230Y-8242936D01*
X14039230Y-8242936D02*
X14029706Y-8252460D01*
X14029706Y-8252460D02*
X14010658Y-8261984D01*
X14010658Y-8261984D02*
X13982087Y-8261984D01*
X14105896Y-8128650D02*
X14182087Y-8128650D01*
X14134468Y-8061984D02*
X14134468Y-8233412D01*
X14134468Y-8233412D02*
X14143992Y-8252460D01*
X14143992Y-8252460D02*
X14163039Y-8261984D01*
X14163039Y-8261984D02*
X14182087Y-8261984D01*
X14239230Y-8252460D02*
X14258277Y-8261984D01*
X14258277Y-8261984D02*
X14296373Y-8261984D01*
X14296373Y-8261984D02*
X14315420Y-8252460D01*
X14315420Y-8252460D02*
X14324944Y-8233412D01*
X14324944Y-8233412D02*
X14324944Y-8223888D01*
X14324944Y-8223888D02*
X14315420Y-8204841D01*
X14315420Y-8204841D02*
X14296373Y-8195317D01*
X14296373Y-8195317D02*
X14267801Y-8195317D01*
X14267801Y-8195317D02*
X14248754Y-8185793D01*
X14248754Y-8185793D02*
X14239230Y-8166746D01*
X14239230Y-8166746D02*
X14239230Y-8157222D01*
X14239230Y-8157222D02*
X14248754Y-8138174D01*
X14248754Y-8138174D02*
X14267801Y-8128650D01*
X14267801Y-8128650D02*
X14296373Y-8128650D01*
X14296373Y-8128650D02*
X14315420Y-8138174D01*
X14391611Y-8338174D02*
X14401135Y-8328650D01*
X14401135Y-8328650D02*
X14420182Y-8300079D01*
X14420182Y-8300079D02*
X14429706Y-8281031D01*
X14429706Y-8281031D02*
X14439230Y-8252460D01*
X14439230Y-8252460D02*
X14448754Y-8204841D01*
X14448754Y-8204841D02*
X14448754Y-8166746D01*
X14448754Y-8166746D02*
X14439230Y-8119127D01*
X14439230Y-8119127D02*
X14429706Y-8090555D01*
X14429706Y-8090555D02*
X14420182Y-8071508D01*
X14420182Y-8071508D02*
X14401135Y-8042936D01*
X14401135Y-8042936D02*
X14391611Y-8033412D01*
D12*
X7987981Y-8457481D02*
X7987981Y-8411519D01*
X7942019Y-8411519D01*
X7942019Y-8457481D01*
X7987981Y-8457481D01*
D11*
X8296372Y-8325984D02*
X8315420Y-8325984D01*
X8315420Y-8325984D02*
X8334467Y-8335508D01*
X8334467Y-8335508D02*
X8343991Y-8345031D01*
X8343991Y-8345031D02*
X8353515Y-8364079D01*
X8353515Y-8364079D02*
X8363039Y-8402174D01*
X8363039Y-8402174D02*
X8363039Y-8449793D01*
X8363039Y-8449793D02*
X8353515Y-8487889D01*
X8353515Y-8487889D02*
X8343991Y-8506936D01*
X8343991Y-8506936D02*
X8334467Y-8516460D01*
X8334467Y-8516460D02*
X8315420Y-8525984D01*
X8315420Y-8525984D02*
X8296372Y-8525984D01*
X8296372Y-8525984D02*
X8277324Y-8516460D01*
X8277324Y-8516460D02*
X8267801Y-8506936D01*
X8267801Y-8506936D02*
X8258277Y-8487889D01*
X8258277Y-8487889D02*
X8248753Y-8449793D01*
X8248753Y-8449793D02*
X8248753Y-8402174D01*
X8248753Y-8402174D02*
X8258277Y-8364079D01*
X8258277Y-8364079D02*
X8267801Y-8345031D01*
X8267801Y-8345031D02*
X8277324Y-8335508D01*
X8277324Y-8335508D02*
X8296372Y-8325984D01*
X8448753Y-8506936D02*
X8458277Y-8516460D01*
X8458277Y-8516460D02*
X8448753Y-8525984D01*
X8448753Y-8525984D02*
X8439229Y-8516460D01*
X8439229Y-8516460D02*
X8448753Y-8506936D01*
X8448753Y-8506936D02*
X8448753Y-8525984D01*
X8629705Y-8325984D02*
X8591610Y-8325984D01*
X8591610Y-8325984D02*
X8572563Y-8335508D01*
X8572563Y-8335508D02*
X8563039Y-8345031D01*
X8563039Y-8345031D02*
X8543991Y-8373603D01*
X8543991Y-8373603D02*
X8534467Y-8411698D01*
X8534467Y-8411698D02*
X8534467Y-8487889D01*
X8534467Y-8487889D02*
X8543991Y-8506936D01*
X8543991Y-8506936D02*
X8553515Y-8516460D01*
X8553515Y-8516460D02*
X8572563Y-8525984D01*
X8572563Y-8525984D02*
X8610658Y-8525984D01*
X8610658Y-8525984D02*
X8629705Y-8516460D01*
X8629705Y-8516460D02*
X8639229Y-8506936D01*
X8639229Y-8506936D02*
X8648753Y-8487889D01*
X8648753Y-8487889D02*
X8648753Y-8440270D01*
X8648753Y-8440270D02*
X8639229Y-8421222D01*
X8639229Y-8421222D02*
X8629705Y-8411698D01*
X8629705Y-8411698D02*
X8610658Y-8402174D01*
X8610658Y-8402174D02*
X8572563Y-8402174D01*
X8572563Y-8402174D02*
X8553515Y-8411698D01*
X8553515Y-8411698D02*
X8543991Y-8421222D01*
X8543991Y-8421222D02*
X8534467Y-8440270D01*
X8829705Y-8325984D02*
X8734467Y-8325984D01*
X8734467Y-8325984D02*
X8724944Y-8421222D01*
X8724944Y-8421222D02*
X8734467Y-8411698D01*
X8734467Y-8411698D02*
X8753515Y-8402174D01*
X8753515Y-8402174D02*
X8801134Y-8402174D01*
X8801134Y-8402174D02*
X8820182Y-8411698D01*
X8820182Y-8411698D02*
X8829705Y-8421222D01*
X8829705Y-8421222D02*
X8839229Y-8440270D01*
X8839229Y-8440270D02*
X8839229Y-8487889D01*
X8839229Y-8487889D02*
X8829705Y-8506936D01*
X8829705Y-8506936D02*
X8820182Y-8516460D01*
X8820182Y-8516460D02*
X8801134Y-8525984D01*
X8801134Y-8525984D02*
X8753515Y-8525984D01*
X8753515Y-8525984D02*
X8734467Y-8516460D01*
X8734467Y-8516460D02*
X8724944Y-8506936D01*
X8963039Y-8325984D02*
X8982086Y-8325984D01*
X8982086Y-8325984D02*
X9001134Y-8335508D01*
X9001134Y-8335508D02*
X9010658Y-8345031D01*
X9010658Y-8345031D02*
X9020182Y-8364079D01*
X9020182Y-8364079D02*
X9029705Y-8402174D01*
X9029705Y-8402174D02*
X9029705Y-8449793D01*
X9029705Y-8449793D02*
X9020182Y-8487889D01*
X9020182Y-8487889D02*
X9010658Y-8506936D01*
X9010658Y-8506936D02*
X9001134Y-8516460D01*
X9001134Y-8516460D02*
X8982086Y-8525984D01*
X8982086Y-8525984D02*
X8963039Y-8525984D01*
X8963039Y-8525984D02*
X8943991Y-8516460D01*
X8943991Y-8516460D02*
X8934467Y-8506936D01*
X8934467Y-8506936D02*
X8924944Y-8487889D01*
X8924944Y-8487889D02*
X8915420Y-8449793D01*
X8915420Y-8449793D02*
X8915420Y-8402174D01*
X8915420Y-8402174D02*
X8924944Y-8364079D01*
X8924944Y-8364079D02*
X8934467Y-8345031D01*
X8934467Y-8345031D02*
X8943991Y-8335508D01*
X8943991Y-8335508D02*
X8963039Y-8325984D01*
X9115420Y-8525984D02*
X9115420Y-8392650D01*
X9115420Y-8411698D02*
X9124944Y-8402174D01*
X9124944Y-8402174D02*
X9143991Y-8392650D01*
X9143991Y-8392650D02*
X9172563Y-8392650D01*
X9172563Y-8392650D02*
X9191610Y-8402174D01*
X9191610Y-8402174D02*
X9201134Y-8421222D01*
X9201134Y-8421222D02*
X9201134Y-8525984D01*
X9201134Y-8421222D02*
X9210658Y-8402174D01*
X9210658Y-8402174D02*
X9229705Y-8392650D01*
X9229705Y-8392650D02*
X9258277Y-8392650D01*
X9258277Y-8392650D02*
X9277325Y-8402174D01*
X9277325Y-8402174D02*
X9286848Y-8421222D01*
X9286848Y-8421222D02*
X9286848Y-8525984D01*
X9382086Y-8525984D02*
X9382086Y-8392650D01*
X9382086Y-8411698D02*
X9391610Y-8402174D01*
X9391610Y-8402174D02*
X9410658Y-8392650D01*
X9410658Y-8392650D02*
X9439229Y-8392650D01*
X9439229Y-8392650D02*
X9458277Y-8402174D01*
X9458277Y-8402174D02*
X9467801Y-8421222D01*
X9467801Y-8421222D02*
X9467801Y-8525984D01*
X9467801Y-8421222D02*
X9477325Y-8402174D01*
X9477325Y-8402174D02*
X9496372Y-8392650D01*
X9496372Y-8392650D02*
X9524944Y-8392650D01*
X9524944Y-8392650D02*
X9543991Y-8402174D01*
X9543991Y-8402174D02*
X9553515Y-8421222D01*
X9553515Y-8421222D02*
X9553515Y-8525984D01*
X9943991Y-8316460D02*
X9772563Y-8573603D01*
X10201134Y-8325984D02*
X10220182Y-8325984D01*
X10220182Y-8325984D02*
X10239229Y-8335508D01*
X10239229Y-8335508D02*
X10248753Y-8345031D01*
X10248753Y-8345031D02*
X10258277Y-8364079D01*
X10258277Y-8364079D02*
X10267801Y-8402174D01*
X10267801Y-8402174D02*
X10267801Y-8449793D01*
X10267801Y-8449793D02*
X10258277Y-8487889D01*
X10258277Y-8487889D02*
X10248753Y-8506936D01*
X10248753Y-8506936D02*
X10239229Y-8516460D01*
X10239229Y-8516460D02*
X10220182Y-8525984D01*
X10220182Y-8525984D02*
X10201134Y-8525984D01*
X10201134Y-8525984D02*
X10182087Y-8516460D01*
X10182087Y-8516460D02*
X10172563Y-8506936D01*
X10172563Y-8506936D02*
X10163039Y-8487889D01*
X10163039Y-8487889D02*
X10153515Y-8449793D01*
X10153515Y-8449793D02*
X10153515Y-8402174D01*
X10153515Y-8402174D02*
X10163039Y-8364079D01*
X10163039Y-8364079D02*
X10172563Y-8345031D01*
X10172563Y-8345031D02*
X10182087Y-8335508D01*
X10182087Y-8335508D02*
X10201134Y-8325984D01*
X10353515Y-8506936D02*
X10363039Y-8516460D01*
X10363039Y-8516460D02*
X10353515Y-8525984D01*
X10353515Y-8525984D02*
X10343991Y-8516460D01*
X10343991Y-8516460D02*
X10353515Y-8506936D01*
X10353515Y-8506936D02*
X10353515Y-8525984D01*
X10486848Y-8325984D02*
X10505896Y-8325984D01*
X10505896Y-8325984D02*
X10524944Y-8335508D01*
X10524944Y-8335508D02*
X10534468Y-8345031D01*
X10534468Y-8345031D02*
X10543991Y-8364079D01*
X10543991Y-8364079D02*
X10553515Y-8402174D01*
X10553515Y-8402174D02*
X10553515Y-8449793D01*
X10553515Y-8449793D02*
X10543991Y-8487889D01*
X10543991Y-8487889D02*
X10534468Y-8506936D01*
X10534468Y-8506936D02*
X10524944Y-8516460D01*
X10524944Y-8516460D02*
X10505896Y-8525984D01*
X10505896Y-8525984D02*
X10486848Y-8525984D01*
X10486848Y-8525984D02*
X10467801Y-8516460D01*
X10467801Y-8516460D02*
X10458277Y-8506936D01*
X10458277Y-8506936D02*
X10448753Y-8487889D01*
X10448753Y-8487889D02*
X10439229Y-8449793D01*
X10439229Y-8449793D02*
X10439229Y-8402174D01*
X10439229Y-8402174D02*
X10448753Y-8364079D01*
X10448753Y-8364079D02*
X10458277Y-8345031D01*
X10458277Y-8345031D02*
X10467801Y-8335508D01*
X10467801Y-8335508D02*
X10486848Y-8325984D01*
X10629706Y-8345031D02*
X10639229Y-8335508D01*
X10639229Y-8335508D02*
X10658277Y-8325984D01*
X10658277Y-8325984D02*
X10705896Y-8325984D01*
X10705896Y-8325984D02*
X10724944Y-8335508D01*
X10724944Y-8335508D02*
X10734468Y-8345031D01*
X10734468Y-8345031D02*
X10743991Y-8364079D01*
X10743991Y-8364079D02*
X10743991Y-8383127D01*
X10743991Y-8383127D02*
X10734468Y-8411698D01*
X10734468Y-8411698D02*
X10620182Y-8525984D01*
X10620182Y-8525984D02*
X10743991Y-8525984D01*
X10924944Y-8325984D02*
X10829706Y-8325984D01*
X10829706Y-8325984D02*
X10820182Y-8421222D01*
X10820182Y-8421222D02*
X10829706Y-8411698D01*
X10829706Y-8411698D02*
X10848753Y-8402174D01*
X10848753Y-8402174D02*
X10896372Y-8402174D01*
X10896372Y-8402174D02*
X10915420Y-8411698D01*
X10915420Y-8411698D02*
X10924944Y-8421222D01*
X10924944Y-8421222D02*
X10934468Y-8440270D01*
X10934468Y-8440270D02*
X10934468Y-8487889D01*
X10934468Y-8487889D02*
X10924944Y-8506936D01*
X10924944Y-8506936D02*
X10915420Y-8516460D01*
X10915420Y-8516460D02*
X10896372Y-8525984D01*
X10896372Y-8525984D02*
X10848753Y-8525984D01*
X10848753Y-8525984D02*
X10829706Y-8516460D01*
X10829706Y-8516460D02*
X10820182Y-8506936D01*
X11105896Y-8325984D02*
X11067801Y-8325984D01*
X11067801Y-8325984D02*
X11048753Y-8335508D01*
X11048753Y-8335508D02*
X11039229Y-8345031D01*
X11039229Y-8345031D02*
X11020182Y-8373603D01*
X11020182Y-8373603D02*
X11010658Y-8411698D01*
X11010658Y-8411698D02*
X11010658Y-8487889D01*
X11010658Y-8487889D02*
X11020182Y-8506936D01*
X11020182Y-8506936D02*
X11029706Y-8516460D01*
X11029706Y-8516460D02*
X11048753Y-8525984D01*
X11048753Y-8525984D02*
X11086849Y-8525984D01*
X11086849Y-8525984D02*
X11105896Y-8516460D01*
X11105896Y-8516460D02*
X11115420Y-8506936D01*
X11115420Y-8506936D02*
X11124944Y-8487889D01*
X11124944Y-8487889D02*
X11124944Y-8440270D01*
X11124944Y-8440270D02*
X11115420Y-8421222D01*
X11115420Y-8421222D02*
X11105896Y-8411698D01*
X11105896Y-8411698D02*
X11086849Y-8402174D01*
X11086849Y-8402174D02*
X11048753Y-8402174D01*
X11048753Y-8402174D02*
X11029706Y-8411698D01*
X11029706Y-8411698D02*
X11020182Y-8421222D01*
X11020182Y-8421222D02*
X11010658Y-8440270D01*
X11201134Y-8325984D02*
X11201134Y-8364079D01*
X11277325Y-8325984D02*
X11277325Y-8364079D01*
X11572563Y-8602174D02*
X11563039Y-8592650D01*
X11563039Y-8592650D02*
X11543991Y-8564079D01*
X11543991Y-8564079D02*
X11534468Y-8545031D01*
X11534468Y-8545031D02*
X11524944Y-8516460D01*
X11524944Y-8516460D02*
X11515420Y-8468841D01*
X11515420Y-8468841D02*
X11515420Y-8430746D01*
X11515420Y-8430746D02*
X11524944Y-8383127D01*
X11524944Y-8383127D02*
X11534468Y-8354555D01*
X11534468Y-8354555D02*
X11543991Y-8335508D01*
X11543991Y-8335508D02*
X11563039Y-8306936D01*
X11563039Y-8306936D02*
X11572563Y-8297412D01*
X11639229Y-8345031D02*
X11648753Y-8335508D01*
X11648753Y-8335508D02*
X11667801Y-8325984D01*
X11667801Y-8325984D02*
X11715420Y-8325984D01*
X11715420Y-8325984D02*
X11734468Y-8335508D01*
X11734468Y-8335508D02*
X11743991Y-8345031D01*
X11743991Y-8345031D02*
X11753515Y-8364079D01*
X11753515Y-8364079D02*
X11753515Y-8383127D01*
X11753515Y-8383127D02*
X11743991Y-8411698D01*
X11743991Y-8411698D02*
X11629706Y-8525984D01*
X11629706Y-8525984D02*
X11753515Y-8525984D01*
X11924944Y-8392650D02*
X11924944Y-8525984D01*
X11877325Y-8316460D02*
X11829706Y-8459317D01*
X11829706Y-8459317D02*
X11953515Y-8459317D01*
X12182087Y-8525984D02*
X12182087Y-8325984D01*
X12267801Y-8525984D02*
X12267801Y-8421222D01*
X12267801Y-8421222D02*
X12258277Y-8402174D01*
X12258277Y-8402174D02*
X12239230Y-8392650D01*
X12239230Y-8392650D02*
X12210658Y-8392650D01*
X12210658Y-8392650D02*
X12191610Y-8402174D01*
X12191610Y-8402174D02*
X12182087Y-8411698D01*
X12391610Y-8525984D02*
X12372563Y-8516460D01*
X12372563Y-8516460D02*
X12363039Y-8506936D01*
X12363039Y-8506936D02*
X12353515Y-8487889D01*
X12353515Y-8487889D02*
X12353515Y-8430746D01*
X12353515Y-8430746D02*
X12363039Y-8411698D01*
X12363039Y-8411698D02*
X12372563Y-8402174D01*
X12372563Y-8402174D02*
X12391610Y-8392650D01*
X12391610Y-8392650D02*
X12420182Y-8392650D01*
X12420182Y-8392650D02*
X12439230Y-8402174D01*
X12439230Y-8402174D02*
X12448753Y-8411698D01*
X12448753Y-8411698D02*
X12458277Y-8430746D01*
X12458277Y-8430746D02*
X12458277Y-8487889D01*
X12458277Y-8487889D02*
X12448753Y-8506936D01*
X12448753Y-8506936D02*
X12439230Y-8516460D01*
X12439230Y-8516460D02*
X12420182Y-8525984D01*
X12420182Y-8525984D02*
X12391610Y-8525984D01*
X12572563Y-8525984D02*
X12553515Y-8516460D01*
X12553515Y-8516460D02*
X12543991Y-8497412D01*
X12543991Y-8497412D02*
X12543991Y-8325984D01*
X12724944Y-8516460D02*
X12705896Y-8525984D01*
X12705896Y-8525984D02*
X12667801Y-8525984D01*
X12667801Y-8525984D02*
X12648753Y-8516460D01*
X12648753Y-8516460D02*
X12639230Y-8497412D01*
X12639230Y-8497412D02*
X12639230Y-8421222D01*
X12639230Y-8421222D02*
X12648753Y-8402174D01*
X12648753Y-8402174D02*
X12667801Y-8392650D01*
X12667801Y-8392650D02*
X12705896Y-8392650D01*
X12705896Y-8392650D02*
X12724944Y-8402174D01*
X12724944Y-8402174D02*
X12734468Y-8421222D01*
X12734468Y-8421222D02*
X12734468Y-8440270D01*
X12734468Y-8440270D02*
X12639230Y-8459317D01*
X12810658Y-8516460D02*
X12829706Y-8525984D01*
X12829706Y-8525984D02*
X12867801Y-8525984D01*
X12867801Y-8525984D02*
X12886849Y-8516460D01*
X12886849Y-8516460D02*
X12896372Y-8497412D01*
X12896372Y-8497412D02*
X12896372Y-8487889D01*
X12896372Y-8487889D02*
X12886849Y-8468841D01*
X12886849Y-8468841D02*
X12867801Y-8459317D01*
X12867801Y-8459317D02*
X12839230Y-8459317D01*
X12839230Y-8459317D02*
X12820182Y-8449793D01*
X12820182Y-8449793D02*
X12810658Y-8430746D01*
X12810658Y-8430746D02*
X12810658Y-8421222D01*
X12810658Y-8421222D02*
X12820182Y-8402174D01*
X12820182Y-8402174D02*
X12839230Y-8392650D01*
X12839230Y-8392650D02*
X12867801Y-8392650D01*
X12867801Y-8392650D02*
X12886849Y-8402174D01*
X12963039Y-8602174D02*
X12972563Y-8592650D01*
X12972563Y-8592650D02*
X12991611Y-8564079D01*
X12991611Y-8564079D02*
X13001134Y-8545031D01*
X13001134Y-8545031D02*
X13010658Y-8516460D01*
X13010658Y-8516460D02*
X13020182Y-8468841D01*
X13020182Y-8468841D02*
X13020182Y-8430746D01*
X13020182Y-8430746D02*
X13010658Y-8383127D01*
X13010658Y-8383127D02*
X13001134Y-8354555D01*
X13001134Y-8354555D02*
X12991611Y-8335508D01*
X12991611Y-8335508D02*
X12972563Y-8306936D01*
X12972563Y-8306936D02*
X12963039Y-8297412D01*
M02*
