G04 #@! TF.GenerationSoftware,KiCad,Pcbnew,8.0.5*
G04 #@! TF.CreationDate,2024-11-30T21:19:48+05:30*
G04 #@! TF.ProjectId,SNSRTG401V30,534e5352-5447-4343-9031-5633302e6b69,3.0*
G04 #@! TF.SameCoordinates,Original*
G04 #@! TF.FileFunction,Soldermask,Bot*
G04 #@! TF.FilePolarity,Negative*
%FSLAX46Y46*%
G04 Gerber Fmt 4.6, Leading zero omitted, Abs format (unit mm)*
G04 Created by KiCad (PCBNEW 8.0.5) date 2024-11-30 21:19:48*
%MOMM*%
%LPD*%
G01*
G04 APERTURE LIST*
G04 Aperture macros list*
%AMRoundRect*
0 Rectangle with rounded corners*
0 $1 Rounding radius*
0 $2 $3 $4 $5 $6 $7 $8 $9 X,Y pos of 4 corners*
0 Add a 4 corners polygon primitive as box body*
4,1,4,$2,$3,$4,$5,$6,$7,$8,$9,$2,$3,0*
0 Add four circle primitives for the rounded corners*
1,1,$1+$1,$2,$3*
1,1,$1+$1,$4,$5*
1,1,$1+$1,$6,$7*
1,1,$1+$1,$8,$9*
0 Add four rect primitives between the rounded corners*
20,1,$1+$1,$2,$3,$4,$5,0*
20,1,$1+$1,$4,$5,$6,$7,0*
20,1,$1+$1,$6,$7,$8,$9,0*
20,1,$1+$1,$8,$9,$2,$3,0*%
G04 Aperture macros list end*
%ADD10R,0.850000X0.850000*%
%ADD11O,0.850000X0.850000*%
%ADD12C,3.200000*%
%ADD13R,1.000000X1.000000*%
%ADD14O,1.000000X1.000000*%
%ADD15C,0.800000*%
%ADD16C,0.650000*%
%ADD17O,2.100000X1.000000*%
%ADD18O,1.800000X1.000000*%
%ADD19RoundRect,0.200000X-0.700000X-0.400000X0.700000X-0.400000X0.700000X0.400000X-0.700000X0.400000X0*%
%ADD20RoundRect,0.200000X-0.400000X-0.700000X0.400000X-0.700000X0.400000X0.700000X-0.400000X0.700000X0*%
%ADD21C,0.400000*%
G04 APERTURE END LIST*
D10*
X114650000Y-67960000D03*
D11*
X114650000Y-66960000D03*
X114650000Y-65960000D03*
X114650000Y-64960000D03*
D12*
X83500000Y-66500000D03*
X120500000Y-29500000D03*
D13*
X88620600Y-53721000D03*
D14*
X87350600Y-53721000D03*
X86080600Y-53721000D03*
X84810600Y-53721000D03*
D10*
X96102800Y-63779400D03*
D11*
X97102800Y-63779400D03*
X98102800Y-63779400D03*
X99102800Y-63779400D03*
X100102800Y-63779400D03*
X101102800Y-63779400D03*
D13*
X88392000Y-44069000D03*
D14*
X88392000Y-45339000D03*
X88392000Y-46609000D03*
X88392000Y-47879000D03*
D13*
X96748600Y-67200000D03*
D14*
X98018600Y-67200000D03*
X99288600Y-67200000D03*
X100558600Y-67200000D03*
X101828600Y-67200000D03*
X103098600Y-67200000D03*
D13*
X107061000Y-67200000D03*
D14*
X108331000Y-67200000D03*
X109601000Y-67200000D03*
X110871000Y-67200000D03*
D12*
X120500000Y-66500000D03*
D15*
X91347467Y-59090433D03*
D13*
X110240000Y-42418000D03*
D14*
X111510000Y-42418000D03*
X112780000Y-42418000D03*
X114050000Y-42418000D03*
D12*
X83500000Y-29500000D03*
D16*
X118620000Y-52210000D03*
X118620000Y-46430000D03*
D17*
X118120000Y-53640000D03*
D18*
X122300000Y-53640000D03*
D17*
X118120000Y-45000000D03*
D18*
X122300000Y-45000000D03*
D13*
X119456200Y-60550000D03*
D14*
X120726200Y-60550000D03*
D19*
X113441000Y-26838000D03*
X113441000Y-28338000D03*
X113441000Y-29838000D03*
X113441000Y-31338000D03*
X113441000Y-32838000D03*
X113441000Y-34338000D03*
X113441000Y-35838000D03*
X113441000Y-37338000D03*
D20*
X111591000Y-38438000D03*
X110091000Y-38438000D03*
X108591000Y-38438000D03*
X107091000Y-38438000D03*
X105591000Y-38438000D03*
X104091000Y-38438000D03*
X102591000Y-38438000D03*
X101091000Y-38438000D03*
D19*
X99241000Y-37338000D03*
X99241000Y-35838000D03*
X99241000Y-34338000D03*
X99241000Y-32838000D03*
X99241000Y-31338000D03*
X99241000Y-29838000D03*
X99241000Y-28338000D03*
X99241000Y-26838000D03*
D21*
X95894700Y-46308500D03*
X115761300Y-50570000D03*
X101610000Y-28260000D03*
X115899600Y-49976800D03*
X115846900Y-48070500D03*
X109598100Y-49615400D03*
X109867500Y-52241000D03*
X106636000Y-42631600D03*
X90149600Y-49451200D03*
X116559600Y-48173500D03*
X109016300Y-55121100D03*
X99497500Y-51500900D03*
X90670300Y-45273100D03*
X115173300Y-50648900D03*
X110242500Y-50496700D03*
X100477900Y-50444100D03*
X103636600Y-50396600D03*
X85239500Y-59350000D03*
X89178800Y-63601700D03*
X103900200Y-42179200D03*
X107283200Y-54321600D03*
X109615700Y-57220000D03*
X107464300Y-52171000D03*
X104457700Y-42031600D03*
X95327300Y-49345200D03*
X94919800Y-50172500D03*
X102563600Y-41941000D03*
X97481400Y-41618900D03*
X98267400Y-50407900D03*
X96922600Y-36763900D03*
X98854200Y-55372600D03*
X96500500Y-37174600D03*
X96631000Y-50154600D03*
X92936600Y-29047200D03*
X106431000Y-48506600D03*
X112970400Y-60133800D03*
X104373100Y-46920000D03*
X99714500Y-56297800D03*
X104376600Y-45609500D03*
X102233200Y-55871100D03*
X104624500Y-47768000D03*
X101422400Y-50421200D03*
X93383200Y-57376500D03*
X103373500Y-49469500D03*
X94848500Y-56949800D03*
X109596800Y-44420000D03*
X114973500Y-49508600D03*
X116269000Y-49070000D03*
X104909700Y-42971200D03*
X95898600Y-48221500D03*
X97988600Y-36205900D03*
X101390000Y-41600000D03*
X95864800Y-47669700D03*
X97352100Y-36317100D03*
X98398500Y-41928300D03*
X105636400Y-34546700D03*
X82373700Y-41906000D03*
X114877300Y-45920000D03*
X112066800Y-53635900D03*
X106915800Y-40699800D03*
M02*
