G04 #@! TF.GenerationSoftware,KiCad,Pcbnew,8.0.7*
G04 #@! TF.CreationDate,2024-12-11T19:40:25+05:30*
G04 #@! TF.ProjectId,SNSRTG401V30,534e5352-5447-4343-9031-5633302e6b69,3.0*
G04 #@! TF.SameCoordinates,Original*
G04 #@! TF.FileFunction,Other,User*
%FSLAX46Y46*%
G04 Gerber Fmt 4.6, Leading zero omitted, Abs format (unit mm)*
G04 Created by KiCad (PCBNEW 8.0.7) date 2024-12-11 19:40:25*
%MOMM*%
%LPD*%
G01*
G04 APERTURE LIST*
%ADD10C,0.050000*%
G04 APERTURE END LIST*
D10*
X110697200Y-54010000D02*
X113997200Y-54010000D01*
X110697200Y-55470000D02*
X110697200Y-54010000D01*
X113997200Y-54010000D02*
X113997200Y-55470000D01*
X113997200Y-55470000D02*
X110697200Y-55470000D01*
X85575500Y-56547000D02*
X88875500Y-56547000D01*
X85575500Y-58007000D02*
X85575500Y-56547000D01*
X88875500Y-56547000D02*
X88875500Y-58007000D01*
X88875500Y-58007000D02*
X85575500Y-58007000D01*
X113500000Y-63960000D02*
X113500000Y-68960000D01*
X113500000Y-68960000D02*
X115800000Y-68960000D01*
X115800000Y-63960000D02*
X113500000Y-63960000D01*
X115800000Y-68960000D02*
X115800000Y-63960000D01*
X86950000Y-66500000D02*
G75*
G02*
X80050000Y-66500000I-3450000J0D01*
G01*
X80050000Y-66500000D02*
G75*
G02*
X86950000Y-66500000I3450000J0D01*
G01*
X91050000Y-52650000D02*
X94350000Y-52650000D01*
X91050000Y-54110000D02*
X91050000Y-52650000D01*
X94350000Y-52650000D02*
X94350000Y-54110000D01*
X94350000Y-54110000D02*
X91050000Y-54110000D01*
X100235000Y-36857500D02*
X101695000Y-36857500D01*
X100235000Y-40157500D02*
X100235000Y-36857500D01*
X101695000Y-36857500D02*
X101695000Y-40157500D01*
X101695000Y-40157500D02*
X100235000Y-40157500D01*
X123950000Y-29500000D02*
G75*
G02*
X117050000Y-29500000I-3450000J0D01*
G01*
X117050000Y-29500000D02*
G75*
G02*
X123950000Y-29500000I3450000J0D01*
G01*
X96806000Y-36858300D02*
X98266000Y-36858300D01*
X96806000Y-40158300D02*
X96806000Y-36858300D01*
X98266000Y-36858300D02*
X98266000Y-40158300D01*
X98266000Y-40158300D02*
X96806000Y-40158300D01*
X119250000Y-55120000D02*
X122550000Y-55120000D01*
X119250000Y-56580000D02*
X119250000Y-55120000D01*
X122550000Y-55120000D02*
X122550000Y-56580000D01*
X122550000Y-56580000D02*
X119250000Y-56580000D01*
X107163800Y-57382000D02*
X108623800Y-57382000D01*
X107163800Y-60682000D02*
X107163800Y-57382000D01*
X108623800Y-57382000D02*
X108623800Y-60682000D01*
X108623800Y-60682000D02*
X107163800Y-60682000D01*
X98539900Y-36858300D02*
X99999900Y-36858300D01*
X98539900Y-40158300D02*
X98539900Y-36858300D01*
X99999900Y-36858300D02*
X99999900Y-40158300D01*
X99999900Y-40158300D02*
X98539900Y-40158300D01*
X83670600Y-52171000D02*
X83670600Y-55271000D01*
X83670600Y-55271000D02*
X89770600Y-55271000D01*
X89770600Y-52171000D02*
X83670600Y-52171000D01*
X89770600Y-55271000D02*
X89770600Y-52171000D01*
X90837500Y-33519400D02*
X95437500Y-33519400D01*
X90837500Y-35619400D02*
X90837500Y-33519400D01*
X95437500Y-33519400D02*
X95437500Y-35619400D01*
X95437500Y-35619400D02*
X90837500Y-35619400D01*
X106220000Y-46882500D02*
X107680000Y-46882500D01*
X106220000Y-50182500D02*
X106220000Y-46882500D01*
X107680000Y-46882500D02*
X107680000Y-50182500D01*
X107680000Y-50182500D02*
X106220000Y-50182500D01*
X95102800Y-62629400D02*
X95102800Y-64929400D01*
X95102800Y-64929400D02*
X102102800Y-64929400D01*
X102102800Y-62629400D02*
X95102800Y-62629400D01*
X102102800Y-64929400D02*
X102102800Y-62629400D01*
X112181800Y-61398400D02*
X115481800Y-61398400D01*
X112181800Y-62858400D02*
X112181800Y-61398400D01*
X115481800Y-61398400D02*
X115481800Y-62858400D01*
X115481800Y-62858400D02*
X112181800Y-62858400D01*
X86842000Y-42919000D02*
X86842000Y-49019000D01*
X86842000Y-49019000D02*
X89942000Y-49019000D01*
X89942000Y-42919000D02*
X86842000Y-42919000D01*
X89942000Y-49019000D02*
X89942000Y-42919000D01*
X90974000Y-40976800D02*
X94274000Y-40976800D01*
X90974000Y-42436800D02*
X90974000Y-40976800D01*
X94274000Y-40976800D02*
X94274000Y-42436800D01*
X94274000Y-42436800D02*
X90974000Y-42436800D01*
X103471000Y-35596800D02*
X105571000Y-35596800D01*
X103471000Y-40196800D02*
X103471000Y-35596800D01*
X105571000Y-35596800D02*
X105571000Y-40196800D01*
X105571000Y-40196800D02*
X103471000Y-40196800D01*
X91274000Y-42847600D02*
X91274000Y-45747600D01*
X91274000Y-45747600D02*
X94274000Y-45747600D01*
X94274000Y-42847600D02*
X91274000Y-42847600D01*
X94274000Y-45747600D02*
X94274000Y-42847600D01*
X91034000Y-27218000D02*
X94834000Y-27218000D01*
X91034000Y-33018000D02*
X91034000Y-27218000D01*
X94834000Y-27218000D02*
X94834000Y-33018000D01*
X94834000Y-33018000D02*
X91034000Y-33018000D01*
X105322500Y-51480000D02*
X105322500Y-54880000D01*
X105322500Y-54880000D02*
X109422500Y-54880000D01*
X109422500Y-51480000D02*
X105322500Y-51480000D01*
X109422500Y-54880000D02*
X109422500Y-51480000D01*
X89490800Y-36932600D02*
X90950800Y-36932600D01*
X89490800Y-40232600D02*
X89490800Y-36932600D01*
X90950800Y-36932600D02*
X90950800Y-40232600D01*
X90950800Y-40232600D02*
X89490800Y-40232600D01*
X88551000Y-31649400D02*
X90011000Y-31649400D01*
X88551000Y-34949400D02*
X88551000Y-31649400D01*
X90011000Y-31649400D02*
X90011000Y-34949400D01*
X90011000Y-34949400D02*
X88551000Y-34949400D01*
X121170000Y-40087500D02*
X122630000Y-40087500D01*
X121170000Y-43387500D02*
X121170000Y-40087500D01*
X122630000Y-40087500D02*
X122630000Y-43387500D01*
X122630000Y-43387500D02*
X121170000Y-43387500D01*
X92945200Y-36932600D02*
X94405200Y-36932600D01*
X92945200Y-40232600D02*
X92945200Y-36932600D01*
X94405200Y-36932600D02*
X94405200Y-40232600D01*
X94405200Y-40232600D02*
X92945200Y-40232600D01*
X91274000Y-48816600D02*
X91274000Y-51716600D01*
X91274000Y-51716600D02*
X94274000Y-51716600D01*
X94274000Y-48816600D02*
X91274000Y-48816600D01*
X94274000Y-51716600D02*
X94274000Y-48816600D01*
X116407500Y-34025000D02*
X116407500Y-37525000D01*
X116407500Y-37525000D02*
X122767500Y-37525000D01*
X122767500Y-34025000D02*
X116407500Y-34025000D01*
X122767500Y-37525000D02*
X122767500Y-34025000D01*
X89227500Y-67740000D02*
X92527500Y-67740000D01*
X89227500Y-69200000D02*
X89227500Y-67740000D01*
X92527500Y-67740000D02*
X92527500Y-69200000D01*
X92527500Y-69200000D02*
X89227500Y-69200000D01*
X116392500Y-40010000D02*
X116392500Y-43410000D01*
X116392500Y-43410000D02*
X120492500Y-43410000D01*
X120492500Y-40010000D02*
X116392500Y-40010000D01*
X120492500Y-43410000D02*
X120492500Y-40010000D01*
X97534000Y-55424000D02*
X97534000Y-61924000D01*
X97534000Y-61924000D02*
X106174000Y-61924000D01*
X106174000Y-55424000D02*
X97534000Y-55424000D01*
X106174000Y-61924000D02*
X106174000Y-55424000D01*
X97568000Y-32235500D02*
X99028000Y-32235500D01*
X97568000Y-35535500D02*
X97568000Y-32235500D01*
X99028000Y-32235500D02*
X99028000Y-35535500D01*
X99028000Y-35535500D02*
X97568000Y-35535500D01*
X95598600Y-65650000D02*
X95598600Y-68750000D01*
X95598600Y-68750000D02*
X104248600Y-68750000D01*
X104248600Y-65650000D02*
X95598600Y-65650000D01*
X104248600Y-68750000D02*
X104248600Y-65650000D01*
X96010000Y-42050000D02*
X96010000Y-50290000D01*
X96010000Y-50290000D02*
X104250000Y-50290000D01*
X104250000Y-42050000D02*
X96010000Y-42050000D01*
X104250000Y-50290000D02*
X104250000Y-42050000D01*
X115357500Y-37960000D02*
X118657500Y-37960000D01*
X115357500Y-39420000D02*
X115357500Y-37960000D01*
X118657500Y-37960000D02*
X118657500Y-39420000D01*
X118657500Y-39420000D02*
X115357500Y-39420000D01*
X110170000Y-47192800D02*
X114770000Y-47192800D01*
X110170000Y-49292800D02*
X110170000Y-47192800D01*
X114770000Y-47192800D02*
X114770000Y-49292800D01*
X114770000Y-49292800D02*
X110170000Y-49292800D01*
X95330000Y-54355000D02*
X96790000Y-54355000D01*
X95330000Y-57655000D02*
X95330000Y-54355000D01*
X96790000Y-54355000D02*
X96790000Y-57655000D01*
X96790000Y-57655000D02*
X95330000Y-57655000D01*
X107976200Y-46882500D02*
X109436200Y-46882500D01*
X107976200Y-50182500D02*
X107976200Y-46882500D01*
X109436200Y-46882500D02*
X109436200Y-50182500D01*
X109436200Y-50182500D02*
X107976200Y-50182500D01*
X105911000Y-65650000D02*
X105911000Y-68750000D01*
X105911000Y-68750000D02*
X112011000Y-68750000D01*
X112011000Y-65650000D02*
X105911000Y-65650000D01*
X112011000Y-68750000D02*
X112011000Y-65650000D01*
X119312500Y-37970000D02*
X122612500Y-37970000D01*
X119312500Y-39430000D02*
X119312500Y-37970000D01*
X122612500Y-37970000D02*
X122612500Y-39430000D01*
X122612500Y-39430000D02*
X119312500Y-39430000D01*
X88460000Y-67340000D02*
X88460000Y-63740000D01*
X88460000Y-67340000D02*
X93960000Y-67340000D01*
X93960000Y-63740000D02*
X88460000Y-63740000D01*
X93960000Y-63740000D02*
X93960000Y-67340000D01*
X106011000Y-35596800D02*
X108111000Y-35596800D01*
X106011000Y-40196800D02*
X106011000Y-35596800D01*
X108111000Y-35596800D02*
X108111000Y-40196800D01*
X108111000Y-40196800D02*
X106011000Y-40196800D01*
X123950000Y-66500000D02*
G75*
G02*
X117050000Y-66500000I-3450000J0D01*
G01*
X117050000Y-66500000D02*
G75*
G02*
X123950000Y-66500000I3450000J0D01*
G01*
X88999873Y-58963153D02*
X92181853Y-55781173D01*
X91474747Y-61438027D02*
X88999873Y-58963153D01*
X92181853Y-55781173D02*
X94656727Y-58256047D01*
X94656727Y-58256047D02*
X91474747Y-61438027D01*
X91218000Y-36932600D02*
X92678000Y-36932600D01*
X91218000Y-40232600D02*
X91218000Y-36932600D01*
X92678000Y-36932600D02*
X92678000Y-40232600D01*
X92678000Y-40232600D02*
X91218000Y-40232600D01*
X84757500Y-60410000D02*
X88057500Y-60410000D01*
X84757500Y-61870000D02*
X84757500Y-60410000D01*
X88057500Y-60410000D02*
X88057500Y-61870000D01*
X88057500Y-61870000D02*
X84757500Y-61870000D01*
X86513400Y-49765200D02*
X89813400Y-49765200D01*
X86513400Y-51225200D02*
X86513400Y-49765200D01*
X89813400Y-49765200D02*
X89813400Y-51225200D01*
X89813400Y-51225200D02*
X86513400Y-51225200D01*
X109090000Y-40868000D02*
X109090000Y-43968000D01*
X109090000Y-43968000D02*
X115190000Y-43968000D01*
X115190000Y-40868000D02*
X109090000Y-40868000D01*
X115190000Y-43968000D02*
X115190000Y-40868000D01*
X80981800Y-34646600D02*
X82441800Y-34646600D01*
X80981800Y-37946600D02*
X80981800Y-34646600D01*
X82441800Y-34646600D02*
X82441800Y-37946600D01*
X82441800Y-37946600D02*
X80981800Y-37946600D01*
X108551000Y-35596800D02*
X110651000Y-35596800D01*
X108551000Y-40196800D02*
X108551000Y-35596800D01*
X110651000Y-35596800D02*
X110651000Y-40196800D01*
X110651000Y-40196800D02*
X108551000Y-40196800D01*
X116520000Y-55187500D02*
X117980000Y-55187500D01*
X116520000Y-58487500D02*
X116520000Y-55187500D01*
X117980000Y-55187500D02*
X117980000Y-58487500D01*
X117980000Y-58487500D02*
X116520000Y-58487500D01*
X83298000Y-34424000D02*
X83298000Y-41864000D01*
X83298000Y-41864000D02*
X87898000Y-41864000D01*
X87898000Y-34424000D02*
X83298000Y-34424000D01*
X87898000Y-41864000D02*
X87898000Y-34424000D01*
X99777800Y-27675600D02*
X101237800Y-27675600D01*
X99777800Y-30975600D02*
X99777800Y-27675600D01*
X101237800Y-27675600D02*
X101237800Y-30975600D01*
X101237800Y-30975600D02*
X99777800Y-30975600D01*
X90974000Y-46463200D02*
X94274000Y-46463200D01*
X90974000Y-47923200D02*
X90974000Y-46463200D01*
X94274000Y-46463200D02*
X94274000Y-47923200D01*
X94274000Y-47923200D02*
X90974000Y-47923200D01*
X112634200Y-36169200D02*
X114594200Y-36169200D01*
X112634200Y-39929200D02*
X112634200Y-36169200D01*
X114594200Y-36169200D02*
X114594200Y-39929200D01*
X114594200Y-39929200D02*
X112634200Y-39929200D01*
X99803200Y-32235500D02*
X101263200Y-32235500D01*
X99803200Y-35535500D02*
X99803200Y-32235500D01*
X101263200Y-32235500D02*
X101263200Y-35535500D01*
X101263200Y-35535500D02*
X99803200Y-35535500D01*
X110362500Y-50090000D02*
X110362500Y-53490000D01*
X110362500Y-53490000D02*
X114462500Y-53490000D01*
X114462500Y-50090000D02*
X110362500Y-50090000D01*
X114462500Y-53490000D02*
X114462500Y-50090000D01*
X112706400Y-27712400D02*
X114166400Y-27712400D01*
X112706400Y-31012400D02*
X112706400Y-27712400D01*
X114166400Y-27712400D02*
X114166400Y-31012400D01*
X114166400Y-31012400D02*
X112706400Y-31012400D01*
X99317500Y-52610000D02*
X104277500Y-52610000D01*
X99317500Y-54910000D02*
X99317500Y-52610000D01*
X104277500Y-52610000D02*
X104277500Y-54910000D01*
X104277500Y-54910000D02*
X99317500Y-54910000D01*
X119250000Y-56975000D02*
X122550000Y-56975000D01*
X119250000Y-58435000D02*
X119250000Y-56975000D01*
X122550000Y-56975000D02*
X122550000Y-58435000D01*
X122550000Y-58435000D02*
X119250000Y-58435000D01*
X110170000Y-44870000D02*
X114770000Y-44870000D01*
X110170000Y-46970000D02*
X110170000Y-44870000D01*
X114770000Y-44870000D02*
X114770000Y-46970000D01*
X114770000Y-46970000D02*
X110170000Y-46970000D01*
X81265000Y-58835000D02*
X84085000Y-58835000D01*
X81265000Y-61915000D02*
X81265000Y-58835000D01*
X84085000Y-58835000D02*
X84085000Y-61915000D01*
X84085000Y-61915000D02*
X81265000Y-61915000D01*
X107341400Y-63735200D02*
X110641400Y-63735200D01*
X107341400Y-65195200D02*
X107341400Y-63735200D01*
X110641400Y-63735200D02*
X110641400Y-65195200D01*
X110641400Y-65195200D02*
X107341400Y-65195200D01*
X86950000Y-29500000D02*
G75*
G02*
X80050000Y-29500000I-3450000J0D01*
G01*
X80050000Y-29500000D02*
G75*
G02*
X86950000Y-29500000I3450000J0D01*
G01*
X80981800Y-38482000D02*
X82441800Y-38482000D01*
X80981800Y-41782000D02*
X80981800Y-38482000D01*
X82441800Y-38482000D02*
X82441800Y-41782000D01*
X82441800Y-41782000D02*
X80981800Y-41782000D01*
X97542600Y-27675600D02*
X99002600Y-27675600D01*
X97542600Y-30975600D02*
X97542600Y-27675600D01*
X99002600Y-27675600D02*
X99002600Y-30975600D01*
X99002600Y-30975600D02*
X97542600Y-30975600D01*
X80981800Y-51918600D02*
X82441800Y-51918600D01*
X80981800Y-55218600D02*
X80981800Y-51918600D01*
X82441800Y-51918600D02*
X82441800Y-55218600D01*
X82441800Y-55218600D02*
X80981800Y-55218600D01*
X109247400Y-56626400D02*
X113347400Y-56626400D01*
X109247400Y-60726400D02*
X109247400Y-56626400D01*
X113347400Y-56626400D02*
X113347400Y-60726400D01*
X113347400Y-60726400D02*
X109247400Y-60726400D01*
X108429300Y-61398400D02*
X111729300Y-61398400D01*
X108429300Y-62858400D02*
X108429300Y-61398400D01*
X111729300Y-61398400D02*
X111729300Y-62858400D01*
X111729300Y-62858400D02*
X108429300Y-62858400D01*
X106640000Y-40997500D02*
X108100000Y-40997500D01*
X106640000Y-44297500D02*
X106640000Y-40997500D01*
X108100000Y-40997500D02*
X108100000Y-44297500D01*
X108100000Y-44297500D02*
X106640000Y-44297500D01*
X109653400Y-31248400D02*
X109853400Y-31248400D01*
X109653400Y-31548400D02*
X109653400Y-31248400D01*
X109853400Y-31248400D02*
X109853400Y-31548400D01*
X109853400Y-31548400D02*
X109653400Y-31548400D01*
X81307500Y-56547000D02*
X84607500Y-56547000D01*
X81307500Y-58007000D02*
X81307500Y-56547000D01*
X84607500Y-56547000D02*
X84607500Y-58007000D01*
X84607500Y-58007000D02*
X81307500Y-58007000D01*
X102894500Y-62795400D02*
X106194500Y-62795400D01*
X102894500Y-64255400D02*
X102894500Y-62795400D01*
X106194500Y-62795400D02*
X106194500Y-64255400D01*
X106194500Y-64255400D02*
X102894500Y-64255400D01*
X88551000Y-28071200D02*
X90011000Y-28071200D01*
X88551000Y-31371200D02*
X88551000Y-28071200D01*
X90011000Y-28071200D02*
X90011000Y-31371200D01*
X90011000Y-31371200D02*
X88551000Y-31371200D01*
X116465000Y-54640000D02*
X125405000Y-54640000D01*
X125405000Y-44000000D01*
X116465000Y-44000000D01*
X116465000Y-54640000D01*
X95330000Y-58522600D02*
X96790000Y-58522600D01*
X95330000Y-61822600D02*
X95330000Y-58522600D01*
X96790000Y-58522600D02*
X96790000Y-61822600D01*
X96790000Y-61822600D02*
X95330000Y-61822600D01*
X118306200Y-59000000D02*
X118306200Y-62100000D01*
X118306200Y-62100000D02*
X121906200Y-62100000D01*
X121906200Y-59000000D02*
X118306200Y-59000000D01*
X121906200Y-62100000D02*
X121906200Y-59000000D01*
X112634200Y-31521000D02*
X114594200Y-31521000D01*
X112634200Y-35281000D02*
X112634200Y-31521000D01*
X114594200Y-31521000D02*
X114594200Y-35281000D01*
X114594200Y-35281000D02*
X112634200Y-35281000D01*
X81012000Y-43143000D02*
X81012000Y-50583000D01*
X81012000Y-50583000D02*
X85612000Y-50583000D01*
X85612000Y-43143000D02*
X81012000Y-43143000D01*
X85612000Y-50583000D02*
X85612000Y-43143000D01*
X90407500Y-61740000D02*
X93707500Y-61740000D01*
X90407500Y-63200000D02*
X90407500Y-61740000D01*
X93707500Y-61740000D02*
X93707500Y-63200000D01*
X93707500Y-63200000D02*
X90407500Y-63200000D01*
X114021800Y-57025100D02*
X115481800Y-57025100D01*
X114021800Y-60325100D02*
X114021800Y-57025100D01*
X115481800Y-57025100D02*
X115481800Y-60325100D01*
X115481800Y-60325100D02*
X114021800Y-60325100D01*
M02*
