%TF.GenerationSoftware,KiCad,Pcbnew,8.0.5*%
%TF.CreationDate,2024-09-26T20:50:47+05:30*%
%TF.ProjectId,SNSRTG401V20,534e5352-5447-4343-9031-5632302e6b69,2.0*%
%TF.SameCoordinates,Original*%
%TF.FileFunction,Drillmap*%
%TF.FilePolarity,Positive*%
%FSLAX45Y45*%
G04 Gerber Fmt 4.5, Leading zero omitted, Abs format (unit mm)*
G04 Created by KiCad (PCBNEW 8.0.5) date 2024-09-26 20:50:47*
%MOMM*%
%LPD*%
G01*
G04 APERTURE LIST*
%ADD10C,0.050000*%
%ADD11C,0.200000*%
%ADD12C,0.100000*%
G04 APERTURE END LIST*
D10*
X8000000Y-2600000D02*
X12400000Y-2600000D01*
X12400000Y-7000000D01*
X8000000Y-7000000D01*
X8000000Y-2600000D01*
D11*
D12*
X8394500Y-5982870D02*
X8414500Y-6002870D01*
X8414500Y-5982870D02*
X8394500Y-6002870D01*
X8460450Y-5558650D02*
X8480450Y-5578650D01*
X8480450Y-5558650D02*
X8460450Y-5578650D01*
X8922400Y-6516010D02*
X8942400Y-6536010D01*
X8942400Y-6516010D02*
X8922400Y-6536010D01*
X8923390Y-5892660D02*
X8943390Y-5912660D01*
X8943390Y-5892660D02*
X8923390Y-5912660D01*
X8979520Y-4017610D02*
X8999520Y-4037610D01*
X8999520Y-4017610D02*
X8979520Y-4037610D01*
X9007630Y-4790920D02*
X9027630Y-4810920D01*
X9027630Y-4790920D02*
X9007630Y-4810920D01*
X9029660Y-5115270D02*
X9049660Y-5135270D01*
X9049660Y-5115270D02*
X9029660Y-5135270D01*
X9060880Y-6520340D02*
X9080880Y-6540340D01*
X9080880Y-6520340D02*
X9060880Y-6540340D01*
X9323080Y-5263940D02*
X9343080Y-5283940D01*
X9343080Y-5263940D02*
X9323080Y-5283940D01*
X9334660Y-2896760D02*
X9354660Y-2916760D01*
X9354660Y-2896760D02*
X9334660Y-2916760D01*
X9445230Y-4876990D02*
X9465230Y-4896990D01*
X9465230Y-4876990D02*
X9445230Y-4896990D01*
X9447430Y-5812640D02*
X9467430Y-5832640D01*
X9467430Y-5812640D02*
X9447430Y-5832640D01*
X9457220Y-3266760D02*
X9477220Y-3286760D01*
X9477220Y-3266760D02*
X9457220Y-3286760D01*
X9500410Y-4869100D02*
X9520410Y-4889100D01*
X9520410Y-4869100D02*
X9500410Y-4889100D01*
X9525340Y-5359670D02*
X9545340Y-5379670D01*
X9545340Y-5359670D02*
X9525340Y-5379670D01*
X9559630Y-4676380D02*
X9579630Y-4696380D01*
X9579630Y-4676380D02*
X9559630Y-4696380D01*
X9560260Y-4861820D02*
X9580260Y-4881820D01*
X9580260Y-4861820D02*
X9560260Y-4881820D01*
X9602830Y-3986980D02*
X9622830Y-4006980D01*
X9622830Y-3986980D02*
X9602830Y-4006980D01*
X9741540Y-3544170D02*
X9761540Y-3564170D01*
X9761540Y-3544170D02*
X9741540Y-3564170D01*
X9747050Y-4021990D02*
X9767050Y-4041990D01*
X9767050Y-4021990D02*
X9747050Y-4041990D01*
X9748200Y-2706810D02*
X9768200Y-2726810D01*
X9768200Y-2706810D02*
X9748200Y-2726810D01*
X9760960Y-3109520D02*
X9780960Y-3129520D01*
X9780960Y-3109520D02*
X9760960Y-3129520D01*
X9789790Y-5175700D02*
X9809790Y-5195700D01*
X9809790Y-5175700D02*
X9789790Y-5195700D01*
X9793760Y-5119660D02*
X9813760Y-5139660D01*
X9813760Y-5119660D02*
X9793760Y-5139660D01*
X9796570Y-3567680D02*
X9816570Y-3587680D01*
X9816570Y-3567680D02*
X9796570Y-3587680D01*
X9808410Y-5063550D02*
X9828410Y-5083550D01*
X9828410Y-5063550D02*
X9808410Y-5083550D01*
X10024640Y-3568910D02*
X10044640Y-3588910D01*
X10044640Y-3568910D02*
X10024640Y-3588910D01*
X10045070Y-5076750D02*
X10065070Y-5096750D01*
X10065070Y-5076750D02*
X10045070Y-5096750D01*
X10106950Y-4217120D02*
X10126950Y-4237120D01*
X10126950Y-4217120D02*
X10106950Y-4237120D01*
X10139790Y-3613350D02*
X10159790Y-3633350D01*
X10159790Y-3613350D02*
X10139790Y-3633350D01*
X10267470Y-4122240D02*
X10287470Y-4142240D01*
X10287470Y-4122240D02*
X10267470Y-4142240D01*
X10317120Y-4205270D02*
X10337120Y-4225270D01*
X10337120Y-4205270D02*
X10317120Y-4225270D01*
X10366780Y-3221710D02*
X10386780Y-3241710D01*
X10386780Y-3221710D02*
X10366780Y-3241710D01*
X10372300Y-4190050D02*
X10392300Y-4210050D01*
X10392300Y-4190050D02*
X10372300Y-4210050D01*
X10406550Y-4775940D02*
X10426550Y-4795940D01*
X10426550Y-4775940D02*
X10406550Y-4795940D01*
X10406860Y-4683540D02*
X10426860Y-4703540D01*
X10426860Y-4683540D02*
X10406860Y-4703540D01*
X10423420Y-4554950D02*
X10443420Y-4574950D01*
X10443420Y-4554950D02*
X10423420Y-4574950D01*
X10514990Y-4371590D02*
X10534990Y-4391590D01*
X10534990Y-4371590D02*
X10514990Y-4391590D01*
X10516540Y-4939910D02*
X10536540Y-4959910D01*
X10536540Y-4939910D02*
X10516540Y-4959910D01*
X10591940Y-4296990D02*
X10611940Y-4316990D01*
X10611940Y-4296990D02*
X10591940Y-4316990D01*
X10608710Y-4885880D02*
X10628710Y-4905880D01*
X10628710Y-4885880D02*
X10608710Y-4905880D01*
X10798800Y-5197190D02*
X10818800Y-5217190D01*
X10818800Y-5197190D02*
X10798800Y-5217190D01*
X10897530Y-5707580D02*
X10917530Y-5727580D01*
X10917530Y-5707580D02*
X10897530Y-5727580D01*
X10899280Y-4517450D02*
X10919280Y-4537450D01*
X10919280Y-4517450D02*
X10899280Y-4537450D01*
X11054480Y-5640030D02*
X11074480Y-5660030D01*
X11074480Y-5640030D02*
X11054480Y-5660030D01*
X11197910Y-2717320D02*
X11217910Y-2737320D01*
X11217910Y-2717320D02*
X11197910Y-2737320D01*
X11265010Y-6007640D02*
X11285010Y-6027640D01*
X11285010Y-6007640D02*
X11265010Y-6027640D01*
X11410710Y-5380670D02*
X11430710Y-5400670D01*
X11430710Y-5380670D02*
X11410710Y-5400670D01*
X11417860Y-4703400D02*
X11437860Y-4723400D01*
X11437860Y-4703400D02*
X11417860Y-4723400D01*
X11709700Y-4947070D02*
X11729700Y-4967070D01*
X11729700Y-4947070D02*
X11709700Y-4967070D01*
X11724960Y-4830980D02*
X11744960Y-4850980D01*
X11744960Y-4830980D02*
X11724960Y-4850980D01*
X9635280Y-6377940D02*
G75*
G02*
X9585280Y-6377940I-25000J0D01*
G01*
X9585280Y-6377940D02*
G75*
G02*
X9635280Y-6377940I25000J0D01*
G01*
X9735280Y-6377940D02*
G75*
G02*
X9685280Y-6377940I-25000J0D01*
G01*
X9685280Y-6377940D02*
G75*
G02*
X9735280Y-6377940I25000J0D01*
G01*
X9835280Y-6377940D02*
G75*
G02*
X9785280Y-6377940I-25000J0D01*
G01*
X9785280Y-6377940D02*
G75*
G02*
X9835280Y-6377940I25000J0D01*
G01*
X9935280Y-6377940D02*
G75*
G02*
X9885280Y-6377940I-25000J0D01*
G01*
X9885280Y-6377940D02*
G75*
G02*
X9935280Y-6377940I25000J0D01*
G01*
X10035280Y-6377940D02*
G75*
G02*
X9985280Y-6377940I-25000J0D01*
G01*
X9985280Y-6377940D02*
G75*
G02*
X10035280Y-6377940I25000J0D01*
G01*
X10135280Y-6377940D02*
G75*
G02*
X10085280Y-6377940I-25000J0D01*
G01*
X10085280Y-6377940D02*
G75*
G02*
X10135280Y-6377940I25000J0D01*
G01*
X11490560Y-6493620D02*
G75*
G02*
X11440560Y-6493620I-25000J0D01*
G01*
X11440560Y-6493620D02*
G75*
G02*
X11490560Y-6493620I25000J0D01*
G01*
X11490560Y-6593620D02*
G75*
G02*
X11440560Y-6593620I-25000J0D01*
G01*
X11440560Y-6593620D02*
G75*
G02*
X11490560Y-6593620I25000J0D01*
G01*
X11490560Y-6693620D02*
G75*
G02*
X11440560Y-6693620I-25000J0D01*
G01*
X11440560Y-6693620D02*
G75*
G02*
X11490560Y-6693620I25000J0D01*
G01*
X11490560Y-6793620D02*
G75*
G02*
X11440560Y-6793620I-25000J0D01*
G01*
X11440560Y-6793620D02*
G75*
G02*
X11490560Y-6793620I25000J0D01*
G01*
X12205060Y-4558740D02*
G75*
G02*
X12155060Y-4558740I-25000J0D01*
G01*
X12155060Y-4558740D02*
G75*
G02*
X12205060Y-4558740I25000J0D01*
G01*
X12147560Y-4583740D02*
X12212560Y-4583740D01*
X12212560Y-4533740D02*
G75*
G02*
X12212560Y-4583740I0J-25000D01*
G01*
X12212560Y-4533740D02*
X12147560Y-4533740D01*
X12147560Y-4533740D02*
G75*
G03*
X12147560Y-4583740I0J-25000D01*
G01*
X12205060Y-5258740D02*
G75*
G02*
X12155060Y-5258740I-25000J0D01*
G01*
X12155060Y-5258740D02*
G75*
G02*
X12205060Y-5258740I25000J0D01*
G01*
X12147560Y-5283740D02*
X12212560Y-5283740D01*
X12212560Y-5233740D02*
G75*
G02*
X12212560Y-5283740I0J-25000D01*
G01*
X12212560Y-5233740D02*
X12147560Y-5233740D01*
X12147560Y-5233740D02*
G75*
G03*
X12147560Y-5283740I0J-25000D01*
G01*
X11910060Y-4631240D02*
X11910060Y-4686240D01*
X11882560Y-4658740D02*
X11937560Y-4658740D01*
X11937560Y-4673740D02*
X11937560Y-4643740D01*
X11882560Y-4643740D02*
G75*
G02*
X11937560Y-4643740I27500J0D01*
G01*
X11882560Y-4643740D02*
X11882560Y-4673740D01*
X11882560Y-4673740D02*
G75*
G03*
X11937560Y-4673740I27500J0D01*
G01*
X11910060Y-5131240D02*
X11910060Y-5186240D01*
X11882560Y-5158740D02*
X11937560Y-5158740D01*
X11937560Y-5173740D02*
X11937560Y-5143740D01*
X11882560Y-5143740D02*
G75*
G02*
X11937560Y-5143740I27500J0D01*
G01*
X11882560Y-5143740D02*
X11882560Y-5173740D01*
X11882560Y-5173740D02*
G75*
G03*
X11937560Y-5173740I27500J0D01*
G01*
X8504041Y-5377301D02*
X8504041Y-5331339D01*
X8458079Y-5331339D01*
X8458079Y-5377301D01*
X8504041Y-5377301D01*
X8631041Y-5377301D02*
X8631041Y-5331339D01*
X8585079Y-5331339D01*
X8585079Y-5377301D01*
X8631041Y-5377301D01*
X8758041Y-5377301D02*
X8758041Y-5331339D01*
X8712079Y-5331339D01*
X8712079Y-5377301D01*
X8758041Y-5377301D01*
X8839321Y-4429881D02*
X8839321Y-4383919D01*
X8793359Y-4383919D01*
X8793359Y-4429881D01*
X8839321Y-4429881D01*
X8839321Y-4556881D02*
X8839321Y-4510919D01*
X8793359Y-4510919D01*
X8793359Y-4556881D01*
X8839321Y-4556881D01*
X8839321Y-4683881D02*
X8839321Y-4637919D01*
X8793359Y-4637919D01*
X8793359Y-4683881D01*
X8839321Y-4683881D01*
X8839321Y-4810881D02*
X8839321Y-4764919D01*
X8793359Y-4764919D01*
X8793359Y-4810881D01*
X8839321Y-4810881D01*
X8885041Y-5377301D02*
X8885041Y-5331339D01*
X8839079Y-5331339D01*
X8839079Y-5377301D01*
X8885041Y-5377301D01*
X9697841Y-6761601D02*
X9697841Y-6715639D01*
X9651879Y-6715639D01*
X9651879Y-6761601D01*
X9697841Y-6761601D01*
X9824841Y-6761601D02*
X9824841Y-6715639D01*
X9778879Y-6715639D01*
X9778879Y-6761601D01*
X9824841Y-6761601D01*
X9951841Y-6761601D02*
X9951841Y-6715639D01*
X9905879Y-6715639D01*
X9905879Y-6761601D01*
X9951841Y-6761601D01*
X10078841Y-6761601D02*
X10078841Y-6715639D01*
X10032879Y-6715639D01*
X10032879Y-6761601D01*
X10078841Y-6761601D01*
X10205841Y-6761601D02*
X10205841Y-6715639D01*
X10159879Y-6715639D01*
X10159879Y-6761601D01*
X10205841Y-6761601D01*
X10332841Y-6761601D02*
X10332841Y-6715639D01*
X10286879Y-6715639D01*
X10286879Y-6761601D01*
X10332841Y-6761601D01*
X10719691Y-6761601D02*
X10719691Y-6715639D01*
X10673729Y-6715639D01*
X10673729Y-6761601D01*
X10719691Y-6761601D01*
X10846691Y-6761601D02*
X10846691Y-6715639D01*
X10800729Y-6715639D01*
X10800729Y-6761601D01*
X10846691Y-6761601D01*
X10973691Y-6761601D02*
X10973691Y-6715639D01*
X10927729Y-6715639D01*
X10927729Y-6761601D01*
X10973691Y-6761601D01*
X11090261Y-4290341D02*
X11090261Y-4244379D01*
X11044299Y-4244379D01*
X11044299Y-4290341D01*
X11090261Y-4290341D01*
X11100691Y-6761601D02*
X11100691Y-6715639D01*
X11054729Y-6715639D01*
X11054729Y-6761601D01*
X11100691Y-6761601D01*
X11217261Y-4290341D02*
X11217261Y-4244379D01*
X11171299Y-4244379D01*
X11171299Y-4290341D01*
X11217261Y-4290341D01*
X11344261Y-4290341D02*
X11344261Y-4244379D01*
X11298299Y-4244379D01*
X11298299Y-4290341D01*
X11344261Y-4290341D01*
X11471261Y-4290341D02*
X11471261Y-4244379D01*
X11425299Y-4244379D01*
X11425299Y-4290341D01*
X11471261Y-4290341D01*
X11968601Y-6055481D02*
X11968601Y-6009519D01*
X11922639Y-6009519D01*
X11922639Y-6055481D01*
X11968601Y-6055481D01*
X12095601Y-6055481D02*
X12095601Y-6009519D01*
X12049639Y-6009519D01*
X12049639Y-6055481D01*
X12095601Y-6055481D01*
D11*
X8258277Y-7313984D02*
X8258277Y-7113984D01*
X8258277Y-7113984D02*
X8305896Y-7113984D01*
X8305896Y-7113984D02*
X8334467Y-7123508D01*
X8334467Y-7123508D02*
X8353515Y-7142555D01*
X8353515Y-7142555D02*
X8363039Y-7161603D01*
X8363039Y-7161603D02*
X8372562Y-7199698D01*
X8372562Y-7199698D02*
X8372562Y-7228269D01*
X8372562Y-7228269D02*
X8363039Y-7266365D01*
X8363039Y-7266365D02*
X8353515Y-7285412D01*
X8353515Y-7285412D02*
X8334467Y-7304460D01*
X8334467Y-7304460D02*
X8305896Y-7313984D01*
X8305896Y-7313984D02*
X8258277Y-7313984D01*
X8458277Y-7313984D02*
X8458277Y-7180650D01*
X8458277Y-7218746D02*
X8467801Y-7199698D01*
X8467801Y-7199698D02*
X8477324Y-7190174D01*
X8477324Y-7190174D02*
X8496372Y-7180650D01*
X8496372Y-7180650D02*
X8515420Y-7180650D01*
X8582086Y-7313984D02*
X8582086Y-7180650D01*
X8582086Y-7113984D02*
X8572563Y-7123508D01*
X8572563Y-7123508D02*
X8582086Y-7133031D01*
X8582086Y-7133031D02*
X8591610Y-7123508D01*
X8591610Y-7123508D02*
X8582086Y-7113984D01*
X8582086Y-7113984D02*
X8582086Y-7133031D01*
X8705896Y-7313984D02*
X8686848Y-7304460D01*
X8686848Y-7304460D02*
X8677324Y-7285412D01*
X8677324Y-7285412D02*
X8677324Y-7113984D01*
X8810658Y-7313984D02*
X8791610Y-7304460D01*
X8791610Y-7304460D02*
X8782086Y-7285412D01*
X8782086Y-7285412D02*
X8782086Y-7113984D01*
X9039229Y-7313984D02*
X9039229Y-7113984D01*
X9039229Y-7113984D02*
X9105896Y-7256841D01*
X9105896Y-7256841D02*
X9172563Y-7113984D01*
X9172563Y-7113984D02*
X9172563Y-7313984D01*
X9353515Y-7313984D02*
X9353515Y-7209222D01*
X9353515Y-7209222D02*
X9343991Y-7190174D01*
X9343991Y-7190174D02*
X9324944Y-7180650D01*
X9324944Y-7180650D02*
X9286848Y-7180650D01*
X9286848Y-7180650D02*
X9267801Y-7190174D01*
X9353515Y-7304460D02*
X9334467Y-7313984D01*
X9334467Y-7313984D02*
X9286848Y-7313984D01*
X9286848Y-7313984D02*
X9267801Y-7304460D01*
X9267801Y-7304460D02*
X9258277Y-7285412D01*
X9258277Y-7285412D02*
X9258277Y-7266365D01*
X9258277Y-7266365D02*
X9267801Y-7247317D01*
X9267801Y-7247317D02*
X9286848Y-7237793D01*
X9286848Y-7237793D02*
X9334467Y-7237793D01*
X9334467Y-7237793D02*
X9353515Y-7228269D01*
X9448753Y-7180650D02*
X9448753Y-7380650D01*
X9448753Y-7190174D02*
X9467801Y-7180650D01*
X9467801Y-7180650D02*
X9505896Y-7180650D01*
X9505896Y-7180650D02*
X9524944Y-7190174D01*
X9524944Y-7190174D02*
X9534467Y-7199698D01*
X9534467Y-7199698D02*
X9543991Y-7218746D01*
X9543991Y-7218746D02*
X9543991Y-7275888D01*
X9543991Y-7275888D02*
X9534467Y-7294936D01*
X9534467Y-7294936D02*
X9524944Y-7304460D01*
X9524944Y-7304460D02*
X9505896Y-7313984D01*
X9505896Y-7313984D02*
X9467801Y-7313984D01*
X9467801Y-7313984D02*
X9448753Y-7304460D01*
X9629705Y-7294936D02*
X9639229Y-7304460D01*
X9639229Y-7304460D02*
X9629705Y-7313984D01*
X9629705Y-7313984D02*
X9620182Y-7304460D01*
X9620182Y-7304460D02*
X9629705Y-7294936D01*
X9629705Y-7294936D02*
X9629705Y-7313984D01*
X9629705Y-7190174D02*
X9639229Y-7199698D01*
X9639229Y-7199698D02*
X9629705Y-7209222D01*
X9629705Y-7209222D02*
X9620182Y-7199698D01*
X9620182Y-7199698D02*
X9629705Y-7190174D01*
X9629705Y-7190174D02*
X9629705Y-7209222D01*
D12*
X7977500Y-7632500D02*
X7997500Y-7652500D01*
X7997500Y-7632500D02*
X7977500Y-7652500D01*
D11*
X8296372Y-7533984D02*
X8315420Y-7533984D01*
X8315420Y-7533984D02*
X8334467Y-7543508D01*
X8334467Y-7543508D02*
X8343991Y-7553031D01*
X8343991Y-7553031D02*
X8353515Y-7572079D01*
X8353515Y-7572079D02*
X8363039Y-7610174D01*
X8363039Y-7610174D02*
X8363039Y-7657793D01*
X8363039Y-7657793D02*
X8353515Y-7695888D01*
X8353515Y-7695888D02*
X8343991Y-7714936D01*
X8343991Y-7714936D02*
X8334467Y-7724460D01*
X8334467Y-7724460D02*
X8315420Y-7733984D01*
X8315420Y-7733984D02*
X8296372Y-7733984D01*
X8296372Y-7733984D02*
X8277324Y-7724460D01*
X8277324Y-7724460D02*
X8267801Y-7714936D01*
X8267801Y-7714936D02*
X8258277Y-7695888D01*
X8258277Y-7695888D02*
X8248753Y-7657793D01*
X8248753Y-7657793D02*
X8248753Y-7610174D01*
X8248753Y-7610174D02*
X8258277Y-7572079D01*
X8258277Y-7572079D02*
X8267801Y-7553031D01*
X8267801Y-7553031D02*
X8277324Y-7543508D01*
X8277324Y-7543508D02*
X8296372Y-7533984D01*
X8448753Y-7714936D02*
X8458277Y-7724460D01*
X8458277Y-7724460D02*
X8448753Y-7733984D01*
X8448753Y-7733984D02*
X8439229Y-7724460D01*
X8439229Y-7724460D02*
X8448753Y-7714936D01*
X8448753Y-7714936D02*
X8448753Y-7733984D01*
X8534467Y-7553031D02*
X8543991Y-7543508D01*
X8543991Y-7543508D02*
X8563039Y-7533984D01*
X8563039Y-7533984D02*
X8610658Y-7533984D01*
X8610658Y-7533984D02*
X8629705Y-7543508D01*
X8629705Y-7543508D02*
X8639229Y-7553031D01*
X8639229Y-7553031D02*
X8648753Y-7572079D01*
X8648753Y-7572079D02*
X8648753Y-7591127D01*
X8648753Y-7591127D02*
X8639229Y-7619698D01*
X8639229Y-7619698D02*
X8524944Y-7733984D01*
X8524944Y-7733984D02*
X8648753Y-7733984D01*
X8772563Y-7533984D02*
X8791610Y-7533984D01*
X8791610Y-7533984D02*
X8810658Y-7543508D01*
X8810658Y-7543508D02*
X8820182Y-7553031D01*
X8820182Y-7553031D02*
X8829705Y-7572079D01*
X8829705Y-7572079D02*
X8839229Y-7610174D01*
X8839229Y-7610174D02*
X8839229Y-7657793D01*
X8839229Y-7657793D02*
X8829705Y-7695888D01*
X8829705Y-7695888D02*
X8820182Y-7714936D01*
X8820182Y-7714936D02*
X8810658Y-7724460D01*
X8810658Y-7724460D02*
X8791610Y-7733984D01*
X8791610Y-7733984D02*
X8772563Y-7733984D01*
X8772563Y-7733984D02*
X8753515Y-7724460D01*
X8753515Y-7724460D02*
X8743991Y-7714936D01*
X8743991Y-7714936D02*
X8734467Y-7695888D01*
X8734467Y-7695888D02*
X8724944Y-7657793D01*
X8724944Y-7657793D02*
X8724944Y-7610174D01*
X8724944Y-7610174D02*
X8734467Y-7572079D01*
X8734467Y-7572079D02*
X8743991Y-7553031D01*
X8743991Y-7553031D02*
X8753515Y-7543508D01*
X8753515Y-7543508D02*
X8772563Y-7533984D01*
X8963039Y-7533984D02*
X8982086Y-7533984D01*
X8982086Y-7533984D02*
X9001134Y-7543508D01*
X9001134Y-7543508D02*
X9010658Y-7553031D01*
X9010658Y-7553031D02*
X9020182Y-7572079D01*
X9020182Y-7572079D02*
X9029705Y-7610174D01*
X9029705Y-7610174D02*
X9029705Y-7657793D01*
X9029705Y-7657793D02*
X9020182Y-7695888D01*
X9020182Y-7695888D02*
X9010658Y-7714936D01*
X9010658Y-7714936D02*
X9001134Y-7724460D01*
X9001134Y-7724460D02*
X8982086Y-7733984D01*
X8982086Y-7733984D02*
X8963039Y-7733984D01*
X8963039Y-7733984D02*
X8943991Y-7724460D01*
X8943991Y-7724460D02*
X8934467Y-7714936D01*
X8934467Y-7714936D02*
X8924944Y-7695888D01*
X8924944Y-7695888D02*
X8915420Y-7657793D01*
X8915420Y-7657793D02*
X8915420Y-7610174D01*
X8915420Y-7610174D02*
X8924944Y-7572079D01*
X8924944Y-7572079D02*
X8934467Y-7553031D01*
X8934467Y-7553031D02*
X8943991Y-7543508D01*
X8943991Y-7543508D02*
X8963039Y-7533984D01*
X9115420Y-7733984D02*
X9115420Y-7600650D01*
X9115420Y-7619698D02*
X9124944Y-7610174D01*
X9124944Y-7610174D02*
X9143991Y-7600650D01*
X9143991Y-7600650D02*
X9172563Y-7600650D01*
X9172563Y-7600650D02*
X9191610Y-7610174D01*
X9191610Y-7610174D02*
X9201134Y-7629222D01*
X9201134Y-7629222D02*
X9201134Y-7733984D01*
X9201134Y-7629222D02*
X9210658Y-7610174D01*
X9210658Y-7610174D02*
X9229705Y-7600650D01*
X9229705Y-7600650D02*
X9258277Y-7600650D01*
X9258277Y-7600650D02*
X9277325Y-7610174D01*
X9277325Y-7610174D02*
X9286848Y-7629222D01*
X9286848Y-7629222D02*
X9286848Y-7733984D01*
X9382086Y-7733984D02*
X9382086Y-7600650D01*
X9382086Y-7619698D02*
X9391610Y-7610174D01*
X9391610Y-7610174D02*
X9410658Y-7600650D01*
X9410658Y-7600650D02*
X9439229Y-7600650D01*
X9439229Y-7600650D02*
X9458277Y-7610174D01*
X9458277Y-7610174D02*
X9467801Y-7629222D01*
X9467801Y-7629222D02*
X9467801Y-7733984D01*
X9467801Y-7629222D02*
X9477325Y-7610174D01*
X9477325Y-7610174D02*
X9496372Y-7600650D01*
X9496372Y-7600650D02*
X9524944Y-7600650D01*
X9524944Y-7600650D02*
X9543991Y-7610174D01*
X9543991Y-7610174D02*
X9553515Y-7629222D01*
X9553515Y-7629222D02*
X9553515Y-7733984D01*
X9943991Y-7524460D02*
X9772563Y-7781603D01*
X10201134Y-7533984D02*
X10220182Y-7533984D01*
X10220182Y-7533984D02*
X10239229Y-7543508D01*
X10239229Y-7543508D02*
X10248753Y-7553031D01*
X10248753Y-7553031D02*
X10258277Y-7572079D01*
X10258277Y-7572079D02*
X10267801Y-7610174D01*
X10267801Y-7610174D02*
X10267801Y-7657793D01*
X10267801Y-7657793D02*
X10258277Y-7695888D01*
X10258277Y-7695888D02*
X10248753Y-7714936D01*
X10248753Y-7714936D02*
X10239229Y-7724460D01*
X10239229Y-7724460D02*
X10220182Y-7733984D01*
X10220182Y-7733984D02*
X10201134Y-7733984D01*
X10201134Y-7733984D02*
X10182087Y-7724460D01*
X10182087Y-7724460D02*
X10172563Y-7714936D01*
X10172563Y-7714936D02*
X10163039Y-7695888D01*
X10163039Y-7695888D02*
X10153515Y-7657793D01*
X10153515Y-7657793D02*
X10153515Y-7610174D01*
X10153515Y-7610174D02*
X10163039Y-7572079D01*
X10163039Y-7572079D02*
X10172563Y-7553031D01*
X10172563Y-7553031D02*
X10182087Y-7543508D01*
X10182087Y-7543508D02*
X10201134Y-7533984D01*
X10353515Y-7714936D02*
X10363039Y-7724460D01*
X10363039Y-7724460D02*
X10353515Y-7733984D01*
X10353515Y-7733984D02*
X10343991Y-7724460D01*
X10343991Y-7724460D02*
X10353515Y-7714936D01*
X10353515Y-7714936D02*
X10353515Y-7733984D01*
X10486848Y-7533984D02*
X10505896Y-7533984D01*
X10505896Y-7533984D02*
X10524944Y-7543508D01*
X10524944Y-7543508D02*
X10534468Y-7553031D01*
X10534468Y-7553031D02*
X10543991Y-7572079D01*
X10543991Y-7572079D02*
X10553515Y-7610174D01*
X10553515Y-7610174D02*
X10553515Y-7657793D01*
X10553515Y-7657793D02*
X10543991Y-7695888D01*
X10543991Y-7695888D02*
X10534468Y-7714936D01*
X10534468Y-7714936D02*
X10524944Y-7724460D01*
X10524944Y-7724460D02*
X10505896Y-7733984D01*
X10505896Y-7733984D02*
X10486848Y-7733984D01*
X10486848Y-7733984D02*
X10467801Y-7724460D01*
X10467801Y-7724460D02*
X10458277Y-7714936D01*
X10458277Y-7714936D02*
X10448753Y-7695888D01*
X10448753Y-7695888D02*
X10439229Y-7657793D01*
X10439229Y-7657793D02*
X10439229Y-7610174D01*
X10439229Y-7610174D02*
X10448753Y-7572079D01*
X10448753Y-7572079D02*
X10458277Y-7553031D01*
X10458277Y-7553031D02*
X10467801Y-7543508D01*
X10467801Y-7543508D02*
X10486848Y-7533984D01*
X10677325Y-7533984D02*
X10696372Y-7533984D01*
X10696372Y-7533984D02*
X10715420Y-7543508D01*
X10715420Y-7543508D02*
X10724944Y-7553031D01*
X10724944Y-7553031D02*
X10734468Y-7572079D01*
X10734468Y-7572079D02*
X10743991Y-7610174D01*
X10743991Y-7610174D02*
X10743991Y-7657793D01*
X10743991Y-7657793D02*
X10734468Y-7695888D01*
X10734468Y-7695888D02*
X10724944Y-7714936D01*
X10724944Y-7714936D02*
X10715420Y-7724460D01*
X10715420Y-7724460D02*
X10696372Y-7733984D01*
X10696372Y-7733984D02*
X10677325Y-7733984D01*
X10677325Y-7733984D02*
X10658277Y-7724460D01*
X10658277Y-7724460D02*
X10648753Y-7714936D01*
X10648753Y-7714936D02*
X10639229Y-7695888D01*
X10639229Y-7695888D02*
X10629706Y-7657793D01*
X10629706Y-7657793D02*
X10629706Y-7610174D01*
X10629706Y-7610174D02*
X10639229Y-7572079D01*
X10639229Y-7572079D02*
X10648753Y-7553031D01*
X10648753Y-7553031D02*
X10658277Y-7543508D01*
X10658277Y-7543508D02*
X10677325Y-7533984D01*
X10810658Y-7533984D02*
X10943991Y-7533984D01*
X10943991Y-7533984D02*
X10858277Y-7733984D01*
X11029706Y-7733984D02*
X11067801Y-7733984D01*
X11067801Y-7733984D02*
X11086849Y-7724460D01*
X11086849Y-7724460D02*
X11096372Y-7714936D01*
X11096372Y-7714936D02*
X11115420Y-7686365D01*
X11115420Y-7686365D02*
X11124944Y-7648269D01*
X11124944Y-7648269D02*
X11124944Y-7572079D01*
X11124944Y-7572079D02*
X11115420Y-7553031D01*
X11115420Y-7553031D02*
X11105896Y-7543508D01*
X11105896Y-7543508D02*
X11086849Y-7533984D01*
X11086849Y-7533984D02*
X11048753Y-7533984D01*
X11048753Y-7533984D02*
X11029706Y-7543508D01*
X11029706Y-7543508D02*
X11020182Y-7553031D01*
X11020182Y-7553031D02*
X11010658Y-7572079D01*
X11010658Y-7572079D02*
X11010658Y-7619698D01*
X11010658Y-7619698D02*
X11020182Y-7638746D01*
X11020182Y-7638746D02*
X11029706Y-7648269D01*
X11029706Y-7648269D02*
X11048753Y-7657793D01*
X11048753Y-7657793D02*
X11086849Y-7657793D01*
X11086849Y-7657793D02*
X11105896Y-7648269D01*
X11105896Y-7648269D02*
X11115420Y-7638746D01*
X11115420Y-7638746D02*
X11124944Y-7619698D01*
X11201134Y-7533984D02*
X11201134Y-7572079D01*
X11277325Y-7533984D02*
X11277325Y-7572079D01*
X11572563Y-7810174D02*
X11563039Y-7800650D01*
X11563039Y-7800650D02*
X11543991Y-7772079D01*
X11543991Y-7772079D02*
X11534468Y-7753031D01*
X11534468Y-7753031D02*
X11524944Y-7724460D01*
X11524944Y-7724460D02*
X11515420Y-7676841D01*
X11515420Y-7676841D02*
X11515420Y-7638746D01*
X11515420Y-7638746D02*
X11524944Y-7591127D01*
X11524944Y-7591127D02*
X11534468Y-7562555D01*
X11534468Y-7562555D02*
X11543991Y-7543508D01*
X11543991Y-7543508D02*
X11563039Y-7514936D01*
X11563039Y-7514936D02*
X11572563Y-7505412D01*
X11743991Y-7533984D02*
X11648753Y-7533984D01*
X11648753Y-7533984D02*
X11639229Y-7629222D01*
X11639229Y-7629222D02*
X11648753Y-7619698D01*
X11648753Y-7619698D02*
X11667801Y-7610174D01*
X11667801Y-7610174D02*
X11715420Y-7610174D01*
X11715420Y-7610174D02*
X11734468Y-7619698D01*
X11734468Y-7619698D02*
X11743991Y-7629222D01*
X11743991Y-7629222D02*
X11753515Y-7648269D01*
X11753515Y-7648269D02*
X11753515Y-7695888D01*
X11753515Y-7695888D02*
X11743991Y-7714936D01*
X11743991Y-7714936D02*
X11734468Y-7724460D01*
X11734468Y-7724460D02*
X11715420Y-7733984D01*
X11715420Y-7733984D02*
X11667801Y-7733984D01*
X11667801Y-7733984D02*
X11648753Y-7724460D01*
X11648753Y-7724460D02*
X11639229Y-7714936D01*
X11943991Y-7733984D02*
X11829706Y-7733984D01*
X11886848Y-7733984D02*
X11886848Y-7533984D01*
X11886848Y-7533984D02*
X11867801Y-7562555D01*
X11867801Y-7562555D02*
X11848753Y-7581603D01*
X11848753Y-7581603D02*
X11829706Y-7591127D01*
X12182087Y-7733984D02*
X12182087Y-7533984D01*
X12267801Y-7733984D02*
X12267801Y-7629222D01*
X12267801Y-7629222D02*
X12258277Y-7610174D01*
X12258277Y-7610174D02*
X12239230Y-7600650D01*
X12239230Y-7600650D02*
X12210658Y-7600650D01*
X12210658Y-7600650D02*
X12191610Y-7610174D01*
X12191610Y-7610174D02*
X12182087Y-7619698D01*
X12391610Y-7733984D02*
X12372563Y-7724460D01*
X12372563Y-7724460D02*
X12363039Y-7714936D01*
X12363039Y-7714936D02*
X12353515Y-7695888D01*
X12353515Y-7695888D02*
X12353515Y-7638746D01*
X12353515Y-7638746D02*
X12363039Y-7619698D01*
X12363039Y-7619698D02*
X12372563Y-7610174D01*
X12372563Y-7610174D02*
X12391610Y-7600650D01*
X12391610Y-7600650D02*
X12420182Y-7600650D01*
X12420182Y-7600650D02*
X12439230Y-7610174D01*
X12439230Y-7610174D02*
X12448753Y-7619698D01*
X12448753Y-7619698D02*
X12458277Y-7638746D01*
X12458277Y-7638746D02*
X12458277Y-7695888D01*
X12458277Y-7695888D02*
X12448753Y-7714936D01*
X12448753Y-7714936D02*
X12439230Y-7724460D01*
X12439230Y-7724460D02*
X12420182Y-7733984D01*
X12420182Y-7733984D02*
X12391610Y-7733984D01*
X12572563Y-7733984D02*
X12553515Y-7724460D01*
X12553515Y-7724460D02*
X12543991Y-7705412D01*
X12543991Y-7705412D02*
X12543991Y-7533984D01*
X12724944Y-7724460D02*
X12705896Y-7733984D01*
X12705896Y-7733984D02*
X12667801Y-7733984D01*
X12667801Y-7733984D02*
X12648753Y-7724460D01*
X12648753Y-7724460D02*
X12639230Y-7705412D01*
X12639230Y-7705412D02*
X12639230Y-7629222D01*
X12639230Y-7629222D02*
X12648753Y-7610174D01*
X12648753Y-7610174D02*
X12667801Y-7600650D01*
X12667801Y-7600650D02*
X12705896Y-7600650D01*
X12705896Y-7600650D02*
X12724944Y-7610174D01*
X12724944Y-7610174D02*
X12734468Y-7629222D01*
X12734468Y-7629222D02*
X12734468Y-7648269D01*
X12734468Y-7648269D02*
X12639230Y-7667317D01*
X12810658Y-7724460D02*
X12829706Y-7733984D01*
X12829706Y-7733984D02*
X12867801Y-7733984D01*
X12867801Y-7733984D02*
X12886849Y-7724460D01*
X12886849Y-7724460D02*
X12896372Y-7705412D01*
X12896372Y-7705412D02*
X12896372Y-7695888D01*
X12896372Y-7695888D02*
X12886849Y-7676841D01*
X12886849Y-7676841D02*
X12867801Y-7667317D01*
X12867801Y-7667317D02*
X12839230Y-7667317D01*
X12839230Y-7667317D02*
X12820182Y-7657793D01*
X12820182Y-7657793D02*
X12810658Y-7638746D01*
X12810658Y-7638746D02*
X12810658Y-7629222D01*
X12810658Y-7629222D02*
X12820182Y-7610174D01*
X12820182Y-7610174D02*
X12839230Y-7600650D01*
X12839230Y-7600650D02*
X12867801Y-7600650D01*
X12867801Y-7600650D02*
X12886849Y-7610174D01*
X12963039Y-7810174D02*
X12972563Y-7800650D01*
X12972563Y-7800650D02*
X12991611Y-7772079D01*
X12991611Y-7772079D02*
X13001134Y-7753031D01*
X13001134Y-7753031D02*
X13010658Y-7724460D01*
X13010658Y-7724460D02*
X13020182Y-7676841D01*
X13020182Y-7676841D02*
X13020182Y-7638746D01*
X13020182Y-7638746D02*
X13010658Y-7591127D01*
X13010658Y-7591127D02*
X13001134Y-7562555D01*
X13001134Y-7562555D02*
X12991611Y-7543508D01*
X12991611Y-7543508D02*
X12972563Y-7514936D01*
X12972563Y-7514936D02*
X12963039Y-7505412D01*
D12*
X7997500Y-7906500D02*
G75*
G02*
X7947500Y-7906500I-25000J0D01*
G01*
X7947500Y-7906500D02*
G75*
G02*
X7997500Y-7906500I25000J0D01*
G01*
D11*
X8296372Y-7797984D02*
X8315420Y-7797984D01*
X8315420Y-7797984D02*
X8334467Y-7807508D01*
X8334467Y-7807508D02*
X8343991Y-7817031D01*
X8343991Y-7817031D02*
X8353515Y-7836079D01*
X8353515Y-7836079D02*
X8363039Y-7874174D01*
X8363039Y-7874174D02*
X8363039Y-7921793D01*
X8363039Y-7921793D02*
X8353515Y-7959888D01*
X8353515Y-7959888D02*
X8343991Y-7978936D01*
X8343991Y-7978936D02*
X8334467Y-7988460D01*
X8334467Y-7988460D02*
X8315420Y-7997984D01*
X8315420Y-7997984D02*
X8296372Y-7997984D01*
X8296372Y-7997984D02*
X8277324Y-7988460D01*
X8277324Y-7988460D02*
X8267801Y-7978936D01*
X8267801Y-7978936D02*
X8258277Y-7959888D01*
X8258277Y-7959888D02*
X8248753Y-7921793D01*
X8248753Y-7921793D02*
X8248753Y-7874174D01*
X8248753Y-7874174D02*
X8258277Y-7836079D01*
X8258277Y-7836079D02*
X8267801Y-7817031D01*
X8267801Y-7817031D02*
X8277324Y-7807508D01*
X8277324Y-7807508D02*
X8296372Y-7797984D01*
X8448753Y-7978936D02*
X8458277Y-7988460D01*
X8458277Y-7988460D02*
X8448753Y-7997984D01*
X8448753Y-7997984D02*
X8439229Y-7988460D01*
X8439229Y-7988460D02*
X8448753Y-7978936D01*
X8448753Y-7978936D02*
X8448753Y-7997984D01*
X8639229Y-7797984D02*
X8543991Y-7797984D01*
X8543991Y-7797984D02*
X8534467Y-7893222D01*
X8534467Y-7893222D02*
X8543991Y-7883698D01*
X8543991Y-7883698D02*
X8563039Y-7874174D01*
X8563039Y-7874174D02*
X8610658Y-7874174D01*
X8610658Y-7874174D02*
X8629705Y-7883698D01*
X8629705Y-7883698D02*
X8639229Y-7893222D01*
X8639229Y-7893222D02*
X8648753Y-7912269D01*
X8648753Y-7912269D02*
X8648753Y-7959888D01*
X8648753Y-7959888D02*
X8639229Y-7978936D01*
X8639229Y-7978936D02*
X8629705Y-7988460D01*
X8629705Y-7988460D02*
X8610658Y-7997984D01*
X8610658Y-7997984D02*
X8563039Y-7997984D01*
X8563039Y-7997984D02*
X8543991Y-7988460D01*
X8543991Y-7988460D02*
X8534467Y-7978936D01*
X8772563Y-7797984D02*
X8791610Y-7797984D01*
X8791610Y-7797984D02*
X8810658Y-7807508D01*
X8810658Y-7807508D02*
X8820182Y-7817031D01*
X8820182Y-7817031D02*
X8829705Y-7836079D01*
X8829705Y-7836079D02*
X8839229Y-7874174D01*
X8839229Y-7874174D02*
X8839229Y-7921793D01*
X8839229Y-7921793D02*
X8829705Y-7959888D01*
X8829705Y-7959888D02*
X8820182Y-7978936D01*
X8820182Y-7978936D02*
X8810658Y-7988460D01*
X8810658Y-7988460D02*
X8791610Y-7997984D01*
X8791610Y-7997984D02*
X8772563Y-7997984D01*
X8772563Y-7997984D02*
X8753515Y-7988460D01*
X8753515Y-7988460D02*
X8743991Y-7978936D01*
X8743991Y-7978936D02*
X8734467Y-7959888D01*
X8734467Y-7959888D02*
X8724944Y-7921793D01*
X8724944Y-7921793D02*
X8724944Y-7874174D01*
X8724944Y-7874174D02*
X8734467Y-7836079D01*
X8734467Y-7836079D02*
X8743991Y-7817031D01*
X8743991Y-7817031D02*
X8753515Y-7807508D01*
X8753515Y-7807508D02*
X8772563Y-7797984D01*
X8963039Y-7797984D02*
X8982086Y-7797984D01*
X8982086Y-7797984D02*
X9001134Y-7807508D01*
X9001134Y-7807508D02*
X9010658Y-7817031D01*
X9010658Y-7817031D02*
X9020182Y-7836079D01*
X9020182Y-7836079D02*
X9029705Y-7874174D01*
X9029705Y-7874174D02*
X9029705Y-7921793D01*
X9029705Y-7921793D02*
X9020182Y-7959888D01*
X9020182Y-7959888D02*
X9010658Y-7978936D01*
X9010658Y-7978936D02*
X9001134Y-7988460D01*
X9001134Y-7988460D02*
X8982086Y-7997984D01*
X8982086Y-7997984D02*
X8963039Y-7997984D01*
X8963039Y-7997984D02*
X8943991Y-7988460D01*
X8943991Y-7988460D02*
X8934467Y-7978936D01*
X8934467Y-7978936D02*
X8924944Y-7959888D01*
X8924944Y-7959888D02*
X8915420Y-7921793D01*
X8915420Y-7921793D02*
X8915420Y-7874174D01*
X8915420Y-7874174D02*
X8924944Y-7836079D01*
X8924944Y-7836079D02*
X8934467Y-7817031D01*
X8934467Y-7817031D02*
X8943991Y-7807508D01*
X8943991Y-7807508D02*
X8963039Y-7797984D01*
X9115420Y-7997984D02*
X9115420Y-7864650D01*
X9115420Y-7883698D02*
X9124944Y-7874174D01*
X9124944Y-7874174D02*
X9143991Y-7864650D01*
X9143991Y-7864650D02*
X9172563Y-7864650D01*
X9172563Y-7864650D02*
X9191610Y-7874174D01*
X9191610Y-7874174D02*
X9201134Y-7893222D01*
X9201134Y-7893222D02*
X9201134Y-7997984D01*
X9201134Y-7893222D02*
X9210658Y-7874174D01*
X9210658Y-7874174D02*
X9229705Y-7864650D01*
X9229705Y-7864650D02*
X9258277Y-7864650D01*
X9258277Y-7864650D02*
X9277325Y-7874174D01*
X9277325Y-7874174D02*
X9286848Y-7893222D01*
X9286848Y-7893222D02*
X9286848Y-7997984D01*
X9382086Y-7997984D02*
X9382086Y-7864650D01*
X9382086Y-7883698D02*
X9391610Y-7874174D01*
X9391610Y-7874174D02*
X9410658Y-7864650D01*
X9410658Y-7864650D02*
X9439229Y-7864650D01*
X9439229Y-7864650D02*
X9458277Y-7874174D01*
X9458277Y-7874174D02*
X9467801Y-7893222D01*
X9467801Y-7893222D02*
X9467801Y-7997984D01*
X9467801Y-7893222D02*
X9477325Y-7874174D01*
X9477325Y-7874174D02*
X9496372Y-7864650D01*
X9496372Y-7864650D02*
X9524944Y-7864650D01*
X9524944Y-7864650D02*
X9543991Y-7874174D01*
X9543991Y-7874174D02*
X9553515Y-7893222D01*
X9553515Y-7893222D02*
X9553515Y-7997984D01*
X9943991Y-7788460D02*
X9772563Y-8045603D01*
X10201134Y-7797984D02*
X10220182Y-7797984D01*
X10220182Y-7797984D02*
X10239229Y-7807508D01*
X10239229Y-7807508D02*
X10248753Y-7817031D01*
X10248753Y-7817031D02*
X10258277Y-7836079D01*
X10258277Y-7836079D02*
X10267801Y-7874174D01*
X10267801Y-7874174D02*
X10267801Y-7921793D01*
X10267801Y-7921793D02*
X10258277Y-7959888D01*
X10258277Y-7959888D02*
X10248753Y-7978936D01*
X10248753Y-7978936D02*
X10239229Y-7988460D01*
X10239229Y-7988460D02*
X10220182Y-7997984D01*
X10220182Y-7997984D02*
X10201134Y-7997984D01*
X10201134Y-7997984D02*
X10182087Y-7988460D01*
X10182087Y-7988460D02*
X10172563Y-7978936D01*
X10172563Y-7978936D02*
X10163039Y-7959888D01*
X10163039Y-7959888D02*
X10153515Y-7921793D01*
X10153515Y-7921793D02*
X10153515Y-7874174D01*
X10153515Y-7874174D02*
X10163039Y-7836079D01*
X10163039Y-7836079D02*
X10172563Y-7817031D01*
X10172563Y-7817031D02*
X10182087Y-7807508D01*
X10182087Y-7807508D02*
X10201134Y-7797984D01*
X10353515Y-7978936D02*
X10363039Y-7988460D01*
X10363039Y-7988460D02*
X10353515Y-7997984D01*
X10353515Y-7997984D02*
X10343991Y-7988460D01*
X10343991Y-7988460D02*
X10353515Y-7978936D01*
X10353515Y-7978936D02*
X10353515Y-7997984D01*
X10486848Y-7797984D02*
X10505896Y-7797984D01*
X10505896Y-7797984D02*
X10524944Y-7807508D01*
X10524944Y-7807508D02*
X10534468Y-7817031D01*
X10534468Y-7817031D02*
X10543991Y-7836079D01*
X10543991Y-7836079D02*
X10553515Y-7874174D01*
X10553515Y-7874174D02*
X10553515Y-7921793D01*
X10553515Y-7921793D02*
X10543991Y-7959888D01*
X10543991Y-7959888D02*
X10534468Y-7978936D01*
X10534468Y-7978936D02*
X10524944Y-7988460D01*
X10524944Y-7988460D02*
X10505896Y-7997984D01*
X10505896Y-7997984D02*
X10486848Y-7997984D01*
X10486848Y-7997984D02*
X10467801Y-7988460D01*
X10467801Y-7988460D02*
X10458277Y-7978936D01*
X10458277Y-7978936D02*
X10448753Y-7959888D01*
X10448753Y-7959888D02*
X10439229Y-7921793D01*
X10439229Y-7921793D02*
X10439229Y-7874174D01*
X10439229Y-7874174D02*
X10448753Y-7836079D01*
X10448753Y-7836079D02*
X10458277Y-7817031D01*
X10458277Y-7817031D02*
X10467801Y-7807508D01*
X10467801Y-7807508D02*
X10486848Y-7797984D01*
X10743991Y-7997984D02*
X10629706Y-7997984D01*
X10686848Y-7997984D02*
X10686848Y-7797984D01*
X10686848Y-7797984D02*
X10667801Y-7826555D01*
X10667801Y-7826555D02*
X10648753Y-7845603D01*
X10648753Y-7845603D02*
X10629706Y-7855127D01*
X10839229Y-7997984D02*
X10877325Y-7997984D01*
X10877325Y-7997984D02*
X10896372Y-7988460D01*
X10896372Y-7988460D02*
X10905896Y-7978936D01*
X10905896Y-7978936D02*
X10924944Y-7950365D01*
X10924944Y-7950365D02*
X10934468Y-7912269D01*
X10934468Y-7912269D02*
X10934468Y-7836079D01*
X10934468Y-7836079D02*
X10924944Y-7817031D01*
X10924944Y-7817031D02*
X10915420Y-7807508D01*
X10915420Y-7807508D02*
X10896372Y-7797984D01*
X10896372Y-7797984D02*
X10858277Y-7797984D01*
X10858277Y-7797984D02*
X10839229Y-7807508D01*
X10839229Y-7807508D02*
X10829706Y-7817031D01*
X10829706Y-7817031D02*
X10820182Y-7836079D01*
X10820182Y-7836079D02*
X10820182Y-7883698D01*
X10820182Y-7883698D02*
X10829706Y-7902746D01*
X10829706Y-7902746D02*
X10839229Y-7912269D01*
X10839229Y-7912269D02*
X10858277Y-7921793D01*
X10858277Y-7921793D02*
X10896372Y-7921793D01*
X10896372Y-7921793D02*
X10915420Y-7912269D01*
X10915420Y-7912269D02*
X10924944Y-7902746D01*
X10924944Y-7902746D02*
X10934468Y-7883698D01*
X11001134Y-7797984D02*
X11134468Y-7797984D01*
X11134468Y-7797984D02*
X11048753Y-7997984D01*
X11201134Y-7797984D02*
X11201134Y-7836079D01*
X11277325Y-7797984D02*
X11277325Y-7836079D01*
X11572563Y-8074174D02*
X11563039Y-8064650D01*
X11563039Y-8064650D02*
X11543991Y-8036079D01*
X11543991Y-8036079D02*
X11534468Y-8017031D01*
X11534468Y-8017031D02*
X11524944Y-7988460D01*
X11524944Y-7988460D02*
X11515420Y-7940841D01*
X11515420Y-7940841D02*
X11515420Y-7902746D01*
X11515420Y-7902746D02*
X11524944Y-7855127D01*
X11524944Y-7855127D02*
X11534468Y-7826555D01*
X11534468Y-7826555D02*
X11543991Y-7807508D01*
X11543991Y-7807508D02*
X11563039Y-7778936D01*
X11563039Y-7778936D02*
X11572563Y-7769412D01*
X11753515Y-7997984D02*
X11639229Y-7997984D01*
X11696372Y-7997984D02*
X11696372Y-7797984D01*
X11696372Y-7797984D02*
X11677325Y-7826555D01*
X11677325Y-7826555D02*
X11658277Y-7845603D01*
X11658277Y-7845603D02*
X11639229Y-7855127D01*
X11877325Y-7797984D02*
X11896372Y-7797984D01*
X11896372Y-7797984D02*
X11915420Y-7807508D01*
X11915420Y-7807508D02*
X11924944Y-7817031D01*
X11924944Y-7817031D02*
X11934468Y-7836079D01*
X11934468Y-7836079D02*
X11943991Y-7874174D01*
X11943991Y-7874174D02*
X11943991Y-7921793D01*
X11943991Y-7921793D02*
X11934468Y-7959888D01*
X11934468Y-7959888D02*
X11924944Y-7978936D01*
X11924944Y-7978936D02*
X11915420Y-7988460D01*
X11915420Y-7988460D02*
X11896372Y-7997984D01*
X11896372Y-7997984D02*
X11877325Y-7997984D01*
X11877325Y-7997984D02*
X11858277Y-7988460D01*
X11858277Y-7988460D02*
X11848753Y-7978936D01*
X11848753Y-7978936D02*
X11839229Y-7959888D01*
X11839229Y-7959888D02*
X11829706Y-7921793D01*
X11829706Y-7921793D02*
X11829706Y-7874174D01*
X11829706Y-7874174D02*
X11839229Y-7836079D01*
X11839229Y-7836079D02*
X11848753Y-7817031D01*
X11848753Y-7817031D02*
X11858277Y-7807508D01*
X11858277Y-7807508D02*
X11877325Y-7797984D01*
X12182087Y-7997984D02*
X12182087Y-7797984D01*
X12267801Y-7997984D02*
X12267801Y-7893222D01*
X12267801Y-7893222D02*
X12258277Y-7874174D01*
X12258277Y-7874174D02*
X12239230Y-7864650D01*
X12239230Y-7864650D02*
X12210658Y-7864650D01*
X12210658Y-7864650D02*
X12191610Y-7874174D01*
X12191610Y-7874174D02*
X12182087Y-7883698D01*
X12391610Y-7997984D02*
X12372563Y-7988460D01*
X12372563Y-7988460D02*
X12363039Y-7978936D01*
X12363039Y-7978936D02*
X12353515Y-7959888D01*
X12353515Y-7959888D02*
X12353515Y-7902746D01*
X12353515Y-7902746D02*
X12363039Y-7883698D01*
X12363039Y-7883698D02*
X12372563Y-7874174D01*
X12372563Y-7874174D02*
X12391610Y-7864650D01*
X12391610Y-7864650D02*
X12420182Y-7864650D01*
X12420182Y-7864650D02*
X12439230Y-7874174D01*
X12439230Y-7874174D02*
X12448753Y-7883698D01*
X12448753Y-7883698D02*
X12458277Y-7902746D01*
X12458277Y-7902746D02*
X12458277Y-7959888D01*
X12458277Y-7959888D02*
X12448753Y-7978936D01*
X12448753Y-7978936D02*
X12439230Y-7988460D01*
X12439230Y-7988460D02*
X12420182Y-7997984D01*
X12420182Y-7997984D02*
X12391610Y-7997984D01*
X12572563Y-7997984D02*
X12553515Y-7988460D01*
X12553515Y-7988460D02*
X12543991Y-7969412D01*
X12543991Y-7969412D02*
X12543991Y-7797984D01*
X12724944Y-7988460D02*
X12705896Y-7997984D01*
X12705896Y-7997984D02*
X12667801Y-7997984D01*
X12667801Y-7997984D02*
X12648753Y-7988460D01*
X12648753Y-7988460D02*
X12639230Y-7969412D01*
X12639230Y-7969412D02*
X12639230Y-7893222D01*
X12639230Y-7893222D02*
X12648753Y-7874174D01*
X12648753Y-7874174D02*
X12667801Y-7864650D01*
X12667801Y-7864650D02*
X12705896Y-7864650D01*
X12705896Y-7864650D02*
X12724944Y-7874174D01*
X12724944Y-7874174D02*
X12734468Y-7893222D01*
X12734468Y-7893222D02*
X12734468Y-7912269D01*
X12734468Y-7912269D02*
X12639230Y-7931317D01*
X12810658Y-7988460D02*
X12829706Y-7997984D01*
X12829706Y-7997984D02*
X12867801Y-7997984D01*
X12867801Y-7997984D02*
X12886849Y-7988460D01*
X12886849Y-7988460D02*
X12896372Y-7969412D01*
X12896372Y-7969412D02*
X12896372Y-7959888D01*
X12896372Y-7959888D02*
X12886849Y-7940841D01*
X12886849Y-7940841D02*
X12867801Y-7931317D01*
X12867801Y-7931317D02*
X12839230Y-7931317D01*
X12839230Y-7931317D02*
X12820182Y-7921793D01*
X12820182Y-7921793D02*
X12810658Y-7902746D01*
X12810658Y-7902746D02*
X12810658Y-7893222D01*
X12810658Y-7893222D02*
X12820182Y-7874174D01*
X12820182Y-7874174D02*
X12839230Y-7864650D01*
X12839230Y-7864650D02*
X12867801Y-7864650D01*
X12867801Y-7864650D02*
X12886849Y-7874174D01*
X13134468Y-7921793D02*
X13286849Y-7921793D01*
X13210658Y-7997984D02*
X13210658Y-7845603D01*
X13524944Y-7817031D02*
X13534468Y-7807508D01*
X13534468Y-7807508D02*
X13553515Y-7797984D01*
X13553515Y-7797984D02*
X13601134Y-7797984D01*
X13601134Y-7797984D02*
X13620182Y-7807508D01*
X13620182Y-7807508D02*
X13629706Y-7817031D01*
X13629706Y-7817031D02*
X13639230Y-7836079D01*
X13639230Y-7836079D02*
X13639230Y-7855127D01*
X13639230Y-7855127D02*
X13629706Y-7883698D01*
X13629706Y-7883698D02*
X13515420Y-7997984D01*
X13515420Y-7997984D02*
X13639230Y-7997984D01*
X13867801Y-7988460D02*
X13886849Y-7997984D01*
X13886849Y-7997984D02*
X13924944Y-7997984D01*
X13924944Y-7997984D02*
X13943992Y-7988460D01*
X13943992Y-7988460D02*
X13953515Y-7969412D01*
X13953515Y-7969412D02*
X13953515Y-7959888D01*
X13953515Y-7959888D02*
X13943992Y-7940841D01*
X13943992Y-7940841D02*
X13924944Y-7931317D01*
X13924944Y-7931317D02*
X13896373Y-7931317D01*
X13896373Y-7931317D02*
X13877325Y-7921793D01*
X13877325Y-7921793D02*
X13867801Y-7902746D01*
X13867801Y-7902746D02*
X13867801Y-7893222D01*
X13867801Y-7893222D02*
X13877325Y-7874174D01*
X13877325Y-7874174D02*
X13896373Y-7864650D01*
X13896373Y-7864650D02*
X13924944Y-7864650D01*
X13924944Y-7864650D02*
X13943992Y-7874174D01*
X14067801Y-7997984D02*
X14048754Y-7988460D01*
X14048754Y-7988460D02*
X14039230Y-7969412D01*
X14039230Y-7969412D02*
X14039230Y-7797984D01*
X14172563Y-7997984D02*
X14153515Y-7988460D01*
X14153515Y-7988460D02*
X14143992Y-7978936D01*
X14143992Y-7978936D02*
X14134468Y-7959888D01*
X14134468Y-7959888D02*
X14134468Y-7902746D01*
X14134468Y-7902746D02*
X14143992Y-7883698D01*
X14143992Y-7883698D02*
X14153515Y-7874174D01*
X14153515Y-7874174D02*
X14172563Y-7864650D01*
X14172563Y-7864650D02*
X14201135Y-7864650D01*
X14201135Y-7864650D02*
X14220182Y-7874174D01*
X14220182Y-7874174D02*
X14229706Y-7883698D01*
X14229706Y-7883698D02*
X14239230Y-7902746D01*
X14239230Y-7902746D02*
X14239230Y-7959888D01*
X14239230Y-7959888D02*
X14229706Y-7978936D01*
X14229706Y-7978936D02*
X14220182Y-7988460D01*
X14220182Y-7988460D02*
X14201135Y-7997984D01*
X14201135Y-7997984D02*
X14172563Y-7997984D01*
X14296373Y-7864650D02*
X14372563Y-7864650D01*
X14324944Y-7797984D02*
X14324944Y-7969412D01*
X14324944Y-7969412D02*
X14334468Y-7988460D01*
X14334468Y-7988460D02*
X14353515Y-7997984D01*
X14353515Y-7997984D02*
X14372563Y-7997984D01*
X14429706Y-7988460D02*
X14448754Y-7997984D01*
X14448754Y-7997984D02*
X14486849Y-7997984D01*
X14486849Y-7997984D02*
X14505896Y-7988460D01*
X14505896Y-7988460D02*
X14515420Y-7969412D01*
X14515420Y-7969412D02*
X14515420Y-7959888D01*
X14515420Y-7959888D02*
X14505896Y-7940841D01*
X14505896Y-7940841D02*
X14486849Y-7931317D01*
X14486849Y-7931317D02*
X14458277Y-7931317D01*
X14458277Y-7931317D02*
X14439230Y-7921793D01*
X14439230Y-7921793D02*
X14429706Y-7902746D01*
X14429706Y-7902746D02*
X14429706Y-7893222D01*
X14429706Y-7893222D02*
X14439230Y-7874174D01*
X14439230Y-7874174D02*
X14458277Y-7864650D01*
X14458277Y-7864650D02*
X14486849Y-7864650D01*
X14486849Y-7864650D02*
X14505896Y-7874174D01*
X14582087Y-8074174D02*
X14591611Y-8064650D01*
X14591611Y-8064650D02*
X14610658Y-8036079D01*
X14610658Y-8036079D02*
X14620182Y-8017031D01*
X14620182Y-8017031D02*
X14629706Y-7988460D01*
X14629706Y-7988460D02*
X14639230Y-7940841D01*
X14639230Y-7940841D02*
X14639230Y-7902746D01*
X14639230Y-7902746D02*
X14629706Y-7855127D01*
X14629706Y-7855127D02*
X14620182Y-7826555D01*
X14620182Y-7826555D02*
X14610658Y-7807508D01*
X14610658Y-7807508D02*
X14591611Y-7778936D01*
X14591611Y-7778936D02*
X14582087Y-7769412D01*
D12*
X7970000Y-8143000D02*
X7970000Y-8198000D01*
X7942500Y-8170500D02*
X7997500Y-8170500D01*
D11*
X8296372Y-8061984D02*
X8315420Y-8061984D01*
X8315420Y-8061984D02*
X8334467Y-8071508D01*
X8334467Y-8071508D02*
X8343991Y-8081031D01*
X8343991Y-8081031D02*
X8353515Y-8100079D01*
X8353515Y-8100079D02*
X8363039Y-8138174D01*
X8363039Y-8138174D02*
X8363039Y-8185793D01*
X8363039Y-8185793D02*
X8353515Y-8223888D01*
X8353515Y-8223888D02*
X8343991Y-8242936D01*
X8343991Y-8242936D02*
X8334467Y-8252460D01*
X8334467Y-8252460D02*
X8315420Y-8261984D01*
X8315420Y-8261984D02*
X8296372Y-8261984D01*
X8296372Y-8261984D02*
X8277324Y-8252460D01*
X8277324Y-8252460D02*
X8267801Y-8242936D01*
X8267801Y-8242936D02*
X8258277Y-8223888D01*
X8258277Y-8223888D02*
X8248753Y-8185793D01*
X8248753Y-8185793D02*
X8248753Y-8138174D01*
X8248753Y-8138174D02*
X8258277Y-8100079D01*
X8258277Y-8100079D02*
X8267801Y-8081031D01*
X8267801Y-8081031D02*
X8277324Y-8071508D01*
X8277324Y-8071508D02*
X8296372Y-8061984D01*
X8448753Y-8242936D02*
X8458277Y-8252460D01*
X8458277Y-8252460D02*
X8448753Y-8261984D01*
X8448753Y-8261984D02*
X8439229Y-8252460D01*
X8439229Y-8252460D02*
X8448753Y-8242936D01*
X8448753Y-8242936D02*
X8448753Y-8261984D01*
X8639229Y-8061984D02*
X8543991Y-8061984D01*
X8543991Y-8061984D02*
X8534467Y-8157222D01*
X8534467Y-8157222D02*
X8543991Y-8147698D01*
X8543991Y-8147698D02*
X8563039Y-8138174D01*
X8563039Y-8138174D02*
X8610658Y-8138174D01*
X8610658Y-8138174D02*
X8629705Y-8147698D01*
X8629705Y-8147698D02*
X8639229Y-8157222D01*
X8639229Y-8157222D02*
X8648753Y-8176269D01*
X8648753Y-8176269D02*
X8648753Y-8223888D01*
X8648753Y-8223888D02*
X8639229Y-8242936D01*
X8639229Y-8242936D02*
X8629705Y-8252460D01*
X8629705Y-8252460D02*
X8610658Y-8261984D01*
X8610658Y-8261984D02*
X8563039Y-8261984D01*
X8563039Y-8261984D02*
X8543991Y-8252460D01*
X8543991Y-8252460D02*
X8534467Y-8242936D01*
X8829705Y-8061984D02*
X8734467Y-8061984D01*
X8734467Y-8061984D02*
X8724944Y-8157222D01*
X8724944Y-8157222D02*
X8734467Y-8147698D01*
X8734467Y-8147698D02*
X8753515Y-8138174D01*
X8753515Y-8138174D02*
X8801134Y-8138174D01*
X8801134Y-8138174D02*
X8820182Y-8147698D01*
X8820182Y-8147698D02*
X8829705Y-8157222D01*
X8829705Y-8157222D02*
X8839229Y-8176269D01*
X8839229Y-8176269D02*
X8839229Y-8223888D01*
X8839229Y-8223888D02*
X8829705Y-8242936D01*
X8829705Y-8242936D02*
X8820182Y-8252460D01*
X8820182Y-8252460D02*
X8801134Y-8261984D01*
X8801134Y-8261984D02*
X8753515Y-8261984D01*
X8753515Y-8261984D02*
X8734467Y-8252460D01*
X8734467Y-8252460D02*
X8724944Y-8242936D01*
X8963039Y-8061984D02*
X8982086Y-8061984D01*
X8982086Y-8061984D02*
X9001134Y-8071508D01*
X9001134Y-8071508D02*
X9010658Y-8081031D01*
X9010658Y-8081031D02*
X9020182Y-8100079D01*
X9020182Y-8100079D02*
X9029705Y-8138174D01*
X9029705Y-8138174D02*
X9029705Y-8185793D01*
X9029705Y-8185793D02*
X9020182Y-8223888D01*
X9020182Y-8223888D02*
X9010658Y-8242936D01*
X9010658Y-8242936D02*
X9001134Y-8252460D01*
X9001134Y-8252460D02*
X8982086Y-8261984D01*
X8982086Y-8261984D02*
X8963039Y-8261984D01*
X8963039Y-8261984D02*
X8943991Y-8252460D01*
X8943991Y-8252460D02*
X8934467Y-8242936D01*
X8934467Y-8242936D02*
X8924944Y-8223888D01*
X8924944Y-8223888D02*
X8915420Y-8185793D01*
X8915420Y-8185793D02*
X8915420Y-8138174D01*
X8915420Y-8138174D02*
X8924944Y-8100079D01*
X8924944Y-8100079D02*
X8934467Y-8081031D01*
X8934467Y-8081031D02*
X8943991Y-8071508D01*
X8943991Y-8071508D02*
X8963039Y-8061984D01*
X9115420Y-8261984D02*
X9115420Y-8128650D01*
X9115420Y-8147698D02*
X9124944Y-8138174D01*
X9124944Y-8138174D02*
X9143991Y-8128650D01*
X9143991Y-8128650D02*
X9172563Y-8128650D01*
X9172563Y-8128650D02*
X9191610Y-8138174D01*
X9191610Y-8138174D02*
X9201134Y-8157222D01*
X9201134Y-8157222D02*
X9201134Y-8261984D01*
X9201134Y-8157222D02*
X9210658Y-8138174D01*
X9210658Y-8138174D02*
X9229705Y-8128650D01*
X9229705Y-8128650D02*
X9258277Y-8128650D01*
X9258277Y-8128650D02*
X9277325Y-8138174D01*
X9277325Y-8138174D02*
X9286848Y-8157222D01*
X9286848Y-8157222D02*
X9286848Y-8261984D01*
X9382086Y-8261984D02*
X9382086Y-8128650D01*
X9382086Y-8147698D02*
X9391610Y-8138174D01*
X9391610Y-8138174D02*
X9410658Y-8128650D01*
X9410658Y-8128650D02*
X9439229Y-8128650D01*
X9439229Y-8128650D02*
X9458277Y-8138174D01*
X9458277Y-8138174D02*
X9467801Y-8157222D01*
X9467801Y-8157222D02*
X9467801Y-8261984D01*
X9467801Y-8157222D02*
X9477325Y-8138174D01*
X9477325Y-8138174D02*
X9496372Y-8128650D01*
X9496372Y-8128650D02*
X9524944Y-8128650D01*
X9524944Y-8128650D02*
X9543991Y-8138174D01*
X9543991Y-8138174D02*
X9553515Y-8157222D01*
X9553515Y-8157222D02*
X9553515Y-8261984D01*
X9943991Y-8052460D02*
X9772563Y-8309603D01*
X10201134Y-8061984D02*
X10220182Y-8061984D01*
X10220182Y-8061984D02*
X10239229Y-8071508D01*
X10239229Y-8071508D02*
X10248753Y-8081031D01*
X10248753Y-8081031D02*
X10258277Y-8100079D01*
X10258277Y-8100079D02*
X10267801Y-8138174D01*
X10267801Y-8138174D02*
X10267801Y-8185793D01*
X10267801Y-8185793D02*
X10258277Y-8223888D01*
X10258277Y-8223888D02*
X10248753Y-8242936D01*
X10248753Y-8242936D02*
X10239229Y-8252460D01*
X10239229Y-8252460D02*
X10220182Y-8261984D01*
X10220182Y-8261984D02*
X10201134Y-8261984D01*
X10201134Y-8261984D02*
X10182087Y-8252460D01*
X10182087Y-8252460D02*
X10172563Y-8242936D01*
X10172563Y-8242936D02*
X10163039Y-8223888D01*
X10163039Y-8223888D02*
X10153515Y-8185793D01*
X10153515Y-8185793D02*
X10153515Y-8138174D01*
X10153515Y-8138174D02*
X10163039Y-8100079D01*
X10163039Y-8100079D02*
X10172563Y-8081031D01*
X10172563Y-8081031D02*
X10182087Y-8071508D01*
X10182087Y-8071508D02*
X10201134Y-8061984D01*
X10353515Y-8242936D02*
X10363039Y-8252460D01*
X10363039Y-8252460D02*
X10353515Y-8261984D01*
X10353515Y-8261984D02*
X10343991Y-8252460D01*
X10343991Y-8252460D02*
X10353515Y-8242936D01*
X10353515Y-8242936D02*
X10353515Y-8261984D01*
X10486848Y-8061984D02*
X10505896Y-8061984D01*
X10505896Y-8061984D02*
X10524944Y-8071508D01*
X10524944Y-8071508D02*
X10534468Y-8081031D01*
X10534468Y-8081031D02*
X10543991Y-8100079D01*
X10543991Y-8100079D02*
X10553515Y-8138174D01*
X10553515Y-8138174D02*
X10553515Y-8185793D01*
X10553515Y-8185793D02*
X10543991Y-8223888D01*
X10543991Y-8223888D02*
X10534468Y-8242936D01*
X10534468Y-8242936D02*
X10524944Y-8252460D01*
X10524944Y-8252460D02*
X10505896Y-8261984D01*
X10505896Y-8261984D02*
X10486848Y-8261984D01*
X10486848Y-8261984D02*
X10467801Y-8252460D01*
X10467801Y-8252460D02*
X10458277Y-8242936D01*
X10458277Y-8242936D02*
X10448753Y-8223888D01*
X10448753Y-8223888D02*
X10439229Y-8185793D01*
X10439229Y-8185793D02*
X10439229Y-8138174D01*
X10439229Y-8138174D02*
X10448753Y-8100079D01*
X10448753Y-8100079D02*
X10458277Y-8081031D01*
X10458277Y-8081031D02*
X10467801Y-8071508D01*
X10467801Y-8071508D02*
X10486848Y-8061984D01*
X10629706Y-8081031D02*
X10639229Y-8071508D01*
X10639229Y-8071508D02*
X10658277Y-8061984D01*
X10658277Y-8061984D02*
X10705896Y-8061984D01*
X10705896Y-8061984D02*
X10724944Y-8071508D01*
X10724944Y-8071508D02*
X10734468Y-8081031D01*
X10734468Y-8081031D02*
X10743991Y-8100079D01*
X10743991Y-8100079D02*
X10743991Y-8119127D01*
X10743991Y-8119127D02*
X10734468Y-8147698D01*
X10734468Y-8147698D02*
X10620182Y-8261984D01*
X10620182Y-8261984D02*
X10743991Y-8261984D01*
X10934468Y-8261984D02*
X10820182Y-8261984D01*
X10877325Y-8261984D02*
X10877325Y-8061984D01*
X10877325Y-8061984D02*
X10858277Y-8090555D01*
X10858277Y-8090555D02*
X10839229Y-8109603D01*
X10839229Y-8109603D02*
X10820182Y-8119127D01*
X11001134Y-8061984D02*
X11134468Y-8061984D01*
X11134468Y-8061984D02*
X11048753Y-8261984D01*
X11201134Y-8061984D02*
X11201134Y-8100079D01*
X11277325Y-8061984D02*
X11277325Y-8100079D01*
X11572563Y-8338174D02*
X11563039Y-8328650D01*
X11563039Y-8328650D02*
X11543991Y-8300079D01*
X11543991Y-8300079D02*
X11534468Y-8281031D01*
X11534468Y-8281031D02*
X11524944Y-8252460D01*
X11524944Y-8252460D02*
X11515420Y-8204841D01*
X11515420Y-8204841D02*
X11515420Y-8166746D01*
X11515420Y-8166746D02*
X11524944Y-8119127D01*
X11524944Y-8119127D02*
X11534468Y-8090555D01*
X11534468Y-8090555D02*
X11543991Y-8071508D01*
X11543991Y-8071508D02*
X11563039Y-8042936D01*
X11563039Y-8042936D02*
X11572563Y-8033412D01*
X11686848Y-8061984D02*
X11705896Y-8061984D01*
X11705896Y-8061984D02*
X11724944Y-8071508D01*
X11724944Y-8071508D02*
X11734468Y-8081031D01*
X11734468Y-8081031D02*
X11743991Y-8100079D01*
X11743991Y-8100079D02*
X11753515Y-8138174D01*
X11753515Y-8138174D02*
X11753515Y-8185793D01*
X11753515Y-8185793D02*
X11743991Y-8223888D01*
X11743991Y-8223888D02*
X11734468Y-8242936D01*
X11734468Y-8242936D02*
X11724944Y-8252460D01*
X11724944Y-8252460D02*
X11705896Y-8261984D01*
X11705896Y-8261984D02*
X11686848Y-8261984D01*
X11686848Y-8261984D02*
X11667801Y-8252460D01*
X11667801Y-8252460D02*
X11658277Y-8242936D01*
X11658277Y-8242936D02*
X11648753Y-8223888D01*
X11648753Y-8223888D02*
X11639229Y-8185793D01*
X11639229Y-8185793D02*
X11639229Y-8138174D01*
X11639229Y-8138174D02*
X11648753Y-8100079D01*
X11648753Y-8100079D02*
X11658277Y-8081031D01*
X11658277Y-8081031D02*
X11667801Y-8071508D01*
X11667801Y-8071508D02*
X11686848Y-8061984D01*
X11991610Y-8261984D02*
X11991610Y-8061984D01*
X12077325Y-8261984D02*
X12077325Y-8157222D01*
X12077325Y-8157222D02*
X12067801Y-8138174D01*
X12067801Y-8138174D02*
X12048753Y-8128650D01*
X12048753Y-8128650D02*
X12020182Y-8128650D01*
X12020182Y-8128650D02*
X12001134Y-8138174D01*
X12001134Y-8138174D02*
X11991610Y-8147698D01*
X12201134Y-8261984D02*
X12182087Y-8252460D01*
X12182087Y-8252460D02*
X12172563Y-8242936D01*
X12172563Y-8242936D02*
X12163039Y-8223888D01*
X12163039Y-8223888D02*
X12163039Y-8166746D01*
X12163039Y-8166746D02*
X12172563Y-8147698D01*
X12172563Y-8147698D02*
X12182087Y-8138174D01*
X12182087Y-8138174D02*
X12201134Y-8128650D01*
X12201134Y-8128650D02*
X12229706Y-8128650D01*
X12229706Y-8128650D02*
X12248753Y-8138174D01*
X12248753Y-8138174D02*
X12258277Y-8147698D01*
X12258277Y-8147698D02*
X12267801Y-8166746D01*
X12267801Y-8166746D02*
X12267801Y-8223888D01*
X12267801Y-8223888D02*
X12258277Y-8242936D01*
X12258277Y-8242936D02*
X12248753Y-8252460D01*
X12248753Y-8252460D02*
X12229706Y-8261984D01*
X12229706Y-8261984D02*
X12201134Y-8261984D01*
X12382087Y-8261984D02*
X12363039Y-8252460D01*
X12363039Y-8252460D02*
X12353515Y-8233412D01*
X12353515Y-8233412D02*
X12353515Y-8061984D01*
X12534468Y-8252460D02*
X12515420Y-8261984D01*
X12515420Y-8261984D02*
X12477325Y-8261984D01*
X12477325Y-8261984D02*
X12458277Y-8252460D01*
X12458277Y-8252460D02*
X12448753Y-8233412D01*
X12448753Y-8233412D02*
X12448753Y-8157222D01*
X12448753Y-8157222D02*
X12458277Y-8138174D01*
X12458277Y-8138174D02*
X12477325Y-8128650D01*
X12477325Y-8128650D02*
X12515420Y-8128650D01*
X12515420Y-8128650D02*
X12534468Y-8138174D01*
X12534468Y-8138174D02*
X12543991Y-8157222D01*
X12543991Y-8157222D02*
X12543991Y-8176269D01*
X12543991Y-8176269D02*
X12448753Y-8195317D01*
X12620182Y-8252460D02*
X12639230Y-8261984D01*
X12639230Y-8261984D02*
X12677325Y-8261984D01*
X12677325Y-8261984D02*
X12696372Y-8252460D01*
X12696372Y-8252460D02*
X12705896Y-8233412D01*
X12705896Y-8233412D02*
X12705896Y-8223888D01*
X12705896Y-8223888D02*
X12696372Y-8204841D01*
X12696372Y-8204841D02*
X12677325Y-8195317D01*
X12677325Y-8195317D02*
X12648753Y-8195317D01*
X12648753Y-8195317D02*
X12629706Y-8185793D01*
X12629706Y-8185793D02*
X12620182Y-8166746D01*
X12620182Y-8166746D02*
X12620182Y-8157222D01*
X12620182Y-8157222D02*
X12629706Y-8138174D01*
X12629706Y-8138174D02*
X12648753Y-8128650D01*
X12648753Y-8128650D02*
X12677325Y-8128650D01*
X12677325Y-8128650D02*
X12696372Y-8138174D01*
X12943992Y-8185793D02*
X13096373Y-8185793D01*
X13020182Y-8261984D02*
X13020182Y-8109603D01*
X13334468Y-8081031D02*
X13343992Y-8071508D01*
X13343992Y-8071508D02*
X13363039Y-8061984D01*
X13363039Y-8061984D02*
X13410658Y-8061984D01*
X13410658Y-8061984D02*
X13429706Y-8071508D01*
X13429706Y-8071508D02*
X13439230Y-8081031D01*
X13439230Y-8081031D02*
X13448753Y-8100079D01*
X13448753Y-8100079D02*
X13448753Y-8119127D01*
X13448753Y-8119127D02*
X13439230Y-8147698D01*
X13439230Y-8147698D02*
X13324944Y-8261984D01*
X13324944Y-8261984D02*
X13448753Y-8261984D01*
X13677325Y-8252460D02*
X13696373Y-8261984D01*
X13696373Y-8261984D02*
X13734468Y-8261984D01*
X13734468Y-8261984D02*
X13753515Y-8252460D01*
X13753515Y-8252460D02*
X13763039Y-8233412D01*
X13763039Y-8233412D02*
X13763039Y-8223888D01*
X13763039Y-8223888D02*
X13753515Y-8204841D01*
X13753515Y-8204841D02*
X13734468Y-8195317D01*
X13734468Y-8195317D02*
X13705896Y-8195317D01*
X13705896Y-8195317D02*
X13686849Y-8185793D01*
X13686849Y-8185793D02*
X13677325Y-8166746D01*
X13677325Y-8166746D02*
X13677325Y-8157222D01*
X13677325Y-8157222D02*
X13686849Y-8138174D01*
X13686849Y-8138174D02*
X13705896Y-8128650D01*
X13705896Y-8128650D02*
X13734468Y-8128650D01*
X13734468Y-8128650D02*
X13753515Y-8138174D01*
X13877325Y-8261984D02*
X13858277Y-8252460D01*
X13858277Y-8252460D02*
X13848754Y-8233412D01*
X13848754Y-8233412D02*
X13848754Y-8061984D01*
X13982087Y-8261984D02*
X13963039Y-8252460D01*
X13963039Y-8252460D02*
X13953515Y-8242936D01*
X13953515Y-8242936D02*
X13943992Y-8223888D01*
X13943992Y-8223888D02*
X13943992Y-8166746D01*
X13943992Y-8166746D02*
X13953515Y-8147698D01*
X13953515Y-8147698D02*
X13963039Y-8138174D01*
X13963039Y-8138174D02*
X13982087Y-8128650D01*
X13982087Y-8128650D02*
X14010658Y-8128650D01*
X14010658Y-8128650D02*
X14029706Y-8138174D01*
X14029706Y-8138174D02*
X14039230Y-8147698D01*
X14039230Y-8147698D02*
X14048754Y-8166746D01*
X14048754Y-8166746D02*
X14048754Y-8223888D01*
X14048754Y-8223888D02*
X14039230Y-8242936D01*
X14039230Y-8242936D02*
X14029706Y-8252460D01*
X14029706Y-8252460D02*
X14010658Y-8261984D01*
X14010658Y-8261984D02*
X13982087Y-8261984D01*
X14105896Y-8128650D02*
X14182087Y-8128650D01*
X14134468Y-8061984D02*
X14134468Y-8233412D01*
X14134468Y-8233412D02*
X14143992Y-8252460D01*
X14143992Y-8252460D02*
X14163039Y-8261984D01*
X14163039Y-8261984D02*
X14182087Y-8261984D01*
X14239230Y-8252460D02*
X14258277Y-8261984D01*
X14258277Y-8261984D02*
X14296373Y-8261984D01*
X14296373Y-8261984D02*
X14315420Y-8252460D01*
X14315420Y-8252460D02*
X14324944Y-8233412D01*
X14324944Y-8233412D02*
X14324944Y-8223888D01*
X14324944Y-8223888D02*
X14315420Y-8204841D01*
X14315420Y-8204841D02*
X14296373Y-8195317D01*
X14296373Y-8195317D02*
X14267801Y-8195317D01*
X14267801Y-8195317D02*
X14248754Y-8185793D01*
X14248754Y-8185793D02*
X14239230Y-8166746D01*
X14239230Y-8166746D02*
X14239230Y-8157222D01*
X14239230Y-8157222D02*
X14248754Y-8138174D01*
X14248754Y-8138174D02*
X14267801Y-8128650D01*
X14267801Y-8128650D02*
X14296373Y-8128650D01*
X14296373Y-8128650D02*
X14315420Y-8138174D01*
X14391611Y-8338174D02*
X14401135Y-8328650D01*
X14401135Y-8328650D02*
X14420182Y-8300079D01*
X14420182Y-8300079D02*
X14429706Y-8281031D01*
X14429706Y-8281031D02*
X14439230Y-8252460D01*
X14439230Y-8252460D02*
X14448754Y-8204841D01*
X14448754Y-8204841D02*
X14448754Y-8166746D01*
X14448754Y-8166746D02*
X14439230Y-8119127D01*
X14439230Y-8119127D02*
X14429706Y-8090555D01*
X14429706Y-8090555D02*
X14420182Y-8071508D01*
X14420182Y-8071508D02*
X14401135Y-8042936D01*
X14401135Y-8042936D02*
X14391611Y-8033412D01*
D12*
X7987981Y-8457481D02*
X7987981Y-8411519D01*
X7942019Y-8411519D01*
X7942019Y-8457481D01*
X7987981Y-8457481D01*
D11*
X8296372Y-8325984D02*
X8315420Y-8325984D01*
X8315420Y-8325984D02*
X8334467Y-8335508D01*
X8334467Y-8335508D02*
X8343991Y-8345031D01*
X8343991Y-8345031D02*
X8353515Y-8364079D01*
X8353515Y-8364079D02*
X8363039Y-8402174D01*
X8363039Y-8402174D02*
X8363039Y-8449793D01*
X8363039Y-8449793D02*
X8353515Y-8487889D01*
X8353515Y-8487889D02*
X8343991Y-8506936D01*
X8343991Y-8506936D02*
X8334467Y-8516460D01*
X8334467Y-8516460D02*
X8315420Y-8525984D01*
X8315420Y-8525984D02*
X8296372Y-8525984D01*
X8296372Y-8525984D02*
X8277324Y-8516460D01*
X8277324Y-8516460D02*
X8267801Y-8506936D01*
X8267801Y-8506936D02*
X8258277Y-8487889D01*
X8258277Y-8487889D02*
X8248753Y-8449793D01*
X8248753Y-8449793D02*
X8248753Y-8402174D01*
X8248753Y-8402174D02*
X8258277Y-8364079D01*
X8258277Y-8364079D02*
X8267801Y-8345031D01*
X8267801Y-8345031D02*
X8277324Y-8335508D01*
X8277324Y-8335508D02*
X8296372Y-8325984D01*
X8448753Y-8506936D02*
X8458277Y-8516460D01*
X8458277Y-8516460D02*
X8448753Y-8525984D01*
X8448753Y-8525984D02*
X8439229Y-8516460D01*
X8439229Y-8516460D02*
X8448753Y-8506936D01*
X8448753Y-8506936D02*
X8448753Y-8525984D01*
X8629705Y-8325984D02*
X8591610Y-8325984D01*
X8591610Y-8325984D02*
X8572563Y-8335508D01*
X8572563Y-8335508D02*
X8563039Y-8345031D01*
X8563039Y-8345031D02*
X8543991Y-8373603D01*
X8543991Y-8373603D02*
X8534467Y-8411698D01*
X8534467Y-8411698D02*
X8534467Y-8487889D01*
X8534467Y-8487889D02*
X8543991Y-8506936D01*
X8543991Y-8506936D02*
X8553515Y-8516460D01*
X8553515Y-8516460D02*
X8572563Y-8525984D01*
X8572563Y-8525984D02*
X8610658Y-8525984D01*
X8610658Y-8525984D02*
X8629705Y-8516460D01*
X8629705Y-8516460D02*
X8639229Y-8506936D01*
X8639229Y-8506936D02*
X8648753Y-8487889D01*
X8648753Y-8487889D02*
X8648753Y-8440270D01*
X8648753Y-8440270D02*
X8639229Y-8421222D01*
X8639229Y-8421222D02*
X8629705Y-8411698D01*
X8629705Y-8411698D02*
X8610658Y-8402174D01*
X8610658Y-8402174D02*
X8572563Y-8402174D01*
X8572563Y-8402174D02*
X8553515Y-8411698D01*
X8553515Y-8411698D02*
X8543991Y-8421222D01*
X8543991Y-8421222D02*
X8534467Y-8440270D01*
X8829705Y-8325984D02*
X8734467Y-8325984D01*
X8734467Y-8325984D02*
X8724944Y-8421222D01*
X8724944Y-8421222D02*
X8734467Y-8411698D01*
X8734467Y-8411698D02*
X8753515Y-8402174D01*
X8753515Y-8402174D02*
X8801134Y-8402174D01*
X8801134Y-8402174D02*
X8820182Y-8411698D01*
X8820182Y-8411698D02*
X8829705Y-8421222D01*
X8829705Y-8421222D02*
X8839229Y-8440270D01*
X8839229Y-8440270D02*
X8839229Y-8487889D01*
X8839229Y-8487889D02*
X8829705Y-8506936D01*
X8829705Y-8506936D02*
X8820182Y-8516460D01*
X8820182Y-8516460D02*
X8801134Y-8525984D01*
X8801134Y-8525984D02*
X8753515Y-8525984D01*
X8753515Y-8525984D02*
X8734467Y-8516460D01*
X8734467Y-8516460D02*
X8724944Y-8506936D01*
X8963039Y-8325984D02*
X8982086Y-8325984D01*
X8982086Y-8325984D02*
X9001134Y-8335508D01*
X9001134Y-8335508D02*
X9010658Y-8345031D01*
X9010658Y-8345031D02*
X9020182Y-8364079D01*
X9020182Y-8364079D02*
X9029705Y-8402174D01*
X9029705Y-8402174D02*
X9029705Y-8449793D01*
X9029705Y-8449793D02*
X9020182Y-8487889D01*
X9020182Y-8487889D02*
X9010658Y-8506936D01*
X9010658Y-8506936D02*
X9001134Y-8516460D01*
X9001134Y-8516460D02*
X8982086Y-8525984D01*
X8982086Y-8525984D02*
X8963039Y-8525984D01*
X8963039Y-8525984D02*
X8943991Y-8516460D01*
X8943991Y-8516460D02*
X8934467Y-8506936D01*
X8934467Y-8506936D02*
X8924944Y-8487889D01*
X8924944Y-8487889D02*
X8915420Y-8449793D01*
X8915420Y-8449793D02*
X8915420Y-8402174D01*
X8915420Y-8402174D02*
X8924944Y-8364079D01*
X8924944Y-8364079D02*
X8934467Y-8345031D01*
X8934467Y-8345031D02*
X8943991Y-8335508D01*
X8943991Y-8335508D02*
X8963039Y-8325984D01*
X9115420Y-8525984D02*
X9115420Y-8392650D01*
X9115420Y-8411698D02*
X9124944Y-8402174D01*
X9124944Y-8402174D02*
X9143991Y-8392650D01*
X9143991Y-8392650D02*
X9172563Y-8392650D01*
X9172563Y-8392650D02*
X9191610Y-8402174D01*
X9191610Y-8402174D02*
X9201134Y-8421222D01*
X9201134Y-8421222D02*
X9201134Y-8525984D01*
X9201134Y-8421222D02*
X9210658Y-8402174D01*
X9210658Y-8402174D02*
X9229705Y-8392650D01*
X9229705Y-8392650D02*
X9258277Y-8392650D01*
X9258277Y-8392650D02*
X9277325Y-8402174D01*
X9277325Y-8402174D02*
X9286848Y-8421222D01*
X9286848Y-8421222D02*
X9286848Y-8525984D01*
X9382086Y-8525984D02*
X9382086Y-8392650D01*
X9382086Y-8411698D02*
X9391610Y-8402174D01*
X9391610Y-8402174D02*
X9410658Y-8392650D01*
X9410658Y-8392650D02*
X9439229Y-8392650D01*
X9439229Y-8392650D02*
X9458277Y-8402174D01*
X9458277Y-8402174D02*
X9467801Y-8421222D01*
X9467801Y-8421222D02*
X9467801Y-8525984D01*
X9467801Y-8421222D02*
X9477325Y-8402174D01*
X9477325Y-8402174D02*
X9496372Y-8392650D01*
X9496372Y-8392650D02*
X9524944Y-8392650D01*
X9524944Y-8392650D02*
X9543991Y-8402174D01*
X9543991Y-8402174D02*
X9553515Y-8421222D01*
X9553515Y-8421222D02*
X9553515Y-8525984D01*
X9943991Y-8316460D02*
X9772563Y-8573603D01*
X10201134Y-8325984D02*
X10220182Y-8325984D01*
X10220182Y-8325984D02*
X10239229Y-8335508D01*
X10239229Y-8335508D02*
X10248753Y-8345031D01*
X10248753Y-8345031D02*
X10258277Y-8364079D01*
X10258277Y-8364079D02*
X10267801Y-8402174D01*
X10267801Y-8402174D02*
X10267801Y-8449793D01*
X10267801Y-8449793D02*
X10258277Y-8487889D01*
X10258277Y-8487889D02*
X10248753Y-8506936D01*
X10248753Y-8506936D02*
X10239229Y-8516460D01*
X10239229Y-8516460D02*
X10220182Y-8525984D01*
X10220182Y-8525984D02*
X10201134Y-8525984D01*
X10201134Y-8525984D02*
X10182087Y-8516460D01*
X10182087Y-8516460D02*
X10172563Y-8506936D01*
X10172563Y-8506936D02*
X10163039Y-8487889D01*
X10163039Y-8487889D02*
X10153515Y-8449793D01*
X10153515Y-8449793D02*
X10153515Y-8402174D01*
X10153515Y-8402174D02*
X10163039Y-8364079D01*
X10163039Y-8364079D02*
X10172563Y-8345031D01*
X10172563Y-8345031D02*
X10182087Y-8335508D01*
X10182087Y-8335508D02*
X10201134Y-8325984D01*
X10353515Y-8506936D02*
X10363039Y-8516460D01*
X10363039Y-8516460D02*
X10353515Y-8525984D01*
X10353515Y-8525984D02*
X10343991Y-8516460D01*
X10343991Y-8516460D02*
X10353515Y-8506936D01*
X10353515Y-8506936D02*
X10353515Y-8525984D01*
X10486848Y-8325984D02*
X10505896Y-8325984D01*
X10505896Y-8325984D02*
X10524944Y-8335508D01*
X10524944Y-8335508D02*
X10534468Y-8345031D01*
X10534468Y-8345031D02*
X10543991Y-8364079D01*
X10543991Y-8364079D02*
X10553515Y-8402174D01*
X10553515Y-8402174D02*
X10553515Y-8449793D01*
X10553515Y-8449793D02*
X10543991Y-8487889D01*
X10543991Y-8487889D02*
X10534468Y-8506936D01*
X10534468Y-8506936D02*
X10524944Y-8516460D01*
X10524944Y-8516460D02*
X10505896Y-8525984D01*
X10505896Y-8525984D02*
X10486848Y-8525984D01*
X10486848Y-8525984D02*
X10467801Y-8516460D01*
X10467801Y-8516460D02*
X10458277Y-8506936D01*
X10458277Y-8506936D02*
X10448753Y-8487889D01*
X10448753Y-8487889D02*
X10439229Y-8449793D01*
X10439229Y-8449793D02*
X10439229Y-8402174D01*
X10439229Y-8402174D02*
X10448753Y-8364079D01*
X10448753Y-8364079D02*
X10458277Y-8345031D01*
X10458277Y-8345031D02*
X10467801Y-8335508D01*
X10467801Y-8335508D02*
X10486848Y-8325984D01*
X10629706Y-8345031D02*
X10639229Y-8335508D01*
X10639229Y-8335508D02*
X10658277Y-8325984D01*
X10658277Y-8325984D02*
X10705896Y-8325984D01*
X10705896Y-8325984D02*
X10724944Y-8335508D01*
X10724944Y-8335508D02*
X10734468Y-8345031D01*
X10734468Y-8345031D02*
X10743991Y-8364079D01*
X10743991Y-8364079D02*
X10743991Y-8383127D01*
X10743991Y-8383127D02*
X10734468Y-8411698D01*
X10734468Y-8411698D02*
X10620182Y-8525984D01*
X10620182Y-8525984D02*
X10743991Y-8525984D01*
X10924944Y-8325984D02*
X10829706Y-8325984D01*
X10829706Y-8325984D02*
X10820182Y-8421222D01*
X10820182Y-8421222D02*
X10829706Y-8411698D01*
X10829706Y-8411698D02*
X10848753Y-8402174D01*
X10848753Y-8402174D02*
X10896372Y-8402174D01*
X10896372Y-8402174D02*
X10915420Y-8411698D01*
X10915420Y-8411698D02*
X10924944Y-8421222D01*
X10924944Y-8421222D02*
X10934468Y-8440270D01*
X10934468Y-8440270D02*
X10934468Y-8487889D01*
X10934468Y-8487889D02*
X10924944Y-8506936D01*
X10924944Y-8506936D02*
X10915420Y-8516460D01*
X10915420Y-8516460D02*
X10896372Y-8525984D01*
X10896372Y-8525984D02*
X10848753Y-8525984D01*
X10848753Y-8525984D02*
X10829706Y-8516460D01*
X10829706Y-8516460D02*
X10820182Y-8506936D01*
X11105896Y-8325984D02*
X11067801Y-8325984D01*
X11067801Y-8325984D02*
X11048753Y-8335508D01*
X11048753Y-8335508D02*
X11039229Y-8345031D01*
X11039229Y-8345031D02*
X11020182Y-8373603D01*
X11020182Y-8373603D02*
X11010658Y-8411698D01*
X11010658Y-8411698D02*
X11010658Y-8487889D01*
X11010658Y-8487889D02*
X11020182Y-8506936D01*
X11020182Y-8506936D02*
X11029706Y-8516460D01*
X11029706Y-8516460D02*
X11048753Y-8525984D01*
X11048753Y-8525984D02*
X11086849Y-8525984D01*
X11086849Y-8525984D02*
X11105896Y-8516460D01*
X11105896Y-8516460D02*
X11115420Y-8506936D01*
X11115420Y-8506936D02*
X11124944Y-8487889D01*
X11124944Y-8487889D02*
X11124944Y-8440270D01*
X11124944Y-8440270D02*
X11115420Y-8421222D01*
X11115420Y-8421222D02*
X11105896Y-8411698D01*
X11105896Y-8411698D02*
X11086849Y-8402174D01*
X11086849Y-8402174D02*
X11048753Y-8402174D01*
X11048753Y-8402174D02*
X11029706Y-8411698D01*
X11029706Y-8411698D02*
X11020182Y-8421222D01*
X11020182Y-8421222D02*
X11010658Y-8440270D01*
X11201134Y-8325984D02*
X11201134Y-8364079D01*
X11277325Y-8325984D02*
X11277325Y-8364079D01*
X11572563Y-8602174D02*
X11563039Y-8592650D01*
X11563039Y-8592650D02*
X11543991Y-8564079D01*
X11543991Y-8564079D02*
X11534468Y-8545031D01*
X11534468Y-8545031D02*
X11524944Y-8516460D01*
X11524944Y-8516460D02*
X11515420Y-8468841D01*
X11515420Y-8468841D02*
X11515420Y-8430746D01*
X11515420Y-8430746D02*
X11524944Y-8383127D01*
X11524944Y-8383127D02*
X11534468Y-8354555D01*
X11534468Y-8354555D02*
X11543991Y-8335508D01*
X11543991Y-8335508D02*
X11563039Y-8306936D01*
X11563039Y-8306936D02*
X11572563Y-8297412D01*
X11639229Y-8345031D02*
X11648753Y-8335508D01*
X11648753Y-8335508D02*
X11667801Y-8325984D01*
X11667801Y-8325984D02*
X11715420Y-8325984D01*
X11715420Y-8325984D02*
X11734468Y-8335508D01*
X11734468Y-8335508D02*
X11743991Y-8345031D01*
X11743991Y-8345031D02*
X11753515Y-8364079D01*
X11753515Y-8364079D02*
X11753515Y-8383127D01*
X11753515Y-8383127D02*
X11743991Y-8411698D01*
X11743991Y-8411698D02*
X11629706Y-8525984D01*
X11629706Y-8525984D02*
X11753515Y-8525984D01*
X11924944Y-8392650D02*
X11924944Y-8525984D01*
X11877325Y-8316460D02*
X11829706Y-8459317D01*
X11829706Y-8459317D02*
X11953515Y-8459317D01*
X12182087Y-8525984D02*
X12182087Y-8325984D01*
X12267801Y-8525984D02*
X12267801Y-8421222D01*
X12267801Y-8421222D02*
X12258277Y-8402174D01*
X12258277Y-8402174D02*
X12239230Y-8392650D01*
X12239230Y-8392650D02*
X12210658Y-8392650D01*
X12210658Y-8392650D02*
X12191610Y-8402174D01*
X12191610Y-8402174D02*
X12182087Y-8411698D01*
X12391610Y-8525984D02*
X12372563Y-8516460D01*
X12372563Y-8516460D02*
X12363039Y-8506936D01*
X12363039Y-8506936D02*
X12353515Y-8487889D01*
X12353515Y-8487889D02*
X12353515Y-8430746D01*
X12353515Y-8430746D02*
X12363039Y-8411698D01*
X12363039Y-8411698D02*
X12372563Y-8402174D01*
X12372563Y-8402174D02*
X12391610Y-8392650D01*
X12391610Y-8392650D02*
X12420182Y-8392650D01*
X12420182Y-8392650D02*
X12439230Y-8402174D01*
X12439230Y-8402174D02*
X12448753Y-8411698D01*
X12448753Y-8411698D02*
X12458277Y-8430746D01*
X12458277Y-8430746D02*
X12458277Y-8487889D01*
X12458277Y-8487889D02*
X12448753Y-8506936D01*
X12448753Y-8506936D02*
X12439230Y-8516460D01*
X12439230Y-8516460D02*
X12420182Y-8525984D01*
X12420182Y-8525984D02*
X12391610Y-8525984D01*
X12572563Y-8525984D02*
X12553515Y-8516460D01*
X12553515Y-8516460D02*
X12543991Y-8497412D01*
X12543991Y-8497412D02*
X12543991Y-8325984D01*
X12724944Y-8516460D02*
X12705896Y-8525984D01*
X12705896Y-8525984D02*
X12667801Y-8525984D01*
X12667801Y-8525984D02*
X12648753Y-8516460D01*
X12648753Y-8516460D02*
X12639230Y-8497412D01*
X12639230Y-8497412D02*
X12639230Y-8421222D01*
X12639230Y-8421222D02*
X12648753Y-8402174D01*
X12648753Y-8402174D02*
X12667801Y-8392650D01*
X12667801Y-8392650D02*
X12705896Y-8392650D01*
X12705896Y-8392650D02*
X12724944Y-8402174D01*
X12724944Y-8402174D02*
X12734468Y-8421222D01*
X12734468Y-8421222D02*
X12734468Y-8440270D01*
X12734468Y-8440270D02*
X12639230Y-8459317D01*
X12810658Y-8516460D02*
X12829706Y-8525984D01*
X12829706Y-8525984D02*
X12867801Y-8525984D01*
X12867801Y-8525984D02*
X12886849Y-8516460D01*
X12886849Y-8516460D02*
X12896372Y-8497412D01*
X12896372Y-8497412D02*
X12896372Y-8487889D01*
X12896372Y-8487889D02*
X12886849Y-8468841D01*
X12886849Y-8468841D02*
X12867801Y-8459317D01*
X12867801Y-8459317D02*
X12839230Y-8459317D01*
X12839230Y-8459317D02*
X12820182Y-8449793D01*
X12820182Y-8449793D02*
X12810658Y-8430746D01*
X12810658Y-8430746D02*
X12810658Y-8421222D01*
X12810658Y-8421222D02*
X12820182Y-8402174D01*
X12820182Y-8402174D02*
X12839230Y-8392650D01*
X12839230Y-8392650D02*
X12867801Y-8392650D01*
X12867801Y-8392650D02*
X12886849Y-8402174D01*
X12963039Y-8602174D02*
X12972563Y-8592650D01*
X12972563Y-8592650D02*
X12991611Y-8564079D01*
X12991611Y-8564079D02*
X13001134Y-8545031D01*
X13001134Y-8545031D02*
X13010658Y-8516460D01*
X13010658Y-8516460D02*
X13020182Y-8468841D01*
X13020182Y-8468841D02*
X13020182Y-8430746D01*
X13020182Y-8430746D02*
X13010658Y-8383127D01*
X13010658Y-8383127D02*
X13001134Y-8354555D01*
X13001134Y-8354555D02*
X12991611Y-8335508D01*
X12991611Y-8335508D02*
X12972563Y-8306936D01*
X12972563Y-8306936D02*
X12963039Y-8297412D01*
M02*
