M48
; DRILL file {KiCad 8.0.5} date 2024-11-30T21:41:33+0530
; FORMAT={-:-/ absolute / metric / decimal}
; #@! TF.CreationDate,2024-11-30T21:41:33+05:30
; #@! TF.GenerationSoftware,Kicad,Pcbnew,8.0.5
; #@! TF.FileFunction,Plated,1,2,PTH
FMAT,2
METRIC
; #@! TA.AperFunction,Plated,PTH,ViaDrill
T1C0.200
; #@! TA.AperFunction,Plated,PTH,ComponentDrill
T2C0.500
; #@! TA.AperFunction,Plated,PTH,ComponentDrill
T3C0.600
; #@! TA.AperFunction,Plated,PTH,ComponentDrill
T4C0.650
%
G90
G05
T1
X82.374Y-41.906
X85.239Y-59.35
X89.179Y-63.602
X90.15Y-49.451
X90.67Y-45.273
X92.937Y-29.047
X93.383Y-57.377
X94.849Y-56.95
X94.92Y-50.172
X95.327Y-49.345
X95.865Y-47.67
X95.895Y-46.308
X95.899Y-48.221
X96.501Y-37.175
X96.631Y-50.155
X96.923Y-36.764
X97.352Y-36.317
X97.481Y-41.619
X97.989Y-36.206
X98.267Y-50.408
X98.398Y-41.928
X98.854Y-55.373
X99.498Y-51.501
X99.715Y-56.298
X100.478Y-50.444
X101.39Y-41.6
X101.422Y-50.421
X101.61Y-28.26
X102.233Y-55.871
X102.564Y-41.941
X103.373Y-49.469
X103.637Y-50.397
X103.9Y-42.179
X104.373Y-46.92
X104.377Y-45.609
X104.458Y-42.032
X104.624Y-47.768
X104.91Y-42.971
X105.636Y-34.547
X106.431Y-48.507
X106.636Y-42.632
X106.916Y-40.7
X107.283Y-54.322
X107.464Y-52.171
X109.016Y-55.121
X109.597Y-44.42
X109.598Y-49.615
X109.616Y-57.22
X109.867Y-52.241
X110.242Y-50.497
X112.067Y-53.636
X112.97Y-60.134
X114.877Y-45.92
X114.974Y-49.509
X115.173Y-50.649
X115.761Y-50.57
X115.847Y-48.07
X115.9Y-49.977
X116.269Y-49.07
X116.56Y-48.173
T2
X96.103Y-63.779
X97.103Y-63.779
X98.103Y-63.779
X99.103Y-63.779
X100.103Y-63.779
X101.103Y-63.779
X114.65Y-64.96
X114.65Y-65.96
X114.65Y-66.96
X114.65Y-67.96
T4
X84.811Y-53.721
X86.081Y-53.721
X87.351Y-53.721
X88.392Y-44.069
X88.392Y-45.339
X88.392Y-46.609
X88.392Y-47.879
X88.621Y-53.721
X96.749Y-67.2
X98.019Y-67.2
X99.289Y-67.2
X100.559Y-67.2
X101.829Y-67.2
X103.099Y-67.2
X107.061Y-67.2
X108.331Y-67.2
X109.601Y-67.2
X110.24Y-42.418
X110.871Y-67.2
X111.51Y-42.418
X112.78Y-42.418
X114.05Y-42.418
X119.456Y-60.55
X120.726Y-60.55
T3
X117.57Y-45.0G85X118.67Y-45.0
G05
X117.57Y-53.64G85X118.67Y-53.64
G05
X121.9Y-45.0G85X122.7Y-45.0
G05
X121.9Y-53.64G85X122.7Y-53.64
G05
M30
