G04 #@! TF.GenerationSoftware,KiCad,Pcbnew,8.0.7*
G04 #@! TF.CreationDate,2024-12-11T19:40:25+05:30*
G04 #@! TF.ProjectId,SNSRTG401V30,534e5352-5447-4343-9031-5633302e6b69,3.0*
G04 #@! TF.SameCoordinates,Original*
G04 #@! TF.FileFunction,Soldermask,Bot*
G04 #@! TF.FilePolarity,Negative*
%FSLAX46Y46*%
G04 Gerber Fmt 4.6, Leading zero omitted, Abs format (unit mm)*
G04 Created by KiCad (PCBNEW 8.0.7) date 2024-12-11 19:40:25*
%MOMM*%
%LPD*%
G01*
G04 APERTURE LIST*
G04 Aperture macros list*
%AMRoundRect*
0 Rectangle with rounded corners*
0 $1 Rounding radius*
0 $2 $3 $4 $5 $6 $7 $8 $9 X,Y pos of 4 corners*
0 Add a 4 corners polygon primitive as box body*
4,1,4,$2,$3,$4,$5,$6,$7,$8,$9,$2,$3,0*
0 Add four circle primitives for the rounded corners*
1,1,$1+$1,$2,$3*
1,1,$1+$1,$4,$5*
1,1,$1+$1,$6,$7*
1,1,$1+$1,$8,$9*
0 Add four rect primitives between the rounded corners*
20,1,$1+$1,$2,$3,$4,$5,0*
20,1,$1+$1,$4,$5,$6,$7,0*
20,1,$1+$1,$6,$7,$8,$9,0*
20,1,$1+$1,$8,$9,$2,$3,0*%
G04 Aperture macros list end*
%ADD10R,0.850000X0.850000*%
%ADD11O,0.850000X0.850000*%
%ADD12C,3.200000*%
%ADD13R,1.000000X1.000000*%
%ADD14O,1.000000X1.000000*%
%ADD15C,0.800000*%
%ADD16C,0.650000*%
%ADD17O,2.100000X1.000000*%
%ADD18O,1.800000X1.000000*%
%ADD19RoundRect,0.200000X-0.700000X-0.400000X0.700000X-0.400000X0.700000X0.400000X-0.700000X0.400000X0*%
%ADD20RoundRect,0.200000X-0.400000X-0.700000X0.400000X-0.700000X0.400000X0.700000X-0.400000X0.700000X0*%
%ADD21C,0.600000*%
G04 APERTURE END LIST*
D10*
X114650000Y-67960000D03*
D11*
X114650000Y-66960000D03*
X114650000Y-65960000D03*
X114650000Y-64960000D03*
D12*
X83500000Y-66500000D03*
X120500000Y-29500000D03*
D13*
X88620600Y-53721000D03*
D14*
X87350600Y-53721000D03*
X86080600Y-53721000D03*
X84810600Y-53721000D03*
D10*
X96102800Y-63779400D03*
D11*
X97102800Y-63779400D03*
X98102800Y-63779400D03*
X99102800Y-63779400D03*
X100102800Y-63779400D03*
X101102800Y-63779400D03*
D13*
X88392000Y-44069000D03*
D14*
X88392000Y-45339000D03*
X88392000Y-46609000D03*
X88392000Y-47879000D03*
D13*
X96748600Y-67200000D03*
D14*
X98018600Y-67200000D03*
X99288600Y-67200000D03*
X100558600Y-67200000D03*
X101828600Y-67200000D03*
X103098600Y-67200000D03*
D13*
X107061000Y-67200000D03*
D14*
X108331000Y-67200000D03*
X109601000Y-67200000D03*
X110871000Y-67200000D03*
D12*
X120500000Y-66500000D03*
D15*
X91347467Y-59090433D03*
D13*
X110240000Y-42418000D03*
D14*
X111510000Y-42418000D03*
X112780000Y-42418000D03*
X114050000Y-42418000D03*
D12*
X83500000Y-29500000D03*
D16*
X118620000Y-52210000D03*
X118620000Y-46430000D03*
D17*
X118120000Y-53640000D03*
D18*
X122300000Y-53640000D03*
D17*
X118120000Y-45000000D03*
D18*
X122300000Y-45000000D03*
D13*
X119456200Y-60550000D03*
D14*
X120726200Y-60550000D03*
D19*
X113441000Y-26838000D03*
X113441000Y-28338000D03*
X113441000Y-29838000D03*
X113441000Y-31338000D03*
X113441000Y-32838000D03*
X113441000Y-34338000D03*
X113441000Y-35838000D03*
X113441000Y-37338000D03*
D20*
X111591000Y-38438000D03*
X110091000Y-38438000D03*
X108591000Y-38438000D03*
X107091000Y-38438000D03*
X105591000Y-38438000D03*
X104091000Y-38438000D03*
X102591000Y-38438000D03*
X101091000Y-38438000D03*
D19*
X99241000Y-37338000D03*
X99241000Y-35838000D03*
X99241000Y-34338000D03*
X99241000Y-32838000D03*
X99241000Y-31338000D03*
X99241000Y-29838000D03*
X99241000Y-28338000D03*
X99241000Y-26838000D03*
D21*
X115036100Y-49921100D03*
X105487300Y-46388600D03*
X95773800Y-46438600D03*
X110490800Y-47064400D03*
X95802400Y-45047400D03*
X97500700Y-27678700D03*
X90591900Y-28918000D03*
X115979500Y-49861600D03*
X118583900Y-48657900D03*
X119933200Y-39947600D03*
X114617500Y-28499900D03*
X120341700Y-45800700D03*
X119666900Y-36234600D03*
X118615000Y-47812900D03*
X98840700Y-51352600D03*
X84055300Y-52930200D03*
X98347600Y-53298700D03*
X105477600Y-54940000D03*
X84325400Y-42073400D03*
X115110800Y-51070000D03*
X100577000Y-41841800D03*
X90064000Y-62909100D03*
X89242200Y-59335900D03*
X108331000Y-56631000D03*
X101900000Y-40775800D03*
X107392800Y-51968000D03*
X109443700Y-56850500D03*
X95537200Y-49990700D03*
X94994000Y-50816900D03*
X93160400Y-31392400D03*
X103252900Y-41378500D03*
X96376900Y-37833200D03*
X102806600Y-61709100D03*
X97523100Y-50643500D03*
X95717800Y-30062500D03*
X93153800Y-28860900D03*
X113263500Y-60205400D03*
X109632100Y-48807400D03*
X105410700Y-47586400D03*
X101030000Y-55770000D03*
X104518700Y-45334900D03*
X89095800Y-57299800D03*
X104523000Y-48278900D03*
X100995900Y-50679700D03*
X95221100Y-55793800D03*
X92448500Y-55951500D03*
X103531200Y-49496900D03*
X109480500Y-44420000D03*
X115356400Y-48683900D03*
X105024900Y-42732500D03*
X116506300Y-48870800D03*
X110840400Y-40486200D03*
X96626000Y-36784500D03*
X95785200Y-48464800D03*
X102808800Y-40177100D03*
X95107300Y-48862900D03*
X96949300Y-35919900D03*
X98350600Y-40218700D03*
X97521300Y-41512400D03*
X112003000Y-53496300D03*
X115253800Y-46354800D03*
X106146500Y-40222900D03*
M02*
