%TF.GenerationSoftware,KiCad,Pcbnew,8.0.7*%
%TF.CreationDate,2024-12-11T19:40:18+05:30*%
%TF.ProjectId,SNSRTG401V30,534e5352-5447-4343-9031-5633302e6b69,3.0*%
%TF.SameCoordinates,Original*%
%TF.FileFunction,Drillmap*%
%TF.FilePolarity,Positive*%
%FSLAX45Y45*%
G04 Gerber Fmt 4.5, Leading zero omitted, Abs format (unit mm)*
G04 Created by KiCad (PCBNEW 8.0.7) date 2024-12-11 19:40:18*
%MOMM*%
%LPD*%
G01*
G04 APERTURE LIST*
%ADD10C,0.050000*%
%ADD11C,0.200000*%
%ADD12C,0.100000*%
%ADD13C,0.320000*%
G04 APERTURE END LIST*
D10*
X8000000Y-2600000D02*
X12400000Y-2600000D01*
X12400000Y-7000000D01*
X8000000Y-7000000D01*
X8000000Y-2600000D01*
D11*
D12*
X11829500Y-4610500D02*
X11894500Y-4675500D01*
X11894500Y-4610500D02*
X11829500Y-4675500D01*
X11829500Y-5188500D02*
X11894500Y-5253500D01*
X11894500Y-5188500D02*
X11829500Y-5253500D01*
X9174747Y-5909043D02*
G75*
G02*
X9094747Y-5909043I-40000J0D01*
G01*
X9094747Y-5909043D02*
G75*
G02*
X9174747Y-5909043I40000J0D01*
G01*
D13*
X8350000Y-2790000D02*
X8350000Y-3110000D01*
X8190000Y-2950000D02*
X8510000Y-2950000D01*
X8350000Y-6490000D02*
X8350000Y-6810000D01*
X8190000Y-6650000D02*
X8510000Y-6650000D01*
X12050000Y-2790000D02*
X12050000Y-3110000D01*
X11890000Y-2950000D02*
X12210000Y-2950000D01*
X12050000Y-6490000D02*
X12050000Y-6810000D01*
X11890000Y-6650000D02*
X12210000Y-6650000D01*
D11*
X8258277Y-7313984D02*
X8258277Y-7113984D01*
X8258277Y-7113984D02*
X8305896Y-7113984D01*
X8305896Y-7113984D02*
X8334467Y-7123508D01*
X8334467Y-7123508D02*
X8353515Y-7142555D01*
X8353515Y-7142555D02*
X8363039Y-7161603D01*
X8363039Y-7161603D02*
X8372562Y-7199698D01*
X8372562Y-7199698D02*
X8372562Y-7228269D01*
X8372562Y-7228269D02*
X8363039Y-7266365D01*
X8363039Y-7266365D02*
X8353515Y-7285412D01*
X8353515Y-7285412D02*
X8334467Y-7304460D01*
X8334467Y-7304460D02*
X8305896Y-7313984D01*
X8305896Y-7313984D02*
X8258277Y-7313984D01*
X8458277Y-7313984D02*
X8458277Y-7180650D01*
X8458277Y-7218746D02*
X8467801Y-7199698D01*
X8467801Y-7199698D02*
X8477324Y-7190174D01*
X8477324Y-7190174D02*
X8496372Y-7180650D01*
X8496372Y-7180650D02*
X8515420Y-7180650D01*
X8582086Y-7313984D02*
X8582086Y-7180650D01*
X8582086Y-7113984D02*
X8572563Y-7123508D01*
X8572563Y-7123508D02*
X8582086Y-7133031D01*
X8582086Y-7133031D02*
X8591610Y-7123508D01*
X8591610Y-7123508D02*
X8582086Y-7113984D01*
X8582086Y-7113984D02*
X8582086Y-7133031D01*
X8705896Y-7313984D02*
X8686848Y-7304460D01*
X8686848Y-7304460D02*
X8677324Y-7285412D01*
X8677324Y-7285412D02*
X8677324Y-7113984D01*
X8810658Y-7313984D02*
X8791610Y-7304460D01*
X8791610Y-7304460D02*
X8782086Y-7285412D01*
X8782086Y-7285412D02*
X8782086Y-7113984D01*
X9039229Y-7313984D02*
X9039229Y-7113984D01*
X9039229Y-7113984D02*
X9105896Y-7256841D01*
X9105896Y-7256841D02*
X9172563Y-7113984D01*
X9172563Y-7113984D02*
X9172563Y-7313984D01*
X9353515Y-7313984D02*
X9353515Y-7209222D01*
X9353515Y-7209222D02*
X9343991Y-7190174D01*
X9343991Y-7190174D02*
X9324944Y-7180650D01*
X9324944Y-7180650D02*
X9286848Y-7180650D01*
X9286848Y-7180650D02*
X9267801Y-7190174D01*
X9353515Y-7304460D02*
X9334467Y-7313984D01*
X9334467Y-7313984D02*
X9286848Y-7313984D01*
X9286848Y-7313984D02*
X9267801Y-7304460D01*
X9267801Y-7304460D02*
X9258277Y-7285412D01*
X9258277Y-7285412D02*
X9258277Y-7266365D01*
X9258277Y-7266365D02*
X9267801Y-7247317D01*
X9267801Y-7247317D02*
X9286848Y-7237793D01*
X9286848Y-7237793D02*
X9334467Y-7237793D01*
X9334467Y-7237793D02*
X9353515Y-7228269D01*
X9448753Y-7180650D02*
X9448753Y-7380650D01*
X9448753Y-7190174D02*
X9467801Y-7180650D01*
X9467801Y-7180650D02*
X9505896Y-7180650D01*
X9505896Y-7180650D02*
X9524944Y-7190174D01*
X9524944Y-7190174D02*
X9534467Y-7199698D01*
X9534467Y-7199698D02*
X9543991Y-7218746D01*
X9543991Y-7218746D02*
X9543991Y-7275888D01*
X9543991Y-7275888D02*
X9534467Y-7294936D01*
X9534467Y-7294936D02*
X9524944Y-7304460D01*
X9524944Y-7304460D02*
X9505896Y-7313984D01*
X9505896Y-7313984D02*
X9467801Y-7313984D01*
X9467801Y-7313984D02*
X9448753Y-7304460D01*
X9629705Y-7294936D02*
X9639229Y-7304460D01*
X9639229Y-7304460D02*
X9629705Y-7313984D01*
X9629705Y-7313984D02*
X9620182Y-7304460D01*
X9620182Y-7304460D02*
X9629705Y-7294936D01*
X9629705Y-7294936D02*
X9629705Y-7313984D01*
X9629705Y-7190174D02*
X9639229Y-7199698D01*
X9639229Y-7199698D02*
X9629705Y-7209222D01*
X9629705Y-7209222D02*
X9620182Y-7199698D01*
X9620182Y-7199698D02*
X9629705Y-7190174D01*
X9629705Y-7190174D02*
X9629705Y-7209222D01*
D12*
X7932500Y-7610000D02*
X7997500Y-7675000D01*
X7997500Y-7610000D02*
X7932500Y-7675000D01*
D11*
X8296372Y-7533984D02*
X8315420Y-7533984D01*
X8315420Y-7533984D02*
X8334467Y-7543508D01*
X8334467Y-7543508D02*
X8343991Y-7553031D01*
X8343991Y-7553031D02*
X8353515Y-7572079D01*
X8353515Y-7572079D02*
X8363039Y-7610174D01*
X8363039Y-7610174D02*
X8363039Y-7657793D01*
X8363039Y-7657793D02*
X8353515Y-7695888D01*
X8353515Y-7695888D02*
X8343991Y-7714936D01*
X8343991Y-7714936D02*
X8334467Y-7724460D01*
X8334467Y-7724460D02*
X8315420Y-7733984D01*
X8315420Y-7733984D02*
X8296372Y-7733984D01*
X8296372Y-7733984D02*
X8277324Y-7724460D01*
X8277324Y-7724460D02*
X8267801Y-7714936D01*
X8267801Y-7714936D02*
X8258277Y-7695888D01*
X8258277Y-7695888D02*
X8248753Y-7657793D01*
X8248753Y-7657793D02*
X8248753Y-7610174D01*
X8248753Y-7610174D02*
X8258277Y-7572079D01*
X8258277Y-7572079D02*
X8267801Y-7553031D01*
X8267801Y-7553031D02*
X8277324Y-7543508D01*
X8277324Y-7543508D02*
X8296372Y-7533984D01*
X8448753Y-7714936D02*
X8458277Y-7724460D01*
X8458277Y-7724460D02*
X8448753Y-7733984D01*
X8448753Y-7733984D02*
X8439229Y-7724460D01*
X8439229Y-7724460D02*
X8448753Y-7714936D01*
X8448753Y-7714936D02*
X8448753Y-7733984D01*
X8629705Y-7533984D02*
X8591610Y-7533984D01*
X8591610Y-7533984D02*
X8572563Y-7543508D01*
X8572563Y-7543508D02*
X8563039Y-7553031D01*
X8563039Y-7553031D02*
X8543991Y-7581603D01*
X8543991Y-7581603D02*
X8534467Y-7619698D01*
X8534467Y-7619698D02*
X8534467Y-7695888D01*
X8534467Y-7695888D02*
X8543991Y-7714936D01*
X8543991Y-7714936D02*
X8553515Y-7724460D01*
X8553515Y-7724460D02*
X8572563Y-7733984D01*
X8572563Y-7733984D02*
X8610658Y-7733984D01*
X8610658Y-7733984D02*
X8629705Y-7724460D01*
X8629705Y-7724460D02*
X8639229Y-7714936D01*
X8639229Y-7714936D02*
X8648753Y-7695888D01*
X8648753Y-7695888D02*
X8648753Y-7648269D01*
X8648753Y-7648269D02*
X8639229Y-7629222D01*
X8639229Y-7629222D02*
X8629705Y-7619698D01*
X8629705Y-7619698D02*
X8610658Y-7610174D01*
X8610658Y-7610174D02*
X8572563Y-7610174D01*
X8572563Y-7610174D02*
X8553515Y-7619698D01*
X8553515Y-7619698D02*
X8543991Y-7629222D01*
X8543991Y-7629222D02*
X8534467Y-7648269D01*
X8829705Y-7533984D02*
X8734467Y-7533984D01*
X8734467Y-7533984D02*
X8724944Y-7629222D01*
X8724944Y-7629222D02*
X8734467Y-7619698D01*
X8734467Y-7619698D02*
X8753515Y-7610174D01*
X8753515Y-7610174D02*
X8801134Y-7610174D01*
X8801134Y-7610174D02*
X8820182Y-7619698D01*
X8820182Y-7619698D02*
X8829705Y-7629222D01*
X8829705Y-7629222D02*
X8839229Y-7648269D01*
X8839229Y-7648269D02*
X8839229Y-7695888D01*
X8839229Y-7695888D02*
X8829705Y-7714936D01*
X8829705Y-7714936D02*
X8820182Y-7724460D01*
X8820182Y-7724460D02*
X8801134Y-7733984D01*
X8801134Y-7733984D02*
X8753515Y-7733984D01*
X8753515Y-7733984D02*
X8734467Y-7724460D01*
X8734467Y-7724460D02*
X8724944Y-7714936D01*
X8963039Y-7533984D02*
X8982086Y-7533984D01*
X8982086Y-7533984D02*
X9001134Y-7543508D01*
X9001134Y-7543508D02*
X9010658Y-7553031D01*
X9010658Y-7553031D02*
X9020182Y-7572079D01*
X9020182Y-7572079D02*
X9029705Y-7610174D01*
X9029705Y-7610174D02*
X9029705Y-7657793D01*
X9029705Y-7657793D02*
X9020182Y-7695888D01*
X9020182Y-7695888D02*
X9010658Y-7714936D01*
X9010658Y-7714936D02*
X9001134Y-7724460D01*
X9001134Y-7724460D02*
X8982086Y-7733984D01*
X8982086Y-7733984D02*
X8963039Y-7733984D01*
X8963039Y-7733984D02*
X8943991Y-7724460D01*
X8943991Y-7724460D02*
X8934467Y-7714936D01*
X8934467Y-7714936D02*
X8924944Y-7695888D01*
X8924944Y-7695888D02*
X8915420Y-7657793D01*
X8915420Y-7657793D02*
X8915420Y-7610174D01*
X8915420Y-7610174D02*
X8924944Y-7572079D01*
X8924944Y-7572079D02*
X8934467Y-7553031D01*
X8934467Y-7553031D02*
X8943991Y-7543508D01*
X8943991Y-7543508D02*
X8963039Y-7533984D01*
X9115420Y-7733984D02*
X9115420Y-7600650D01*
X9115420Y-7619698D02*
X9124944Y-7610174D01*
X9124944Y-7610174D02*
X9143991Y-7600650D01*
X9143991Y-7600650D02*
X9172563Y-7600650D01*
X9172563Y-7600650D02*
X9191610Y-7610174D01*
X9191610Y-7610174D02*
X9201134Y-7629222D01*
X9201134Y-7629222D02*
X9201134Y-7733984D01*
X9201134Y-7629222D02*
X9210658Y-7610174D01*
X9210658Y-7610174D02*
X9229705Y-7600650D01*
X9229705Y-7600650D02*
X9258277Y-7600650D01*
X9258277Y-7600650D02*
X9277325Y-7610174D01*
X9277325Y-7610174D02*
X9286848Y-7629222D01*
X9286848Y-7629222D02*
X9286848Y-7733984D01*
X9382086Y-7733984D02*
X9382086Y-7600650D01*
X9382086Y-7619698D02*
X9391610Y-7610174D01*
X9391610Y-7610174D02*
X9410658Y-7600650D01*
X9410658Y-7600650D02*
X9439229Y-7600650D01*
X9439229Y-7600650D02*
X9458277Y-7610174D01*
X9458277Y-7610174D02*
X9467801Y-7629222D01*
X9467801Y-7629222D02*
X9467801Y-7733984D01*
X9467801Y-7629222D02*
X9477325Y-7610174D01*
X9477325Y-7610174D02*
X9496372Y-7600650D01*
X9496372Y-7600650D02*
X9524944Y-7600650D01*
X9524944Y-7600650D02*
X9543991Y-7610174D01*
X9543991Y-7610174D02*
X9553515Y-7629222D01*
X9553515Y-7629222D02*
X9553515Y-7733984D01*
X9943991Y-7524460D02*
X9772563Y-7781603D01*
X10201134Y-7533984D02*
X10220182Y-7533984D01*
X10220182Y-7533984D02*
X10239229Y-7543508D01*
X10239229Y-7543508D02*
X10248753Y-7553031D01*
X10248753Y-7553031D02*
X10258277Y-7572079D01*
X10258277Y-7572079D02*
X10267801Y-7610174D01*
X10267801Y-7610174D02*
X10267801Y-7657793D01*
X10267801Y-7657793D02*
X10258277Y-7695888D01*
X10258277Y-7695888D02*
X10248753Y-7714936D01*
X10248753Y-7714936D02*
X10239229Y-7724460D01*
X10239229Y-7724460D02*
X10220182Y-7733984D01*
X10220182Y-7733984D02*
X10201134Y-7733984D01*
X10201134Y-7733984D02*
X10182087Y-7724460D01*
X10182087Y-7724460D02*
X10172563Y-7714936D01*
X10172563Y-7714936D02*
X10163039Y-7695888D01*
X10163039Y-7695888D02*
X10153515Y-7657793D01*
X10153515Y-7657793D02*
X10153515Y-7610174D01*
X10153515Y-7610174D02*
X10163039Y-7572079D01*
X10163039Y-7572079D02*
X10172563Y-7553031D01*
X10172563Y-7553031D02*
X10182087Y-7543508D01*
X10182087Y-7543508D02*
X10201134Y-7533984D01*
X10353515Y-7714936D02*
X10363039Y-7724460D01*
X10363039Y-7724460D02*
X10353515Y-7733984D01*
X10353515Y-7733984D02*
X10343991Y-7724460D01*
X10343991Y-7724460D02*
X10353515Y-7714936D01*
X10353515Y-7714936D02*
X10353515Y-7733984D01*
X10486848Y-7533984D02*
X10505896Y-7533984D01*
X10505896Y-7533984D02*
X10524944Y-7543508D01*
X10524944Y-7543508D02*
X10534468Y-7553031D01*
X10534468Y-7553031D02*
X10543991Y-7572079D01*
X10543991Y-7572079D02*
X10553515Y-7610174D01*
X10553515Y-7610174D02*
X10553515Y-7657793D01*
X10553515Y-7657793D02*
X10543991Y-7695888D01*
X10543991Y-7695888D02*
X10534468Y-7714936D01*
X10534468Y-7714936D02*
X10524944Y-7724460D01*
X10524944Y-7724460D02*
X10505896Y-7733984D01*
X10505896Y-7733984D02*
X10486848Y-7733984D01*
X10486848Y-7733984D02*
X10467801Y-7724460D01*
X10467801Y-7724460D02*
X10458277Y-7714936D01*
X10458277Y-7714936D02*
X10448753Y-7695888D01*
X10448753Y-7695888D02*
X10439229Y-7657793D01*
X10439229Y-7657793D02*
X10439229Y-7610174D01*
X10439229Y-7610174D02*
X10448753Y-7572079D01*
X10448753Y-7572079D02*
X10458277Y-7553031D01*
X10458277Y-7553031D02*
X10467801Y-7543508D01*
X10467801Y-7543508D02*
X10486848Y-7533984D01*
X10629706Y-7553031D02*
X10639229Y-7543508D01*
X10639229Y-7543508D02*
X10658277Y-7533984D01*
X10658277Y-7533984D02*
X10705896Y-7533984D01*
X10705896Y-7533984D02*
X10724944Y-7543508D01*
X10724944Y-7543508D02*
X10734468Y-7553031D01*
X10734468Y-7553031D02*
X10743991Y-7572079D01*
X10743991Y-7572079D02*
X10743991Y-7591127D01*
X10743991Y-7591127D02*
X10734468Y-7619698D01*
X10734468Y-7619698D02*
X10620182Y-7733984D01*
X10620182Y-7733984D02*
X10743991Y-7733984D01*
X10924944Y-7533984D02*
X10829706Y-7533984D01*
X10829706Y-7533984D02*
X10820182Y-7629222D01*
X10820182Y-7629222D02*
X10829706Y-7619698D01*
X10829706Y-7619698D02*
X10848753Y-7610174D01*
X10848753Y-7610174D02*
X10896372Y-7610174D01*
X10896372Y-7610174D02*
X10915420Y-7619698D01*
X10915420Y-7619698D02*
X10924944Y-7629222D01*
X10924944Y-7629222D02*
X10934468Y-7648269D01*
X10934468Y-7648269D02*
X10934468Y-7695888D01*
X10934468Y-7695888D02*
X10924944Y-7714936D01*
X10924944Y-7714936D02*
X10915420Y-7724460D01*
X10915420Y-7724460D02*
X10896372Y-7733984D01*
X10896372Y-7733984D02*
X10848753Y-7733984D01*
X10848753Y-7733984D02*
X10829706Y-7724460D01*
X10829706Y-7724460D02*
X10820182Y-7714936D01*
X11105896Y-7533984D02*
X11067801Y-7533984D01*
X11067801Y-7533984D02*
X11048753Y-7543508D01*
X11048753Y-7543508D02*
X11039229Y-7553031D01*
X11039229Y-7553031D02*
X11020182Y-7581603D01*
X11020182Y-7581603D02*
X11010658Y-7619698D01*
X11010658Y-7619698D02*
X11010658Y-7695888D01*
X11010658Y-7695888D02*
X11020182Y-7714936D01*
X11020182Y-7714936D02*
X11029706Y-7724460D01*
X11029706Y-7724460D02*
X11048753Y-7733984D01*
X11048753Y-7733984D02*
X11086849Y-7733984D01*
X11086849Y-7733984D02*
X11105896Y-7724460D01*
X11105896Y-7724460D02*
X11115420Y-7714936D01*
X11115420Y-7714936D02*
X11124944Y-7695888D01*
X11124944Y-7695888D02*
X11124944Y-7648269D01*
X11124944Y-7648269D02*
X11115420Y-7629222D01*
X11115420Y-7629222D02*
X11105896Y-7619698D01*
X11105896Y-7619698D02*
X11086849Y-7610174D01*
X11086849Y-7610174D02*
X11048753Y-7610174D01*
X11048753Y-7610174D02*
X11029706Y-7619698D01*
X11029706Y-7619698D02*
X11020182Y-7629222D01*
X11020182Y-7629222D02*
X11010658Y-7648269D01*
X11201134Y-7533984D02*
X11201134Y-7572079D01*
X11277325Y-7533984D02*
X11277325Y-7572079D01*
X11572563Y-7810174D02*
X11563039Y-7800650D01*
X11563039Y-7800650D02*
X11543991Y-7772079D01*
X11543991Y-7772079D02*
X11534468Y-7753031D01*
X11534468Y-7753031D02*
X11524944Y-7724460D01*
X11524944Y-7724460D02*
X11515420Y-7676841D01*
X11515420Y-7676841D02*
X11515420Y-7638746D01*
X11515420Y-7638746D02*
X11524944Y-7591127D01*
X11524944Y-7591127D02*
X11534468Y-7562555D01*
X11534468Y-7562555D02*
X11543991Y-7543508D01*
X11543991Y-7543508D02*
X11563039Y-7514936D01*
X11563039Y-7514936D02*
X11572563Y-7505412D01*
X11639229Y-7553031D02*
X11648753Y-7543508D01*
X11648753Y-7543508D02*
X11667801Y-7533984D01*
X11667801Y-7533984D02*
X11715420Y-7533984D01*
X11715420Y-7533984D02*
X11734468Y-7543508D01*
X11734468Y-7543508D02*
X11743991Y-7553031D01*
X11743991Y-7553031D02*
X11753515Y-7572079D01*
X11753515Y-7572079D02*
X11753515Y-7591127D01*
X11753515Y-7591127D02*
X11743991Y-7619698D01*
X11743991Y-7619698D02*
X11629706Y-7733984D01*
X11629706Y-7733984D02*
X11753515Y-7733984D01*
X11991610Y-7733984D02*
X11991610Y-7533984D01*
X12077325Y-7733984D02*
X12077325Y-7629222D01*
X12077325Y-7629222D02*
X12067801Y-7610174D01*
X12067801Y-7610174D02*
X12048753Y-7600650D01*
X12048753Y-7600650D02*
X12020182Y-7600650D01*
X12020182Y-7600650D02*
X12001134Y-7610174D01*
X12001134Y-7610174D02*
X11991610Y-7619698D01*
X12201134Y-7733984D02*
X12182087Y-7724460D01*
X12182087Y-7724460D02*
X12172563Y-7714936D01*
X12172563Y-7714936D02*
X12163039Y-7695888D01*
X12163039Y-7695888D02*
X12163039Y-7638746D01*
X12163039Y-7638746D02*
X12172563Y-7619698D01*
X12172563Y-7619698D02*
X12182087Y-7610174D01*
X12182087Y-7610174D02*
X12201134Y-7600650D01*
X12201134Y-7600650D02*
X12229706Y-7600650D01*
X12229706Y-7600650D02*
X12248753Y-7610174D01*
X12248753Y-7610174D02*
X12258277Y-7619698D01*
X12258277Y-7619698D02*
X12267801Y-7638746D01*
X12267801Y-7638746D02*
X12267801Y-7695888D01*
X12267801Y-7695888D02*
X12258277Y-7714936D01*
X12258277Y-7714936D02*
X12248753Y-7724460D01*
X12248753Y-7724460D02*
X12229706Y-7733984D01*
X12229706Y-7733984D02*
X12201134Y-7733984D01*
X12382087Y-7733984D02*
X12363039Y-7724460D01*
X12363039Y-7724460D02*
X12353515Y-7705412D01*
X12353515Y-7705412D02*
X12353515Y-7533984D01*
X12534468Y-7724460D02*
X12515420Y-7733984D01*
X12515420Y-7733984D02*
X12477325Y-7733984D01*
X12477325Y-7733984D02*
X12458277Y-7724460D01*
X12458277Y-7724460D02*
X12448753Y-7705412D01*
X12448753Y-7705412D02*
X12448753Y-7629222D01*
X12448753Y-7629222D02*
X12458277Y-7610174D01*
X12458277Y-7610174D02*
X12477325Y-7600650D01*
X12477325Y-7600650D02*
X12515420Y-7600650D01*
X12515420Y-7600650D02*
X12534468Y-7610174D01*
X12534468Y-7610174D02*
X12543991Y-7629222D01*
X12543991Y-7629222D02*
X12543991Y-7648269D01*
X12543991Y-7648269D02*
X12448753Y-7667317D01*
X12620182Y-7724460D02*
X12639230Y-7733984D01*
X12639230Y-7733984D02*
X12677325Y-7733984D01*
X12677325Y-7733984D02*
X12696372Y-7724460D01*
X12696372Y-7724460D02*
X12705896Y-7705412D01*
X12705896Y-7705412D02*
X12705896Y-7695888D01*
X12705896Y-7695888D02*
X12696372Y-7676841D01*
X12696372Y-7676841D02*
X12677325Y-7667317D01*
X12677325Y-7667317D02*
X12648753Y-7667317D01*
X12648753Y-7667317D02*
X12629706Y-7657793D01*
X12629706Y-7657793D02*
X12620182Y-7638746D01*
X12620182Y-7638746D02*
X12620182Y-7629222D01*
X12620182Y-7629222D02*
X12629706Y-7610174D01*
X12629706Y-7610174D02*
X12648753Y-7600650D01*
X12648753Y-7600650D02*
X12677325Y-7600650D01*
X12677325Y-7600650D02*
X12696372Y-7610174D01*
X12772563Y-7810174D02*
X12782087Y-7800650D01*
X12782087Y-7800650D02*
X12801134Y-7772079D01*
X12801134Y-7772079D02*
X12810658Y-7753031D01*
X12810658Y-7753031D02*
X12820182Y-7724460D01*
X12820182Y-7724460D02*
X12829706Y-7676841D01*
X12829706Y-7676841D02*
X12829706Y-7638746D01*
X12829706Y-7638746D02*
X12820182Y-7591127D01*
X12820182Y-7591127D02*
X12810658Y-7562555D01*
X12810658Y-7562555D02*
X12801134Y-7543508D01*
X12801134Y-7543508D02*
X12782087Y-7514936D01*
X12782087Y-7514936D02*
X12772563Y-7505412D01*
X13134468Y-7810174D02*
X13124944Y-7800650D01*
X13124944Y-7800650D02*
X13105896Y-7772079D01*
X13105896Y-7772079D02*
X13096372Y-7753031D01*
X13096372Y-7753031D02*
X13086849Y-7724460D01*
X13086849Y-7724460D02*
X13077325Y-7676841D01*
X13077325Y-7676841D02*
X13077325Y-7638746D01*
X13077325Y-7638746D02*
X13086849Y-7591127D01*
X13086849Y-7591127D02*
X13096372Y-7562555D01*
X13096372Y-7562555D02*
X13105896Y-7543508D01*
X13105896Y-7543508D02*
X13124944Y-7514936D01*
X13124944Y-7514936D02*
X13134468Y-7505412D01*
X13210658Y-7600650D02*
X13210658Y-7733984D01*
X13210658Y-7619698D02*
X13220182Y-7610174D01*
X13220182Y-7610174D02*
X13239230Y-7600650D01*
X13239230Y-7600650D02*
X13267801Y-7600650D01*
X13267801Y-7600650D02*
X13286849Y-7610174D01*
X13286849Y-7610174D02*
X13296372Y-7629222D01*
X13296372Y-7629222D02*
X13296372Y-7733984D01*
X13420182Y-7733984D02*
X13401134Y-7724460D01*
X13401134Y-7724460D02*
X13391611Y-7714936D01*
X13391611Y-7714936D02*
X13382087Y-7695888D01*
X13382087Y-7695888D02*
X13382087Y-7638746D01*
X13382087Y-7638746D02*
X13391611Y-7619698D01*
X13391611Y-7619698D02*
X13401134Y-7610174D01*
X13401134Y-7610174D02*
X13420182Y-7600650D01*
X13420182Y-7600650D02*
X13448753Y-7600650D01*
X13448753Y-7600650D02*
X13467801Y-7610174D01*
X13467801Y-7610174D02*
X13477325Y-7619698D01*
X13477325Y-7619698D02*
X13486849Y-7638746D01*
X13486849Y-7638746D02*
X13486849Y-7695888D01*
X13486849Y-7695888D02*
X13477325Y-7714936D01*
X13477325Y-7714936D02*
X13467801Y-7724460D01*
X13467801Y-7724460D02*
X13448753Y-7733984D01*
X13448753Y-7733984D02*
X13420182Y-7733984D01*
X13543992Y-7600650D02*
X13620182Y-7600650D01*
X13572563Y-7533984D02*
X13572563Y-7705412D01*
X13572563Y-7705412D02*
X13582087Y-7724460D01*
X13582087Y-7724460D02*
X13601134Y-7733984D01*
X13601134Y-7733984D02*
X13620182Y-7733984D01*
X13839230Y-7600650D02*
X13839230Y-7800650D01*
X13839230Y-7610174D02*
X13858277Y-7600650D01*
X13858277Y-7600650D02*
X13896373Y-7600650D01*
X13896373Y-7600650D02*
X13915420Y-7610174D01*
X13915420Y-7610174D02*
X13924944Y-7619698D01*
X13924944Y-7619698D02*
X13934468Y-7638746D01*
X13934468Y-7638746D02*
X13934468Y-7695888D01*
X13934468Y-7695888D02*
X13924944Y-7714936D01*
X13924944Y-7714936D02*
X13915420Y-7724460D01*
X13915420Y-7724460D02*
X13896373Y-7733984D01*
X13896373Y-7733984D02*
X13858277Y-7733984D01*
X13858277Y-7733984D02*
X13839230Y-7724460D01*
X14048753Y-7733984D02*
X14029706Y-7724460D01*
X14029706Y-7724460D02*
X14020182Y-7705412D01*
X14020182Y-7705412D02*
X14020182Y-7533984D01*
X14210658Y-7733984D02*
X14210658Y-7629222D01*
X14210658Y-7629222D02*
X14201134Y-7610174D01*
X14201134Y-7610174D02*
X14182087Y-7600650D01*
X14182087Y-7600650D02*
X14143992Y-7600650D01*
X14143992Y-7600650D02*
X14124944Y-7610174D01*
X14210658Y-7724460D02*
X14191611Y-7733984D01*
X14191611Y-7733984D02*
X14143992Y-7733984D01*
X14143992Y-7733984D02*
X14124944Y-7724460D01*
X14124944Y-7724460D02*
X14115420Y-7705412D01*
X14115420Y-7705412D02*
X14115420Y-7686365D01*
X14115420Y-7686365D02*
X14124944Y-7667317D01*
X14124944Y-7667317D02*
X14143992Y-7657793D01*
X14143992Y-7657793D02*
X14191611Y-7657793D01*
X14191611Y-7657793D02*
X14210658Y-7648269D01*
X14277325Y-7600650D02*
X14353515Y-7600650D01*
X14305896Y-7533984D02*
X14305896Y-7705412D01*
X14305896Y-7705412D02*
X14315420Y-7724460D01*
X14315420Y-7724460D02*
X14334468Y-7733984D01*
X14334468Y-7733984D02*
X14353515Y-7733984D01*
X14496373Y-7724460D02*
X14477325Y-7733984D01*
X14477325Y-7733984D02*
X14439230Y-7733984D01*
X14439230Y-7733984D02*
X14420182Y-7724460D01*
X14420182Y-7724460D02*
X14410658Y-7705412D01*
X14410658Y-7705412D02*
X14410658Y-7629222D01*
X14410658Y-7629222D02*
X14420182Y-7610174D01*
X14420182Y-7610174D02*
X14439230Y-7600650D01*
X14439230Y-7600650D02*
X14477325Y-7600650D01*
X14477325Y-7600650D02*
X14496373Y-7610174D01*
X14496373Y-7610174D02*
X14505896Y-7629222D01*
X14505896Y-7629222D02*
X14505896Y-7648269D01*
X14505896Y-7648269D02*
X14410658Y-7667317D01*
X14677325Y-7733984D02*
X14677325Y-7533984D01*
X14677325Y-7724460D02*
X14658277Y-7733984D01*
X14658277Y-7733984D02*
X14620182Y-7733984D01*
X14620182Y-7733984D02*
X14601134Y-7724460D01*
X14601134Y-7724460D02*
X14591611Y-7714936D01*
X14591611Y-7714936D02*
X14582087Y-7695888D01*
X14582087Y-7695888D02*
X14582087Y-7638746D01*
X14582087Y-7638746D02*
X14591611Y-7619698D01*
X14591611Y-7619698D02*
X14601134Y-7610174D01*
X14601134Y-7610174D02*
X14620182Y-7600650D01*
X14620182Y-7600650D02*
X14658277Y-7600650D01*
X14658277Y-7600650D02*
X14677325Y-7610174D01*
X14753515Y-7810174D02*
X14763039Y-7800650D01*
X14763039Y-7800650D02*
X14782087Y-7772079D01*
X14782087Y-7772079D02*
X14791611Y-7753031D01*
X14791611Y-7753031D02*
X14801134Y-7724460D01*
X14801134Y-7724460D02*
X14810658Y-7676841D01*
X14810658Y-7676841D02*
X14810658Y-7638746D01*
X14810658Y-7638746D02*
X14801134Y-7591127D01*
X14801134Y-7591127D02*
X14791611Y-7562555D01*
X14791611Y-7562555D02*
X14782087Y-7543508D01*
X14782087Y-7543508D02*
X14763039Y-7514936D01*
X14763039Y-7514936D02*
X14753515Y-7505412D01*
D12*
X7997500Y-7906500D02*
G75*
G02*
X7917500Y-7906500I-40000J0D01*
G01*
X7917500Y-7906500D02*
G75*
G02*
X7997500Y-7906500I40000J0D01*
G01*
D11*
X8296372Y-7797984D02*
X8315420Y-7797984D01*
X8315420Y-7797984D02*
X8334467Y-7807508D01*
X8334467Y-7807508D02*
X8343991Y-7817031D01*
X8343991Y-7817031D02*
X8353515Y-7836079D01*
X8353515Y-7836079D02*
X8363039Y-7874174D01*
X8363039Y-7874174D02*
X8363039Y-7921793D01*
X8363039Y-7921793D02*
X8353515Y-7959888D01*
X8353515Y-7959888D02*
X8343991Y-7978936D01*
X8343991Y-7978936D02*
X8334467Y-7988460D01*
X8334467Y-7988460D02*
X8315420Y-7997984D01*
X8315420Y-7997984D02*
X8296372Y-7997984D01*
X8296372Y-7997984D02*
X8277324Y-7988460D01*
X8277324Y-7988460D02*
X8267801Y-7978936D01*
X8267801Y-7978936D02*
X8258277Y-7959888D01*
X8258277Y-7959888D02*
X8248753Y-7921793D01*
X8248753Y-7921793D02*
X8248753Y-7874174D01*
X8248753Y-7874174D02*
X8258277Y-7836079D01*
X8258277Y-7836079D02*
X8267801Y-7817031D01*
X8267801Y-7817031D02*
X8277324Y-7807508D01*
X8277324Y-7807508D02*
X8296372Y-7797984D01*
X8448753Y-7978936D02*
X8458277Y-7988460D01*
X8458277Y-7988460D02*
X8448753Y-7997984D01*
X8448753Y-7997984D02*
X8439229Y-7988460D01*
X8439229Y-7988460D02*
X8448753Y-7978936D01*
X8448753Y-7978936D02*
X8448753Y-7997984D01*
X8572563Y-7883698D02*
X8553515Y-7874174D01*
X8553515Y-7874174D02*
X8543991Y-7864650D01*
X8543991Y-7864650D02*
X8534467Y-7845603D01*
X8534467Y-7845603D02*
X8534467Y-7836079D01*
X8534467Y-7836079D02*
X8543991Y-7817031D01*
X8543991Y-7817031D02*
X8553515Y-7807508D01*
X8553515Y-7807508D02*
X8572563Y-7797984D01*
X8572563Y-7797984D02*
X8610658Y-7797984D01*
X8610658Y-7797984D02*
X8629705Y-7807508D01*
X8629705Y-7807508D02*
X8639229Y-7817031D01*
X8639229Y-7817031D02*
X8648753Y-7836079D01*
X8648753Y-7836079D02*
X8648753Y-7845603D01*
X8648753Y-7845603D02*
X8639229Y-7864650D01*
X8639229Y-7864650D02*
X8629705Y-7874174D01*
X8629705Y-7874174D02*
X8610658Y-7883698D01*
X8610658Y-7883698D02*
X8572563Y-7883698D01*
X8572563Y-7883698D02*
X8553515Y-7893222D01*
X8553515Y-7893222D02*
X8543991Y-7902746D01*
X8543991Y-7902746D02*
X8534467Y-7921793D01*
X8534467Y-7921793D02*
X8534467Y-7959888D01*
X8534467Y-7959888D02*
X8543991Y-7978936D01*
X8543991Y-7978936D02*
X8553515Y-7988460D01*
X8553515Y-7988460D02*
X8572563Y-7997984D01*
X8572563Y-7997984D02*
X8610658Y-7997984D01*
X8610658Y-7997984D02*
X8629705Y-7988460D01*
X8629705Y-7988460D02*
X8639229Y-7978936D01*
X8639229Y-7978936D02*
X8648753Y-7959888D01*
X8648753Y-7959888D02*
X8648753Y-7921793D01*
X8648753Y-7921793D02*
X8639229Y-7902746D01*
X8639229Y-7902746D02*
X8629705Y-7893222D01*
X8629705Y-7893222D02*
X8610658Y-7883698D01*
X8772563Y-7797984D02*
X8791610Y-7797984D01*
X8791610Y-7797984D02*
X8810658Y-7807508D01*
X8810658Y-7807508D02*
X8820182Y-7817031D01*
X8820182Y-7817031D02*
X8829705Y-7836079D01*
X8829705Y-7836079D02*
X8839229Y-7874174D01*
X8839229Y-7874174D02*
X8839229Y-7921793D01*
X8839229Y-7921793D02*
X8829705Y-7959888D01*
X8829705Y-7959888D02*
X8820182Y-7978936D01*
X8820182Y-7978936D02*
X8810658Y-7988460D01*
X8810658Y-7988460D02*
X8791610Y-7997984D01*
X8791610Y-7997984D02*
X8772563Y-7997984D01*
X8772563Y-7997984D02*
X8753515Y-7988460D01*
X8753515Y-7988460D02*
X8743991Y-7978936D01*
X8743991Y-7978936D02*
X8734467Y-7959888D01*
X8734467Y-7959888D02*
X8724944Y-7921793D01*
X8724944Y-7921793D02*
X8724944Y-7874174D01*
X8724944Y-7874174D02*
X8734467Y-7836079D01*
X8734467Y-7836079D02*
X8743991Y-7817031D01*
X8743991Y-7817031D02*
X8753515Y-7807508D01*
X8753515Y-7807508D02*
X8772563Y-7797984D01*
X8963039Y-7797984D02*
X8982086Y-7797984D01*
X8982086Y-7797984D02*
X9001134Y-7807508D01*
X9001134Y-7807508D02*
X9010658Y-7817031D01*
X9010658Y-7817031D02*
X9020182Y-7836079D01*
X9020182Y-7836079D02*
X9029705Y-7874174D01*
X9029705Y-7874174D02*
X9029705Y-7921793D01*
X9029705Y-7921793D02*
X9020182Y-7959888D01*
X9020182Y-7959888D02*
X9010658Y-7978936D01*
X9010658Y-7978936D02*
X9001134Y-7988460D01*
X9001134Y-7988460D02*
X8982086Y-7997984D01*
X8982086Y-7997984D02*
X8963039Y-7997984D01*
X8963039Y-7997984D02*
X8943991Y-7988460D01*
X8943991Y-7988460D02*
X8934467Y-7978936D01*
X8934467Y-7978936D02*
X8924944Y-7959888D01*
X8924944Y-7959888D02*
X8915420Y-7921793D01*
X8915420Y-7921793D02*
X8915420Y-7874174D01*
X8915420Y-7874174D02*
X8924944Y-7836079D01*
X8924944Y-7836079D02*
X8934467Y-7817031D01*
X8934467Y-7817031D02*
X8943991Y-7807508D01*
X8943991Y-7807508D02*
X8963039Y-7797984D01*
X9115420Y-7997984D02*
X9115420Y-7864650D01*
X9115420Y-7883698D02*
X9124944Y-7874174D01*
X9124944Y-7874174D02*
X9143991Y-7864650D01*
X9143991Y-7864650D02*
X9172563Y-7864650D01*
X9172563Y-7864650D02*
X9191610Y-7874174D01*
X9191610Y-7874174D02*
X9201134Y-7893222D01*
X9201134Y-7893222D02*
X9201134Y-7997984D01*
X9201134Y-7893222D02*
X9210658Y-7874174D01*
X9210658Y-7874174D02*
X9229705Y-7864650D01*
X9229705Y-7864650D02*
X9258277Y-7864650D01*
X9258277Y-7864650D02*
X9277325Y-7874174D01*
X9277325Y-7874174D02*
X9286848Y-7893222D01*
X9286848Y-7893222D02*
X9286848Y-7997984D01*
X9382086Y-7997984D02*
X9382086Y-7864650D01*
X9382086Y-7883698D02*
X9391610Y-7874174D01*
X9391610Y-7874174D02*
X9410658Y-7864650D01*
X9410658Y-7864650D02*
X9439229Y-7864650D01*
X9439229Y-7864650D02*
X9458277Y-7874174D01*
X9458277Y-7874174D02*
X9467801Y-7893222D01*
X9467801Y-7893222D02*
X9467801Y-7997984D01*
X9467801Y-7893222D02*
X9477325Y-7874174D01*
X9477325Y-7874174D02*
X9496372Y-7864650D01*
X9496372Y-7864650D02*
X9524944Y-7864650D01*
X9524944Y-7864650D02*
X9543991Y-7874174D01*
X9543991Y-7874174D02*
X9553515Y-7893222D01*
X9553515Y-7893222D02*
X9553515Y-7997984D01*
X9943991Y-7788460D02*
X9772563Y-8045603D01*
X10201134Y-7797984D02*
X10220182Y-7797984D01*
X10220182Y-7797984D02*
X10239229Y-7807508D01*
X10239229Y-7807508D02*
X10248753Y-7817031D01*
X10248753Y-7817031D02*
X10258277Y-7836079D01*
X10258277Y-7836079D02*
X10267801Y-7874174D01*
X10267801Y-7874174D02*
X10267801Y-7921793D01*
X10267801Y-7921793D02*
X10258277Y-7959888D01*
X10258277Y-7959888D02*
X10248753Y-7978936D01*
X10248753Y-7978936D02*
X10239229Y-7988460D01*
X10239229Y-7988460D02*
X10220182Y-7997984D01*
X10220182Y-7997984D02*
X10201134Y-7997984D01*
X10201134Y-7997984D02*
X10182087Y-7988460D01*
X10182087Y-7988460D02*
X10172563Y-7978936D01*
X10172563Y-7978936D02*
X10163039Y-7959888D01*
X10163039Y-7959888D02*
X10153515Y-7921793D01*
X10153515Y-7921793D02*
X10153515Y-7874174D01*
X10153515Y-7874174D02*
X10163039Y-7836079D01*
X10163039Y-7836079D02*
X10172563Y-7817031D01*
X10172563Y-7817031D02*
X10182087Y-7807508D01*
X10182087Y-7807508D02*
X10201134Y-7797984D01*
X10353515Y-7978936D02*
X10363039Y-7988460D01*
X10363039Y-7988460D02*
X10353515Y-7997984D01*
X10353515Y-7997984D02*
X10343991Y-7988460D01*
X10343991Y-7988460D02*
X10353515Y-7978936D01*
X10353515Y-7978936D02*
X10353515Y-7997984D01*
X10486848Y-7797984D02*
X10505896Y-7797984D01*
X10505896Y-7797984D02*
X10524944Y-7807508D01*
X10524944Y-7807508D02*
X10534468Y-7817031D01*
X10534468Y-7817031D02*
X10543991Y-7836079D01*
X10543991Y-7836079D02*
X10553515Y-7874174D01*
X10553515Y-7874174D02*
X10553515Y-7921793D01*
X10553515Y-7921793D02*
X10543991Y-7959888D01*
X10543991Y-7959888D02*
X10534468Y-7978936D01*
X10534468Y-7978936D02*
X10524944Y-7988460D01*
X10524944Y-7988460D02*
X10505896Y-7997984D01*
X10505896Y-7997984D02*
X10486848Y-7997984D01*
X10486848Y-7997984D02*
X10467801Y-7988460D01*
X10467801Y-7988460D02*
X10458277Y-7978936D01*
X10458277Y-7978936D02*
X10448753Y-7959888D01*
X10448753Y-7959888D02*
X10439229Y-7921793D01*
X10439229Y-7921793D02*
X10439229Y-7874174D01*
X10439229Y-7874174D02*
X10448753Y-7836079D01*
X10448753Y-7836079D02*
X10458277Y-7817031D01*
X10458277Y-7817031D02*
X10467801Y-7807508D01*
X10467801Y-7807508D02*
X10486848Y-7797984D01*
X10620182Y-7797984D02*
X10743991Y-7797984D01*
X10743991Y-7797984D02*
X10677325Y-7874174D01*
X10677325Y-7874174D02*
X10705896Y-7874174D01*
X10705896Y-7874174D02*
X10724944Y-7883698D01*
X10724944Y-7883698D02*
X10734468Y-7893222D01*
X10734468Y-7893222D02*
X10743991Y-7912269D01*
X10743991Y-7912269D02*
X10743991Y-7959888D01*
X10743991Y-7959888D02*
X10734468Y-7978936D01*
X10734468Y-7978936D02*
X10724944Y-7988460D01*
X10724944Y-7988460D02*
X10705896Y-7997984D01*
X10705896Y-7997984D02*
X10648753Y-7997984D01*
X10648753Y-7997984D02*
X10629706Y-7988460D01*
X10629706Y-7988460D02*
X10620182Y-7978936D01*
X10934468Y-7997984D02*
X10820182Y-7997984D01*
X10877325Y-7997984D02*
X10877325Y-7797984D01*
X10877325Y-7797984D02*
X10858277Y-7826555D01*
X10858277Y-7826555D02*
X10839229Y-7845603D01*
X10839229Y-7845603D02*
X10820182Y-7855127D01*
X11115420Y-7797984D02*
X11020182Y-7797984D01*
X11020182Y-7797984D02*
X11010658Y-7893222D01*
X11010658Y-7893222D02*
X11020182Y-7883698D01*
X11020182Y-7883698D02*
X11039229Y-7874174D01*
X11039229Y-7874174D02*
X11086849Y-7874174D01*
X11086849Y-7874174D02*
X11105896Y-7883698D01*
X11105896Y-7883698D02*
X11115420Y-7893222D01*
X11115420Y-7893222D02*
X11124944Y-7912269D01*
X11124944Y-7912269D02*
X11124944Y-7959888D01*
X11124944Y-7959888D02*
X11115420Y-7978936D01*
X11115420Y-7978936D02*
X11105896Y-7988460D01*
X11105896Y-7988460D02*
X11086849Y-7997984D01*
X11086849Y-7997984D02*
X11039229Y-7997984D01*
X11039229Y-7997984D02*
X11020182Y-7988460D01*
X11020182Y-7988460D02*
X11010658Y-7978936D01*
X11201134Y-7797984D02*
X11201134Y-7836079D01*
X11277325Y-7797984D02*
X11277325Y-7836079D01*
X11572563Y-8074174D02*
X11563039Y-8064650D01*
X11563039Y-8064650D02*
X11543991Y-8036079D01*
X11543991Y-8036079D02*
X11534468Y-8017031D01*
X11534468Y-8017031D02*
X11524944Y-7988460D01*
X11524944Y-7988460D02*
X11515420Y-7940841D01*
X11515420Y-7940841D02*
X11515420Y-7902746D01*
X11515420Y-7902746D02*
X11524944Y-7855127D01*
X11524944Y-7855127D02*
X11534468Y-7826555D01*
X11534468Y-7826555D02*
X11543991Y-7807508D01*
X11543991Y-7807508D02*
X11563039Y-7778936D01*
X11563039Y-7778936D02*
X11572563Y-7769412D01*
X11753515Y-7997984D02*
X11639229Y-7997984D01*
X11696372Y-7997984D02*
X11696372Y-7797984D01*
X11696372Y-7797984D02*
X11677325Y-7826555D01*
X11677325Y-7826555D02*
X11658277Y-7845603D01*
X11658277Y-7845603D02*
X11639229Y-7855127D01*
X11991610Y-7997984D02*
X11991610Y-7797984D01*
X12077325Y-7997984D02*
X12077325Y-7893222D01*
X12077325Y-7893222D02*
X12067801Y-7874174D01*
X12067801Y-7874174D02*
X12048753Y-7864650D01*
X12048753Y-7864650D02*
X12020182Y-7864650D01*
X12020182Y-7864650D02*
X12001134Y-7874174D01*
X12001134Y-7874174D02*
X11991610Y-7883698D01*
X12201134Y-7997984D02*
X12182087Y-7988460D01*
X12182087Y-7988460D02*
X12172563Y-7978936D01*
X12172563Y-7978936D02*
X12163039Y-7959888D01*
X12163039Y-7959888D02*
X12163039Y-7902746D01*
X12163039Y-7902746D02*
X12172563Y-7883698D01*
X12172563Y-7883698D02*
X12182087Y-7874174D01*
X12182087Y-7874174D02*
X12201134Y-7864650D01*
X12201134Y-7864650D02*
X12229706Y-7864650D01*
X12229706Y-7864650D02*
X12248753Y-7874174D01*
X12248753Y-7874174D02*
X12258277Y-7883698D01*
X12258277Y-7883698D02*
X12267801Y-7902746D01*
X12267801Y-7902746D02*
X12267801Y-7959888D01*
X12267801Y-7959888D02*
X12258277Y-7978936D01*
X12258277Y-7978936D02*
X12248753Y-7988460D01*
X12248753Y-7988460D02*
X12229706Y-7997984D01*
X12229706Y-7997984D02*
X12201134Y-7997984D01*
X12382087Y-7997984D02*
X12363039Y-7988460D01*
X12363039Y-7988460D02*
X12353515Y-7969412D01*
X12353515Y-7969412D02*
X12353515Y-7797984D01*
X12534468Y-7988460D02*
X12515420Y-7997984D01*
X12515420Y-7997984D02*
X12477325Y-7997984D01*
X12477325Y-7997984D02*
X12458277Y-7988460D01*
X12458277Y-7988460D02*
X12448753Y-7969412D01*
X12448753Y-7969412D02*
X12448753Y-7893222D01*
X12448753Y-7893222D02*
X12458277Y-7874174D01*
X12458277Y-7874174D02*
X12477325Y-7864650D01*
X12477325Y-7864650D02*
X12515420Y-7864650D01*
X12515420Y-7864650D02*
X12534468Y-7874174D01*
X12534468Y-7874174D02*
X12543991Y-7893222D01*
X12543991Y-7893222D02*
X12543991Y-7912269D01*
X12543991Y-7912269D02*
X12448753Y-7931317D01*
X12610658Y-8074174D02*
X12620182Y-8064650D01*
X12620182Y-8064650D02*
X12639230Y-8036079D01*
X12639230Y-8036079D02*
X12648753Y-8017031D01*
X12648753Y-8017031D02*
X12658277Y-7988460D01*
X12658277Y-7988460D02*
X12667801Y-7940841D01*
X12667801Y-7940841D02*
X12667801Y-7902746D01*
X12667801Y-7902746D02*
X12658277Y-7855127D01*
X12658277Y-7855127D02*
X12648753Y-7826555D01*
X12648753Y-7826555D02*
X12639230Y-7807508D01*
X12639230Y-7807508D02*
X12620182Y-7778936D01*
X12620182Y-7778936D02*
X12610658Y-7769412D01*
X12972563Y-8074174D02*
X12963039Y-8064650D01*
X12963039Y-8064650D02*
X12943991Y-8036079D01*
X12943991Y-8036079D02*
X12934468Y-8017031D01*
X12934468Y-8017031D02*
X12924944Y-7988460D01*
X12924944Y-7988460D02*
X12915420Y-7940841D01*
X12915420Y-7940841D02*
X12915420Y-7902746D01*
X12915420Y-7902746D02*
X12924944Y-7855127D01*
X12924944Y-7855127D02*
X12934468Y-7826555D01*
X12934468Y-7826555D02*
X12943991Y-7807508D01*
X12943991Y-7807508D02*
X12963039Y-7778936D01*
X12963039Y-7778936D02*
X12972563Y-7769412D01*
X13048753Y-7864650D02*
X13048753Y-7997984D01*
X13048753Y-7883698D02*
X13058277Y-7874174D01*
X13058277Y-7874174D02*
X13077325Y-7864650D01*
X13077325Y-7864650D02*
X13105896Y-7864650D01*
X13105896Y-7864650D02*
X13124944Y-7874174D01*
X13124944Y-7874174D02*
X13134468Y-7893222D01*
X13134468Y-7893222D02*
X13134468Y-7997984D01*
X13258277Y-7997984D02*
X13239230Y-7988460D01*
X13239230Y-7988460D02*
X13229706Y-7978936D01*
X13229706Y-7978936D02*
X13220182Y-7959888D01*
X13220182Y-7959888D02*
X13220182Y-7902746D01*
X13220182Y-7902746D02*
X13229706Y-7883698D01*
X13229706Y-7883698D02*
X13239230Y-7874174D01*
X13239230Y-7874174D02*
X13258277Y-7864650D01*
X13258277Y-7864650D02*
X13286849Y-7864650D01*
X13286849Y-7864650D02*
X13305896Y-7874174D01*
X13305896Y-7874174D02*
X13315420Y-7883698D01*
X13315420Y-7883698D02*
X13324944Y-7902746D01*
X13324944Y-7902746D02*
X13324944Y-7959888D01*
X13324944Y-7959888D02*
X13315420Y-7978936D01*
X13315420Y-7978936D02*
X13305896Y-7988460D01*
X13305896Y-7988460D02*
X13286849Y-7997984D01*
X13286849Y-7997984D02*
X13258277Y-7997984D01*
X13382087Y-7864650D02*
X13458277Y-7864650D01*
X13410658Y-7797984D02*
X13410658Y-7969412D01*
X13410658Y-7969412D02*
X13420182Y-7988460D01*
X13420182Y-7988460D02*
X13439230Y-7997984D01*
X13439230Y-7997984D02*
X13458277Y-7997984D01*
X13677325Y-7864650D02*
X13677325Y-8064650D01*
X13677325Y-7874174D02*
X13696372Y-7864650D01*
X13696372Y-7864650D02*
X13734468Y-7864650D01*
X13734468Y-7864650D02*
X13753515Y-7874174D01*
X13753515Y-7874174D02*
X13763039Y-7883698D01*
X13763039Y-7883698D02*
X13772563Y-7902746D01*
X13772563Y-7902746D02*
X13772563Y-7959888D01*
X13772563Y-7959888D02*
X13763039Y-7978936D01*
X13763039Y-7978936D02*
X13753515Y-7988460D01*
X13753515Y-7988460D02*
X13734468Y-7997984D01*
X13734468Y-7997984D02*
X13696372Y-7997984D01*
X13696372Y-7997984D02*
X13677325Y-7988460D01*
X13886849Y-7997984D02*
X13867801Y-7988460D01*
X13867801Y-7988460D02*
X13858277Y-7969412D01*
X13858277Y-7969412D02*
X13858277Y-7797984D01*
X14048753Y-7997984D02*
X14048753Y-7893222D01*
X14048753Y-7893222D02*
X14039230Y-7874174D01*
X14039230Y-7874174D02*
X14020182Y-7864650D01*
X14020182Y-7864650D02*
X13982087Y-7864650D01*
X13982087Y-7864650D02*
X13963039Y-7874174D01*
X14048753Y-7988460D02*
X14029706Y-7997984D01*
X14029706Y-7997984D02*
X13982087Y-7997984D01*
X13982087Y-7997984D02*
X13963039Y-7988460D01*
X13963039Y-7988460D02*
X13953515Y-7969412D01*
X13953515Y-7969412D02*
X13953515Y-7950365D01*
X13953515Y-7950365D02*
X13963039Y-7931317D01*
X13963039Y-7931317D02*
X13982087Y-7921793D01*
X13982087Y-7921793D02*
X14029706Y-7921793D01*
X14029706Y-7921793D02*
X14048753Y-7912269D01*
X14115420Y-7864650D02*
X14191611Y-7864650D01*
X14143992Y-7797984D02*
X14143992Y-7969412D01*
X14143992Y-7969412D02*
X14153515Y-7988460D01*
X14153515Y-7988460D02*
X14172563Y-7997984D01*
X14172563Y-7997984D02*
X14191611Y-7997984D01*
X14334468Y-7988460D02*
X14315420Y-7997984D01*
X14315420Y-7997984D02*
X14277325Y-7997984D01*
X14277325Y-7997984D02*
X14258277Y-7988460D01*
X14258277Y-7988460D02*
X14248753Y-7969412D01*
X14248753Y-7969412D02*
X14248753Y-7893222D01*
X14248753Y-7893222D02*
X14258277Y-7874174D01*
X14258277Y-7874174D02*
X14277325Y-7864650D01*
X14277325Y-7864650D02*
X14315420Y-7864650D01*
X14315420Y-7864650D02*
X14334468Y-7874174D01*
X14334468Y-7874174D02*
X14343992Y-7893222D01*
X14343992Y-7893222D02*
X14343992Y-7912269D01*
X14343992Y-7912269D02*
X14248753Y-7931317D01*
X14515420Y-7997984D02*
X14515420Y-7797984D01*
X14515420Y-7988460D02*
X14496373Y-7997984D01*
X14496373Y-7997984D02*
X14458277Y-7997984D01*
X14458277Y-7997984D02*
X14439230Y-7988460D01*
X14439230Y-7988460D02*
X14429706Y-7978936D01*
X14429706Y-7978936D02*
X14420182Y-7959888D01*
X14420182Y-7959888D02*
X14420182Y-7902746D01*
X14420182Y-7902746D02*
X14429706Y-7883698D01*
X14429706Y-7883698D02*
X14439230Y-7874174D01*
X14439230Y-7874174D02*
X14458277Y-7864650D01*
X14458277Y-7864650D02*
X14496373Y-7864650D01*
X14496373Y-7864650D02*
X14515420Y-7874174D01*
X14591611Y-8074174D02*
X14601134Y-8064650D01*
X14601134Y-8064650D02*
X14620182Y-8036079D01*
X14620182Y-8036079D02*
X14629706Y-8017031D01*
X14629706Y-8017031D02*
X14639230Y-7988460D01*
X14639230Y-7988460D02*
X14648753Y-7940841D01*
X14648753Y-7940841D02*
X14648753Y-7902746D01*
X14648753Y-7902746D02*
X14639230Y-7855127D01*
X14639230Y-7855127D02*
X14629706Y-7826555D01*
X14629706Y-7826555D02*
X14620182Y-7807508D01*
X14620182Y-7807508D02*
X14601134Y-7778936D01*
X14601134Y-7778936D02*
X14591611Y-7769412D01*
X7897500Y-8070500D02*
X7897500Y-8270500D01*
X7797500Y-8170500D02*
X7997500Y-8170500D01*
X8239229Y-8061984D02*
X8363039Y-8061984D01*
X8363039Y-8061984D02*
X8296372Y-8138174D01*
X8296372Y-8138174D02*
X8324943Y-8138174D01*
X8324943Y-8138174D02*
X8343991Y-8147698D01*
X8343991Y-8147698D02*
X8353515Y-8157222D01*
X8353515Y-8157222D02*
X8363039Y-8176269D01*
X8363039Y-8176269D02*
X8363039Y-8223888D01*
X8363039Y-8223888D02*
X8353515Y-8242936D01*
X8353515Y-8242936D02*
X8343991Y-8252460D01*
X8343991Y-8252460D02*
X8324943Y-8261984D01*
X8324943Y-8261984D02*
X8267801Y-8261984D01*
X8267801Y-8261984D02*
X8248753Y-8252460D01*
X8248753Y-8252460D02*
X8239229Y-8242936D01*
X8448753Y-8242936D02*
X8458277Y-8252460D01*
X8458277Y-8252460D02*
X8448753Y-8261984D01*
X8448753Y-8261984D02*
X8439229Y-8252460D01*
X8439229Y-8252460D02*
X8448753Y-8242936D01*
X8448753Y-8242936D02*
X8448753Y-8261984D01*
X8534467Y-8081031D02*
X8543991Y-8071508D01*
X8543991Y-8071508D02*
X8563039Y-8061984D01*
X8563039Y-8061984D02*
X8610658Y-8061984D01*
X8610658Y-8061984D02*
X8629705Y-8071508D01*
X8629705Y-8071508D02*
X8639229Y-8081031D01*
X8639229Y-8081031D02*
X8648753Y-8100079D01*
X8648753Y-8100079D02*
X8648753Y-8119127D01*
X8648753Y-8119127D02*
X8639229Y-8147698D01*
X8639229Y-8147698D02*
X8524944Y-8261984D01*
X8524944Y-8261984D02*
X8648753Y-8261984D01*
X8772563Y-8061984D02*
X8791610Y-8061984D01*
X8791610Y-8061984D02*
X8810658Y-8071508D01*
X8810658Y-8071508D02*
X8820182Y-8081031D01*
X8820182Y-8081031D02*
X8829705Y-8100079D01*
X8829705Y-8100079D02*
X8839229Y-8138174D01*
X8839229Y-8138174D02*
X8839229Y-8185793D01*
X8839229Y-8185793D02*
X8829705Y-8223888D01*
X8829705Y-8223888D02*
X8820182Y-8242936D01*
X8820182Y-8242936D02*
X8810658Y-8252460D01*
X8810658Y-8252460D02*
X8791610Y-8261984D01*
X8791610Y-8261984D02*
X8772563Y-8261984D01*
X8772563Y-8261984D02*
X8753515Y-8252460D01*
X8753515Y-8252460D02*
X8743991Y-8242936D01*
X8743991Y-8242936D02*
X8734467Y-8223888D01*
X8734467Y-8223888D02*
X8724944Y-8185793D01*
X8724944Y-8185793D02*
X8724944Y-8138174D01*
X8724944Y-8138174D02*
X8734467Y-8100079D01*
X8734467Y-8100079D02*
X8743991Y-8081031D01*
X8743991Y-8081031D02*
X8753515Y-8071508D01*
X8753515Y-8071508D02*
X8772563Y-8061984D01*
X8963039Y-8061984D02*
X8982086Y-8061984D01*
X8982086Y-8061984D02*
X9001134Y-8071508D01*
X9001134Y-8071508D02*
X9010658Y-8081031D01*
X9010658Y-8081031D02*
X9020182Y-8100079D01*
X9020182Y-8100079D02*
X9029705Y-8138174D01*
X9029705Y-8138174D02*
X9029705Y-8185793D01*
X9029705Y-8185793D02*
X9020182Y-8223888D01*
X9020182Y-8223888D02*
X9010658Y-8242936D01*
X9010658Y-8242936D02*
X9001134Y-8252460D01*
X9001134Y-8252460D02*
X8982086Y-8261984D01*
X8982086Y-8261984D02*
X8963039Y-8261984D01*
X8963039Y-8261984D02*
X8943991Y-8252460D01*
X8943991Y-8252460D02*
X8934467Y-8242936D01*
X8934467Y-8242936D02*
X8924944Y-8223888D01*
X8924944Y-8223888D02*
X8915420Y-8185793D01*
X8915420Y-8185793D02*
X8915420Y-8138174D01*
X8915420Y-8138174D02*
X8924944Y-8100079D01*
X8924944Y-8100079D02*
X8934467Y-8081031D01*
X8934467Y-8081031D02*
X8943991Y-8071508D01*
X8943991Y-8071508D02*
X8963039Y-8061984D01*
X9115420Y-8261984D02*
X9115420Y-8128650D01*
X9115420Y-8147698D02*
X9124944Y-8138174D01*
X9124944Y-8138174D02*
X9143991Y-8128650D01*
X9143991Y-8128650D02*
X9172563Y-8128650D01*
X9172563Y-8128650D02*
X9191610Y-8138174D01*
X9191610Y-8138174D02*
X9201134Y-8157222D01*
X9201134Y-8157222D02*
X9201134Y-8261984D01*
X9201134Y-8157222D02*
X9210658Y-8138174D01*
X9210658Y-8138174D02*
X9229705Y-8128650D01*
X9229705Y-8128650D02*
X9258277Y-8128650D01*
X9258277Y-8128650D02*
X9277325Y-8138174D01*
X9277325Y-8138174D02*
X9286848Y-8157222D01*
X9286848Y-8157222D02*
X9286848Y-8261984D01*
X9382086Y-8261984D02*
X9382086Y-8128650D01*
X9382086Y-8147698D02*
X9391610Y-8138174D01*
X9391610Y-8138174D02*
X9410658Y-8128650D01*
X9410658Y-8128650D02*
X9439229Y-8128650D01*
X9439229Y-8128650D02*
X9458277Y-8138174D01*
X9458277Y-8138174D02*
X9467801Y-8157222D01*
X9467801Y-8157222D02*
X9467801Y-8261984D01*
X9467801Y-8157222D02*
X9477325Y-8138174D01*
X9477325Y-8138174D02*
X9496372Y-8128650D01*
X9496372Y-8128650D02*
X9524944Y-8128650D01*
X9524944Y-8128650D02*
X9543991Y-8138174D01*
X9543991Y-8138174D02*
X9553515Y-8157222D01*
X9553515Y-8157222D02*
X9553515Y-8261984D01*
X9943991Y-8052460D02*
X9772563Y-8309603D01*
X10201134Y-8061984D02*
X10220182Y-8061984D01*
X10220182Y-8061984D02*
X10239229Y-8071508D01*
X10239229Y-8071508D02*
X10248753Y-8081031D01*
X10248753Y-8081031D02*
X10258277Y-8100079D01*
X10258277Y-8100079D02*
X10267801Y-8138174D01*
X10267801Y-8138174D02*
X10267801Y-8185793D01*
X10267801Y-8185793D02*
X10258277Y-8223888D01*
X10258277Y-8223888D02*
X10248753Y-8242936D01*
X10248753Y-8242936D02*
X10239229Y-8252460D01*
X10239229Y-8252460D02*
X10220182Y-8261984D01*
X10220182Y-8261984D02*
X10201134Y-8261984D01*
X10201134Y-8261984D02*
X10182087Y-8252460D01*
X10182087Y-8252460D02*
X10172563Y-8242936D01*
X10172563Y-8242936D02*
X10163039Y-8223888D01*
X10163039Y-8223888D02*
X10153515Y-8185793D01*
X10153515Y-8185793D02*
X10153515Y-8138174D01*
X10153515Y-8138174D02*
X10163039Y-8100079D01*
X10163039Y-8100079D02*
X10172563Y-8081031D01*
X10172563Y-8081031D02*
X10182087Y-8071508D01*
X10182087Y-8071508D02*
X10201134Y-8061984D01*
X10353515Y-8242936D02*
X10363039Y-8252460D01*
X10363039Y-8252460D02*
X10353515Y-8261984D01*
X10353515Y-8261984D02*
X10343991Y-8252460D01*
X10343991Y-8252460D02*
X10353515Y-8242936D01*
X10353515Y-8242936D02*
X10353515Y-8261984D01*
X10553515Y-8261984D02*
X10439229Y-8261984D01*
X10496372Y-8261984D02*
X10496372Y-8061984D01*
X10496372Y-8061984D02*
X10477325Y-8090555D01*
X10477325Y-8090555D02*
X10458277Y-8109603D01*
X10458277Y-8109603D02*
X10439229Y-8119127D01*
X10629706Y-8081031D02*
X10639229Y-8071508D01*
X10639229Y-8071508D02*
X10658277Y-8061984D01*
X10658277Y-8061984D02*
X10705896Y-8061984D01*
X10705896Y-8061984D02*
X10724944Y-8071508D01*
X10724944Y-8071508D02*
X10734468Y-8081031D01*
X10734468Y-8081031D02*
X10743991Y-8100079D01*
X10743991Y-8100079D02*
X10743991Y-8119127D01*
X10743991Y-8119127D02*
X10734468Y-8147698D01*
X10734468Y-8147698D02*
X10620182Y-8261984D01*
X10620182Y-8261984D02*
X10743991Y-8261984D01*
X10915420Y-8061984D02*
X10877325Y-8061984D01*
X10877325Y-8061984D02*
X10858277Y-8071508D01*
X10858277Y-8071508D02*
X10848753Y-8081031D01*
X10848753Y-8081031D02*
X10829706Y-8109603D01*
X10829706Y-8109603D02*
X10820182Y-8147698D01*
X10820182Y-8147698D02*
X10820182Y-8223888D01*
X10820182Y-8223888D02*
X10829706Y-8242936D01*
X10829706Y-8242936D02*
X10839229Y-8252460D01*
X10839229Y-8252460D02*
X10858277Y-8261984D01*
X10858277Y-8261984D02*
X10896372Y-8261984D01*
X10896372Y-8261984D02*
X10915420Y-8252460D01*
X10915420Y-8252460D02*
X10924944Y-8242936D01*
X10924944Y-8242936D02*
X10934468Y-8223888D01*
X10934468Y-8223888D02*
X10934468Y-8176269D01*
X10934468Y-8176269D02*
X10924944Y-8157222D01*
X10924944Y-8157222D02*
X10915420Y-8147698D01*
X10915420Y-8147698D02*
X10896372Y-8138174D01*
X10896372Y-8138174D02*
X10858277Y-8138174D01*
X10858277Y-8138174D02*
X10839229Y-8147698D01*
X10839229Y-8147698D02*
X10829706Y-8157222D01*
X10829706Y-8157222D02*
X10820182Y-8176269D01*
X11058277Y-8061984D02*
X11077325Y-8061984D01*
X11077325Y-8061984D02*
X11096372Y-8071508D01*
X11096372Y-8071508D02*
X11105896Y-8081031D01*
X11105896Y-8081031D02*
X11115420Y-8100079D01*
X11115420Y-8100079D02*
X11124944Y-8138174D01*
X11124944Y-8138174D02*
X11124944Y-8185793D01*
X11124944Y-8185793D02*
X11115420Y-8223888D01*
X11115420Y-8223888D02*
X11105896Y-8242936D01*
X11105896Y-8242936D02*
X11096372Y-8252460D01*
X11096372Y-8252460D02*
X11077325Y-8261984D01*
X11077325Y-8261984D02*
X11058277Y-8261984D01*
X11058277Y-8261984D02*
X11039229Y-8252460D01*
X11039229Y-8252460D02*
X11029706Y-8242936D01*
X11029706Y-8242936D02*
X11020182Y-8223888D01*
X11020182Y-8223888D02*
X11010658Y-8185793D01*
X11010658Y-8185793D02*
X11010658Y-8138174D01*
X11010658Y-8138174D02*
X11020182Y-8100079D01*
X11020182Y-8100079D02*
X11029706Y-8081031D01*
X11029706Y-8081031D02*
X11039229Y-8071508D01*
X11039229Y-8071508D02*
X11058277Y-8061984D01*
X11201134Y-8061984D02*
X11201134Y-8100079D01*
X11277325Y-8061984D02*
X11277325Y-8100079D01*
X11572563Y-8338174D02*
X11563039Y-8328650D01*
X11563039Y-8328650D02*
X11543991Y-8300079D01*
X11543991Y-8300079D02*
X11534468Y-8281031D01*
X11534468Y-8281031D02*
X11524944Y-8252460D01*
X11524944Y-8252460D02*
X11515420Y-8204841D01*
X11515420Y-8204841D02*
X11515420Y-8166746D01*
X11515420Y-8166746D02*
X11524944Y-8119127D01*
X11524944Y-8119127D02*
X11534468Y-8090555D01*
X11534468Y-8090555D02*
X11543991Y-8071508D01*
X11543991Y-8071508D02*
X11563039Y-8042936D01*
X11563039Y-8042936D02*
X11572563Y-8033412D01*
X11734468Y-8128650D02*
X11734468Y-8261984D01*
X11686848Y-8052460D02*
X11639229Y-8195317D01*
X11639229Y-8195317D02*
X11763039Y-8195317D01*
X11991610Y-8261984D02*
X11991610Y-8061984D01*
X12077325Y-8261984D02*
X12077325Y-8157222D01*
X12077325Y-8157222D02*
X12067801Y-8138174D01*
X12067801Y-8138174D02*
X12048753Y-8128650D01*
X12048753Y-8128650D02*
X12020182Y-8128650D01*
X12020182Y-8128650D02*
X12001134Y-8138174D01*
X12001134Y-8138174D02*
X11991610Y-8147698D01*
X12201134Y-8261984D02*
X12182087Y-8252460D01*
X12182087Y-8252460D02*
X12172563Y-8242936D01*
X12172563Y-8242936D02*
X12163039Y-8223888D01*
X12163039Y-8223888D02*
X12163039Y-8166746D01*
X12163039Y-8166746D02*
X12172563Y-8147698D01*
X12172563Y-8147698D02*
X12182087Y-8138174D01*
X12182087Y-8138174D02*
X12201134Y-8128650D01*
X12201134Y-8128650D02*
X12229706Y-8128650D01*
X12229706Y-8128650D02*
X12248753Y-8138174D01*
X12248753Y-8138174D02*
X12258277Y-8147698D01*
X12258277Y-8147698D02*
X12267801Y-8166746D01*
X12267801Y-8166746D02*
X12267801Y-8223888D01*
X12267801Y-8223888D02*
X12258277Y-8242936D01*
X12258277Y-8242936D02*
X12248753Y-8252460D01*
X12248753Y-8252460D02*
X12229706Y-8261984D01*
X12229706Y-8261984D02*
X12201134Y-8261984D01*
X12382087Y-8261984D02*
X12363039Y-8252460D01*
X12363039Y-8252460D02*
X12353515Y-8233412D01*
X12353515Y-8233412D02*
X12353515Y-8061984D01*
X12534468Y-8252460D02*
X12515420Y-8261984D01*
X12515420Y-8261984D02*
X12477325Y-8261984D01*
X12477325Y-8261984D02*
X12458277Y-8252460D01*
X12458277Y-8252460D02*
X12448753Y-8233412D01*
X12448753Y-8233412D02*
X12448753Y-8157222D01*
X12448753Y-8157222D02*
X12458277Y-8138174D01*
X12458277Y-8138174D02*
X12477325Y-8128650D01*
X12477325Y-8128650D02*
X12515420Y-8128650D01*
X12515420Y-8128650D02*
X12534468Y-8138174D01*
X12534468Y-8138174D02*
X12543991Y-8157222D01*
X12543991Y-8157222D02*
X12543991Y-8176269D01*
X12543991Y-8176269D02*
X12448753Y-8195317D01*
X12620182Y-8252460D02*
X12639230Y-8261984D01*
X12639230Y-8261984D02*
X12677325Y-8261984D01*
X12677325Y-8261984D02*
X12696372Y-8252460D01*
X12696372Y-8252460D02*
X12705896Y-8233412D01*
X12705896Y-8233412D02*
X12705896Y-8223888D01*
X12705896Y-8223888D02*
X12696372Y-8204841D01*
X12696372Y-8204841D02*
X12677325Y-8195317D01*
X12677325Y-8195317D02*
X12648753Y-8195317D01*
X12648753Y-8195317D02*
X12629706Y-8185793D01*
X12629706Y-8185793D02*
X12620182Y-8166746D01*
X12620182Y-8166746D02*
X12620182Y-8157222D01*
X12620182Y-8157222D02*
X12629706Y-8138174D01*
X12629706Y-8138174D02*
X12648753Y-8128650D01*
X12648753Y-8128650D02*
X12677325Y-8128650D01*
X12677325Y-8128650D02*
X12696372Y-8138174D01*
X12772563Y-8338174D02*
X12782087Y-8328650D01*
X12782087Y-8328650D02*
X12801134Y-8300079D01*
X12801134Y-8300079D02*
X12810658Y-8281031D01*
X12810658Y-8281031D02*
X12820182Y-8252460D01*
X12820182Y-8252460D02*
X12829706Y-8204841D01*
X12829706Y-8204841D02*
X12829706Y-8166746D01*
X12829706Y-8166746D02*
X12820182Y-8119127D01*
X12820182Y-8119127D02*
X12810658Y-8090555D01*
X12810658Y-8090555D02*
X12801134Y-8071508D01*
X12801134Y-8071508D02*
X12782087Y-8042936D01*
X12782087Y-8042936D02*
X12772563Y-8033412D01*
X13134468Y-8338174D02*
X13124944Y-8328650D01*
X13124944Y-8328650D02*
X13105896Y-8300079D01*
X13105896Y-8300079D02*
X13096372Y-8281031D01*
X13096372Y-8281031D02*
X13086849Y-8252460D01*
X13086849Y-8252460D02*
X13077325Y-8204841D01*
X13077325Y-8204841D02*
X13077325Y-8166746D01*
X13077325Y-8166746D02*
X13086849Y-8119127D01*
X13086849Y-8119127D02*
X13096372Y-8090555D01*
X13096372Y-8090555D02*
X13105896Y-8071508D01*
X13105896Y-8071508D02*
X13124944Y-8042936D01*
X13124944Y-8042936D02*
X13134468Y-8033412D01*
X13210658Y-8128650D02*
X13210658Y-8261984D01*
X13210658Y-8147698D02*
X13220182Y-8138174D01*
X13220182Y-8138174D02*
X13239230Y-8128650D01*
X13239230Y-8128650D02*
X13267801Y-8128650D01*
X13267801Y-8128650D02*
X13286849Y-8138174D01*
X13286849Y-8138174D02*
X13296372Y-8157222D01*
X13296372Y-8157222D02*
X13296372Y-8261984D01*
X13420182Y-8261984D02*
X13401134Y-8252460D01*
X13401134Y-8252460D02*
X13391611Y-8242936D01*
X13391611Y-8242936D02*
X13382087Y-8223888D01*
X13382087Y-8223888D02*
X13382087Y-8166746D01*
X13382087Y-8166746D02*
X13391611Y-8147698D01*
X13391611Y-8147698D02*
X13401134Y-8138174D01*
X13401134Y-8138174D02*
X13420182Y-8128650D01*
X13420182Y-8128650D02*
X13448753Y-8128650D01*
X13448753Y-8128650D02*
X13467801Y-8138174D01*
X13467801Y-8138174D02*
X13477325Y-8147698D01*
X13477325Y-8147698D02*
X13486849Y-8166746D01*
X13486849Y-8166746D02*
X13486849Y-8223888D01*
X13486849Y-8223888D02*
X13477325Y-8242936D01*
X13477325Y-8242936D02*
X13467801Y-8252460D01*
X13467801Y-8252460D02*
X13448753Y-8261984D01*
X13448753Y-8261984D02*
X13420182Y-8261984D01*
X13543992Y-8128650D02*
X13620182Y-8128650D01*
X13572563Y-8061984D02*
X13572563Y-8233412D01*
X13572563Y-8233412D02*
X13582087Y-8252460D01*
X13582087Y-8252460D02*
X13601134Y-8261984D01*
X13601134Y-8261984D02*
X13620182Y-8261984D01*
X13839230Y-8128650D02*
X13839230Y-8328650D01*
X13839230Y-8138174D02*
X13858277Y-8128650D01*
X13858277Y-8128650D02*
X13896373Y-8128650D01*
X13896373Y-8128650D02*
X13915420Y-8138174D01*
X13915420Y-8138174D02*
X13924944Y-8147698D01*
X13924944Y-8147698D02*
X13934468Y-8166746D01*
X13934468Y-8166746D02*
X13934468Y-8223888D01*
X13934468Y-8223888D02*
X13924944Y-8242936D01*
X13924944Y-8242936D02*
X13915420Y-8252460D01*
X13915420Y-8252460D02*
X13896373Y-8261984D01*
X13896373Y-8261984D02*
X13858277Y-8261984D01*
X13858277Y-8261984D02*
X13839230Y-8252460D01*
X14048753Y-8261984D02*
X14029706Y-8252460D01*
X14029706Y-8252460D02*
X14020182Y-8233412D01*
X14020182Y-8233412D02*
X14020182Y-8061984D01*
X14210658Y-8261984D02*
X14210658Y-8157222D01*
X14210658Y-8157222D02*
X14201134Y-8138174D01*
X14201134Y-8138174D02*
X14182087Y-8128650D01*
X14182087Y-8128650D02*
X14143992Y-8128650D01*
X14143992Y-8128650D02*
X14124944Y-8138174D01*
X14210658Y-8252460D02*
X14191611Y-8261984D01*
X14191611Y-8261984D02*
X14143992Y-8261984D01*
X14143992Y-8261984D02*
X14124944Y-8252460D01*
X14124944Y-8252460D02*
X14115420Y-8233412D01*
X14115420Y-8233412D02*
X14115420Y-8214365D01*
X14115420Y-8214365D02*
X14124944Y-8195317D01*
X14124944Y-8195317D02*
X14143992Y-8185793D01*
X14143992Y-8185793D02*
X14191611Y-8185793D01*
X14191611Y-8185793D02*
X14210658Y-8176269D01*
X14277325Y-8128650D02*
X14353515Y-8128650D01*
X14305896Y-8061984D02*
X14305896Y-8233412D01*
X14305896Y-8233412D02*
X14315420Y-8252460D01*
X14315420Y-8252460D02*
X14334468Y-8261984D01*
X14334468Y-8261984D02*
X14353515Y-8261984D01*
X14496373Y-8252460D02*
X14477325Y-8261984D01*
X14477325Y-8261984D02*
X14439230Y-8261984D01*
X14439230Y-8261984D02*
X14420182Y-8252460D01*
X14420182Y-8252460D02*
X14410658Y-8233412D01*
X14410658Y-8233412D02*
X14410658Y-8157222D01*
X14410658Y-8157222D02*
X14420182Y-8138174D01*
X14420182Y-8138174D02*
X14439230Y-8128650D01*
X14439230Y-8128650D02*
X14477325Y-8128650D01*
X14477325Y-8128650D02*
X14496373Y-8138174D01*
X14496373Y-8138174D02*
X14505896Y-8157222D01*
X14505896Y-8157222D02*
X14505896Y-8176269D01*
X14505896Y-8176269D02*
X14410658Y-8195317D01*
X14677325Y-8261984D02*
X14677325Y-8061984D01*
X14677325Y-8252460D02*
X14658277Y-8261984D01*
X14658277Y-8261984D02*
X14620182Y-8261984D01*
X14620182Y-8261984D02*
X14601134Y-8252460D01*
X14601134Y-8252460D02*
X14591611Y-8242936D01*
X14591611Y-8242936D02*
X14582087Y-8223888D01*
X14582087Y-8223888D02*
X14582087Y-8166746D01*
X14582087Y-8166746D02*
X14591611Y-8147698D01*
X14591611Y-8147698D02*
X14601134Y-8138174D01*
X14601134Y-8138174D02*
X14620182Y-8128650D01*
X14620182Y-8128650D02*
X14658277Y-8128650D01*
X14658277Y-8128650D02*
X14677325Y-8138174D01*
X14753515Y-8338174D02*
X14763039Y-8328650D01*
X14763039Y-8328650D02*
X14782087Y-8300079D01*
X14782087Y-8300079D02*
X14791611Y-8281031D01*
X14791611Y-8281031D02*
X14801134Y-8252460D01*
X14801134Y-8252460D02*
X14810658Y-8204841D01*
X14810658Y-8204841D02*
X14810658Y-8166746D01*
X14810658Y-8166746D02*
X14801134Y-8119127D01*
X14801134Y-8119127D02*
X14791611Y-8090555D01*
X14791611Y-8090555D02*
X14782087Y-8071508D01*
X14782087Y-8071508D02*
X14763039Y-8042936D01*
X14763039Y-8042936D02*
X14753515Y-8033412D01*
M02*
