G04 #@! TF.GenerationSoftware,KiCad,Pcbnew,8.0.7*
G04 #@! TF.CreationDate,2024-12-11T19:40:25+05:30*
G04 #@! TF.ProjectId,SNSRTG401V30,534e5352-5447-4343-9031-5633302e6b69,3.0*
G04 #@! TF.SameCoordinates,Original*
G04 #@! TF.FileFunction,Soldermask,Top*
G04 #@! TF.FilePolarity,Negative*
%FSLAX46Y46*%
G04 Gerber Fmt 4.6, Leading zero omitted, Abs format (unit mm)*
G04 Created by KiCad (PCBNEW 8.0.7) date 2024-12-11 19:40:25*
%MOMM*%
%LPD*%
G01*
G04 APERTURE LIST*
G04 Aperture macros list*
%AMRoundRect*
0 Rectangle with rounded corners*
0 $1 Rounding radius*
0 $2 $3 $4 $5 $6 $7 $8 $9 X,Y pos of 4 corners*
0 Add a 4 corners polygon primitive as box body*
4,1,4,$2,$3,$4,$5,$6,$7,$8,$9,$2,$3,0*
0 Add four circle primitives for the rounded corners*
1,1,$1+$1,$2,$3*
1,1,$1+$1,$4,$5*
1,1,$1+$1,$6,$7*
1,1,$1+$1,$8,$9*
0 Add four rect primitives between the rounded corners*
20,1,$1+$1,$2,$3,$4,$5,0*
20,1,$1+$1,$4,$5,$6,$7,0*
20,1,$1+$1,$6,$7,$8,$9,0*
20,1,$1+$1,$8,$9,$2,$3,0*%
%AMRotRect*
0 Rectangle, with rotation*
0 The origin of the aperture is its center*
0 $1 length*
0 $2 width*
0 $3 Rotation angle, in degrees counterclockwise*
0 Add horizontal line*
21,1,$1,$2,0,0,$3*%
%AMFreePoly0*
4,1,59,0.202894,0.210017,0.397992,0.150835,0.577793,0.054728,0.735390,-0.074609,0.864728,-0.232207,0.960835,-0.412008,1.020017,-0.607106,1.040001,-0.810000,1.020017,-1.012894,0.960835,-1.207992,0.864728,-1.387793,0.735391,-1.545390,0.577793,-1.674728,0.397992,-1.770835,0.202894,-1.830017,0.000000,-1.850001,-0.202894,-1.830017,-0.397992,-1.770835,-0.577793,-1.674728,-0.735391,-1.545390,
-0.864728,-1.387793,-0.960835,-1.207992,-1.020017,-1.012894,-1.040001,-0.810000,-0.585005,-0.809999,-0.565071,-0.961410,-0.506629,-1.102503,-0.413661,-1.223660,-0.292503,-1.316629,-0.151410,-1.375071,0.000000,-1.395004,0.151410,-1.375071,0.292503,-1.316629,0.413661,-1.223660,0.506629,-1.102503,0.565071,-0.961410,0.585005,-0.809999,0.565071,-0.658590,0.506629,-0.517498,0.413661,-0.396338,
0.292503,-0.303371,0.151410,-0.244929,0.000000,-0.224994,-0.151410,-0.244929,-0.292502,-0.303371,-0.413661,-0.396338,-0.506629,-0.517498,-0.565071,-0.658590,-0.585005,-0.809999,-1.040001,-0.810000,-1.020017,-0.607106,-0.960835,-0.412008,-0.864728,-0.232207,-0.735390,-0.074609,-0.577793,0.054728,-0.397992,0.150835,-0.202894,0.210017,0.000000,0.230001,0.202894,0.210017,0.202894,0.210017,
$1*%
G04 Aperture macros list end*
%ADD10RoundRect,0.237500X0.250000X0.237500X-0.250000X0.237500X-0.250000X-0.237500X0.250000X-0.237500X0*%
%ADD11R,0.850000X0.850000*%
%ADD12O,0.850000X0.850000*%
%ADD13C,3.200000*%
%ADD14RoundRect,0.237500X0.300000X0.237500X-0.300000X0.237500X-0.300000X-0.237500X0.300000X-0.237500X0*%
%ADD15RoundRect,0.237500X0.237500X-0.300000X0.237500X0.300000X-0.237500X0.300000X-0.237500X-0.300000X0*%
%ADD16RoundRect,0.237500X0.237500X-0.250000X0.237500X0.250000X-0.237500X0.250000X-0.237500X-0.250000X0*%
%ADD17RoundRect,0.237500X-0.287500X-0.237500X0.287500X-0.237500X0.287500X0.237500X-0.287500X0.237500X0*%
%ADD18RoundRect,0.237500X-0.237500X0.250000X-0.237500X-0.250000X0.237500X-0.250000X0.237500X0.250000X0*%
%ADD19R,1.000000X1.000000*%
%ADD20O,1.000000X1.000000*%
%ADD21RoundRect,0.250000X-0.450000X-0.425000X0.450000X-0.425000X0.450000X0.425000X-0.450000X0.425000X0*%
%ADD22RoundRect,0.237500X-0.300000X-0.237500X0.300000X-0.237500X0.300000X0.237500X-0.300000X0.237500X0*%
%ADD23RoundRect,0.250000X0.425000X-0.450000X0.425000X0.450000X-0.425000X0.450000X-0.425000X-0.450000X0*%
%ADD24R,0.650000X0.850000*%
%ADD25R,1.145000X0.550000*%
%ADD26R,0.550000X1.145000*%
%ADD27RoundRect,0.150000X-0.512500X-0.150000X0.512500X-0.150000X0.512500X0.150000X-0.512500X0.150000X0*%
%ADD28RoundRect,0.237500X-0.237500X0.300000X-0.237500X-0.300000X0.237500X-0.300000X0.237500X0.300000X0*%
%ADD29RoundRect,0.100000X-0.712500X-0.100000X0.712500X-0.100000X0.712500X0.100000X-0.712500X0.100000X0*%
%ADD30RoundRect,0.125000X-0.200000X-0.125000X0.200000X-0.125000X0.200000X0.125000X-0.200000X0.125000X0*%
%ADD31R,3.400000X4.300000*%
%ADD32RoundRect,0.062500X-0.375000X-0.062500X0.375000X-0.062500X0.375000X0.062500X-0.375000X0.062500X0*%
%ADD33RoundRect,0.062500X-0.062500X-0.375000X0.062500X-0.375000X0.062500X0.375000X-0.062500X0.375000X0*%
%ADD34R,5.600000X5.600000*%
%ADD35RoundRect,0.250000X0.450000X0.425000X-0.450000X0.425000X-0.450000X-0.425000X0.450000X-0.425000X0*%
%ADD36RoundRect,0.237500X0.237500X-0.287500X0.237500X0.287500X-0.237500X0.287500X-0.237500X-0.287500X0*%
%ADD37R,0.550000X0.950000*%
%ADD38C,0.800000*%
%ADD39RotRect,0.450000X0.700000X225.000000*%
%ADD40FreePoly0,225.000000*%
%ADD41RoundRect,0.137500X-0.137500X0.587500X-0.137500X-0.587500X0.137500X-0.587500X0.137500X0.587500X0*%
%ADD42RoundRect,0.237500X-0.237500X0.287500X-0.237500X-0.287500X0.237500X-0.287500X0.237500X0.287500X0*%
%ADD43RoundRect,0.250000X-0.475000X0.337500X-0.475000X-0.337500X0.475000X-0.337500X0.475000X0.337500X0*%
%ADD44RoundRect,0.250000X-0.412500X-0.650000X0.412500X-0.650000X0.412500X0.650000X-0.412500X0.650000X0*%
%ADD45R,0.350000X0.500000*%
%ADD46RoundRect,0.050000X-0.225000X-0.050000X0.225000X-0.050000X0.225000X0.050000X-0.225000X0.050000X0*%
%ADD47RoundRect,0.050000X0.050000X-0.225000X0.050000X0.225000X-0.050000X0.225000X-0.050000X-0.225000X0*%
%ADD48R,1.700000X1.540000*%
%ADD49RoundRect,0.237500X-0.250000X-0.237500X0.250000X-0.237500X0.250000X0.237500X-0.250000X0.237500X0*%
%ADD50C,0.650000*%
%ADD51RoundRect,0.150000X0.425000X-0.150000X0.425000X0.150000X-0.425000X0.150000X-0.425000X-0.150000X0*%
%ADD52RoundRect,0.075000X0.500000X-0.075000X0.500000X0.075000X-0.500000X0.075000X-0.500000X-0.075000X0*%
%ADD53O,2.100000X1.000000*%
%ADD54O,1.800000X1.000000*%
%ADD55C,0.600000*%
G04 APERTURE END LIST*
D10*
X113259700Y-54740000D03*
X111434700Y-54740000D03*
X88138000Y-57277000D03*
X86313000Y-57277000D03*
D11*
X114650000Y-67960000D03*
D12*
X114650000Y-66960000D03*
X114650000Y-65960000D03*
X114650000Y-64960000D03*
D13*
X83500000Y-66500000D03*
D14*
X93562500Y-53380000D03*
X91837500Y-53380000D03*
D15*
X100965000Y-39370000D03*
X100965000Y-37645000D03*
D13*
X120500000Y-29500000D03*
D16*
X97536000Y-39420800D03*
X97536000Y-37595800D03*
D17*
X120025000Y-55850000D03*
X121775000Y-55850000D03*
D15*
X107893800Y-59894500D03*
X107893800Y-58169500D03*
D18*
X99269900Y-37595800D03*
X99269900Y-39420800D03*
D19*
X88620600Y-53721000D03*
D20*
X87350600Y-53721000D03*
X86080600Y-53721000D03*
X84810600Y-53721000D03*
D21*
X91787500Y-34569400D03*
X94487500Y-34569400D03*
D16*
X106950000Y-49445000D03*
X106950000Y-47620000D03*
D11*
X96102800Y-63779400D03*
D12*
X97102800Y-63779400D03*
X98102800Y-63779400D03*
X99102800Y-63779400D03*
X100102800Y-63779400D03*
X101102800Y-63779400D03*
D22*
X112969300Y-62128400D03*
X114694300Y-62128400D03*
D19*
X88392000Y-44069000D03*
D20*
X88392000Y-45339000D03*
X88392000Y-46609000D03*
X88392000Y-47879000D03*
D22*
X91761500Y-41706800D03*
X93486500Y-41706800D03*
D23*
X104521000Y-39246800D03*
X104521000Y-36546800D03*
D24*
X91949000Y-45072600D03*
X93599000Y-45072600D03*
X93599000Y-43522600D03*
X91949000Y-43522600D03*
D25*
X91634000Y-28118000D03*
X91634000Y-28918000D03*
X91634000Y-29718000D03*
X91634000Y-30518000D03*
X91634000Y-31318000D03*
X91634000Y-32118000D03*
D26*
X92934000Y-32418000D03*
D25*
X94234000Y-32118000D03*
X94234000Y-31318000D03*
X94234000Y-30518000D03*
X94234000Y-29718000D03*
X94234000Y-28918000D03*
X94234000Y-28118000D03*
D26*
X92934000Y-27818000D03*
D27*
X106235000Y-52230000D03*
X106235000Y-53180000D03*
X106235000Y-54130000D03*
X108510000Y-54130000D03*
X108510000Y-53180000D03*
X108510000Y-52230000D03*
D16*
X90220800Y-39495100D03*
X90220800Y-37670100D03*
D28*
X89281000Y-32436900D03*
X89281000Y-34161900D03*
X121900000Y-40875000D03*
X121900000Y-42600000D03*
D15*
X93675200Y-39445100D03*
X93675200Y-37720100D03*
D24*
X91949000Y-51041600D03*
X93599000Y-51041600D03*
X93599000Y-49491600D03*
X91949000Y-49491600D03*
D29*
X117475000Y-34800000D03*
X117475000Y-35450000D03*
X117475000Y-36100000D03*
X117475000Y-36750000D03*
X121700000Y-36750000D03*
X121700000Y-36100000D03*
X121700000Y-35450000D03*
X121700000Y-34800000D03*
D14*
X91740000Y-68470000D03*
X90015000Y-68470000D03*
D27*
X117305000Y-40760000D03*
X117305000Y-41710000D03*
X117305000Y-42660000D03*
X119580000Y-42660000D03*
X119580000Y-40760000D03*
D30*
X98104000Y-56769000D03*
X98104000Y-58039000D03*
X98104000Y-59309000D03*
X98104000Y-60579000D03*
X105604000Y-60579000D03*
X105604000Y-59309000D03*
X105604000Y-58039000D03*
X105604000Y-56769000D03*
D31*
X101854000Y-58674000D03*
D16*
X98298000Y-34798000D03*
X98298000Y-32973000D03*
D19*
X96748600Y-67200000D03*
D20*
X98018600Y-67200000D03*
X99288600Y-67200000D03*
X100558600Y-67200000D03*
X101828600Y-67200000D03*
X103098600Y-67200000D03*
D32*
X96692500Y-43420000D03*
X96692500Y-43920000D03*
X96692500Y-44420000D03*
X96692500Y-44920000D03*
X96692500Y-45420000D03*
X96692500Y-45920000D03*
X96692500Y-46420000D03*
X96692500Y-46920000D03*
X96692500Y-47420000D03*
X96692500Y-47920000D03*
X96692500Y-48420000D03*
X96692500Y-48920000D03*
D33*
X97380000Y-49607500D03*
X97880000Y-49607500D03*
X98380000Y-49607500D03*
X98880000Y-49607500D03*
X99380000Y-49607500D03*
X99880000Y-49607500D03*
X100380000Y-49607500D03*
X100880000Y-49607500D03*
X101380000Y-49607500D03*
X101880000Y-49607500D03*
X102380000Y-49607500D03*
X102880000Y-49607500D03*
D32*
X103567500Y-48920000D03*
X103567500Y-48420000D03*
X103567500Y-47920000D03*
X103567500Y-47420000D03*
X103567500Y-46920000D03*
X103567500Y-46420000D03*
X103567500Y-45920000D03*
X103567500Y-45420000D03*
X103567500Y-44920000D03*
X103567500Y-44420000D03*
X103567500Y-43920000D03*
X103567500Y-43420000D03*
D33*
X102880000Y-42732500D03*
X102380000Y-42732500D03*
X101880000Y-42732500D03*
X101380000Y-42732500D03*
X100880000Y-42732500D03*
X100380000Y-42732500D03*
X99880000Y-42732500D03*
X99380000Y-42732500D03*
X98880000Y-42732500D03*
X98380000Y-42732500D03*
X97880000Y-42732500D03*
X97380000Y-42732500D03*
D34*
X100130000Y-46170000D03*
D22*
X116145000Y-38690000D03*
X117870000Y-38690000D03*
D35*
X113820000Y-48242800D03*
X111120000Y-48242800D03*
D36*
X96060000Y-56880000D03*
X96060000Y-55130000D03*
D28*
X108706200Y-47670000D03*
X108706200Y-49395000D03*
D19*
X107061000Y-67200000D03*
D20*
X108331000Y-67200000D03*
X109601000Y-67200000D03*
X110871000Y-67200000D03*
D22*
X120100000Y-38700000D03*
X121825000Y-38700000D03*
D37*
X89335000Y-66615000D03*
X90585000Y-66615000D03*
X91835000Y-66615000D03*
X93085000Y-66615000D03*
X93085000Y-64465000D03*
X91835000Y-64465000D03*
X90585000Y-64465000D03*
X89335000Y-64465000D03*
D23*
X107061000Y-39246800D03*
X107061000Y-36546800D03*
D13*
X120500000Y-66500000D03*
D38*
X91347467Y-59090433D03*
D39*
X93490001Y-58149981D03*
X92995026Y-58644955D03*
X92287919Y-56947899D03*
X91792945Y-57442874D03*
D40*
X91920224Y-59663189D03*
D15*
X91948000Y-39445100D03*
X91948000Y-37720100D03*
D22*
X85545000Y-61140000D03*
X87270000Y-61140000D03*
D14*
X89025900Y-50495200D03*
X87300900Y-50495200D03*
D19*
X110240000Y-42418000D03*
D20*
X111510000Y-42418000D03*
X112780000Y-42418000D03*
X114050000Y-42418000D03*
D16*
X81711800Y-37209100D03*
X81711800Y-35384100D03*
D23*
X109601000Y-39246800D03*
X109601000Y-36546800D03*
D16*
X117250000Y-57750000D03*
X117250000Y-55925000D03*
D41*
X86868000Y-35394000D03*
X84328000Y-35394000D03*
X84328000Y-40894000D03*
X86868000Y-40894000D03*
D42*
X100507800Y-28450600D03*
X100507800Y-30200600D03*
D14*
X93486500Y-47193200D03*
X91761500Y-47193200D03*
D43*
X113614200Y-37011700D03*
X113614200Y-39086700D03*
D16*
X100533200Y-34798000D03*
X100533200Y-32973000D03*
D27*
X111275000Y-50840000D03*
X111275000Y-51790000D03*
X111275000Y-52740000D03*
X113550000Y-52740000D03*
X113550000Y-50840000D03*
D15*
X113436400Y-30224900D03*
X113436400Y-28499900D03*
D44*
X100235000Y-53760000D03*
X103360000Y-53760000D03*
D17*
X120025000Y-57705000D03*
X121775000Y-57705000D03*
D35*
X113820000Y-45920000D03*
X111120000Y-45920000D03*
D45*
X81700000Y-59350000D03*
X82350000Y-59350000D03*
X83000000Y-59350000D03*
X83650000Y-59350000D03*
X83650000Y-61400000D03*
X83000000Y-61400000D03*
X82350000Y-61400000D03*
X81700000Y-61400000D03*
D10*
X109903900Y-64465200D03*
X108078900Y-64465200D03*
D13*
X83500000Y-29500000D03*
D16*
X81711800Y-41044500D03*
X81711800Y-39219500D03*
D42*
X98272600Y-28450600D03*
X98272600Y-30200600D03*
D16*
X81711800Y-54481100D03*
X81711800Y-52656100D03*
D46*
X109797400Y-57676400D03*
X109797400Y-58076400D03*
X109797400Y-58476400D03*
X109797400Y-58876400D03*
X109797400Y-59276400D03*
X109797400Y-59676400D03*
D47*
X110297400Y-60176400D03*
X110697400Y-60176400D03*
X111097400Y-60176400D03*
X111497400Y-60176400D03*
X111897400Y-60176400D03*
X112297400Y-60176400D03*
D46*
X112797400Y-59676400D03*
X112797400Y-59276400D03*
X112797400Y-58876400D03*
X112797400Y-58476400D03*
X112797400Y-58076400D03*
X112797400Y-57676400D03*
D47*
X112297400Y-57176400D03*
X111897400Y-57176400D03*
X111497400Y-57176400D03*
X111097400Y-57176400D03*
X110697400Y-57176400D03*
X110297400Y-57176400D03*
D48*
X111297400Y-58676400D03*
D22*
X109216800Y-62128400D03*
X110941800Y-62128400D03*
D28*
X107370000Y-41785000D03*
X107370000Y-43510000D03*
D22*
X82095000Y-57277000D03*
X83820000Y-57277000D03*
D49*
X103632000Y-63525400D03*
X105457000Y-63525400D03*
D15*
X89281000Y-30583700D03*
X89281000Y-28858700D03*
D50*
X118620000Y-52210000D03*
X118620000Y-46430000D03*
D51*
X117545000Y-52520000D03*
X117545000Y-51720000D03*
D52*
X117545000Y-50570000D03*
X117545000Y-49570000D03*
X117545000Y-49070000D03*
X117545000Y-48070000D03*
D51*
X117545000Y-46920000D03*
X117545000Y-46120000D03*
X117545000Y-46120000D03*
X117545000Y-46920000D03*
D52*
X117545000Y-47570000D03*
X117545000Y-48570000D03*
X117545000Y-50070000D03*
X117545000Y-51070000D03*
D51*
X117545000Y-51720000D03*
X117545000Y-52520000D03*
D53*
X118120000Y-53640000D03*
D54*
X122300000Y-53640000D03*
D53*
X118120000Y-45000000D03*
D54*
X122300000Y-45000000D03*
D15*
X96060000Y-61035100D03*
X96060000Y-59310100D03*
D19*
X119456200Y-60550000D03*
D20*
X120726200Y-60550000D03*
D43*
X113614200Y-32363500D03*
X113614200Y-34438500D03*
D41*
X84582000Y-44113000D03*
X82042000Y-44113000D03*
X82042000Y-49613000D03*
X84582000Y-49613000D03*
D14*
X92920001Y-62470000D03*
X91194999Y-62470000D03*
D28*
X114751800Y-57812600D03*
X114751800Y-59537600D03*
D55*
X115036100Y-49921100D03*
X105487300Y-46388600D03*
X95773800Y-46438600D03*
X110490800Y-47064400D03*
X95802400Y-45047400D03*
X97500700Y-27678700D03*
X90591900Y-28918000D03*
X115979500Y-49861600D03*
X118583900Y-48657900D03*
X119933200Y-39947600D03*
X114617500Y-28499900D03*
X120341700Y-45800700D03*
X119666900Y-36234600D03*
X118615000Y-47812900D03*
X98840700Y-51352600D03*
X84055300Y-52930200D03*
X98347600Y-53298700D03*
X105477600Y-54940000D03*
X84325400Y-42073400D03*
X115110800Y-51070000D03*
X100577000Y-41841800D03*
X90064000Y-62909100D03*
X89242200Y-59335900D03*
X108331000Y-56631000D03*
X101900000Y-40775800D03*
X107392800Y-51968000D03*
X109443700Y-56850500D03*
X95537200Y-49990700D03*
X94994000Y-50816900D03*
X93160400Y-31392400D03*
X103252900Y-41378500D03*
X96376900Y-37833200D03*
X102806600Y-61709100D03*
X97523100Y-50643500D03*
X95717800Y-30062500D03*
X93153800Y-28860900D03*
X113263500Y-60205400D03*
X109632100Y-48807400D03*
X105410700Y-47586400D03*
X101030000Y-55770000D03*
X104518700Y-45334900D03*
X89095800Y-57299800D03*
X104523000Y-48278900D03*
X100995900Y-50679700D03*
X95221100Y-55793800D03*
X92448500Y-55951500D03*
X103531200Y-49496900D03*
X109480500Y-44420000D03*
X115356400Y-48683900D03*
X105024900Y-42732500D03*
X116506300Y-48870800D03*
X110840400Y-40486200D03*
X96626000Y-36784500D03*
X95785200Y-48464800D03*
X102808800Y-40177100D03*
X95107300Y-48862900D03*
X96949300Y-35919900D03*
X98350600Y-40218700D03*
X97521300Y-41512400D03*
X112003000Y-53496300D03*
X115253800Y-46354800D03*
X106146500Y-40222900D03*
M02*
